%
M48
M72
T01C0.0138
T02C0.0320
T03C0.0360
T04C0.0394
T05C0.0400
%
T01
X7449Y4629
X8630Y4629
X9811Y4629
X9811Y5810
X8630Y5810
X9811Y6991
X9811Y8172
X9811Y9353
X9811Y10534
X9811Y11715
X9811Y12897
X10992Y12897
X12173Y12897
X13354Y12897
X14535Y12897
X15717Y12897
X16898Y12897
X18079Y12897
X19260Y12897
X19260Y10534
X20441Y10534
X21622Y10534
X21622Y9353
X20441Y9353
X19260Y9353
X19260Y8172
X20441Y8172
X21622Y8172
X21622Y6991
X22803Y6991
X23984Y6991
X25165Y6991
X26346Y6991
X27528Y6991
X28709Y6991
X29890Y6991
X31071Y6991
X32252Y6991
X32252Y8172
X31071Y8172
X31071Y9353
X32252Y9353
X32252Y10534
X31071Y10534
X33433Y15259
X33433Y16440
X33433Y17621
X33433Y18802
X31071Y17621
X29890Y17621
X28709Y17621
X27528Y17621
X26346Y17621
X25165Y17621
X23984Y17621
X22803Y17621
X21622Y17621
X21622Y18802
X21622Y16440
X21622Y15259
X9811Y15259
X9811Y14078
X9811Y16440
X19260Y6991
X20441Y5810
X21622Y5810
X22803Y5810
X23984Y5810
X25165Y5810
X26346Y5810
X27528Y5810
X28709Y5810
X29890Y5810
X31071Y5810
X31071Y4629
X31071Y3448
X18079Y3448
X16898Y3448
X15717Y3448
X14535Y3448
X13354Y3448
X12173Y3448
X12173Y4629
X13354Y4629
X14535Y4629
X15717Y4629
X16898Y4629
T02
X26652Y4567
X27817Y3978
X26652Y3567
X29817Y3978
X32497Y3890
X32497Y4890
X30201Y11160
X29201Y11160
X28201Y11160
X27201Y11160
X26201Y11160
X25201Y11160
X24201Y11160
X23201Y11160
X20520Y11542
X17839Y11200
X16839Y11200
X15839Y11200
X14839Y11200
X13839Y11200
X12839Y11200
X11839Y11200
X10839Y11200
X10839Y14200
X11839Y14200
X12839Y14200
X13839Y14200
X14839Y14200
X15839Y14200
X16839Y14200
X17839Y14200
X20520Y13542
X23201Y14160
X24201Y14160
X25201Y14160
X26201Y14160
X27201Y14160
X28201Y14160
X29201Y14160
X30201Y14160
X30224Y15924
X29224Y15924
X28224Y15924
X27224Y15924
X26224Y15924
X25224Y15924
X24224Y15924
X23224Y15924
X19862Y15963
X18862Y15963
X17862Y15963
X16862Y15963
X15862Y15963
X14862Y15963
X13862Y15963
X12862Y15963
X11862Y15963
X10862Y15963
X8850Y17341
X7369Y18014
X7369Y19014
X8850Y19341
X10862Y18963
X11862Y18963
X12862Y18963
X13862Y18963
X14862Y18963
X15862Y18963
X16862Y18963
X17862Y18963
X18862Y18963
X19862Y18963
X23224Y18924
X24224Y18924
X25224Y18924
X26224Y18924
X27224Y18924
X28224Y18924
X29224Y18924
X30224Y18924
X31224Y18924
X32224Y18924
X32224Y15924
X31224Y15924
X32472Y13623
X32472Y11623
T03
X30201Y8979
X29201Y8979
X28201Y8979
X27201Y8979
X26201Y8979
X25201Y8979
X24201Y8979
X23201Y8979
X23201Y7979
X24201Y7979
X25201Y7979
X26201Y7979
X27201Y7979
X28201Y7979
X29201Y7979
X30201Y7979
X17878Y7987
X16878Y7987
X15878Y7987
X14878Y7987
X13878Y7987
X12878Y7987
X11878Y7987
X10878Y7987
X10878Y8987
X11878Y8987
X12878Y8987
X13878Y8987
X14878Y8987
X15878Y8987
X16878Y8987
X17878Y8987
T04
X18000Y2536
X17000Y2536
X16000Y2536
X15000Y2536
X14000Y2536
X13000Y2536
X12000Y2536
X11000Y2536
X10000Y2536
X9000Y2536
X8000Y2536
X8000Y1536
X9000Y1536
X10000Y1536
X11000Y1536
X12000Y1536
X13000Y1536
X14000Y1536
X15000Y1536
X16000Y1536
X17000Y1536
X18000Y1536
X19000Y1536
X20000Y1536
X21000Y1536
X22000Y1536
X23000Y1536
X24000Y1536
X25000Y1536
X26000Y1536
X27000Y1536
X28000Y1536
X29000Y1536
X30000Y1536
X30000Y2536
X29000Y2536
X28000Y2536
X27000Y2536
X26000Y2536
X25000Y2536
X24000Y2536
X23000Y2536
X22000Y2536
X21000Y2536
X20000Y2536
X19000Y2536
X19000Y20536
X18000Y20536
X17000Y20536
X16000Y20536
X15000Y20536
X14000Y20536
X13000Y20536
X12000Y20536
X11000Y20536
X10000Y20536
X9000Y20536
X8000Y20536
X8000Y21536
X9000Y21536
X10000Y21536
X11000Y21536
X12000Y21536
X13000Y21536
X14000Y21536
X15000Y21536
X16000Y21536
X17000Y21536
X18000Y21536
X19000Y21536
X20000Y21536
X21000Y21536
X22000Y21536
X23000Y21536
X24000Y21536
X25000Y21536
X26000Y21536
X27000Y21536
X28000Y21536
X29000Y21536
X30000Y21536
X30000Y20536
X29000Y20536
X28000Y20536
X27000Y20536
X26000Y20536
X25000Y20536
X24000Y20536
X23000Y20536
X22000Y20536
X21000Y20536
X20000Y20536
T05
X20100Y4159
X21100Y4159
X22100Y4159
X23100Y4159
X24100Y4159
X25100Y4159
M30
