G75*
%MOIN*%
%OFA0B0*%
%FSLAX25Y25*%
%IPPOS*%
%LPD*%
%AMOC8*
5,1,8,0,0,1.08239X$1,22.5*
%
%ADD10R,0.05937X0.05937*%
%ADD11C,0.05937*%
%ADD12C,0.05600*%
%ADD13OC8,0.05600*%
%ADD14OC8,0.06300*%
%ADD15C,0.06300*%
%ADD16OC8,0.05200*%
%ADD17C,0.06000*%
%ADD18C,0.05200*%
%ADD19C,0.01600*%
%ADD20C,0.02978*%
%ADD21C,0.02400*%
D10*
X0080000Y0015363D03*
X0080000Y0205363D03*
D11*
X0090000Y0205363D03*
X0100000Y0205363D03*
X0110000Y0205363D03*
X0120000Y0205363D03*
X0130000Y0205363D03*
X0140000Y0205363D03*
X0150000Y0205363D03*
X0160000Y0205363D03*
X0170000Y0205363D03*
X0180000Y0205363D03*
X0190000Y0205363D03*
X0200000Y0205363D03*
X0210000Y0205363D03*
X0220000Y0205363D03*
X0230000Y0205363D03*
X0240000Y0205363D03*
X0250000Y0205363D03*
X0260000Y0205363D03*
X0270000Y0205363D03*
X0280000Y0205363D03*
X0290000Y0205363D03*
X0300000Y0205363D03*
X0300000Y0215363D03*
X0290000Y0215363D03*
X0280000Y0215363D03*
X0270000Y0215363D03*
X0260000Y0215363D03*
X0250000Y0215363D03*
X0240000Y0215363D03*
X0230000Y0215363D03*
X0220000Y0215363D03*
X0210000Y0215363D03*
X0200000Y0215363D03*
X0190000Y0215363D03*
X0180000Y0215363D03*
X0170000Y0215363D03*
X0160000Y0215363D03*
X0150000Y0215363D03*
X0140000Y0215363D03*
X0130000Y0215363D03*
X0120000Y0215363D03*
X0110000Y0215363D03*
X0100000Y0215363D03*
X0090000Y0215363D03*
X0080000Y0215363D03*
X0080000Y0025363D03*
X0090000Y0025363D03*
X0100000Y0025363D03*
X0110000Y0025363D03*
X0120000Y0025363D03*
X0130000Y0025363D03*
X0140000Y0025363D03*
X0150000Y0025363D03*
X0160000Y0025363D03*
X0170000Y0025363D03*
X0180000Y0025363D03*
X0190000Y0025363D03*
X0200000Y0025363D03*
X0210000Y0025363D03*
X0220000Y0025363D03*
X0230000Y0025363D03*
X0240000Y0025363D03*
X0250000Y0025363D03*
X0260000Y0025363D03*
X0270000Y0025363D03*
X0280000Y0025363D03*
X0290000Y0025363D03*
X0300000Y0025363D03*
X0300000Y0015363D03*
X0290000Y0015363D03*
X0280000Y0015363D03*
X0270000Y0015363D03*
X0260000Y0015363D03*
X0250000Y0015363D03*
X0240000Y0015363D03*
X0230000Y0015363D03*
X0220000Y0015363D03*
X0210000Y0015363D03*
X0200000Y0015363D03*
X0190000Y0015363D03*
X0180000Y0015363D03*
X0170000Y0015363D03*
X0160000Y0015363D03*
X0150000Y0015363D03*
X0140000Y0015363D03*
X0130000Y0015363D03*
X0120000Y0015363D03*
X0110000Y0015363D03*
X0100000Y0015363D03*
X0090000Y0015363D03*
D12*
X0178780Y0089871D03*
X0302008Y0089792D03*
D13*
X0292008Y0089792D03*
X0282008Y0089792D03*
X0272008Y0089792D03*
X0262008Y0089792D03*
X0252008Y0089792D03*
X0242008Y0089792D03*
X0232008Y0089792D03*
X0232008Y0079792D03*
X0242008Y0079792D03*
X0252008Y0079792D03*
X0262008Y0079792D03*
X0272008Y0079792D03*
X0282008Y0079792D03*
X0292008Y0079792D03*
X0302008Y0079792D03*
X0178780Y0079871D03*
X0168780Y0079871D03*
X0158780Y0079871D03*
X0148780Y0079871D03*
X0138780Y0079871D03*
X0128780Y0079871D03*
X0118780Y0079871D03*
X0108780Y0079871D03*
X0108780Y0089871D03*
X0118780Y0089871D03*
X0128780Y0089871D03*
X0138780Y0089871D03*
X0148780Y0089871D03*
X0158780Y0089871D03*
X0168780Y0089871D03*
D14*
X0324967Y0038895D03*
D15*
X0324967Y0048895D03*
D16*
X0298166Y0039776D03*
X0278166Y0039776D03*
X0266519Y0035667D03*
X0266519Y0045667D03*
X0205197Y0115422D03*
X0205197Y0135422D03*
X0088502Y0173414D03*
X0073688Y0180144D03*
X0073688Y0190144D03*
X0088502Y0193414D03*
X0324723Y0136227D03*
X0324723Y0116227D03*
D17*
X0251005Y0044595D02*
X0251005Y0038595D01*
X0241005Y0038595D02*
X0241005Y0044595D01*
X0231005Y0044595D02*
X0231005Y0038595D01*
X0221005Y0038595D02*
X0221005Y0044595D01*
X0211005Y0044595D02*
X0211005Y0038595D01*
X0201005Y0038595D02*
X0201005Y0044595D01*
D18*
X0232008Y0109003D02*
X0232008Y0114203D01*
X0242008Y0114203D02*
X0242008Y0109003D01*
X0252008Y0109003D02*
X0252008Y0114203D01*
X0262008Y0114203D02*
X0262008Y0109003D01*
X0272008Y0109003D02*
X0272008Y0114203D01*
X0282008Y0114203D02*
X0282008Y0109003D01*
X0292008Y0109003D02*
X0292008Y0114203D01*
X0302008Y0114203D02*
X0302008Y0109003D01*
X0302008Y0139003D02*
X0302008Y0144203D01*
X0292008Y0144203D02*
X0292008Y0139003D01*
X0282008Y0139003D02*
X0282008Y0144203D01*
X0272008Y0144203D02*
X0272008Y0139003D01*
X0262008Y0139003D02*
X0262008Y0144203D01*
X0252008Y0144203D02*
X0252008Y0139003D01*
X0242008Y0139003D02*
X0242008Y0144203D01*
X0232008Y0144203D02*
X0232008Y0139003D01*
X0232244Y0156641D02*
X0232244Y0161841D01*
X0242244Y0161841D02*
X0242244Y0156641D01*
X0252244Y0156641D02*
X0252244Y0161841D01*
X0262244Y0161841D02*
X0262244Y0156641D01*
X0272244Y0156641D02*
X0272244Y0161841D01*
X0282244Y0161841D02*
X0282244Y0156641D01*
X0292244Y0156641D02*
X0292244Y0161841D01*
X0302244Y0161841D02*
X0302244Y0156641D01*
X0312244Y0156641D02*
X0312244Y0161841D01*
X0322244Y0161841D02*
X0322244Y0156641D01*
X0322244Y0186641D02*
X0322244Y0191841D01*
X0312244Y0191841D02*
X0312244Y0186641D01*
X0302244Y0186641D02*
X0302244Y0191841D01*
X0292244Y0191841D02*
X0292244Y0186641D01*
X0282244Y0186641D02*
X0282244Y0191841D01*
X0272244Y0191841D02*
X0272244Y0186641D01*
X0262244Y0186641D02*
X0262244Y0191841D01*
X0252244Y0191841D02*
X0252244Y0186641D01*
X0242244Y0186641D02*
X0242244Y0191841D01*
X0232244Y0191841D02*
X0232244Y0186641D01*
X0198622Y0187035D02*
X0198622Y0192235D01*
X0188622Y0192235D02*
X0188622Y0187035D01*
X0178622Y0187035D02*
X0178622Y0192235D01*
X0168622Y0192235D02*
X0168622Y0187035D01*
X0158622Y0187035D02*
X0158622Y0192235D01*
X0148622Y0192235D02*
X0148622Y0187035D01*
X0138622Y0187035D02*
X0138622Y0192235D01*
X0128622Y0192235D02*
X0128622Y0187035D01*
X0118622Y0187035D02*
X0118622Y0192235D01*
X0108622Y0192235D02*
X0108622Y0187035D01*
X0108622Y0162235D02*
X0108622Y0157035D01*
X0118622Y0157035D02*
X0118622Y0162235D01*
X0128622Y0162235D02*
X0128622Y0157035D01*
X0138622Y0157035D02*
X0138622Y0162235D01*
X0148622Y0162235D02*
X0148622Y0157035D01*
X0158622Y0157035D02*
X0158622Y0162235D01*
X0168622Y0162235D02*
X0168622Y0157035D01*
X0178622Y0157035D02*
X0178622Y0162235D01*
X0188622Y0162235D02*
X0188622Y0157035D01*
X0198622Y0157035D02*
X0198622Y0162235D01*
X0178386Y0144597D02*
X0178386Y0139397D01*
X0168386Y0139397D02*
X0168386Y0144597D01*
X0158386Y0144597D02*
X0158386Y0139397D01*
X0148386Y0139397D02*
X0148386Y0144597D01*
X0138386Y0144597D02*
X0138386Y0139397D01*
X0128386Y0139397D02*
X0128386Y0144597D01*
X0118386Y0144597D02*
X0118386Y0139397D01*
X0108386Y0139397D02*
X0108386Y0144597D01*
X0108386Y0114597D02*
X0108386Y0109397D01*
X0118386Y0109397D02*
X0118386Y0114597D01*
X0128386Y0114597D02*
X0128386Y0109397D01*
X0138386Y0109397D02*
X0138386Y0114597D01*
X0148386Y0114597D02*
X0148386Y0109397D01*
X0158386Y0109397D02*
X0158386Y0114597D01*
X0168386Y0114597D02*
X0168386Y0109397D01*
X0178386Y0109397D02*
X0178386Y0114597D01*
D19*
X0067550Y0053257D02*
X0067550Y0012913D01*
X0075231Y0012913D01*
X0075231Y0015179D01*
X0079816Y0015179D01*
X0079816Y0015547D01*
X0075231Y0015547D01*
X0075231Y0018568D01*
X0075354Y0019026D01*
X0075591Y0019437D01*
X0075926Y0019772D01*
X0076337Y0020009D01*
X0076795Y0020131D01*
X0079816Y0020131D01*
X0079816Y0015547D01*
X0080184Y0015547D01*
X0080184Y0020131D01*
X0083205Y0020131D01*
X0083663Y0020009D01*
X0084074Y0019772D01*
X0084409Y0019437D01*
X0084646Y0019026D01*
X0084768Y0018568D01*
X0084768Y0016696D01*
X0085470Y0018390D01*
X0086973Y0019893D01*
X0088108Y0020363D01*
X0086973Y0020833D01*
X0085470Y0022336D01*
X0084659Y0024295D01*
X0084651Y0024246D01*
X0084419Y0023533D01*
X0084078Y0022864D01*
X0083637Y0022257D01*
X0083106Y0021726D01*
X0082499Y0021285D01*
X0081830Y0020944D01*
X0081117Y0020712D01*
X0080375Y0020594D01*
X0080184Y0020594D01*
X0080184Y0025179D01*
X0079816Y0025179D01*
X0079816Y0020594D01*
X0079625Y0020594D01*
X0078883Y0020712D01*
X0078170Y0020944D01*
X0077501Y0021285D01*
X0076894Y0021726D01*
X0076363Y0022257D01*
X0075922Y0022864D01*
X0075581Y0023533D01*
X0075349Y0024246D01*
X0075231Y0024988D01*
X0075231Y0025179D01*
X0079816Y0025179D01*
X0079816Y0025547D01*
X0075231Y0025547D01*
X0075231Y0025738D01*
X0075349Y0026480D01*
X0075581Y0027193D01*
X0075922Y0027862D01*
X0076363Y0028469D01*
X0076894Y0029000D01*
X0077501Y0029441D01*
X0078170Y0029782D01*
X0078883Y0030014D01*
X0079625Y0030131D01*
X0079816Y0030131D01*
X0079816Y0025547D01*
X0080184Y0025547D01*
X0080184Y0030131D01*
X0080375Y0030131D01*
X0081117Y0030014D01*
X0081830Y0029782D01*
X0082499Y0029441D01*
X0083106Y0029000D01*
X0083637Y0028469D01*
X0084078Y0027862D01*
X0084419Y0027193D01*
X0084651Y0026480D01*
X0084659Y0026431D01*
X0085470Y0028390D01*
X0086973Y0029893D01*
X0088937Y0030706D01*
X0091063Y0030706D01*
X0093027Y0029893D01*
X0094530Y0028390D01*
X0095000Y0027255D01*
X0095470Y0028390D01*
X0096973Y0029893D01*
X0098937Y0030706D01*
X0101063Y0030706D01*
X0103027Y0029893D01*
X0104530Y0028390D01*
X0105000Y0027255D01*
X0105470Y0028390D01*
X0106973Y0029893D01*
X0108937Y0030706D01*
X0111063Y0030706D01*
X0113027Y0029893D01*
X0114530Y0028390D01*
X0115000Y0027255D01*
X0115470Y0028390D01*
X0116973Y0029893D01*
X0118937Y0030706D01*
X0121063Y0030706D01*
X0123027Y0029893D01*
X0124530Y0028390D01*
X0125000Y0027255D01*
X0125470Y0028390D01*
X0126973Y0029893D01*
X0128937Y0030706D01*
X0131063Y0030706D01*
X0133027Y0029893D01*
X0134530Y0028390D01*
X0135000Y0027255D01*
X0135470Y0028390D01*
X0136973Y0029893D01*
X0138937Y0030706D01*
X0141063Y0030706D01*
X0143027Y0029893D01*
X0144530Y0028390D01*
X0145000Y0027255D01*
X0145470Y0028390D01*
X0146973Y0029893D01*
X0148937Y0030706D01*
X0151063Y0030706D01*
X0153027Y0029893D01*
X0154530Y0028390D01*
X0155000Y0027255D01*
X0155470Y0028390D01*
X0156973Y0029893D01*
X0158937Y0030706D01*
X0161063Y0030706D01*
X0163027Y0029893D01*
X0164530Y0028390D01*
X0165000Y0027255D01*
X0165470Y0028390D01*
X0166973Y0029893D01*
X0168937Y0030706D01*
X0171063Y0030706D01*
X0173027Y0029893D01*
X0174530Y0028390D01*
X0175000Y0027255D01*
X0175470Y0028390D01*
X0176973Y0029893D01*
X0178937Y0030706D01*
X0181063Y0030706D01*
X0183027Y0029893D01*
X0184530Y0028390D01*
X0185000Y0027255D01*
X0185470Y0028390D01*
X0186973Y0029893D01*
X0188937Y0030706D01*
X0191063Y0030706D01*
X0193027Y0029893D01*
X0194530Y0028390D01*
X0195000Y0027255D01*
X0195470Y0028390D01*
X0196973Y0029893D01*
X0198937Y0030706D01*
X0201063Y0030706D01*
X0203027Y0029893D01*
X0204530Y0028390D01*
X0205000Y0027255D01*
X0205470Y0028390D01*
X0206973Y0029893D01*
X0208937Y0030706D01*
X0211063Y0030706D01*
X0213027Y0029893D01*
X0214530Y0028390D01*
X0215000Y0027255D01*
X0215470Y0028390D01*
X0216973Y0029893D01*
X0218937Y0030706D01*
X0221063Y0030706D01*
X0223027Y0029893D01*
X0224530Y0028390D01*
X0225000Y0027255D01*
X0225470Y0028390D01*
X0226973Y0029893D01*
X0228937Y0030706D01*
X0231063Y0030706D01*
X0233027Y0029893D01*
X0234530Y0028390D01*
X0235000Y0027255D01*
X0235470Y0028390D01*
X0236973Y0029893D01*
X0238937Y0030706D01*
X0241063Y0030706D01*
X0243027Y0029893D01*
X0244530Y0028390D01*
X0245000Y0027255D01*
X0245470Y0028390D01*
X0246973Y0029893D01*
X0248937Y0030706D01*
X0251063Y0030706D01*
X0253027Y0029893D01*
X0254530Y0028390D01*
X0255000Y0027255D01*
X0255470Y0028390D01*
X0256973Y0029893D01*
X0258937Y0030706D01*
X0261063Y0030706D01*
X0263027Y0029893D01*
X0264530Y0028390D01*
X0265000Y0027255D01*
X0265470Y0028390D01*
X0266973Y0029893D01*
X0268937Y0030706D01*
X0271063Y0030706D01*
X0273027Y0029893D01*
X0274530Y0028390D01*
X0275000Y0027255D01*
X0275470Y0028390D01*
X0276973Y0029893D01*
X0278937Y0030706D01*
X0281063Y0030706D01*
X0283027Y0029893D01*
X0284530Y0028390D01*
X0285341Y0026431D01*
X0285349Y0026480D01*
X0285581Y0027193D01*
X0285922Y0027862D01*
X0286363Y0028469D01*
X0286894Y0029000D01*
X0287501Y0029441D01*
X0288170Y0029782D01*
X0288883Y0030014D01*
X0289625Y0030131D01*
X0289816Y0030131D01*
X0289816Y0025547D01*
X0290184Y0025547D01*
X0290184Y0030131D01*
X0290375Y0030131D01*
X0291117Y0030014D01*
X0291830Y0029782D01*
X0292499Y0029441D01*
X0293106Y0029000D01*
X0293637Y0028469D01*
X0294078Y0027862D01*
X0294419Y0027193D01*
X0294651Y0026480D01*
X0294768Y0025738D01*
X0294768Y0025547D01*
X0290184Y0025547D01*
X0290184Y0025179D01*
X0294768Y0025179D01*
X0294768Y0024988D01*
X0294651Y0024246D01*
X0294419Y0023533D01*
X0294078Y0022864D01*
X0293637Y0022257D01*
X0293106Y0021726D01*
X0292499Y0021285D01*
X0291830Y0020944D01*
X0291117Y0020712D01*
X0290375Y0020594D01*
X0290184Y0020594D01*
X0290184Y0025179D01*
X0289816Y0025179D01*
X0289816Y0020594D01*
X0289625Y0020594D01*
X0288883Y0020712D01*
X0288170Y0020944D01*
X0287501Y0021285D01*
X0286894Y0021726D01*
X0286363Y0022257D01*
X0285922Y0022864D01*
X0285581Y0023533D01*
X0285349Y0024246D01*
X0285341Y0024295D01*
X0284530Y0022336D01*
X0283027Y0020833D01*
X0281892Y0020363D01*
X0283027Y0019893D01*
X0284530Y0018390D01*
X0285341Y0016431D01*
X0285349Y0016480D01*
X0285581Y0017193D01*
X0285922Y0017862D01*
X0286363Y0018469D01*
X0286894Y0019000D01*
X0287501Y0019441D01*
X0288170Y0019782D01*
X0288883Y0020014D01*
X0289625Y0020131D01*
X0289816Y0020131D01*
X0289816Y0015547D01*
X0290184Y0015547D01*
X0290184Y0020131D01*
X0290375Y0020131D01*
X0291117Y0020014D01*
X0291830Y0019782D01*
X0292499Y0019441D01*
X0293106Y0019000D01*
X0293637Y0018469D01*
X0294078Y0017862D01*
X0294419Y0017193D01*
X0294651Y0016480D01*
X0294768Y0015738D01*
X0294768Y0015547D01*
X0290184Y0015547D01*
X0290184Y0015179D01*
X0294768Y0015179D01*
X0294768Y0014988D01*
X0294651Y0014246D01*
X0294419Y0013533D01*
X0294103Y0012913D01*
X0295000Y0012913D01*
X0295879Y0012948D01*
X0295581Y0013533D01*
X0295349Y0014246D01*
X0295231Y0014988D01*
X0295231Y0015179D01*
X0299816Y0015179D01*
X0299816Y0015547D01*
X0295231Y0015547D01*
X0295231Y0015738D01*
X0295349Y0016480D01*
X0295581Y0017193D01*
X0295922Y0017862D01*
X0296363Y0018469D01*
X0296894Y0019000D01*
X0297501Y0019441D01*
X0298170Y0019782D01*
X0298883Y0020014D01*
X0299625Y0020131D01*
X0299816Y0020131D01*
X0299816Y0015547D01*
X0300184Y0015547D01*
X0300184Y0020131D01*
X0300375Y0020131D01*
X0301117Y0020014D01*
X0301830Y0019782D01*
X0302499Y0019441D01*
X0303106Y0019000D01*
X0303637Y0018469D01*
X0304078Y0017862D01*
X0304419Y0017193D01*
X0304651Y0016480D01*
X0304768Y0015738D01*
X0304768Y0015547D01*
X0300184Y0015547D01*
X0300184Y0015179D01*
X0304768Y0015179D01*
X0304768Y0014988D01*
X0304651Y0014246D01*
X0304574Y0014009D01*
X0305493Y0014155D01*
X0312202Y0016335D01*
X0318486Y0019537D01*
X0324193Y0023683D01*
X0329180Y0028670D01*
X0333326Y0034377D01*
X0336528Y0040661D01*
X0338708Y0047370D01*
X0339811Y0054336D01*
X0339950Y0057863D01*
X0339950Y0172863D01*
X0339811Y0176390D01*
X0338708Y0183356D01*
X0336528Y0190065D01*
X0333326Y0196349D01*
X0329180Y0202056D01*
X0324193Y0207043D01*
X0318486Y0211189D01*
X0312202Y0214391D01*
X0306409Y0216274D01*
X0308797Y0213886D01*
X0309802Y0212880D01*
X0310346Y0211566D01*
X0310346Y0201483D01*
X0309802Y0200169D01*
X0306016Y0196382D01*
X0306016Y0195105D01*
X0306462Y0194659D01*
X0307219Y0192830D01*
X0307219Y0185651D01*
X0306462Y0183823D01*
X0305062Y0182424D01*
X0303234Y0181666D01*
X0301255Y0181666D01*
X0299426Y0182424D01*
X0298027Y0183823D01*
X0297269Y0185651D01*
X0297269Y0192830D01*
X0298027Y0194659D01*
X0298866Y0195498D01*
X0298866Y0198574D01*
X0299410Y0199888D01*
X0299542Y0200020D01*
X0298937Y0200020D01*
X0296973Y0200833D01*
X0295470Y0202336D01*
X0295000Y0203471D01*
X0294530Y0202336D01*
X0293027Y0200833D01*
X0291063Y0200020D01*
X0288937Y0200020D01*
X0286973Y0200833D01*
X0285470Y0202336D01*
X0285000Y0203471D01*
X0284530Y0202336D01*
X0283027Y0200833D01*
X0281063Y0200020D01*
X0278937Y0200020D01*
X0276973Y0200833D01*
X0275470Y0202336D01*
X0275000Y0203471D01*
X0274530Y0202336D01*
X0273027Y0200833D01*
X0271063Y0200020D01*
X0268937Y0200020D01*
X0266973Y0200833D01*
X0265470Y0202336D01*
X0265000Y0203471D01*
X0264530Y0202336D01*
X0263027Y0200833D01*
X0261063Y0200020D01*
X0258937Y0200020D01*
X0256973Y0200833D01*
X0255470Y0202336D01*
X0255000Y0203471D01*
X0254530Y0202336D01*
X0253027Y0200833D01*
X0251063Y0200020D01*
X0248937Y0200020D01*
X0246973Y0200833D01*
X0245470Y0202336D01*
X0245000Y0203471D01*
X0244530Y0202336D01*
X0243027Y0200833D01*
X0241063Y0200020D01*
X0238937Y0200020D01*
X0236973Y0200833D01*
X0235470Y0202336D01*
X0235000Y0203471D01*
X0234530Y0202336D01*
X0233027Y0200833D01*
X0231063Y0200020D01*
X0228937Y0200020D01*
X0226973Y0200833D01*
X0225470Y0202336D01*
X0225000Y0203471D01*
X0224530Y0202336D01*
X0223027Y0200833D01*
X0221063Y0200020D01*
X0218937Y0200020D01*
X0216973Y0200833D01*
X0215470Y0202336D01*
X0215000Y0203471D01*
X0214530Y0202336D01*
X0213027Y0200833D01*
X0211063Y0200020D01*
X0208937Y0200020D01*
X0206973Y0200833D01*
X0205470Y0202336D01*
X0205000Y0203471D01*
X0204530Y0202336D01*
X0203027Y0200833D01*
X0201063Y0200020D01*
X0198937Y0200020D01*
X0196973Y0200833D01*
X0195470Y0202336D01*
X0195000Y0203471D01*
X0194530Y0202336D01*
X0193027Y0200833D01*
X0191063Y0200020D01*
X0188937Y0200020D01*
X0186973Y0200833D01*
X0185470Y0202336D01*
X0185000Y0203471D01*
X0184530Y0202336D01*
X0183027Y0200833D01*
X0181063Y0200020D01*
X0178937Y0200020D01*
X0176973Y0200833D01*
X0175470Y0202336D01*
X0175000Y0203471D01*
X0174530Y0202336D01*
X0173027Y0200833D01*
X0171063Y0200020D01*
X0168937Y0200020D01*
X0166973Y0200833D01*
X0165470Y0202336D01*
X0165000Y0203471D01*
X0164530Y0202336D01*
X0163027Y0200833D01*
X0161063Y0200020D01*
X0158937Y0200020D01*
X0156973Y0200833D01*
X0155470Y0202336D01*
X0155000Y0203471D01*
X0154530Y0202336D01*
X0153027Y0200833D01*
X0151063Y0200020D01*
X0148937Y0200020D01*
X0146973Y0200833D01*
X0145470Y0202336D01*
X0145000Y0203471D01*
X0144530Y0202336D01*
X0143027Y0200833D01*
X0141063Y0200020D01*
X0138937Y0200020D01*
X0136973Y0200833D01*
X0135470Y0202336D01*
X0135000Y0203471D01*
X0134530Y0202336D01*
X0133027Y0200833D01*
X0131063Y0200020D01*
X0128937Y0200020D01*
X0126973Y0200833D01*
X0125470Y0202336D01*
X0125000Y0203471D01*
X0124530Y0202336D01*
X0123027Y0200833D01*
X0121063Y0200020D01*
X0118937Y0200020D01*
X0116973Y0200833D01*
X0115470Y0202336D01*
X0115000Y0203471D01*
X0114530Y0202336D01*
X0113027Y0200833D01*
X0111063Y0200020D01*
X0108937Y0200020D01*
X0106973Y0200833D01*
X0105470Y0202336D01*
X0105000Y0203471D01*
X0104530Y0202336D01*
X0103027Y0200833D01*
X0101063Y0200020D01*
X0098937Y0200020D01*
X0096973Y0200833D01*
X0095470Y0202336D01*
X0095000Y0203471D01*
X0094530Y0202336D01*
X0093027Y0200833D01*
X0091063Y0200020D01*
X0088937Y0200020D01*
X0086973Y0200833D01*
X0085470Y0202336D01*
X0084768Y0204030D01*
X0084768Y0202158D01*
X0084646Y0201700D01*
X0084409Y0201289D01*
X0084074Y0200954D01*
X0083663Y0200717D01*
X0083205Y0200594D01*
X0080184Y0200594D01*
X0080184Y0205179D01*
X0079816Y0205179D01*
X0079816Y0200594D01*
X0076795Y0200594D01*
X0076337Y0200717D01*
X0075926Y0200954D01*
X0075591Y0201289D01*
X0075354Y0201700D01*
X0075231Y0202158D01*
X0075231Y0205179D01*
X0079816Y0205179D01*
X0079816Y0205547D01*
X0075231Y0205547D01*
X0075231Y0208568D01*
X0075354Y0209026D01*
X0075591Y0209437D01*
X0075926Y0209772D01*
X0076337Y0210009D01*
X0076795Y0210131D01*
X0079816Y0210131D01*
X0079816Y0205547D01*
X0080184Y0205547D01*
X0080184Y0210131D01*
X0083205Y0210131D01*
X0083663Y0210009D01*
X0084074Y0209772D01*
X0084409Y0209437D01*
X0084646Y0209026D01*
X0084768Y0208568D01*
X0084768Y0206696D01*
X0085470Y0208390D01*
X0086973Y0209893D01*
X0088108Y0210363D01*
X0086973Y0210833D01*
X0085470Y0212336D01*
X0084659Y0214295D01*
X0084651Y0214246D01*
X0084419Y0213533D01*
X0084078Y0212864D01*
X0083637Y0212257D01*
X0083106Y0211726D01*
X0082499Y0211285D01*
X0081830Y0210944D01*
X0081117Y0210712D01*
X0080375Y0210594D01*
X0080184Y0210594D01*
X0080184Y0215179D01*
X0079816Y0215179D01*
X0079816Y0210594D01*
X0079625Y0210594D01*
X0078883Y0210712D01*
X0078170Y0210944D01*
X0077501Y0211285D01*
X0076894Y0211726D01*
X0076363Y0212257D01*
X0075922Y0212864D01*
X0075581Y0213533D01*
X0075349Y0214246D01*
X0075231Y0214988D01*
X0075231Y0215179D01*
X0079816Y0215179D01*
X0079816Y0215547D01*
X0075231Y0215547D01*
X0075231Y0215738D01*
X0075349Y0216480D01*
X0075581Y0217193D01*
X0075897Y0217813D01*
X0067550Y0217813D01*
X0067550Y0177469D01*
X0069854Y0176943D01*
X0068713Y0178084D01*
X0068713Y0182205D01*
X0071627Y0185119D01*
X0075748Y0185119D01*
X0077148Y0183719D01*
X0105715Y0183719D01*
X0105266Y0184168D01*
X0104859Y0184729D01*
X0104544Y0185346D01*
X0104330Y0186004D01*
X0104222Y0186688D01*
X0104222Y0189635D01*
X0108622Y0189635D01*
X0108622Y0196635D01*
X0108276Y0196635D01*
X0107592Y0196526D01*
X0106933Y0196312D01*
X0106316Y0195998D01*
X0105756Y0195591D01*
X0105266Y0195101D01*
X0104859Y0194541D01*
X0104544Y0193924D01*
X0104330Y0193265D01*
X0104222Y0192581D01*
X0104222Y0189635D01*
X0108622Y0189635D01*
X0108622Y0189635D01*
X0108622Y0196635D01*
X0108968Y0196635D01*
X0109652Y0196526D01*
X0110311Y0196312D01*
X0110928Y0195998D01*
X0111488Y0195591D01*
X0111978Y0195101D01*
X0112385Y0194541D01*
X0112700Y0193924D01*
X0112914Y0193265D01*
X0113022Y0192581D01*
X0113022Y0189635D01*
X0108622Y0189635D01*
X0108622Y0189635D01*
X0108622Y0189635D01*
X0113022Y0189635D01*
X0113022Y0186688D01*
X0112914Y0186004D01*
X0112700Y0185346D01*
X0112385Y0184729D01*
X0111978Y0184168D01*
X0111529Y0183719D01*
X0114902Y0183719D01*
X0114405Y0184217D01*
X0113647Y0186045D01*
X0113647Y0193224D01*
X0114405Y0195053D01*
X0115804Y0196452D01*
X0117632Y0197209D01*
X0119612Y0197209D01*
X0121440Y0196452D01*
X0122839Y0195053D01*
X0123597Y0193224D01*
X0123597Y0186045D01*
X0122839Y0184217D01*
X0122342Y0183719D01*
X0124902Y0183719D01*
X0124405Y0184217D01*
X0123647Y0186045D01*
X0123647Y0193224D01*
X0124405Y0195053D01*
X0125804Y0196452D01*
X0127632Y0197209D01*
X0129612Y0197209D01*
X0131440Y0196452D01*
X0132839Y0195053D01*
X0133597Y0193224D01*
X0133597Y0186045D01*
X0132839Y0184217D01*
X0132342Y0183719D01*
X0134902Y0183719D01*
X0134405Y0184217D01*
X0133647Y0186045D01*
X0133647Y0193224D01*
X0134405Y0195053D01*
X0135804Y0196452D01*
X0137632Y0197209D01*
X0139612Y0197209D01*
X0141440Y0196452D01*
X0142839Y0195053D01*
X0143597Y0193224D01*
X0143597Y0186045D01*
X0142839Y0184217D01*
X0142342Y0183719D01*
X0144902Y0183719D01*
X0144405Y0184217D01*
X0143647Y0186045D01*
X0143647Y0193224D01*
X0144405Y0195053D01*
X0145804Y0196452D01*
X0147632Y0197209D01*
X0149612Y0197209D01*
X0151440Y0196452D01*
X0152839Y0195053D01*
X0153597Y0193224D01*
X0153597Y0186045D01*
X0152839Y0184217D01*
X0152342Y0183719D01*
X0154902Y0183719D01*
X0154405Y0184217D01*
X0153647Y0186045D01*
X0153647Y0193224D01*
X0154405Y0195053D01*
X0155804Y0196452D01*
X0157632Y0197209D01*
X0159612Y0197209D01*
X0161440Y0196452D01*
X0162839Y0195053D01*
X0163597Y0193224D01*
X0163597Y0186045D01*
X0162839Y0184217D01*
X0162342Y0183719D01*
X0164902Y0183719D01*
X0164405Y0184217D01*
X0163647Y0186045D01*
X0163647Y0193224D01*
X0164405Y0195053D01*
X0165804Y0196452D01*
X0167632Y0197209D01*
X0169612Y0197209D01*
X0171440Y0196452D01*
X0172839Y0195053D01*
X0173597Y0193224D01*
X0173597Y0186045D01*
X0172839Y0184217D01*
X0172342Y0183719D01*
X0174902Y0183719D01*
X0174405Y0184217D01*
X0173647Y0186045D01*
X0173647Y0193224D01*
X0174405Y0195053D01*
X0175804Y0196452D01*
X0177632Y0197209D01*
X0179612Y0197209D01*
X0181440Y0196452D01*
X0182839Y0195053D01*
X0183597Y0193224D01*
X0183597Y0186045D01*
X0182839Y0184217D01*
X0182342Y0183719D01*
X0184902Y0183719D01*
X0184405Y0184217D01*
X0183647Y0186045D01*
X0183647Y0193224D01*
X0184405Y0195053D01*
X0185804Y0196452D01*
X0187632Y0197209D01*
X0189612Y0197209D01*
X0191440Y0196452D01*
X0192839Y0195053D01*
X0193597Y0193224D01*
X0193597Y0188956D01*
X0193647Y0189007D01*
X0193647Y0193224D01*
X0194405Y0195053D01*
X0195804Y0196452D01*
X0197632Y0197209D01*
X0199612Y0197209D01*
X0201440Y0196452D01*
X0202839Y0195053D01*
X0203597Y0193224D01*
X0203597Y0186045D01*
X0202839Y0184217D01*
X0201440Y0182817D01*
X0199612Y0182060D01*
X0197632Y0182060D01*
X0197052Y0182300D01*
X0192873Y0178121D01*
X0191867Y0177116D01*
X0190554Y0176572D01*
X0187017Y0176572D01*
X0187012Y0176570D01*
X0092381Y0176570D01*
X0093476Y0175474D01*
X0093476Y0171353D01*
X0090562Y0168439D01*
X0086441Y0168439D01*
X0083527Y0171353D01*
X0083527Y0175474D01*
X0084622Y0176570D01*
X0077148Y0176570D01*
X0075748Y0175170D01*
X0074485Y0175170D01*
X0077250Y0173838D01*
X0077250Y0173838D01*
X0082104Y0169967D01*
X0082104Y0169967D01*
X0085975Y0165113D01*
X0088669Y0159520D01*
X0090050Y0153467D01*
X0090050Y0077259D01*
X0088669Y0071206D01*
X0088669Y0071206D01*
X0085975Y0065613D01*
X0085975Y0065613D01*
X0082104Y0060759D01*
X0082104Y0060759D01*
X0082104Y0060759D01*
X0077250Y0056888D01*
X0077250Y0056888D01*
X0071657Y0054194D01*
X0071657Y0054194D01*
X0067550Y0053257D01*
X0067550Y0052535D02*
X0320794Y0052535D01*
X0320284Y0052025D02*
X0319443Y0049994D01*
X0319443Y0047796D01*
X0320284Y0045766D01*
X0321838Y0044212D01*
X0322860Y0043788D01*
X0320017Y0040946D01*
X0320017Y0038895D01*
X0320017Y0036845D01*
X0322917Y0033945D01*
X0324967Y0033945D01*
X0324967Y0038895D01*
X0320017Y0038895D01*
X0324967Y0038895D01*
X0324967Y0038895D01*
X0324967Y0038895D01*
X0324967Y0033945D01*
X0327018Y0033945D01*
X0329917Y0036845D01*
X0329917Y0038895D01*
X0324967Y0038895D01*
X0324967Y0038895D01*
X0329917Y0038895D01*
X0329917Y0040946D01*
X0327075Y0043788D01*
X0328097Y0044212D01*
X0329651Y0045766D01*
X0330492Y0047796D01*
X0330492Y0049994D01*
X0329651Y0052025D01*
X0328097Y0053579D01*
X0326066Y0054420D01*
X0323868Y0054420D01*
X0321838Y0053579D01*
X0320284Y0052025D01*
X0319833Y0050936D02*
X0067550Y0050936D01*
X0067550Y0049338D02*
X0200267Y0049338D01*
X0200627Y0049395D02*
X0199881Y0049277D01*
X0199162Y0049043D01*
X0198489Y0048700D01*
X0197878Y0048256D01*
X0197343Y0047722D01*
X0196899Y0047111D01*
X0196556Y0046437D01*
X0196323Y0045719D01*
X0196205Y0044973D01*
X0196205Y0041795D01*
X0200805Y0041795D01*
X0200805Y0049395D01*
X0200627Y0049395D01*
X0200805Y0049338D02*
X0201205Y0049338D01*
X0201205Y0049395D02*
X0201205Y0041795D01*
X0200805Y0041795D01*
X0200805Y0041395D01*
X0201205Y0041395D01*
X0201205Y0033795D01*
X0201382Y0033795D01*
X0202129Y0033913D01*
X0202847Y0034147D01*
X0203520Y0034490D01*
X0204132Y0034934D01*
X0204666Y0035468D01*
X0205110Y0036079D01*
X0205453Y0036752D01*
X0205672Y0037425D01*
X0206448Y0035550D01*
X0207960Y0034038D01*
X0209936Y0033220D01*
X0212074Y0033220D01*
X0214049Y0034038D01*
X0215561Y0035550D01*
X0216005Y0036621D01*
X0216448Y0035550D01*
X0217960Y0034038D01*
X0219936Y0033220D01*
X0222074Y0033220D01*
X0224049Y0034038D01*
X0225561Y0035550D01*
X0226005Y0036621D01*
X0226448Y0035550D01*
X0227960Y0034038D01*
X0229936Y0033220D01*
X0232074Y0033220D01*
X0234049Y0034038D01*
X0235561Y0035550D01*
X0236005Y0036621D01*
X0236448Y0035550D01*
X0237960Y0034038D01*
X0239936Y0033220D01*
X0242074Y0033220D01*
X0244049Y0034038D01*
X0245561Y0035550D01*
X0246005Y0036621D01*
X0246448Y0035550D01*
X0247960Y0034038D01*
X0249936Y0033220D01*
X0252074Y0033220D01*
X0254049Y0034038D01*
X0255561Y0035550D01*
X0256380Y0037526D01*
X0256380Y0045664D01*
X0255561Y0047639D01*
X0254049Y0049151D01*
X0252074Y0049970D01*
X0249936Y0049970D01*
X0247960Y0049151D01*
X0246448Y0047639D01*
X0246005Y0046569D01*
X0245561Y0047639D01*
X0244049Y0049151D01*
X0242074Y0049970D01*
X0239936Y0049970D01*
X0237960Y0049151D01*
X0236448Y0047639D01*
X0236005Y0046569D01*
X0235561Y0047639D01*
X0234049Y0049151D01*
X0232074Y0049970D01*
X0229936Y0049970D01*
X0227960Y0049151D01*
X0226448Y0047639D01*
X0226005Y0046569D01*
X0225561Y0047639D01*
X0224049Y0049151D01*
X0222074Y0049970D01*
X0219936Y0049970D01*
X0217960Y0049151D01*
X0216448Y0047639D01*
X0216005Y0046569D01*
X0215561Y0047639D01*
X0214049Y0049151D01*
X0212074Y0049970D01*
X0209936Y0049970D01*
X0207960Y0049151D01*
X0206448Y0047639D01*
X0205672Y0045765D01*
X0205453Y0046437D01*
X0205110Y0047111D01*
X0204666Y0047722D01*
X0204132Y0048256D01*
X0203520Y0048700D01*
X0202847Y0049043D01*
X0202129Y0049277D01*
X0201382Y0049395D01*
X0201205Y0049395D01*
X0201742Y0049338D02*
X0208410Y0049338D01*
X0206548Y0047739D02*
X0204648Y0047739D01*
X0205549Y0046141D02*
X0205827Y0046141D01*
X0201205Y0046141D02*
X0200805Y0046141D01*
X0200805Y0047739D02*
X0201205Y0047739D01*
X0201205Y0044542D02*
X0200805Y0044542D01*
X0200805Y0042944D02*
X0201205Y0042944D01*
X0201205Y0041345D02*
X0200805Y0041345D01*
X0200805Y0041395D02*
X0200805Y0033795D01*
X0200627Y0033795D01*
X0199881Y0033913D01*
X0199162Y0034147D01*
X0198489Y0034490D01*
X0197878Y0034934D01*
X0197343Y0035468D01*
X0196899Y0036079D01*
X0196556Y0036752D01*
X0196323Y0037471D01*
X0196205Y0038217D01*
X0196205Y0041395D01*
X0200805Y0041395D01*
X0200805Y0039747D02*
X0201205Y0039747D01*
X0201205Y0038148D02*
X0200805Y0038148D01*
X0200805Y0036550D02*
X0201205Y0036550D01*
X0201205Y0034951D02*
X0200805Y0034951D01*
X0197860Y0034951D02*
X0067550Y0034951D01*
X0067550Y0033353D02*
X0209615Y0033353D01*
X0212394Y0033353D02*
X0219615Y0033353D01*
X0222394Y0033353D02*
X0229615Y0033353D01*
X0232394Y0033353D02*
X0239615Y0033353D01*
X0242394Y0033353D02*
X0249615Y0033353D01*
X0252394Y0033353D02*
X0261797Y0033353D01*
X0261544Y0033606D02*
X0264458Y0030692D01*
X0268579Y0030692D01*
X0271493Y0033606D01*
X0271493Y0037727D01*
X0268579Y0040641D01*
X0264458Y0040641D01*
X0261544Y0037727D01*
X0261544Y0033606D01*
X0261544Y0034951D02*
X0254962Y0034951D01*
X0255975Y0036550D02*
X0261544Y0036550D01*
X0261965Y0038148D02*
X0256380Y0038148D01*
X0256380Y0039747D02*
X0263563Y0039747D01*
X0264458Y0040692D02*
X0268579Y0040692D01*
X0271493Y0043606D01*
X0271493Y0047727D01*
X0268579Y0050641D01*
X0264458Y0050641D01*
X0261544Y0047727D01*
X0261544Y0043606D01*
X0264458Y0040692D01*
X0263804Y0041345D02*
X0256380Y0041345D01*
X0256380Y0042944D02*
X0262206Y0042944D01*
X0261544Y0044542D02*
X0256380Y0044542D01*
X0256182Y0046141D02*
X0261544Y0046141D01*
X0261556Y0047739D02*
X0255461Y0047739D01*
X0253599Y0049338D02*
X0263154Y0049338D01*
X0269883Y0049338D02*
X0319443Y0049338D01*
X0319466Y0047739D02*
X0271481Y0047739D01*
X0271493Y0046141D02*
X0320128Y0046141D01*
X0321507Y0044542D02*
X0280435Y0044542D01*
X0280226Y0044751D02*
X0276105Y0044751D01*
X0273191Y0041837D01*
X0273191Y0037716D01*
X0276105Y0034802D01*
X0280226Y0034802D01*
X0283141Y0037716D01*
X0283141Y0041837D01*
X0280226Y0044751D01*
X0282034Y0042944D02*
X0295111Y0042944D01*
X0296343Y0044176D02*
X0293766Y0041599D01*
X0293766Y0039776D01*
X0293766Y0037954D01*
X0296343Y0035376D01*
X0298166Y0035376D01*
X0299988Y0035376D01*
X0302566Y0037954D01*
X0302566Y0039776D01*
X0298166Y0039776D01*
X0298166Y0035376D01*
X0298166Y0039776D01*
X0298166Y0039776D01*
X0298166Y0039776D01*
X0302566Y0039776D01*
X0302566Y0041599D01*
X0299988Y0044176D01*
X0298166Y0044176D01*
X0298166Y0039777D01*
X0298166Y0039777D01*
X0298166Y0044176D01*
X0296343Y0044176D01*
X0298166Y0042944D02*
X0298166Y0042944D01*
X0298166Y0041345D02*
X0298166Y0041345D01*
X0298166Y0039776D02*
X0293766Y0039776D01*
X0298166Y0039776D01*
X0298166Y0039776D01*
X0298166Y0039747D02*
X0298166Y0039747D01*
X0298166Y0038148D02*
X0298166Y0038148D01*
X0298166Y0036550D02*
X0298166Y0036550D01*
X0301162Y0036550D02*
X0320312Y0036550D01*
X0320017Y0038148D02*
X0302566Y0038148D01*
X0302566Y0039747D02*
X0320017Y0039747D01*
X0320417Y0041345D02*
X0302566Y0041345D01*
X0301221Y0042944D02*
X0322016Y0042944D01*
X0327919Y0042944D02*
X0337270Y0042944D01*
X0337789Y0044542D02*
X0328428Y0044542D01*
X0329806Y0046141D02*
X0338309Y0046141D01*
X0338767Y0047739D02*
X0330469Y0047739D01*
X0330492Y0049338D02*
X0339020Y0049338D01*
X0339273Y0050936D02*
X0330102Y0050936D01*
X0329141Y0052535D02*
X0339526Y0052535D01*
X0339779Y0054133D02*
X0326758Y0054133D01*
X0323176Y0054133D02*
X0071389Y0054133D01*
X0074849Y0055732D02*
X0339866Y0055732D01*
X0339929Y0057330D02*
X0077805Y0057330D01*
X0079809Y0058929D02*
X0339950Y0058929D01*
X0339950Y0060528D02*
X0081814Y0060528D01*
X0083194Y0062126D02*
X0339950Y0062126D01*
X0339950Y0063725D02*
X0084469Y0063725D01*
X0085744Y0065323D02*
X0339950Y0065323D01*
X0339950Y0066922D02*
X0086605Y0066922D01*
X0087375Y0068520D02*
X0339950Y0068520D01*
X0339950Y0070119D02*
X0088145Y0070119D01*
X0088785Y0071717D02*
X0339950Y0071717D01*
X0339950Y0073316D02*
X0089150Y0073316D01*
X0089515Y0074914D02*
X0339950Y0074914D01*
X0339950Y0076513D02*
X0305234Y0076513D01*
X0303913Y0075192D02*
X0302108Y0075192D01*
X0302108Y0079692D01*
X0302108Y0079892D01*
X0306608Y0079892D01*
X0306608Y0081698D01*
X0303913Y0084392D01*
X0302108Y0084392D01*
X0302108Y0079892D01*
X0301908Y0079892D01*
X0301908Y0079692D01*
X0302108Y0079692D01*
X0306608Y0079692D01*
X0306608Y0077887D01*
X0303913Y0075192D01*
X0301908Y0075192D02*
X0301908Y0079692D01*
X0297408Y0079692D01*
X0297408Y0077887D01*
X0300102Y0075192D01*
X0301908Y0075192D01*
X0301908Y0076513D02*
X0302108Y0076513D01*
X0302108Y0078111D02*
X0301908Y0078111D01*
X0301908Y0079710D02*
X0292108Y0079710D01*
X0292108Y0079692D02*
X0292108Y0079892D01*
X0296608Y0079892D01*
X0296608Y0081698D01*
X0293913Y0084392D01*
X0292108Y0084392D01*
X0292108Y0079892D01*
X0291908Y0079892D01*
X0291908Y0079692D01*
X0292108Y0079692D01*
X0296608Y0079692D01*
X0296608Y0077887D01*
X0293913Y0075192D01*
X0292108Y0075192D01*
X0292108Y0079692D01*
X0291908Y0079692D02*
X0291908Y0075192D01*
X0290102Y0075192D01*
X0287408Y0077887D01*
X0287408Y0079692D01*
X0291908Y0079692D01*
X0291908Y0079710D02*
X0282108Y0079710D01*
X0282108Y0079692D02*
X0282108Y0079892D01*
X0286608Y0079892D01*
X0286608Y0081698D01*
X0283913Y0084392D01*
X0282108Y0084392D01*
X0282108Y0079892D01*
X0281908Y0079892D01*
X0281908Y0079692D01*
X0282108Y0079692D01*
X0286608Y0079692D01*
X0286608Y0077887D01*
X0283913Y0075192D01*
X0282108Y0075192D01*
X0282108Y0079692D01*
X0281908Y0079692D02*
X0281908Y0075192D01*
X0280102Y0075192D01*
X0277408Y0077887D01*
X0277408Y0079692D01*
X0281908Y0079692D01*
X0281908Y0079710D02*
X0272108Y0079710D01*
X0272108Y0079692D02*
X0272108Y0079892D01*
X0276608Y0079892D01*
X0276608Y0081698D01*
X0273913Y0084392D01*
X0272108Y0084392D01*
X0272108Y0079892D01*
X0271908Y0079892D01*
X0271908Y0079692D01*
X0272108Y0079692D01*
X0276608Y0079692D01*
X0276608Y0077887D01*
X0273913Y0075192D01*
X0272108Y0075192D01*
X0272108Y0079692D01*
X0271908Y0079692D02*
X0271908Y0075192D01*
X0270102Y0075192D01*
X0267408Y0077887D01*
X0267408Y0079692D01*
X0271908Y0079692D01*
X0271908Y0079710D02*
X0262108Y0079710D01*
X0262108Y0079692D02*
X0262108Y0079892D01*
X0266608Y0079892D01*
X0266608Y0081698D01*
X0263913Y0084392D01*
X0262108Y0084392D01*
X0262108Y0079892D01*
X0261908Y0079892D01*
X0261908Y0079692D01*
X0262108Y0079692D01*
X0266608Y0079692D01*
X0266608Y0077887D01*
X0263913Y0075192D01*
X0262108Y0075192D01*
X0262108Y0079692D01*
X0261908Y0079692D02*
X0261908Y0075192D01*
X0260102Y0075192D01*
X0257408Y0077887D01*
X0257408Y0079692D01*
X0261908Y0079692D01*
X0261908Y0079710D02*
X0252108Y0079710D01*
X0252108Y0079692D02*
X0252108Y0079892D01*
X0256608Y0079892D01*
X0256608Y0081698D01*
X0253913Y0084392D01*
X0252108Y0084392D01*
X0252108Y0079892D01*
X0251908Y0079892D01*
X0251908Y0079692D01*
X0252108Y0079692D01*
X0256608Y0079692D01*
X0256608Y0077887D01*
X0253913Y0075192D01*
X0252108Y0075192D01*
X0252108Y0079692D01*
X0251908Y0079692D02*
X0251908Y0075192D01*
X0250102Y0075192D01*
X0247408Y0077887D01*
X0247408Y0079692D01*
X0251908Y0079692D01*
X0251908Y0079710D02*
X0242108Y0079710D01*
X0242108Y0079692D02*
X0242108Y0079892D01*
X0246608Y0079892D01*
X0246608Y0081698D01*
X0243913Y0084392D01*
X0242108Y0084392D01*
X0242108Y0079892D01*
X0241908Y0079892D01*
X0241908Y0079692D01*
X0242108Y0079692D01*
X0246608Y0079692D01*
X0246608Y0077887D01*
X0243913Y0075192D01*
X0242108Y0075192D01*
X0242108Y0079692D01*
X0241908Y0079692D02*
X0241908Y0075192D01*
X0240102Y0075192D01*
X0237408Y0077887D01*
X0237408Y0079692D01*
X0241908Y0079692D01*
X0241908Y0079710D02*
X0232108Y0079710D01*
X0232108Y0079692D02*
X0232108Y0079892D01*
X0236608Y0079892D01*
X0236608Y0081698D01*
X0233913Y0084392D01*
X0232108Y0084392D01*
X0232108Y0079892D01*
X0231908Y0079892D01*
X0231908Y0079692D01*
X0232108Y0079692D01*
X0236608Y0079692D01*
X0236608Y0077887D01*
X0233913Y0075192D01*
X0232108Y0075192D01*
X0232108Y0079692D01*
X0231908Y0079692D02*
X0231908Y0075192D01*
X0230102Y0075192D01*
X0227408Y0077887D01*
X0227408Y0079692D01*
X0231908Y0079692D01*
X0231908Y0079710D02*
X0183380Y0079710D01*
X0183380Y0079771D02*
X0183380Y0077965D01*
X0180685Y0075271D01*
X0178880Y0075271D01*
X0178880Y0079771D01*
X0178880Y0079971D01*
X0183380Y0079971D01*
X0183380Y0081776D01*
X0180685Y0084471D01*
X0178880Y0084471D01*
X0178880Y0079971D01*
X0178680Y0079971D01*
X0178680Y0084471D01*
X0176874Y0084471D01*
X0174180Y0081776D01*
X0174180Y0079971D01*
X0178679Y0079971D01*
X0178679Y0079771D01*
X0174180Y0079771D01*
X0174180Y0077965D01*
X0176874Y0075271D01*
X0178680Y0075271D01*
X0178680Y0079771D01*
X0178880Y0079771D01*
X0183380Y0079771D01*
X0183380Y0081308D02*
X0227408Y0081308D01*
X0227408Y0081698D02*
X0227408Y0079892D01*
X0231908Y0079892D01*
X0231908Y0084392D01*
X0230102Y0084392D01*
X0227408Y0081698D01*
X0228617Y0082907D02*
X0182249Y0082907D01*
X0181711Y0085484D02*
X0179809Y0084696D01*
X0177750Y0084696D01*
X0175848Y0085484D01*
X0174393Y0086940D01*
X0173954Y0087998D01*
X0173954Y0087727D01*
X0170923Y0084696D01*
X0166636Y0084696D01*
X0163780Y0087553D01*
X0160923Y0084696D01*
X0156636Y0084696D01*
X0153780Y0087553D01*
X0150923Y0084696D01*
X0146636Y0084696D01*
X0143780Y0087553D01*
X0140923Y0084696D01*
X0136636Y0084696D01*
X0133780Y0087553D01*
X0130923Y0084696D01*
X0126636Y0084696D01*
X0123780Y0087553D01*
X0120923Y0084696D01*
X0116636Y0084696D01*
X0113780Y0087553D01*
X0110923Y0084696D01*
X0106636Y0084696D01*
X0103605Y0087727D01*
X0103605Y0092014D01*
X0106636Y0095046D01*
X0110923Y0095046D01*
X0113780Y0092189D01*
X0116636Y0095046D01*
X0120923Y0095046D01*
X0123780Y0092189D01*
X0126636Y0095046D01*
X0130923Y0095046D01*
X0133780Y0092189D01*
X0136636Y0095046D01*
X0140923Y0095046D01*
X0143780Y0092189D01*
X0146636Y0095046D01*
X0150923Y0095046D01*
X0153780Y0092189D01*
X0156636Y0095046D01*
X0160923Y0095046D01*
X0163780Y0092189D01*
X0166636Y0095046D01*
X0170923Y0095046D01*
X0173954Y0092014D01*
X0173954Y0091744D01*
X0174393Y0092802D01*
X0175848Y0094258D01*
X0177750Y0095046D01*
X0179809Y0095046D01*
X0181711Y0094258D01*
X0183166Y0092802D01*
X0183954Y0090900D01*
X0183954Y0088842D01*
X0183166Y0086940D01*
X0181711Y0085484D01*
X0182331Y0086104D02*
X0228378Y0086104D01*
X0229864Y0084617D02*
X0234151Y0084617D01*
X0237008Y0087474D01*
X0239864Y0084617D01*
X0244151Y0084617D01*
X0247008Y0087474D01*
X0249864Y0084617D01*
X0254151Y0084617D01*
X0257008Y0087474D01*
X0259864Y0084617D01*
X0264151Y0084617D01*
X0267008Y0087474D01*
X0269864Y0084617D01*
X0274151Y0084617D01*
X0277008Y0087474D01*
X0279864Y0084617D01*
X0284151Y0084617D01*
X0287008Y0087474D01*
X0289864Y0084617D01*
X0294151Y0084617D01*
X0297183Y0087649D01*
X0297183Y0087919D01*
X0297621Y0086861D01*
X0299077Y0085405D01*
X0300979Y0084617D01*
X0303037Y0084617D01*
X0304939Y0085405D01*
X0306395Y0086861D01*
X0307183Y0088763D01*
X0307183Y0090821D01*
X0306395Y0092723D01*
X0304939Y0094179D01*
X0303037Y0094967D01*
X0300979Y0094967D01*
X0299077Y0094179D01*
X0297621Y0092723D01*
X0297183Y0091665D01*
X0297183Y0091936D01*
X0294151Y0094967D01*
X0289864Y0094967D01*
X0287008Y0092110D01*
X0284151Y0094967D01*
X0279864Y0094967D01*
X0277008Y0092110D01*
X0274151Y0094967D01*
X0269864Y0094967D01*
X0267008Y0092110D01*
X0264151Y0094967D01*
X0259864Y0094967D01*
X0257008Y0092110D01*
X0254151Y0094967D01*
X0249864Y0094967D01*
X0247008Y0092110D01*
X0244151Y0094967D01*
X0239864Y0094967D01*
X0237008Y0092110D01*
X0234151Y0094967D01*
X0229864Y0094967D01*
X0226833Y0091936D01*
X0226833Y0087649D01*
X0229864Y0084617D01*
X0231908Y0082907D02*
X0232108Y0082907D01*
X0232108Y0081308D02*
X0231908Y0081308D01*
X0231908Y0078111D02*
X0232108Y0078111D01*
X0232108Y0076513D02*
X0231908Y0076513D01*
X0228782Y0076513D02*
X0181927Y0076513D01*
X0183380Y0078111D02*
X0227408Y0078111D01*
X0235234Y0076513D02*
X0238782Y0076513D01*
X0237408Y0078111D02*
X0236608Y0078111D01*
X0237408Y0079892D02*
X0241908Y0079892D01*
X0241908Y0084392D01*
X0240102Y0084392D01*
X0237408Y0081698D01*
X0237408Y0079892D01*
X0237408Y0081308D02*
X0236608Y0081308D01*
X0235399Y0082907D02*
X0238617Y0082907D01*
X0238378Y0086104D02*
X0235638Y0086104D01*
X0241908Y0082907D02*
X0242108Y0082907D01*
X0242108Y0081308D02*
X0241908Y0081308D01*
X0241908Y0078111D02*
X0242108Y0078111D01*
X0242108Y0076513D02*
X0241908Y0076513D01*
X0245234Y0076513D02*
X0248782Y0076513D01*
X0247408Y0078111D02*
X0246608Y0078111D01*
X0247408Y0079892D02*
X0251908Y0079892D01*
X0251908Y0084392D01*
X0250102Y0084392D01*
X0247408Y0081698D01*
X0247408Y0079892D01*
X0247408Y0081308D02*
X0246608Y0081308D01*
X0245399Y0082907D02*
X0248617Y0082907D01*
X0248378Y0086104D02*
X0245638Y0086104D01*
X0251908Y0082907D02*
X0252108Y0082907D01*
X0252108Y0081308D02*
X0251908Y0081308D01*
X0251908Y0078111D02*
X0252108Y0078111D01*
X0252108Y0076513D02*
X0251908Y0076513D01*
X0255234Y0076513D02*
X0258782Y0076513D01*
X0257408Y0078111D02*
X0256608Y0078111D01*
X0257408Y0079892D02*
X0261908Y0079892D01*
X0261908Y0084392D01*
X0260102Y0084392D01*
X0257408Y0081698D01*
X0257408Y0079892D01*
X0257408Y0081308D02*
X0256608Y0081308D01*
X0255399Y0082907D02*
X0258617Y0082907D01*
X0258378Y0086104D02*
X0255638Y0086104D01*
X0261908Y0082907D02*
X0262108Y0082907D01*
X0262108Y0081308D02*
X0261908Y0081308D01*
X0261908Y0078111D02*
X0262108Y0078111D01*
X0262108Y0076513D02*
X0261908Y0076513D01*
X0265234Y0076513D02*
X0268782Y0076513D01*
X0267408Y0078111D02*
X0266608Y0078111D01*
X0267408Y0079892D02*
X0271908Y0079892D01*
X0271908Y0084392D01*
X0270102Y0084392D01*
X0267408Y0081698D01*
X0267408Y0079892D01*
X0267408Y0081308D02*
X0266608Y0081308D01*
X0265399Y0082907D02*
X0268617Y0082907D01*
X0268378Y0086104D02*
X0265638Y0086104D01*
X0271908Y0082907D02*
X0272108Y0082907D01*
X0272108Y0081308D02*
X0271908Y0081308D01*
X0271908Y0078111D02*
X0272108Y0078111D01*
X0272108Y0076513D02*
X0271908Y0076513D01*
X0275234Y0076513D02*
X0278782Y0076513D01*
X0277408Y0078111D02*
X0276608Y0078111D01*
X0277408Y0079892D02*
X0281908Y0079892D01*
X0281908Y0084392D01*
X0280102Y0084392D01*
X0277408Y0081698D01*
X0277408Y0079892D01*
X0277408Y0081308D02*
X0276608Y0081308D01*
X0275399Y0082907D02*
X0278617Y0082907D01*
X0278378Y0086104D02*
X0275638Y0086104D01*
X0281908Y0082907D02*
X0282108Y0082907D01*
X0282108Y0081308D02*
X0281908Y0081308D01*
X0281908Y0078111D02*
X0282108Y0078111D01*
X0282108Y0076513D02*
X0281908Y0076513D01*
X0285234Y0076513D02*
X0288782Y0076513D01*
X0287408Y0078111D02*
X0286608Y0078111D01*
X0287408Y0079892D02*
X0291908Y0079892D01*
X0291908Y0084392D01*
X0290102Y0084392D01*
X0287408Y0081698D01*
X0287408Y0079892D01*
X0287408Y0081308D02*
X0286608Y0081308D01*
X0285399Y0082907D02*
X0288617Y0082907D01*
X0288378Y0086104D02*
X0285638Y0086104D01*
X0291908Y0082907D02*
X0292108Y0082907D01*
X0292108Y0081308D02*
X0291908Y0081308D01*
X0291908Y0078111D02*
X0292108Y0078111D01*
X0292108Y0076513D02*
X0291908Y0076513D01*
X0295234Y0076513D02*
X0298782Y0076513D01*
X0297408Y0078111D02*
X0296608Y0078111D01*
X0297408Y0079892D02*
X0301908Y0079892D01*
X0301908Y0084392D01*
X0300102Y0084392D01*
X0297408Y0081698D01*
X0297408Y0079892D01*
X0297408Y0081308D02*
X0296608Y0081308D01*
X0295399Y0082907D02*
X0298617Y0082907D01*
X0298378Y0086104D02*
X0295638Y0086104D01*
X0297183Y0087702D02*
X0297272Y0087702D01*
X0297527Y0092498D02*
X0296621Y0092498D01*
X0295022Y0094096D02*
X0298994Y0094096D01*
X0305022Y0094096D02*
X0339950Y0094096D01*
X0339950Y0092498D02*
X0306488Y0092498D01*
X0307150Y0090899D02*
X0339950Y0090899D01*
X0339950Y0089301D02*
X0307183Y0089301D01*
X0306743Y0087702D02*
X0339950Y0087702D01*
X0339950Y0086104D02*
X0305638Y0086104D01*
X0305399Y0082907D02*
X0339950Y0082907D01*
X0339950Y0084505D02*
X0090050Y0084505D01*
X0090050Y0082907D02*
X0105310Y0082907D01*
X0104180Y0081776D02*
X0104180Y0079971D01*
X0108679Y0079971D01*
X0108679Y0079771D01*
X0104180Y0079771D01*
X0104180Y0077965D01*
X0106874Y0075271D01*
X0108680Y0075271D01*
X0108680Y0079771D01*
X0108880Y0079771D01*
X0108880Y0079971D01*
X0113380Y0079971D01*
X0113380Y0081776D01*
X0110685Y0084471D01*
X0108880Y0084471D01*
X0108880Y0079971D01*
X0108680Y0079971D01*
X0108680Y0084471D01*
X0106874Y0084471D01*
X0104180Y0081776D01*
X0104180Y0081308D02*
X0090050Y0081308D01*
X0090050Y0079710D02*
X0104180Y0079710D01*
X0104180Y0078111D02*
X0090050Y0078111D01*
X0089880Y0076513D02*
X0105632Y0076513D01*
X0108680Y0076513D02*
X0108880Y0076513D01*
X0108880Y0075271D02*
X0110685Y0075271D01*
X0113380Y0077965D01*
X0113380Y0079771D01*
X0108880Y0079771D01*
X0108880Y0075271D01*
X0108880Y0078111D02*
X0108680Y0078111D01*
X0108680Y0079710D02*
X0108880Y0079710D01*
X0108880Y0081308D02*
X0108680Y0081308D01*
X0108680Y0082907D02*
X0108880Y0082907D01*
X0112249Y0082907D02*
X0115310Y0082907D01*
X0114180Y0081776D02*
X0114180Y0079971D01*
X0118679Y0079971D01*
X0118679Y0079771D01*
X0114180Y0079771D01*
X0114180Y0077965D01*
X0116874Y0075271D01*
X0118680Y0075271D01*
X0118680Y0079771D01*
X0118880Y0079771D01*
X0118880Y0079971D01*
X0123380Y0079971D01*
X0123380Y0081776D01*
X0120685Y0084471D01*
X0118880Y0084471D01*
X0118880Y0079971D01*
X0118680Y0079971D01*
X0118680Y0084471D01*
X0116874Y0084471D01*
X0114180Y0081776D01*
X0114180Y0081308D02*
X0113380Y0081308D01*
X0113380Y0079710D02*
X0114180Y0079710D01*
X0114180Y0078111D02*
X0113380Y0078111D01*
X0111927Y0076513D02*
X0115632Y0076513D01*
X0118680Y0076513D02*
X0118880Y0076513D01*
X0118880Y0075271D02*
X0120685Y0075271D01*
X0123380Y0077965D01*
X0123380Y0079771D01*
X0118880Y0079771D01*
X0118880Y0075271D01*
X0118880Y0078111D02*
X0118680Y0078111D01*
X0118680Y0079710D02*
X0118880Y0079710D01*
X0118880Y0081308D02*
X0118680Y0081308D01*
X0118680Y0082907D02*
X0118880Y0082907D01*
X0122249Y0082907D02*
X0125310Y0082907D01*
X0124180Y0081776D02*
X0124180Y0079971D01*
X0128679Y0079971D01*
X0128679Y0079771D01*
X0124180Y0079771D01*
X0124180Y0077965D01*
X0126874Y0075271D01*
X0128680Y0075271D01*
X0128680Y0079771D01*
X0128880Y0079771D01*
X0128880Y0079971D01*
X0133380Y0079971D01*
X0133380Y0081776D01*
X0130685Y0084471D01*
X0128880Y0084471D01*
X0128880Y0079971D01*
X0128680Y0079971D01*
X0128680Y0084471D01*
X0126874Y0084471D01*
X0124180Y0081776D01*
X0124180Y0081308D02*
X0123380Y0081308D01*
X0123380Y0079710D02*
X0124180Y0079710D01*
X0124180Y0078111D02*
X0123380Y0078111D01*
X0121927Y0076513D02*
X0125632Y0076513D01*
X0128680Y0076513D02*
X0128880Y0076513D01*
X0128880Y0075271D02*
X0130685Y0075271D01*
X0133380Y0077965D01*
X0133380Y0079771D01*
X0128880Y0079771D01*
X0128880Y0075271D01*
X0128880Y0078111D02*
X0128680Y0078111D01*
X0128680Y0079710D02*
X0128880Y0079710D01*
X0128880Y0081308D02*
X0128680Y0081308D01*
X0128680Y0082907D02*
X0128880Y0082907D01*
X0132249Y0082907D02*
X0135310Y0082907D01*
X0134180Y0081776D02*
X0134180Y0079971D01*
X0138679Y0079971D01*
X0138679Y0079771D01*
X0134180Y0079771D01*
X0134180Y0077965D01*
X0136874Y0075271D01*
X0138680Y0075271D01*
X0138680Y0079771D01*
X0138880Y0079771D01*
X0138880Y0079971D01*
X0143380Y0079971D01*
X0143380Y0081776D01*
X0140685Y0084471D01*
X0138880Y0084471D01*
X0138880Y0079971D01*
X0138680Y0079971D01*
X0138680Y0084471D01*
X0136874Y0084471D01*
X0134180Y0081776D01*
X0134180Y0081308D02*
X0133380Y0081308D01*
X0133380Y0079710D02*
X0134180Y0079710D01*
X0134180Y0078111D02*
X0133380Y0078111D01*
X0131927Y0076513D02*
X0135632Y0076513D01*
X0138680Y0076513D02*
X0138880Y0076513D01*
X0138880Y0075271D02*
X0140685Y0075271D01*
X0143380Y0077965D01*
X0143380Y0079771D01*
X0138880Y0079771D01*
X0138880Y0075271D01*
X0138880Y0078111D02*
X0138680Y0078111D01*
X0138680Y0079710D02*
X0138880Y0079710D01*
X0138880Y0081308D02*
X0138680Y0081308D01*
X0138680Y0082907D02*
X0138880Y0082907D01*
X0142249Y0082907D02*
X0145310Y0082907D01*
X0144180Y0081776D02*
X0144180Y0079971D01*
X0148679Y0079971D01*
X0148679Y0079771D01*
X0144180Y0079771D01*
X0144180Y0077965D01*
X0146874Y0075271D01*
X0148680Y0075271D01*
X0148680Y0079771D01*
X0148880Y0079771D01*
X0148880Y0079971D01*
X0153380Y0079971D01*
X0153380Y0081776D01*
X0150685Y0084471D01*
X0148880Y0084471D01*
X0148880Y0079971D01*
X0148680Y0079971D01*
X0148680Y0084471D01*
X0146874Y0084471D01*
X0144180Y0081776D01*
X0144180Y0081308D02*
X0143380Y0081308D01*
X0143380Y0079710D02*
X0144180Y0079710D01*
X0144180Y0078111D02*
X0143380Y0078111D01*
X0141927Y0076513D02*
X0145632Y0076513D01*
X0148680Y0076513D02*
X0148880Y0076513D01*
X0148880Y0075271D02*
X0150685Y0075271D01*
X0153380Y0077965D01*
X0153380Y0079771D01*
X0148880Y0079771D01*
X0148880Y0075271D01*
X0148880Y0078111D02*
X0148680Y0078111D01*
X0148680Y0079710D02*
X0148880Y0079710D01*
X0148880Y0081308D02*
X0148680Y0081308D01*
X0148680Y0082907D02*
X0148880Y0082907D01*
X0152249Y0082907D02*
X0155310Y0082907D01*
X0154180Y0081776D02*
X0154180Y0079971D01*
X0158679Y0079971D01*
X0158679Y0079771D01*
X0154180Y0079771D01*
X0154180Y0077965D01*
X0156874Y0075271D01*
X0158680Y0075271D01*
X0158680Y0079771D01*
X0158880Y0079771D01*
X0158880Y0079971D01*
X0163380Y0079971D01*
X0163380Y0081776D01*
X0160685Y0084471D01*
X0158880Y0084471D01*
X0158880Y0079971D01*
X0158680Y0079971D01*
X0158680Y0084471D01*
X0156874Y0084471D01*
X0154180Y0081776D01*
X0154180Y0081308D02*
X0153380Y0081308D01*
X0153380Y0079710D02*
X0154180Y0079710D01*
X0154180Y0078111D02*
X0153380Y0078111D01*
X0151927Y0076513D02*
X0155632Y0076513D01*
X0158680Y0076513D02*
X0158880Y0076513D01*
X0158880Y0075271D02*
X0160685Y0075271D01*
X0163380Y0077965D01*
X0163380Y0079771D01*
X0158880Y0079771D01*
X0158880Y0075271D01*
X0158880Y0078111D02*
X0158680Y0078111D01*
X0158680Y0079710D02*
X0158880Y0079710D01*
X0158880Y0081308D02*
X0158680Y0081308D01*
X0158680Y0082907D02*
X0158880Y0082907D01*
X0162249Y0082907D02*
X0165310Y0082907D01*
X0164180Y0081776D02*
X0164180Y0079971D01*
X0168679Y0079971D01*
X0168679Y0079771D01*
X0164180Y0079771D01*
X0164180Y0077965D01*
X0166874Y0075271D01*
X0168680Y0075271D01*
X0168680Y0079771D01*
X0168880Y0079771D01*
X0168880Y0079971D01*
X0173380Y0079971D01*
X0173380Y0081776D01*
X0170685Y0084471D01*
X0168880Y0084471D01*
X0168880Y0079971D01*
X0168680Y0079971D01*
X0168680Y0084471D01*
X0166874Y0084471D01*
X0164180Y0081776D01*
X0164180Y0081308D02*
X0163380Y0081308D01*
X0163380Y0079710D02*
X0164180Y0079710D01*
X0164180Y0078111D02*
X0163380Y0078111D01*
X0161927Y0076513D02*
X0165632Y0076513D01*
X0168680Y0076513D02*
X0168880Y0076513D01*
X0168880Y0075271D02*
X0170685Y0075271D01*
X0173380Y0077965D01*
X0173380Y0079771D01*
X0168880Y0079771D01*
X0168880Y0075271D01*
X0168880Y0078111D02*
X0168680Y0078111D01*
X0168680Y0079710D02*
X0168880Y0079710D01*
X0168880Y0081308D02*
X0168680Y0081308D01*
X0168680Y0082907D02*
X0168880Y0082907D01*
X0172249Y0082907D02*
X0175310Y0082907D01*
X0174180Y0081308D02*
X0173380Y0081308D01*
X0173380Y0079710D02*
X0174180Y0079710D01*
X0174180Y0078111D02*
X0173380Y0078111D01*
X0171927Y0076513D02*
X0175632Y0076513D01*
X0178680Y0076513D02*
X0178880Y0076513D01*
X0178880Y0078111D02*
X0178680Y0078111D01*
X0178680Y0079710D02*
X0178880Y0079710D01*
X0178880Y0081308D02*
X0178680Y0081308D01*
X0178680Y0082907D02*
X0178880Y0082907D01*
X0175228Y0086104D02*
X0172331Y0086104D01*
X0173929Y0087702D02*
X0174077Y0087702D01*
X0174266Y0092498D02*
X0173471Y0092498D01*
X0171872Y0094096D02*
X0175687Y0094096D01*
X0181872Y0094096D02*
X0228994Y0094096D01*
X0227395Y0092498D02*
X0183293Y0092498D01*
X0183954Y0090899D02*
X0226833Y0090899D01*
X0226833Y0089301D02*
X0183954Y0089301D01*
X0183482Y0087702D02*
X0226833Y0087702D01*
X0235022Y0094096D02*
X0238994Y0094096D01*
X0237395Y0092498D02*
X0236621Y0092498D01*
X0245022Y0094096D02*
X0248994Y0094096D01*
X0247395Y0092498D02*
X0246621Y0092498D01*
X0255022Y0094096D02*
X0258994Y0094096D01*
X0257395Y0092498D02*
X0256621Y0092498D01*
X0265022Y0094096D02*
X0268994Y0094096D01*
X0267395Y0092498D02*
X0266621Y0092498D01*
X0275022Y0094096D02*
X0278994Y0094096D01*
X0277395Y0092498D02*
X0276621Y0092498D01*
X0285022Y0094096D02*
X0288994Y0094096D01*
X0287395Y0092498D02*
X0286621Y0092498D01*
X0301908Y0082907D02*
X0302108Y0082907D01*
X0302108Y0081308D02*
X0301908Y0081308D01*
X0302108Y0079710D02*
X0339950Y0079710D01*
X0339950Y0081308D02*
X0306608Y0081308D01*
X0306608Y0078111D02*
X0339950Y0078111D01*
X0339950Y0095695D02*
X0090050Y0095695D01*
X0090050Y0097293D02*
X0339950Y0097293D01*
X0339950Y0098892D02*
X0090050Y0098892D01*
X0090050Y0100490D02*
X0339950Y0100490D01*
X0339950Y0102089D02*
X0090050Y0102089D01*
X0090050Y0103687D02*
X0339950Y0103687D01*
X0339950Y0105286D02*
X0305326Y0105286D01*
X0304826Y0104786D02*
X0306225Y0106185D01*
X0306983Y0108014D01*
X0306983Y0115193D01*
X0306225Y0117021D01*
X0304826Y0118421D01*
X0302997Y0119178D01*
X0301018Y0119178D01*
X0299190Y0118421D01*
X0297790Y0117021D01*
X0297033Y0115193D01*
X0297033Y0108014D01*
X0297790Y0106185D01*
X0299190Y0104786D01*
X0301018Y0104028D01*
X0302997Y0104028D01*
X0304826Y0104786D01*
X0306515Y0106884D02*
X0339950Y0106884D01*
X0339950Y0108483D02*
X0306983Y0108483D01*
X0306983Y0110081D02*
X0339950Y0110081D01*
X0339950Y0111680D02*
X0306983Y0111680D01*
X0306983Y0113278D02*
X0321449Y0113278D01*
X0320323Y0114404D02*
X0322901Y0111827D01*
X0324723Y0111827D01*
X0324723Y0116227D01*
X0324723Y0120627D01*
X0322901Y0120627D01*
X0320323Y0118049D01*
X0320323Y0116227D01*
X0324723Y0116227D01*
X0324723Y0116227D01*
X0324723Y0116227D01*
X0324723Y0120627D01*
X0326546Y0120627D01*
X0329123Y0118049D01*
X0329123Y0116227D01*
X0324723Y0116227D01*
X0320323Y0116227D01*
X0320323Y0114404D01*
X0320323Y0114877D02*
X0306983Y0114877D01*
X0306451Y0116475D02*
X0320323Y0116475D01*
X0320348Y0118074D02*
X0305173Y0118074D01*
X0298843Y0118074D02*
X0295173Y0118074D01*
X0294826Y0118421D02*
X0292997Y0119178D01*
X0291018Y0119178D01*
X0289190Y0118421D01*
X0287790Y0117021D01*
X0287033Y0115193D01*
X0287033Y0108014D01*
X0287790Y0106185D01*
X0289190Y0104786D01*
X0291018Y0104028D01*
X0292997Y0104028D01*
X0294826Y0104786D01*
X0296225Y0106185D01*
X0296983Y0108014D01*
X0296983Y0115193D01*
X0296225Y0117021D01*
X0294826Y0118421D01*
X0296451Y0116475D02*
X0297564Y0116475D01*
X0297033Y0114877D02*
X0296983Y0114877D01*
X0296983Y0113278D02*
X0297033Y0113278D01*
X0296983Y0111680D02*
X0297033Y0111680D01*
X0296983Y0110081D02*
X0297033Y0110081D01*
X0296983Y0108483D02*
X0297033Y0108483D01*
X0297501Y0106884D02*
X0296515Y0106884D01*
X0295326Y0105286D02*
X0298690Y0105286D01*
X0288690Y0105286D02*
X0285326Y0105286D01*
X0284826Y0104786D02*
X0286225Y0106185D01*
X0286983Y0108014D01*
X0286983Y0115193D01*
X0286225Y0117021D01*
X0284826Y0118421D01*
X0282997Y0119178D01*
X0281018Y0119178D01*
X0279190Y0118421D01*
X0277790Y0117021D01*
X0277033Y0115193D01*
X0277033Y0108014D01*
X0277790Y0106185D01*
X0279190Y0104786D01*
X0281018Y0104028D01*
X0282997Y0104028D01*
X0284826Y0104786D01*
X0286515Y0106884D02*
X0287501Y0106884D01*
X0287033Y0108483D02*
X0286983Y0108483D01*
X0286983Y0110081D02*
X0287033Y0110081D01*
X0286983Y0111680D02*
X0287033Y0111680D01*
X0286983Y0113278D02*
X0287033Y0113278D01*
X0286983Y0114877D02*
X0287033Y0114877D01*
X0287564Y0116475D02*
X0286451Y0116475D01*
X0285173Y0118074D02*
X0288843Y0118074D01*
X0278843Y0118074D02*
X0275173Y0118074D01*
X0274826Y0118421D02*
X0272997Y0119178D01*
X0271018Y0119178D01*
X0269190Y0118421D01*
X0267790Y0117021D01*
X0267033Y0115193D01*
X0267033Y0108014D01*
X0267790Y0106185D01*
X0269190Y0104786D01*
X0271018Y0104028D01*
X0272997Y0104028D01*
X0274826Y0104786D01*
X0276225Y0106185D01*
X0276983Y0108014D01*
X0276983Y0115193D01*
X0276225Y0117021D01*
X0274826Y0118421D01*
X0276451Y0116475D02*
X0277564Y0116475D01*
X0277033Y0114877D02*
X0276983Y0114877D01*
X0276983Y0113278D02*
X0277033Y0113278D01*
X0276983Y0111680D02*
X0277033Y0111680D01*
X0276983Y0110081D02*
X0277033Y0110081D01*
X0276983Y0108483D02*
X0277033Y0108483D01*
X0277501Y0106884D02*
X0276515Y0106884D01*
X0275326Y0105286D02*
X0278690Y0105286D01*
X0268690Y0105286D02*
X0265326Y0105286D01*
X0264826Y0104786D02*
X0266225Y0106185D01*
X0266983Y0108014D01*
X0266983Y0115193D01*
X0266225Y0117021D01*
X0264826Y0118421D01*
X0262997Y0119178D01*
X0261018Y0119178D01*
X0259190Y0118421D01*
X0257790Y0117021D01*
X0257033Y0115193D01*
X0257033Y0108014D01*
X0257790Y0106185D01*
X0259190Y0104786D01*
X0261018Y0104028D01*
X0262997Y0104028D01*
X0264826Y0104786D01*
X0266515Y0106884D02*
X0267501Y0106884D01*
X0267033Y0108483D02*
X0266983Y0108483D01*
X0266983Y0110081D02*
X0267033Y0110081D01*
X0266983Y0111680D02*
X0267033Y0111680D01*
X0266983Y0113278D02*
X0267033Y0113278D01*
X0266983Y0114877D02*
X0267033Y0114877D01*
X0267564Y0116475D02*
X0266451Y0116475D01*
X0265173Y0118074D02*
X0268843Y0118074D01*
X0258843Y0118074D02*
X0255173Y0118074D01*
X0254826Y0118421D02*
X0252997Y0119178D01*
X0251018Y0119178D01*
X0249190Y0118421D01*
X0247790Y0117021D01*
X0247033Y0115193D01*
X0247033Y0108014D01*
X0247790Y0106185D01*
X0249190Y0104786D01*
X0251018Y0104028D01*
X0252997Y0104028D01*
X0254826Y0104786D01*
X0256225Y0106185D01*
X0256983Y0108014D01*
X0256983Y0115193D01*
X0256225Y0117021D01*
X0254826Y0118421D01*
X0256451Y0116475D02*
X0257564Y0116475D01*
X0257033Y0114877D02*
X0256983Y0114877D01*
X0256983Y0113278D02*
X0257033Y0113278D01*
X0256983Y0111680D02*
X0257033Y0111680D01*
X0256983Y0110081D02*
X0257033Y0110081D01*
X0256983Y0108483D02*
X0257033Y0108483D01*
X0257501Y0106884D02*
X0256515Y0106884D01*
X0255326Y0105286D02*
X0258690Y0105286D01*
X0248690Y0105286D02*
X0245326Y0105286D01*
X0244826Y0104786D02*
X0246225Y0106185D01*
X0246983Y0108014D01*
X0246983Y0115193D01*
X0246225Y0117021D01*
X0244826Y0118421D01*
X0242997Y0119178D01*
X0241018Y0119178D01*
X0239190Y0118421D01*
X0237790Y0117021D01*
X0237033Y0115193D01*
X0237033Y0108014D01*
X0237790Y0106185D01*
X0239190Y0104786D01*
X0241018Y0104028D01*
X0242997Y0104028D01*
X0244826Y0104786D01*
X0246515Y0106884D02*
X0247501Y0106884D01*
X0247033Y0108483D02*
X0246983Y0108483D01*
X0246983Y0110081D02*
X0247033Y0110081D01*
X0246983Y0111680D02*
X0247033Y0111680D01*
X0246983Y0113278D02*
X0247033Y0113278D01*
X0246983Y0114877D02*
X0247033Y0114877D01*
X0247564Y0116475D02*
X0246451Y0116475D01*
X0245173Y0118074D02*
X0248843Y0118074D01*
X0238843Y0118074D02*
X0235173Y0118074D01*
X0234826Y0118421D02*
X0232997Y0119178D01*
X0231018Y0119178D01*
X0229190Y0118421D01*
X0227790Y0117021D01*
X0227033Y0115193D01*
X0227033Y0108014D01*
X0227790Y0106185D01*
X0229190Y0104786D01*
X0231018Y0104028D01*
X0232997Y0104028D01*
X0234826Y0104786D01*
X0236225Y0106185D01*
X0236983Y0108014D01*
X0236983Y0115193D01*
X0236225Y0117021D01*
X0234826Y0118421D01*
X0236451Y0116475D02*
X0237564Y0116475D01*
X0237033Y0114877D02*
X0236983Y0114877D01*
X0236983Y0113278D02*
X0237033Y0113278D01*
X0236983Y0111680D02*
X0237033Y0111680D01*
X0236983Y0110081D02*
X0237033Y0110081D01*
X0236983Y0108483D02*
X0237033Y0108483D01*
X0237501Y0106884D02*
X0236515Y0106884D01*
X0235326Y0105286D02*
X0238690Y0105286D01*
X0228690Y0105286D02*
X0181310Y0105286D01*
X0181204Y0105179D02*
X0182603Y0106579D01*
X0183361Y0108407D01*
X0183361Y0115586D01*
X0182603Y0117415D01*
X0181204Y0118814D01*
X0179375Y0119572D01*
X0177396Y0119572D01*
X0175568Y0118814D01*
X0174168Y0117415D01*
X0173411Y0115586D01*
X0173411Y0108407D01*
X0174168Y0106579D01*
X0175568Y0105179D01*
X0177396Y0104422D01*
X0179375Y0104422D01*
X0181204Y0105179D01*
X0182730Y0106884D02*
X0227501Y0106884D01*
X0227033Y0108483D02*
X0183361Y0108483D01*
X0183361Y0110081D02*
X0227033Y0110081D01*
X0227033Y0111680D02*
X0207677Y0111680D01*
X0207019Y0111022D02*
X0205197Y0111022D01*
X0205197Y0115422D01*
X0205197Y0115422D01*
X0209597Y0115422D01*
X0209597Y0113600D01*
X0207019Y0111022D01*
X0205197Y0111022D02*
X0205197Y0115422D01*
X0209597Y0115422D01*
X0209597Y0117245D01*
X0207019Y0119822D01*
X0205197Y0119822D01*
X0205197Y0115422D01*
X0205197Y0115422D01*
X0205197Y0115422D01*
X0205197Y0119822D01*
X0203374Y0119822D01*
X0200797Y0117245D01*
X0200797Y0115422D01*
X0200797Y0113600D01*
X0203374Y0111022D01*
X0205197Y0111022D01*
X0205197Y0111680D02*
X0205197Y0111680D01*
X0205197Y0113278D02*
X0205197Y0113278D01*
X0205197Y0114877D02*
X0205197Y0114877D01*
X0205197Y0115422D02*
X0200797Y0115422D01*
X0205197Y0115422D01*
X0205197Y0115422D01*
X0205197Y0116475D02*
X0205197Y0116475D01*
X0205197Y0118074D02*
X0205197Y0118074D01*
X0205197Y0119672D02*
X0205197Y0119672D01*
X0207169Y0119672D02*
X0321947Y0119672D01*
X0324723Y0119672D02*
X0324723Y0119672D01*
X0324723Y0118074D02*
X0324723Y0118074D01*
X0324723Y0116475D02*
X0324723Y0116475D01*
X0324723Y0116227D02*
X0324723Y0116227D01*
X0324723Y0116227D01*
X0329123Y0116227D01*
X0329123Y0114404D01*
X0326546Y0111827D01*
X0324723Y0111827D01*
X0324723Y0116227D01*
X0324723Y0114877D02*
X0324723Y0114877D01*
X0324723Y0113278D02*
X0324723Y0113278D01*
X0327998Y0113278D02*
X0339950Y0113278D01*
X0339950Y0114877D02*
X0329123Y0114877D01*
X0329123Y0116475D02*
X0339950Y0116475D01*
X0339950Y0118074D02*
X0329099Y0118074D01*
X0327500Y0119672D02*
X0339950Y0119672D01*
X0339950Y0121271D02*
X0090050Y0121271D01*
X0090050Y0122869D02*
X0339950Y0122869D01*
X0339950Y0124468D02*
X0090050Y0124468D01*
X0090050Y0126066D02*
X0339950Y0126066D01*
X0339950Y0127665D02*
X0090050Y0127665D01*
X0090050Y0129263D02*
X0339950Y0129263D01*
X0339950Y0130862D02*
X0207672Y0130862D01*
X0207257Y0130447D02*
X0210172Y0133361D01*
X0210172Y0137483D01*
X0207257Y0140397D01*
X0203136Y0140397D01*
X0200222Y0137483D01*
X0200222Y0133361D01*
X0203136Y0130447D01*
X0207257Y0130447D01*
X0209271Y0132461D02*
X0321454Y0132461D01*
X0322663Y0131252D02*
X0326784Y0131252D01*
X0329698Y0134166D01*
X0329698Y0138287D01*
X0326784Y0141201D01*
X0322663Y0141201D01*
X0319748Y0138287D01*
X0319748Y0134166D01*
X0322663Y0131252D01*
X0319855Y0134059D02*
X0303071Y0134059D01*
X0302997Y0134028D02*
X0304826Y0134786D01*
X0306225Y0136185D01*
X0306983Y0138014D01*
X0306983Y0145193D01*
X0306225Y0147021D01*
X0304826Y0148421D01*
X0302997Y0149178D01*
X0301018Y0149178D01*
X0299190Y0148421D01*
X0297790Y0147021D01*
X0297033Y0145193D01*
X0297033Y0138014D01*
X0297790Y0136185D01*
X0299190Y0134786D01*
X0301018Y0134028D01*
X0302997Y0134028D01*
X0300944Y0134059D02*
X0293071Y0134059D01*
X0292997Y0134028D02*
X0294826Y0134786D01*
X0296225Y0136185D01*
X0296983Y0138014D01*
X0296983Y0145193D01*
X0296225Y0147021D01*
X0294826Y0148421D01*
X0292997Y0149178D01*
X0291018Y0149178D01*
X0289190Y0148421D01*
X0287790Y0147021D01*
X0287033Y0145193D01*
X0287033Y0138014D01*
X0287790Y0136185D01*
X0289190Y0134786D01*
X0291018Y0134028D01*
X0292997Y0134028D01*
X0290944Y0134059D02*
X0283071Y0134059D01*
X0282997Y0134028D02*
X0284826Y0134786D01*
X0286225Y0136185D01*
X0286983Y0138014D01*
X0286983Y0145193D01*
X0286225Y0147021D01*
X0284826Y0148421D01*
X0282997Y0149178D01*
X0281018Y0149178D01*
X0279190Y0148421D01*
X0277790Y0147021D01*
X0277033Y0145193D01*
X0277033Y0138014D01*
X0277790Y0136185D01*
X0279190Y0134786D01*
X0281018Y0134028D01*
X0282997Y0134028D01*
X0280944Y0134059D02*
X0273071Y0134059D01*
X0272997Y0134028D02*
X0274826Y0134786D01*
X0276225Y0136185D01*
X0276983Y0138014D01*
X0276983Y0145193D01*
X0276225Y0147021D01*
X0274826Y0148421D01*
X0272997Y0149178D01*
X0271018Y0149178D01*
X0269190Y0148421D01*
X0267790Y0147021D01*
X0267033Y0145193D01*
X0267033Y0138014D01*
X0267790Y0136185D01*
X0269190Y0134786D01*
X0271018Y0134028D01*
X0272997Y0134028D01*
X0270944Y0134059D02*
X0263071Y0134059D01*
X0262997Y0134028D02*
X0264826Y0134786D01*
X0266225Y0136185D01*
X0266983Y0138014D01*
X0266983Y0145193D01*
X0266225Y0147021D01*
X0264826Y0148421D01*
X0262997Y0149178D01*
X0261018Y0149178D01*
X0259190Y0148421D01*
X0257790Y0147021D01*
X0257033Y0145193D01*
X0257033Y0138014D01*
X0257790Y0136185D01*
X0259190Y0134786D01*
X0261018Y0134028D01*
X0262997Y0134028D01*
X0260944Y0134059D02*
X0253071Y0134059D01*
X0252997Y0134028D02*
X0254826Y0134786D01*
X0256225Y0136185D01*
X0256983Y0138014D01*
X0256983Y0145193D01*
X0256225Y0147021D01*
X0254826Y0148421D01*
X0252997Y0149178D01*
X0251018Y0149178D01*
X0249190Y0148421D01*
X0247790Y0147021D01*
X0247033Y0145193D01*
X0247033Y0138014D01*
X0247790Y0136185D01*
X0249190Y0134786D01*
X0251018Y0134028D01*
X0252997Y0134028D01*
X0250944Y0134059D02*
X0243071Y0134059D01*
X0242997Y0134028D02*
X0244826Y0134786D01*
X0246225Y0136185D01*
X0246983Y0138014D01*
X0246983Y0145193D01*
X0246225Y0147021D01*
X0244826Y0148421D01*
X0242997Y0149178D01*
X0241018Y0149178D01*
X0239190Y0148421D01*
X0237790Y0147021D01*
X0237033Y0145193D01*
X0237033Y0138014D01*
X0237790Y0136185D01*
X0239190Y0134786D01*
X0241018Y0134028D01*
X0242997Y0134028D01*
X0240944Y0134059D02*
X0233071Y0134059D01*
X0232997Y0134028D02*
X0234826Y0134786D01*
X0236225Y0136185D01*
X0236983Y0138014D01*
X0236983Y0145193D01*
X0236225Y0147021D01*
X0234826Y0148421D01*
X0232997Y0149178D01*
X0231018Y0149178D01*
X0229190Y0148421D01*
X0227790Y0147021D01*
X0227033Y0145193D01*
X0227033Y0138014D01*
X0227790Y0136185D01*
X0229190Y0134786D01*
X0231018Y0134028D01*
X0232997Y0134028D01*
X0230944Y0134059D02*
X0210172Y0134059D01*
X0210172Y0135658D02*
X0228318Y0135658D01*
X0227347Y0137256D02*
X0210172Y0137256D01*
X0208800Y0138855D02*
X0227033Y0138855D01*
X0227033Y0140453D02*
X0183361Y0140453D01*
X0183361Y0138855D02*
X0201594Y0138855D01*
X0200222Y0137256D02*
X0182884Y0137256D01*
X0182603Y0136579D02*
X0183361Y0138407D01*
X0183361Y0145586D01*
X0182603Y0147415D01*
X0181204Y0148814D01*
X0179375Y0149572D01*
X0177396Y0149572D01*
X0175568Y0148814D01*
X0174168Y0147415D01*
X0173411Y0145586D01*
X0173411Y0138407D01*
X0174168Y0136579D01*
X0175568Y0135179D01*
X0177396Y0134422D01*
X0179375Y0134422D01*
X0181204Y0135179D01*
X0182603Y0136579D01*
X0181682Y0135658D02*
X0200222Y0135658D01*
X0200222Y0134059D02*
X0090050Y0134059D01*
X0090050Y0132461D02*
X0201123Y0132461D01*
X0202721Y0130862D02*
X0090050Y0130862D01*
X0090050Y0135658D02*
X0105090Y0135658D01*
X0105568Y0135179D02*
X0107396Y0134422D01*
X0109375Y0134422D01*
X0111204Y0135179D01*
X0112603Y0136579D01*
X0113361Y0138407D01*
X0113361Y0145586D01*
X0112603Y0147415D01*
X0111204Y0148814D01*
X0109375Y0149572D01*
X0107396Y0149572D01*
X0105568Y0148814D01*
X0104168Y0147415D01*
X0103411Y0145586D01*
X0103411Y0138407D01*
X0104168Y0136579D01*
X0105568Y0135179D01*
X0103888Y0137256D02*
X0090050Y0137256D01*
X0090050Y0138855D02*
X0103411Y0138855D01*
X0103411Y0140453D02*
X0090050Y0140453D01*
X0090050Y0142052D02*
X0103411Y0142052D01*
X0103411Y0143650D02*
X0090050Y0143650D01*
X0090050Y0145249D02*
X0103411Y0145249D01*
X0103933Y0146847D02*
X0090050Y0146847D01*
X0090050Y0148446D02*
X0105199Y0148446D01*
X0107632Y0152060D02*
X0109612Y0152060D01*
X0111440Y0152817D01*
X0112839Y0154217D01*
X0113597Y0156045D01*
X0113597Y0163224D01*
X0112839Y0165053D01*
X0111440Y0166452D01*
X0109612Y0167209D01*
X0107632Y0167209D01*
X0105804Y0166452D01*
X0104405Y0165053D01*
X0103647Y0163224D01*
X0103647Y0156045D01*
X0104405Y0154217D01*
X0105804Y0152817D01*
X0107632Y0152060D01*
X0105380Y0153241D02*
X0090050Y0153241D01*
X0090050Y0151643D02*
X0339950Y0151643D01*
X0339950Y0153241D02*
X0325880Y0153241D01*
X0326462Y0153823D02*
X0327219Y0155651D01*
X0327219Y0162830D01*
X0326462Y0164659D01*
X0325062Y0166058D01*
X0323234Y0166816D01*
X0321255Y0166816D01*
X0319426Y0166058D01*
X0318027Y0164659D01*
X0317269Y0162830D01*
X0317269Y0155651D01*
X0318027Y0153823D01*
X0319426Y0152424D01*
X0321255Y0151666D01*
X0323234Y0151666D01*
X0325062Y0152424D01*
X0326462Y0153823D01*
X0326883Y0154840D02*
X0339950Y0154840D01*
X0339950Y0156438D02*
X0327219Y0156438D01*
X0327219Y0158037D02*
X0339950Y0158037D01*
X0339950Y0159635D02*
X0327219Y0159635D01*
X0327219Y0161234D02*
X0339950Y0161234D01*
X0339950Y0162832D02*
X0327218Y0162832D01*
X0326556Y0164431D02*
X0339950Y0164431D01*
X0339950Y0166029D02*
X0325091Y0166029D01*
X0319397Y0166029D02*
X0313592Y0166029D01*
X0313274Y0166133D02*
X0312590Y0166241D01*
X0312244Y0166241D01*
X0311898Y0166241D01*
X0311214Y0166133D01*
X0310555Y0165919D01*
X0309938Y0165604D01*
X0309378Y0165197D01*
X0308888Y0164707D01*
X0308481Y0164147D01*
X0308166Y0163530D01*
X0307952Y0162871D01*
X0307844Y0162187D01*
X0307844Y0159241D01*
X0312244Y0159241D01*
X0312244Y0159241D01*
X0312244Y0166241D01*
X0312244Y0159241D01*
X0312244Y0159241D01*
X0307844Y0159241D01*
X0307844Y0156295D01*
X0307952Y0155611D01*
X0308166Y0154952D01*
X0308481Y0154335D01*
X0308888Y0153775D01*
X0309378Y0153285D01*
X0309938Y0152878D01*
X0310555Y0152563D01*
X0311214Y0152349D01*
X0311898Y0152241D01*
X0312244Y0152241D01*
X0312244Y0159241D01*
X0312244Y0159241D01*
X0316644Y0159241D01*
X0316644Y0162187D01*
X0316536Y0162871D01*
X0316322Y0163530D01*
X0316007Y0164147D01*
X0315600Y0164707D01*
X0315110Y0165197D01*
X0314550Y0165604D01*
X0313933Y0165919D01*
X0313274Y0166133D01*
X0312244Y0166029D02*
X0312244Y0166029D01*
X0310896Y0166029D02*
X0305091Y0166029D01*
X0305062Y0166058D02*
X0303234Y0166816D01*
X0301255Y0166816D01*
X0299426Y0166058D01*
X0298027Y0164659D01*
X0297269Y0162830D01*
X0297269Y0155651D01*
X0298027Y0153823D01*
X0299426Y0152424D01*
X0301255Y0151666D01*
X0303234Y0151666D01*
X0305062Y0152424D01*
X0306462Y0153823D01*
X0307219Y0155651D01*
X0307219Y0162830D01*
X0306462Y0164659D01*
X0305062Y0166058D01*
X0306556Y0164431D02*
X0308687Y0164431D01*
X0307946Y0162832D02*
X0307218Y0162832D01*
X0307219Y0161234D02*
X0307844Y0161234D01*
X0307844Y0159635D02*
X0307219Y0159635D01*
X0307219Y0158037D02*
X0307844Y0158037D01*
X0307844Y0156438D02*
X0307219Y0156438D01*
X0306883Y0154840D02*
X0308224Y0154840D01*
X0309438Y0153241D02*
X0305880Y0153241D01*
X0304765Y0148446D02*
X0339950Y0148446D01*
X0339950Y0150044D02*
X0090050Y0150044D01*
X0089737Y0154840D02*
X0104147Y0154840D01*
X0103647Y0156438D02*
X0089372Y0156438D01*
X0089007Y0158037D02*
X0103647Y0158037D01*
X0103647Y0159635D02*
X0088613Y0159635D01*
X0087843Y0161234D02*
X0103647Y0161234D01*
X0103647Y0162832D02*
X0087073Y0162832D01*
X0086303Y0164431D02*
X0104147Y0164431D01*
X0105381Y0166029D02*
X0085244Y0166029D01*
X0083970Y0167628D02*
X0339950Y0167628D01*
X0339950Y0169226D02*
X0091349Y0169226D01*
X0092948Y0170825D02*
X0339950Y0170825D01*
X0339950Y0172423D02*
X0093476Y0172423D01*
X0093476Y0174022D02*
X0339904Y0174022D01*
X0339842Y0175620D02*
X0093330Y0175620D01*
X0083673Y0175620D02*
X0076199Y0175620D01*
X0076868Y0174022D02*
X0083527Y0174022D01*
X0083527Y0172423D02*
X0079024Y0172423D01*
X0081028Y0170825D02*
X0084055Y0170825D01*
X0082695Y0169226D02*
X0085654Y0169226D01*
X0069578Y0177219D02*
X0068645Y0177219D01*
X0068713Y0178817D02*
X0067550Y0178817D01*
X0067550Y0180416D02*
X0068713Y0180416D01*
X0068713Y0182014D02*
X0067550Y0182014D01*
X0067550Y0183613D02*
X0070121Y0183613D01*
X0071627Y0185170D02*
X0075748Y0185170D01*
X0078663Y0188084D01*
X0078663Y0192205D01*
X0075748Y0195119D01*
X0071627Y0195119D01*
X0068713Y0192205D01*
X0068713Y0188084D01*
X0071627Y0185170D01*
X0071585Y0185211D02*
X0067550Y0185211D01*
X0067550Y0186810D02*
X0069987Y0186810D01*
X0068713Y0188408D02*
X0067550Y0188408D01*
X0067550Y0190007D02*
X0068713Y0190007D01*
X0068713Y0191605D02*
X0067550Y0191605D01*
X0067550Y0193204D02*
X0069712Y0193204D01*
X0071310Y0194802D02*
X0067550Y0194802D01*
X0067550Y0196401D02*
X0085266Y0196401D01*
X0084102Y0195236D02*
X0084102Y0193414D01*
X0088501Y0193414D01*
X0088501Y0193414D01*
X0088502Y0193414D02*
X0088502Y0197814D01*
X0088502Y0193414D01*
X0092902Y0193414D01*
X0092902Y0195236D01*
X0090324Y0197814D01*
X0088502Y0197814D01*
X0086679Y0197814D01*
X0084102Y0195236D01*
X0084102Y0194802D02*
X0076065Y0194802D01*
X0077664Y0193204D02*
X0084102Y0193204D01*
X0084102Y0193414D02*
X0084102Y0191591D01*
X0086679Y0189014D01*
X0088502Y0189014D01*
X0090324Y0189014D01*
X0092902Y0191591D01*
X0092902Y0193414D01*
X0088502Y0193414D01*
X0088502Y0193414D01*
X0088502Y0193414D01*
X0088502Y0189014D01*
X0088502Y0193414D01*
X0088502Y0193414D01*
X0088501Y0193414D02*
X0084102Y0193414D01*
X0084102Y0191605D02*
X0078663Y0191605D01*
X0078663Y0190007D02*
X0085686Y0190007D01*
X0088502Y0190007D02*
X0088502Y0190007D01*
X0088502Y0191605D02*
X0088502Y0191605D01*
X0088502Y0193204D02*
X0088502Y0193204D01*
X0088502Y0194802D02*
X0088502Y0194802D01*
X0088502Y0196401D02*
X0088502Y0196401D01*
X0091737Y0196401D02*
X0107206Y0196401D01*
X0108622Y0196401D02*
X0108622Y0196401D01*
X0110038Y0196401D02*
X0115753Y0196401D01*
X0114301Y0194802D02*
X0112195Y0194802D01*
X0112923Y0193204D02*
X0113647Y0193204D01*
X0113647Y0191605D02*
X0113022Y0191605D01*
X0113022Y0190007D02*
X0113647Y0190007D01*
X0113647Y0188408D02*
X0113022Y0188408D01*
X0113022Y0186810D02*
X0113647Y0186810D01*
X0113993Y0185211D02*
X0112631Y0185211D01*
X0108622Y0190007D02*
X0108622Y0190007D01*
X0108622Y0191605D02*
X0108622Y0191605D01*
X0108622Y0193204D02*
X0108622Y0193204D01*
X0108622Y0194802D02*
X0108622Y0194802D01*
X0105049Y0194802D02*
X0092902Y0194802D01*
X0092902Y0193204D02*
X0104321Y0193204D01*
X0104222Y0191605D02*
X0092902Y0191605D01*
X0091317Y0190007D02*
X0104222Y0190007D01*
X0104222Y0188408D02*
X0078663Y0188408D01*
X0077389Y0186810D02*
X0104222Y0186810D01*
X0104613Y0185211D02*
X0075790Y0185211D01*
X0067550Y0197999D02*
X0298866Y0197999D01*
X0298866Y0196401D02*
X0294235Y0196401D01*
X0295062Y0196058D02*
X0293234Y0196816D01*
X0291255Y0196816D01*
X0289426Y0196058D01*
X0288027Y0194659D01*
X0287269Y0192830D01*
X0287269Y0185651D01*
X0288027Y0183823D01*
X0289426Y0182424D01*
X0291255Y0181666D01*
X0293234Y0181666D01*
X0295062Y0182424D01*
X0296462Y0183823D01*
X0297219Y0185651D01*
X0297219Y0192830D01*
X0296462Y0194659D01*
X0295062Y0196058D01*
X0296318Y0194802D02*
X0298170Y0194802D01*
X0297424Y0193204D02*
X0297064Y0193204D01*
X0297219Y0191605D02*
X0297269Y0191605D01*
X0297219Y0190007D02*
X0297269Y0190007D01*
X0297219Y0188408D02*
X0297269Y0188408D01*
X0297219Y0186810D02*
X0297269Y0186810D01*
X0297452Y0185211D02*
X0297037Y0185211D01*
X0296251Y0183613D02*
X0298237Y0183613D01*
X0300414Y0182014D02*
X0294074Y0182014D01*
X0290414Y0182014D02*
X0284074Y0182014D01*
X0283234Y0181666D02*
X0285062Y0182424D01*
X0286462Y0183823D01*
X0287219Y0185651D01*
X0287219Y0192830D01*
X0286462Y0194659D01*
X0285062Y0196058D01*
X0283234Y0196816D01*
X0281255Y0196816D01*
X0279426Y0196058D01*
X0278027Y0194659D01*
X0277269Y0192830D01*
X0277269Y0185651D01*
X0278027Y0183823D01*
X0279426Y0182424D01*
X0281255Y0181666D01*
X0283234Y0181666D01*
X0280414Y0182014D02*
X0274074Y0182014D01*
X0273234Y0181666D02*
X0275062Y0182424D01*
X0276462Y0183823D01*
X0277219Y0185651D01*
X0277219Y0192830D01*
X0276462Y0194659D01*
X0275062Y0196058D01*
X0273234Y0196816D01*
X0271255Y0196816D01*
X0269426Y0196058D01*
X0268027Y0194659D01*
X0267269Y0192830D01*
X0267269Y0185651D01*
X0268027Y0183823D01*
X0269426Y0182424D01*
X0271255Y0181666D01*
X0273234Y0181666D01*
X0270414Y0182014D02*
X0264074Y0182014D01*
X0263234Y0181666D02*
X0265062Y0182424D01*
X0266462Y0183823D01*
X0267219Y0185651D01*
X0267219Y0192830D01*
X0266462Y0194659D01*
X0265062Y0196058D01*
X0263234Y0196816D01*
X0261255Y0196816D01*
X0259426Y0196058D01*
X0258027Y0194659D01*
X0257269Y0192830D01*
X0257269Y0185651D01*
X0258027Y0183823D01*
X0259426Y0182424D01*
X0261255Y0181666D01*
X0263234Y0181666D01*
X0260414Y0182014D02*
X0254074Y0182014D01*
X0253234Y0181666D02*
X0255062Y0182424D01*
X0256462Y0183823D01*
X0257219Y0185651D01*
X0257219Y0192830D01*
X0256462Y0194659D01*
X0255062Y0196058D01*
X0253234Y0196816D01*
X0251255Y0196816D01*
X0249426Y0196058D01*
X0248027Y0194659D01*
X0247269Y0192830D01*
X0247269Y0185651D01*
X0248027Y0183823D01*
X0249426Y0182424D01*
X0251255Y0181666D01*
X0253234Y0181666D01*
X0250414Y0182014D02*
X0244074Y0182014D01*
X0243234Y0181666D02*
X0245062Y0182424D01*
X0246462Y0183823D01*
X0247219Y0185651D01*
X0247219Y0192830D01*
X0246462Y0194659D01*
X0245062Y0196058D01*
X0243234Y0196816D01*
X0241255Y0196816D01*
X0239426Y0196058D01*
X0238027Y0194659D01*
X0237269Y0192830D01*
X0237269Y0185651D01*
X0238027Y0183823D01*
X0239426Y0182424D01*
X0241255Y0181666D01*
X0243234Y0181666D01*
X0240414Y0182014D02*
X0196766Y0182014D01*
X0195167Y0180416D02*
X0339174Y0180416D01*
X0338921Y0182014D02*
X0324074Y0182014D01*
X0323234Y0181666D02*
X0325062Y0182424D01*
X0326462Y0183823D01*
X0327219Y0185651D01*
X0327219Y0192830D01*
X0326462Y0194659D01*
X0325062Y0196058D01*
X0323234Y0196816D01*
X0321255Y0196816D01*
X0319426Y0196058D01*
X0318027Y0194659D01*
X0317269Y0192830D01*
X0317269Y0185651D01*
X0318027Y0183823D01*
X0319426Y0182424D01*
X0321255Y0181666D01*
X0323234Y0181666D01*
X0320414Y0182014D02*
X0314074Y0182014D01*
X0313234Y0181666D02*
X0315062Y0182424D01*
X0316462Y0183823D01*
X0317219Y0185651D01*
X0317219Y0192830D01*
X0316462Y0194659D01*
X0315062Y0196058D01*
X0313234Y0196816D01*
X0311255Y0196816D01*
X0309426Y0196058D01*
X0308027Y0194659D01*
X0307269Y0192830D01*
X0307269Y0185651D01*
X0308027Y0183823D01*
X0309426Y0182424D01*
X0311255Y0181666D01*
X0313234Y0181666D01*
X0310414Y0182014D02*
X0304074Y0182014D01*
X0306251Y0183613D02*
X0308237Y0183613D01*
X0307452Y0185211D02*
X0307037Y0185211D01*
X0307219Y0186810D02*
X0307269Y0186810D01*
X0307219Y0188408D02*
X0307269Y0188408D01*
X0307219Y0190007D02*
X0307269Y0190007D01*
X0307219Y0191605D02*
X0307269Y0191605D01*
X0307424Y0193204D02*
X0307064Y0193204D01*
X0306318Y0194802D02*
X0308170Y0194802D01*
X0310253Y0196401D02*
X0306034Y0196401D01*
X0307633Y0197999D02*
X0332127Y0197999D01*
X0333289Y0196401D02*
X0324235Y0196401D01*
X0326318Y0194802D02*
X0334114Y0194802D01*
X0334929Y0193204D02*
X0327064Y0193204D01*
X0327219Y0191605D02*
X0335743Y0191605D01*
X0336547Y0190007D02*
X0327219Y0190007D01*
X0327219Y0188408D02*
X0337066Y0188408D01*
X0337586Y0186810D02*
X0327219Y0186810D01*
X0327037Y0185211D02*
X0338105Y0185211D01*
X0338625Y0183613D02*
X0326251Y0183613D01*
X0318237Y0183613D02*
X0316251Y0183613D01*
X0317037Y0185211D02*
X0317452Y0185211D01*
X0317269Y0186810D02*
X0317219Y0186810D01*
X0317219Y0188408D02*
X0317269Y0188408D01*
X0317219Y0190007D02*
X0317269Y0190007D01*
X0317219Y0191605D02*
X0317269Y0191605D01*
X0317424Y0193204D02*
X0317064Y0193204D01*
X0316318Y0194802D02*
X0318170Y0194802D01*
X0320253Y0196401D02*
X0314235Y0196401D01*
X0309231Y0199598D02*
X0330966Y0199598D01*
X0329804Y0201197D02*
X0310228Y0201197D01*
X0310346Y0202795D02*
X0328441Y0202795D01*
X0326842Y0204394D02*
X0310346Y0204394D01*
X0310346Y0205992D02*
X0325244Y0205992D01*
X0323439Y0207591D02*
X0310346Y0207591D01*
X0310346Y0209189D02*
X0321239Y0209189D01*
X0319039Y0210788D02*
X0310346Y0210788D01*
X0310007Y0212386D02*
X0316137Y0212386D01*
X0313000Y0213985D02*
X0308698Y0213985D01*
X0308534Y0215583D02*
X0307099Y0215583D01*
X0295280Y0202795D02*
X0294720Y0202795D01*
X0293390Y0201197D02*
X0296610Y0201197D01*
X0299290Y0199598D02*
X0067550Y0199598D01*
X0067550Y0201197D02*
X0075684Y0201197D01*
X0075231Y0202795D02*
X0067550Y0202795D01*
X0067550Y0204394D02*
X0075231Y0204394D01*
X0075231Y0205992D02*
X0067550Y0205992D01*
X0067550Y0207591D02*
X0075231Y0207591D01*
X0075448Y0209189D02*
X0067550Y0209189D01*
X0067550Y0210788D02*
X0078650Y0210788D01*
X0079816Y0210788D02*
X0080184Y0210788D01*
X0081349Y0210788D02*
X0087083Y0210788D01*
X0086270Y0209189D02*
X0084552Y0209189D01*
X0084768Y0207591D02*
X0085139Y0207591D01*
X0080184Y0207591D02*
X0079816Y0207591D01*
X0079816Y0209189D02*
X0080184Y0209189D01*
X0080184Y0205992D02*
X0079816Y0205992D01*
X0079816Y0204394D02*
X0080184Y0204394D01*
X0080184Y0202795D02*
X0079816Y0202795D01*
X0079816Y0201197D02*
X0080184Y0201197D01*
X0084316Y0201197D02*
X0086610Y0201197D01*
X0085280Y0202795D02*
X0084768Y0202795D01*
X0093390Y0201197D02*
X0096610Y0201197D01*
X0095280Y0202795D02*
X0094720Y0202795D01*
X0103390Y0201197D02*
X0106610Y0201197D01*
X0105280Y0202795D02*
X0104720Y0202795D01*
X0113390Y0201197D02*
X0116610Y0201197D01*
X0115280Y0202795D02*
X0114720Y0202795D01*
X0121491Y0196401D02*
X0125753Y0196401D01*
X0124301Y0194802D02*
X0122943Y0194802D01*
X0123597Y0193204D02*
X0123647Y0193204D01*
X0123597Y0191605D02*
X0123647Y0191605D01*
X0123597Y0190007D02*
X0123647Y0190007D01*
X0123597Y0188408D02*
X0123647Y0188408D01*
X0123597Y0186810D02*
X0123647Y0186810D01*
X0123993Y0185211D02*
X0123252Y0185211D01*
X0133252Y0185211D02*
X0133993Y0185211D01*
X0133647Y0186810D02*
X0133597Y0186810D01*
X0133597Y0188408D02*
X0133647Y0188408D01*
X0133597Y0190007D02*
X0133647Y0190007D01*
X0133597Y0191605D02*
X0133647Y0191605D01*
X0133597Y0193204D02*
X0133647Y0193204D01*
X0134301Y0194802D02*
X0132943Y0194802D01*
X0131491Y0196401D02*
X0135753Y0196401D01*
X0136610Y0201197D02*
X0133390Y0201197D01*
X0134720Y0202795D02*
X0135280Y0202795D01*
X0143390Y0201197D02*
X0146610Y0201197D01*
X0145280Y0202795D02*
X0144720Y0202795D01*
X0145753Y0196401D02*
X0141491Y0196401D01*
X0142943Y0194802D02*
X0144301Y0194802D01*
X0143647Y0193204D02*
X0143597Y0193204D01*
X0143597Y0191605D02*
X0143647Y0191605D01*
X0143597Y0190007D02*
X0143647Y0190007D01*
X0143597Y0188408D02*
X0143647Y0188408D01*
X0143597Y0186810D02*
X0143647Y0186810D01*
X0143993Y0185211D02*
X0143252Y0185211D01*
X0153252Y0185211D02*
X0153993Y0185211D01*
X0153647Y0186810D02*
X0153597Y0186810D01*
X0153597Y0188408D02*
X0153647Y0188408D01*
X0153597Y0190007D02*
X0153647Y0190007D01*
X0153597Y0191605D02*
X0153647Y0191605D01*
X0153597Y0193204D02*
X0153647Y0193204D01*
X0154301Y0194802D02*
X0152943Y0194802D01*
X0151491Y0196401D02*
X0155753Y0196401D01*
X0161491Y0196401D02*
X0165753Y0196401D01*
X0164301Y0194802D02*
X0162943Y0194802D01*
X0163597Y0193204D02*
X0163647Y0193204D01*
X0163597Y0191605D02*
X0163647Y0191605D01*
X0163597Y0190007D02*
X0163647Y0190007D01*
X0163597Y0188408D02*
X0163647Y0188408D01*
X0163597Y0186810D02*
X0163647Y0186810D01*
X0163993Y0185211D02*
X0163252Y0185211D01*
X0173252Y0185211D02*
X0173993Y0185211D01*
X0173647Y0186810D02*
X0173597Y0186810D01*
X0173597Y0188408D02*
X0173647Y0188408D01*
X0173597Y0190007D02*
X0173647Y0190007D01*
X0173597Y0191605D02*
X0173647Y0191605D01*
X0173597Y0193204D02*
X0173647Y0193204D01*
X0174301Y0194802D02*
X0172943Y0194802D01*
X0171491Y0196401D02*
X0175753Y0196401D01*
X0176610Y0201197D02*
X0173390Y0201197D01*
X0174720Y0202795D02*
X0175280Y0202795D01*
X0183390Y0201197D02*
X0186610Y0201197D01*
X0185280Y0202795D02*
X0184720Y0202795D01*
X0185753Y0196401D02*
X0181491Y0196401D01*
X0182943Y0194802D02*
X0184301Y0194802D01*
X0183647Y0193204D02*
X0183597Y0193204D01*
X0183597Y0191605D02*
X0183647Y0191605D01*
X0183597Y0190007D02*
X0183647Y0190007D01*
X0183597Y0188408D02*
X0183647Y0188408D01*
X0183597Y0186810D02*
X0183647Y0186810D01*
X0183993Y0185211D02*
X0183252Y0185211D01*
X0193597Y0190007D02*
X0193647Y0190007D01*
X0193597Y0191605D02*
X0193647Y0191605D01*
X0193597Y0193204D02*
X0193647Y0193204D01*
X0194301Y0194802D02*
X0192943Y0194802D01*
X0191491Y0196401D02*
X0195753Y0196401D01*
X0201491Y0196401D02*
X0240253Y0196401D01*
X0238170Y0194802D02*
X0235505Y0194802D01*
X0235600Y0194707D02*
X0235110Y0195197D01*
X0234550Y0195604D01*
X0233933Y0195919D01*
X0233274Y0196133D01*
X0232590Y0196241D01*
X0232244Y0196241D01*
X0231898Y0196241D01*
X0231214Y0196133D01*
X0230555Y0195919D01*
X0229938Y0195604D01*
X0229378Y0195197D01*
X0228888Y0194707D01*
X0228481Y0194147D01*
X0228166Y0193530D01*
X0227952Y0192871D01*
X0227844Y0192187D01*
X0227844Y0189241D01*
X0232244Y0189241D01*
X0232244Y0189241D01*
X0232244Y0196241D01*
X0232244Y0189241D01*
X0232244Y0189241D01*
X0227844Y0189241D01*
X0227844Y0186295D01*
X0227952Y0185611D01*
X0228166Y0184952D01*
X0228481Y0184335D01*
X0228888Y0183775D01*
X0229378Y0183285D01*
X0229938Y0182878D01*
X0230555Y0182563D01*
X0231214Y0182349D01*
X0231898Y0182241D01*
X0232244Y0182241D01*
X0232244Y0189241D01*
X0232244Y0189241D01*
X0236644Y0189241D01*
X0236644Y0192187D01*
X0236536Y0192871D01*
X0236322Y0193530D01*
X0236007Y0194147D01*
X0235600Y0194707D01*
X0236428Y0193204D02*
X0237424Y0193204D01*
X0237269Y0191605D02*
X0236644Y0191605D01*
X0236644Y0190007D02*
X0237269Y0190007D01*
X0236644Y0189241D02*
X0232244Y0189241D01*
X0232244Y0189241D01*
X0232244Y0182241D01*
X0232590Y0182241D01*
X0233274Y0182349D01*
X0233933Y0182563D01*
X0234550Y0182878D01*
X0235110Y0183285D01*
X0235600Y0183775D01*
X0236007Y0184335D01*
X0236322Y0184952D01*
X0236536Y0185611D01*
X0236644Y0186295D01*
X0236644Y0189241D01*
X0236644Y0188408D02*
X0237269Y0188408D01*
X0237269Y0186810D02*
X0236644Y0186810D01*
X0236406Y0185211D02*
X0237452Y0185211D01*
X0238237Y0183613D02*
X0235439Y0183613D01*
X0232244Y0183613D02*
X0232244Y0183613D01*
X0232244Y0185211D02*
X0232244Y0185211D01*
X0232244Y0186810D02*
X0232244Y0186810D01*
X0232244Y0188408D02*
X0232244Y0188408D01*
X0232244Y0190007D02*
X0232244Y0190007D01*
X0232244Y0191605D02*
X0232244Y0191605D01*
X0232244Y0193204D02*
X0232244Y0193204D01*
X0232244Y0194802D02*
X0232244Y0194802D01*
X0228983Y0194802D02*
X0202943Y0194802D01*
X0203597Y0193204D02*
X0228061Y0193204D01*
X0227844Y0191605D02*
X0203597Y0191605D01*
X0203597Y0190007D02*
X0227844Y0190007D01*
X0227844Y0188408D02*
X0203597Y0188408D01*
X0203597Y0186810D02*
X0227844Y0186810D01*
X0228082Y0185211D02*
X0203252Y0185211D01*
X0202236Y0183613D02*
X0229050Y0183613D01*
X0246251Y0183613D02*
X0248237Y0183613D01*
X0247452Y0185211D02*
X0247037Y0185211D01*
X0247219Y0186810D02*
X0247269Y0186810D01*
X0247219Y0188408D02*
X0247269Y0188408D01*
X0247219Y0190007D02*
X0247269Y0190007D01*
X0247219Y0191605D02*
X0247269Y0191605D01*
X0247424Y0193204D02*
X0247064Y0193204D01*
X0246318Y0194802D02*
X0248170Y0194802D01*
X0250253Y0196401D02*
X0244235Y0196401D01*
X0243390Y0201197D02*
X0246610Y0201197D01*
X0245280Y0202795D02*
X0244720Y0202795D01*
X0236610Y0201197D02*
X0233390Y0201197D01*
X0234720Y0202795D02*
X0235280Y0202795D01*
X0226610Y0201197D02*
X0223390Y0201197D01*
X0224720Y0202795D02*
X0225280Y0202795D01*
X0216610Y0201197D02*
X0213390Y0201197D01*
X0214720Y0202795D02*
X0215280Y0202795D01*
X0206610Y0201197D02*
X0203390Y0201197D01*
X0204720Y0202795D02*
X0205280Y0202795D01*
X0196610Y0201197D02*
X0193390Y0201197D01*
X0194720Y0202795D02*
X0195280Y0202795D01*
X0166610Y0201197D02*
X0163390Y0201197D01*
X0164720Y0202795D02*
X0165280Y0202795D01*
X0156610Y0201197D02*
X0153390Y0201197D01*
X0154720Y0202795D02*
X0155280Y0202795D01*
X0126610Y0201197D02*
X0123390Y0201197D01*
X0124720Y0202795D02*
X0125280Y0202795D01*
X0085450Y0212386D02*
X0083731Y0212386D01*
X0084566Y0213985D02*
X0084787Y0213985D01*
X0080184Y0213985D02*
X0079816Y0213985D01*
X0079816Y0212386D02*
X0080184Y0212386D01*
X0076269Y0212386D02*
X0067550Y0212386D01*
X0067550Y0213985D02*
X0075434Y0213985D01*
X0075231Y0215583D02*
X0067550Y0215583D01*
X0067550Y0217182D02*
X0075577Y0217182D01*
X0115804Y0166452D02*
X0114405Y0165053D01*
X0113647Y0163224D01*
X0113647Y0156045D01*
X0114405Y0154217D01*
X0115804Y0152817D01*
X0117632Y0152060D01*
X0119612Y0152060D01*
X0121440Y0152817D01*
X0122839Y0154217D01*
X0123597Y0156045D01*
X0123597Y0163224D01*
X0122839Y0165053D01*
X0121440Y0166452D01*
X0119612Y0167209D01*
X0117632Y0167209D01*
X0115804Y0166452D01*
X0115381Y0166029D02*
X0111863Y0166029D01*
X0113097Y0164431D02*
X0114147Y0164431D01*
X0113647Y0162832D02*
X0113597Y0162832D01*
X0113597Y0161234D02*
X0113647Y0161234D01*
X0113597Y0159635D02*
X0113647Y0159635D01*
X0113597Y0158037D02*
X0113647Y0158037D01*
X0113597Y0156438D02*
X0113647Y0156438D01*
X0114147Y0154840D02*
X0113098Y0154840D01*
X0111864Y0153241D02*
X0115380Y0153241D01*
X0117396Y0149572D02*
X0115568Y0148814D01*
X0114168Y0147415D01*
X0113411Y0145586D01*
X0113411Y0138407D01*
X0114168Y0136579D01*
X0115568Y0135179D01*
X0117396Y0134422D01*
X0119375Y0134422D01*
X0121204Y0135179D01*
X0122603Y0136579D01*
X0123361Y0138407D01*
X0123361Y0145586D01*
X0122603Y0147415D01*
X0121204Y0148814D01*
X0119375Y0149572D01*
X0117396Y0149572D01*
X0115199Y0148446D02*
X0111572Y0148446D01*
X0112838Y0146847D02*
X0113933Y0146847D01*
X0113411Y0145249D02*
X0113361Y0145249D01*
X0113361Y0143650D02*
X0113411Y0143650D01*
X0113361Y0142052D02*
X0113411Y0142052D01*
X0113361Y0140453D02*
X0113411Y0140453D01*
X0113361Y0138855D02*
X0113411Y0138855D01*
X0113888Y0137256D02*
X0112884Y0137256D01*
X0111682Y0135658D02*
X0115090Y0135658D01*
X0121682Y0135658D02*
X0125090Y0135658D01*
X0125568Y0135179D02*
X0127396Y0134422D01*
X0129375Y0134422D01*
X0131204Y0135179D01*
X0132603Y0136579D01*
X0133361Y0138407D01*
X0133361Y0145586D01*
X0132603Y0147415D01*
X0131204Y0148814D01*
X0129375Y0149572D01*
X0127396Y0149572D01*
X0125568Y0148814D01*
X0124168Y0147415D01*
X0123411Y0145586D01*
X0123411Y0138407D01*
X0124168Y0136579D01*
X0125568Y0135179D01*
X0123888Y0137256D02*
X0122884Y0137256D01*
X0123361Y0138855D02*
X0123411Y0138855D01*
X0123361Y0140453D02*
X0123411Y0140453D01*
X0123361Y0142052D02*
X0123411Y0142052D01*
X0123361Y0143650D02*
X0123411Y0143650D01*
X0123361Y0145249D02*
X0123411Y0145249D01*
X0123933Y0146847D02*
X0122838Y0146847D01*
X0121572Y0148446D02*
X0125199Y0148446D01*
X0127632Y0152060D02*
X0129612Y0152060D01*
X0131440Y0152817D01*
X0132839Y0154217D01*
X0133597Y0156045D01*
X0133597Y0163224D01*
X0132839Y0165053D01*
X0131440Y0166452D01*
X0129612Y0167209D01*
X0127632Y0167209D01*
X0125804Y0166452D01*
X0124405Y0165053D01*
X0123647Y0163224D01*
X0123647Y0156045D01*
X0124405Y0154217D01*
X0125804Y0152817D01*
X0127632Y0152060D01*
X0125380Y0153241D02*
X0121864Y0153241D01*
X0123098Y0154840D02*
X0124147Y0154840D01*
X0123647Y0156438D02*
X0123597Y0156438D01*
X0123597Y0158037D02*
X0123647Y0158037D01*
X0123597Y0159635D02*
X0123647Y0159635D01*
X0123597Y0161234D02*
X0123647Y0161234D01*
X0123597Y0162832D02*
X0123647Y0162832D01*
X0124147Y0164431D02*
X0123097Y0164431D01*
X0121863Y0166029D02*
X0125381Y0166029D01*
X0131863Y0166029D02*
X0135381Y0166029D01*
X0135804Y0166452D02*
X0134405Y0165053D01*
X0133647Y0163224D01*
X0133647Y0156045D01*
X0134405Y0154217D01*
X0135804Y0152817D01*
X0137632Y0152060D01*
X0139612Y0152060D01*
X0141440Y0152817D01*
X0142839Y0154217D01*
X0143597Y0156045D01*
X0143597Y0163224D01*
X0142839Y0165053D01*
X0141440Y0166452D01*
X0139612Y0167209D01*
X0137632Y0167209D01*
X0135804Y0166452D01*
X0134147Y0164431D02*
X0133097Y0164431D01*
X0133597Y0162832D02*
X0133647Y0162832D01*
X0133597Y0161234D02*
X0133647Y0161234D01*
X0133597Y0159635D02*
X0133647Y0159635D01*
X0133597Y0158037D02*
X0133647Y0158037D01*
X0133597Y0156438D02*
X0133647Y0156438D01*
X0134147Y0154840D02*
X0133098Y0154840D01*
X0131864Y0153241D02*
X0135380Y0153241D01*
X0137396Y0149572D02*
X0135568Y0148814D01*
X0134168Y0147415D01*
X0133411Y0145586D01*
X0133411Y0138407D01*
X0134168Y0136579D01*
X0135568Y0135179D01*
X0137396Y0134422D01*
X0139375Y0134422D01*
X0141204Y0135179D01*
X0142603Y0136579D01*
X0143361Y0138407D01*
X0143361Y0145586D01*
X0142603Y0147415D01*
X0141204Y0148814D01*
X0139375Y0149572D01*
X0137396Y0149572D01*
X0135199Y0148446D02*
X0131572Y0148446D01*
X0132838Y0146847D02*
X0133933Y0146847D01*
X0133411Y0145249D02*
X0133361Y0145249D01*
X0133361Y0143650D02*
X0133411Y0143650D01*
X0133361Y0142052D02*
X0133411Y0142052D01*
X0133361Y0140453D02*
X0133411Y0140453D01*
X0133361Y0138855D02*
X0133411Y0138855D01*
X0133888Y0137256D02*
X0132884Y0137256D01*
X0131682Y0135658D02*
X0135090Y0135658D01*
X0141682Y0135658D02*
X0145090Y0135658D01*
X0145568Y0135179D02*
X0147396Y0134422D01*
X0149375Y0134422D01*
X0151204Y0135179D01*
X0152603Y0136579D01*
X0153361Y0138407D01*
X0153361Y0145586D01*
X0152603Y0147415D01*
X0151204Y0148814D01*
X0149375Y0149572D01*
X0147396Y0149572D01*
X0145568Y0148814D01*
X0144168Y0147415D01*
X0143411Y0145586D01*
X0143411Y0138407D01*
X0144168Y0136579D01*
X0145568Y0135179D01*
X0143888Y0137256D02*
X0142884Y0137256D01*
X0143361Y0138855D02*
X0143411Y0138855D01*
X0143361Y0140453D02*
X0143411Y0140453D01*
X0143361Y0142052D02*
X0143411Y0142052D01*
X0143361Y0143650D02*
X0143411Y0143650D01*
X0143361Y0145249D02*
X0143411Y0145249D01*
X0143933Y0146847D02*
X0142838Y0146847D01*
X0141572Y0148446D02*
X0145199Y0148446D01*
X0147632Y0152060D02*
X0149612Y0152060D01*
X0151440Y0152817D01*
X0152839Y0154217D01*
X0153597Y0156045D01*
X0153597Y0163224D01*
X0152839Y0165053D01*
X0151440Y0166452D01*
X0149612Y0167209D01*
X0147632Y0167209D01*
X0145804Y0166452D01*
X0144405Y0165053D01*
X0143647Y0163224D01*
X0143647Y0156045D01*
X0144405Y0154217D01*
X0145804Y0152817D01*
X0147632Y0152060D01*
X0145380Y0153241D02*
X0141864Y0153241D01*
X0143098Y0154840D02*
X0144147Y0154840D01*
X0143647Y0156438D02*
X0143597Y0156438D01*
X0143597Y0158037D02*
X0143647Y0158037D01*
X0143597Y0159635D02*
X0143647Y0159635D01*
X0143597Y0161234D02*
X0143647Y0161234D01*
X0143597Y0162832D02*
X0143647Y0162832D01*
X0144147Y0164431D02*
X0143097Y0164431D01*
X0141863Y0166029D02*
X0145381Y0166029D01*
X0151863Y0166029D02*
X0155381Y0166029D01*
X0155804Y0166452D02*
X0154405Y0165053D01*
X0153647Y0163224D01*
X0153647Y0156045D01*
X0154405Y0154217D01*
X0155804Y0152817D01*
X0157632Y0152060D01*
X0159612Y0152060D01*
X0161440Y0152817D01*
X0162839Y0154217D01*
X0163597Y0156045D01*
X0163597Y0163224D01*
X0162839Y0165053D01*
X0161440Y0166452D01*
X0159612Y0167209D01*
X0157632Y0167209D01*
X0155804Y0166452D01*
X0154147Y0164431D02*
X0153097Y0164431D01*
X0153597Y0162832D02*
X0153647Y0162832D01*
X0153597Y0161234D02*
X0153647Y0161234D01*
X0153597Y0159635D02*
X0153647Y0159635D01*
X0153597Y0158037D02*
X0153647Y0158037D01*
X0153597Y0156438D02*
X0153647Y0156438D01*
X0154147Y0154840D02*
X0153098Y0154840D01*
X0151864Y0153241D02*
X0155380Y0153241D01*
X0161864Y0153241D02*
X0165380Y0153241D01*
X0165804Y0152817D02*
X0167632Y0152060D01*
X0169612Y0152060D01*
X0171440Y0152817D01*
X0172839Y0154217D01*
X0173597Y0156045D01*
X0173597Y0163224D01*
X0172839Y0165053D01*
X0171440Y0166452D01*
X0169612Y0167209D01*
X0167632Y0167209D01*
X0165804Y0166452D01*
X0164405Y0165053D01*
X0163647Y0163224D01*
X0163647Y0156045D01*
X0164405Y0154217D01*
X0165804Y0152817D01*
X0164147Y0154840D02*
X0163098Y0154840D01*
X0163597Y0156438D02*
X0163647Y0156438D01*
X0163597Y0158037D02*
X0163647Y0158037D01*
X0163597Y0159635D02*
X0163647Y0159635D01*
X0163597Y0161234D02*
X0163647Y0161234D01*
X0163597Y0162832D02*
X0163647Y0162832D01*
X0164147Y0164431D02*
X0163097Y0164431D01*
X0161863Y0166029D02*
X0165381Y0166029D01*
X0171863Y0166029D02*
X0175381Y0166029D01*
X0175804Y0166452D02*
X0174405Y0165053D01*
X0173647Y0163224D01*
X0173647Y0156045D01*
X0174405Y0154217D01*
X0175804Y0152817D01*
X0177632Y0152060D01*
X0179612Y0152060D01*
X0181440Y0152817D01*
X0182839Y0154217D01*
X0183597Y0156045D01*
X0183597Y0163224D01*
X0182839Y0165053D01*
X0181440Y0166452D01*
X0179612Y0167209D01*
X0177632Y0167209D01*
X0175804Y0166452D01*
X0174147Y0164431D02*
X0173097Y0164431D01*
X0173597Y0162832D02*
X0173647Y0162832D01*
X0173597Y0161234D02*
X0173647Y0161234D01*
X0173597Y0159635D02*
X0173647Y0159635D01*
X0173597Y0158037D02*
X0173647Y0158037D01*
X0173597Y0156438D02*
X0173647Y0156438D01*
X0174147Y0154840D02*
X0173098Y0154840D01*
X0171864Y0153241D02*
X0175380Y0153241D01*
X0175199Y0148446D02*
X0171572Y0148446D01*
X0171204Y0148814D02*
X0169375Y0149572D01*
X0167396Y0149572D01*
X0165568Y0148814D01*
X0164168Y0147415D01*
X0163411Y0145586D01*
X0163411Y0138407D01*
X0164168Y0136579D01*
X0165568Y0135179D01*
X0167396Y0134422D01*
X0169375Y0134422D01*
X0171204Y0135179D01*
X0172603Y0136579D01*
X0173361Y0138407D01*
X0173361Y0145586D01*
X0172603Y0147415D01*
X0171204Y0148814D01*
X0172838Y0146847D02*
X0173933Y0146847D01*
X0173411Y0145249D02*
X0173361Y0145249D01*
X0173361Y0143650D02*
X0173411Y0143650D01*
X0173361Y0142052D02*
X0173411Y0142052D01*
X0173361Y0140453D02*
X0173411Y0140453D01*
X0173361Y0138855D02*
X0173411Y0138855D01*
X0173888Y0137256D02*
X0172884Y0137256D01*
X0171682Y0135658D02*
X0175090Y0135658D01*
X0165090Y0135658D02*
X0161682Y0135658D01*
X0161204Y0135179D02*
X0162603Y0136579D01*
X0163361Y0138407D01*
X0163361Y0145586D01*
X0162603Y0147415D01*
X0161204Y0148814D01*
X0159375Y0149572D01*
X0157396Y0149572D01*
X0155568Y0148814D01*
X0154168Y0147415D01*
X0153411Y0145586D01*
X0153411Y0138407D01*
X0154168Y0136579D01*
X0155568Y0135179D01*
X0157396Y0134422D01*
X0159375Y0134422D01*
X0161204Y0135179D01*
X0162884Y0137256D02*
X0163888Y0137256D01*
X0163411Y0138855D02*
X0163361Y0138855D01*
X0163361Y0140453D02*
X0163411Y0140453D01*
X0163361Y0142052D02*
X0163411Y0142052D01*
X0163361Y0143650D02*
X0163411Y0143650D01*
X0163361Y0145249D02*
X0163411Y0145249D01*
X0163933Y0146847D02*
X0162838Y0146847D01*
X0161572Y0148446D02*
X0165199Y0148446D01*
X0155199Y0148446D02*
X0151572Y0148446D01*
X0152838Y0146847D02*
X0153933Y0146847D01*
X0153411Y0145249D02*
X0153361Y0145249D01*
X0153361Y0143650D02*
X0153411Y0143650D01*
X0153361Y0142052D02*
X0153411Y0142052D01*
X0153361Y0140453D02*
X0153411Y0140453D01*
X0153361Y0138855D02*
X0153411Y0138855D01*
X0153888Y0137256D02*
X0152884Y0137256D01*
X0151682Y0135658D02*
X0155090Y0135658D01*
X0157396Y0119572D02*
X0155568Y0118814D01*
X0154168Y0117415D01*
X0153411Y0115586D01*
X0153411Y0108407D01*
X0154168Y0106579D01*
X0155568Y0105179D01*
X0157396Y0104422D01*
X0159375Y0104422D01*
X0161204Y0105179D01*
X0162603Y0106579D01*
X0163361Y0108407D01*
X0163361Y0115586D01*
X0162603Y0117415D01*
X0161204Y0118814D01*
X0159375Y0119572D01*
X0157396Y0119572D01*
X0154827Y0118074D02*
X0151944Y0118074D01*
X0152603Y0117415D02*
X0151204Y0118814D01*
X0149375Y0119572D01*
X0147396Y0119572D01*
X0145568Y0118814D01*
X0144168Y0117415D01*
X0143411Y0115586D01*
X0143411Y0108407D01*
X0144168Y0106579D01*
X0145568Y0105179D01*
X0147396Y0104422D01*
X0149375Y0104422D01*
X0151204Y0105179D01*
X0152603Y0106579D01*
X0153361Y0108407D01*
X0153361Y0115586D01*
X0152603Y0117415D01*
X0152992Y0116475D02*
X0153779Y0116475D01*
X0153411Y0114877D02*
X0153361Y0114877D01*
X0153361Y0113278D02*
X0153411Y0113278D01*
X0153361Y0111680D02*
X0153411Y0111680D01*
X0153361Y0110081D02*
X0153411Y0110081D01*
X0153361Y0108483D02*
X0153411Y0108483D01*
X0154042Y0106884D02*
X0152730Y0106884D01*
X0151310Y0105286D02*
X0155461Y0105286D01*
X0161310Y0105286D02*
X0165461Y0105286D01*
X0165568Y0105179D02*
X0167396Y0104422D01*
X0169375Y0104422D01*
X0171204Y0105179D01*
X0172603Y0106579D01*
X0173361Y0108407D01*
X0173361Y0115586D01*
X0172603Y0117415D01*
X0171204Y0118814D01*
X0169375Y0119572D01*
X0167396Y0119572D01*
X0165568Y0118814D01*
X0164168Y0117415D01*
X0163411Y0115586D01*
X0163411Y0108407D01*
X0164168Y0106579D01*
X0165568Y0105179D01*
X0164042Y0106884D02*
X0162730Y0106884D01*
X0163361Y0108483D02*
X0163411Y0108483D01*
X0163361Y0110081D02*
X0163411Y0110081D01*
X0163361Y0111680D02*
X0163411Y0111680D01*
X0163361Y0113278D02*
X0163411Y0113278D01*
X0163361Y0114877D02*
X0163411Y0114877D01*
X0163779Y0116475D02*
X0162992Y0116475D01*
X0161944Y0118074D02*
X0164827Y0118074D01*
X0171944Y0118074D02*
X0174827Y0118074D01*
X0173779Y0116475D02*
X0172992Y0116475D01*
X0173361Y0114877D02*
X0173411Y0114877D01*
X0173361Y0113278D02*
X0173411Y0113278D01*
X0173361Y0111680D02*
X0173411Y0111680D01*
X0173361Y0110081D02*
X0173411Y0110081D01*
X0173361Y0108483D02*
X0173411Y0108483D01*
X0174042Y0106884D02*
X0172730Y0106884D01*
X0171310Y0105286D02*
X0175461Y0105286D01*
X0183361Y0111680D02*
X0202716Y0111680D01*
X0201118Y0113278D02*
X0183361Y0113278D01*
X0183361Y0114877D02*
X0200797Y0114877D01*
X0200797Y0116475D02*
X0182992Y0116475D01*
X0181944Y0118074D02*
X0201626Y0118074D01*
X0203225Y0119672D02*
X0090050Y0119672D01*
X0090050Y0118074D02*
X0104827Y0118074D01*
X0104168Y0117415D02*
X0103411Y0115586D01*
X0103411Y0108407D01*
X0104168Y0106579D01*
X0105568Y0105179D01*
X0107396Y0104422D01*
X0109375Y0104422D01*
X0111204Y0105179D01*
X0112603Y0106579D01*
X0113361Y0108407D01*
X0113361Y0115586D01*
X0112603Y0117415D01*
X0111204Y0118814D01*
X0109375Y0119572D01*
X0107396Y0119572D01*
X0105568Y0118814D01*
X0104168Y0117415D01*
X0103779Y0116475D02*
X0090050Y0116475D01*
X0090050Y0114877D02*
X0103411Y0114877D01*
X0103411Y0113278D02*
X0090050Y0113278D01*
X0090050Y0111680D02*
X0103411Y0111680D01*
X0103411Y0110081D02*
X0090050Y0110081D01*
X0090050Y0108483D02*
X0103411Y0108483D01*
X0104042Y0106884D02*
X0090050Y0106884D01*
X0090050Y0105286D02*
X0105461Y0105286D01*
X0111310Y0105286D02*
X0115461Y0105286D01*
X0115568Y0105179D02*
X0117396Y0104422D01*
X0119375Y0104422D01*
X0121204Y0105179D01*
X0122603Y0106579D01*
X0123361Y0108407D01*
X0123361Y0115586D01*
X0122603Y0117415D01*
X0121204Y0118814D01*
X0119375Y0119572D01*
X0117396Y0119572D01*
X0115568Y0118814D01*
X0114168Y0117415D01*
X0113411Y0115586D01*
X0113411Y0108407D01*
X0114168Y0106579D01*
X0115568Y0105179D01*
X0114042Y0106884D02*
X0112730Y0106884D01*
X0113361Y0108483D02*
X0113411Y0108483D01*
X0113361Y0110081D02*
X0113411Y0110081D01*
X0113361Y0111680D02*
X0113411Y0111680D01*
X0113361Y0113278D02*
X0113411Y0113278D01*
X0113361Y0114877D02*
X0113411Y0114877D01*
X0113779Y0116475D02*
X0112992Y0116475D01*
X0111944Y0118074D02*
X0114827Y0118074D01*
X0121944Y0118074D02*
X0124827Y0118074D01*
X0124168Y0117415D02*
X0123411Y0115586D01*
X0123411Y0108407D01*
X0124168Y0106579D01*
X0125568Y0105179D01*
X0127396Y0104422D01*
X0129375Y0104422D01*
X0131204Y0105179D01*
X0132603Y0106579D01*
X0133361Y0108407D01*
X0133361Y0115586D01*
X0132603Y0117415D01*
X0131204Y0118814D01*
X0129375Y0119572D01*
X0127396Y0119572D01*
X0125568Y0118814D01*
X0124168Y0117415D01*
X0123779Y0116475D02*
X0122992Y0116475D01*
X0123361Y0114877D02*
X0123411Y0114877D01*
X0123361Y0113278D02*
X0123411Y0113278D01*
X0123361Y0111680D02*
X0123411Y0111680D01*
X0123361Y0110081D02*
X0123411Y0110081D01*
X0123361Y0108483D02*
X0123411Y0108483D01*
X0124042Y0106884D02*
X0122730Y0106884D01*
X0121310Y0105286D02*
X0125461Y0105286D01*
X0131310Y0105286D02*
X0135461Y0105286D01*
X0135568Y0105179D02*
X0137396Y0104422D01*
X0139375Y0104422D01*
X0141204Y0105179D01*
X0142603Y0106579D01*
X0143361Y0108407D01*
X0143361Y0115586D01*
X0142603Y0117415D01*
X0141204Y0118814D01*
X0139375Y0119572D01*
X0137396Y0119572D01*
X0135568Y0118814D01*
X0134168Y0117415D01*
X0133411Y0115586D01*
X0133411Y0108407D01*
X0134168Y0106579D01*
X0135568Y0105179D01*
X0134042Y0106884D02*
X0132730Y0106884D01*
X0133361Y0108483D02*
X0133411Y0108483D01*
X0133361Y0110081D02*
X0133411Y0110081D01*
X0133361Y0111680D02*
X0133411Y0111680D01*
X0133361Y0113278D02*
X0133411Y0113278D01*
X0133361Y0114877D02*
X0133411Y0114877D01*
X0133779Y0116475D02*
X0132992Y0116475D01*
X0131944Y0118074D02*
X0134827Y0118074D01*
X0141944Y0118074D02*
X0144827Y0118074D01*
X0143779Y0116475D02*
X0142992Y0116475D01*
X0143361Y0114877D02*
X0143411Y0114877D01*
X0143361Y0113278D02*
X0143411Y0113278D01*
X0143361Y0111680D02*
X0143411Y0111680D01*
X0143361Y0110081D02*
X0143411Y0110081D01*
X0143361Y0108483D02*
X0143411Y0108483D01*
X0144042Y0106884D02*
X0142730Y0106884D01*
X0141310Y0105286D02*
X0145461Y0105286D01*
X0145687Y0094096D02*
X0141872Y0094096D01*
X0143471Y0092498D02*
X0144088Y0092498D01*
X0135687Y0094096D02*
X0131872Y0094096D01*
X0133471Y0092498D02*
X0134088Y0092498D01*
X0135228Y0086104D02*
X0132331Y0086104D01*
X0125228Y0086104D02*
X0122331Y0086104D01*
X0115228Y0086104D02*
X0112331Y0086104D01*
X0105228Y0086104D02*
X0090050Y0086104D01*
X0090050Y0087702D02*
X0103630Y0087702D01*
X0103605Y0089301D02*
X0090050Y0089301D01*
X0090050Y0090899D02*
X0103605Y0090899D01*
X0104088Y0092498D02*
X0090050Y0092498D01*
X0090050Y0094096D02*
X0105687Y0094096D01*
X0111872Y0094096D02*
X0115687Y0094096D01*
X0114088Y0092498D02*
X0113471Y0092498D01*
X0121872Y0094096D02*
X0125687Y0094096D01*
X0124088Y0092498D02*
X0123471Y0092498D01*
X0142331Y0086104D02*
X0145228Y0086104D01*
X0152331Y0086104D02*
X0155228Y0086104D01*
X0162331Y0086104D02*
X0165228Y0086104D01*
X0164088Y0092498D02*
X0163471Y0092498D01*
X0161872Y0094096D02*
X0165687Y0094096D01*
X0155687Y0094096D02*
X0151872Y0094096D01*
X0153471Y0092498D02*
X0154088Y0092498D01*
X0208767Y0118074D02*
X0228843Y0118074D01*
X0227564Y0116475D02*
X0209597Y0116475D01*
X0209597Y0114877D02*
X0227033Y0114877D01*
X0227033Y0113278D02*
X0209276Y0113278D01*
X0235698Y0135658D02*
X0238318Y0135658D01*
X0237347Y0137256D02*
X0236669Y0137256D01*
X0236983Y0138855D02*
X0237033Y0138855D01*
X0236983Y0140453D02*
X0237033Y0140453D01*
X0236983Y0142052D02*
X0237033Y0142052D01*
X0236983Y0143650D02*
X0237033Y0143650D01*
X0237056Y0145249D02*
X0236960Y0145249D01*
X0236297Y0146847D02*
X0237718Y0146847D01*
X0239250Y0148446D02*
X0234765Y0148446D01*
X0233234Y0151666D02*
X0235062Y0152424D01*
X0236462Y0153823D01*
X0237219Y0155651D01*
X0237219Y0162830D01*
X0236462Y0164659D01*
X0235062Y0166058D01*
X0233234Y0166816D01*
X0231255Y0166816D01*
X0229426Y0166058D01*
X0228027Y0164659D01*
X0227269Y0162830D01*
X0227269Y0155651D01*
X0228027Y0153823D01*
X0229426Y0152424D01*
X0231255Y0151666D01*
X0233234Y0151666D01*
X0235880Y0153241D02*
X0238608Y0153241D01*
X0238027Y0153823D02*
X0237269Y0155651D01*
X0237269Y0162830D01*
X0238027Y0164659D01*
X0239426Y0166058D01*
X0241255Y0166816D01*
X0243234Y0166816D01*
X0245062Y0166058D01*
X0246462Y0164659D01*
X0247219Y0162830D01*
X0247219Y0155651D01*
X0246462Y0153823D01*
X0245062Y0152424D01*
X0243234Y0151666D01*
X0241255Y0151666D01*
X0239426Y0152424D01*
X0238027Y0153823D01*
X0237606Y0154840D02*
X0236883Y0154840D01*
X0237219Y0156438D02*
X0237269Y0156438D01*
X0237219Y0158037D02*
X0237269Y0158037D01*
X0237219Y0159635D02*
X0237269Y0159635D01*
X0237219Y0161234D02*
X0237269Y0161234D01*
X0237218Y0162832D02*
X0237270Y0162832D01*
X0237932Y0164431D02*
X0236556Y0164431D01*
X0235091Y0166029D02*
X0239397Y0166029D01*
X0245091Y0166029D02*
X0249397Y0166029D01*
X0249426Y0166058D02*
X0248027Y0164659D01*
X0247269Y0162830D01*
X0247269Y0155651D01*
X0248027Y0153823D01*
X0249426Y0152424D01*
X0251255Y0151666D01*
X0253234Y0151666D01*
X0255062Y0152424D01*
X0256462Y0153823D01*
X0257219Y0155651D01*
X0257219Y0162830D01*
X0256462Y0164659D01*
X0255062Y0166058D01*
X0253234Y0166816D01*
X0251255Y0166816D01*
X0249426Y0166058D01*
X0247932Y0164431D02*
X0246556Y0164431D01*
X0247218Y0162832D02*
X0247270Y0162832D01*
X0247219Y0161234D02*
X0247269Y0161234D01*
X0247219Y0159635D02*
X0247269Y0159635D01*
X0247219Y0158037D02*
X0247269Y0158037D01*
X0247219Y0156438D02*
X0247269Y0156438D01*
X0247606Y0154840D02*
X0246883Y0154840D01*
X0245880Y0153241D02*
X0248608Y0153241D01*
X0249250Y0148446D02*
X0244765Y0148446D01*
X0246297Y0146847D02*
X0247718Y0146847D01*
X0247056Y0145249D02*
X0246960Y0145249D01*
X0246983Y0143650D02*
X0247033Y0143650D01*
X0246983Y0142052D02*
X0247033Y0142052D01*
X0246983Y0140453D02*
X0247033Y0140453D01*
X0246983Y0138855D02*
X0247033Y0138855D01*
X0247347Y0137256D02*
X0246669Y0137256D01*
X0245698Y0135658D02*
X0248318Y0135658D01*
X0255698Y0135658D02*
X0258318Y0135658D01*
X0257347Y0137256D02*
X0256669Y0137256D01*
X0256983Y0138855D02*
X0257033Y0138855D01*
X0256983Y0140453D02*
X0257033Y0140453D01*
X0256983Y0142052D02*
X0257033Y0142052D01*
X0256983Y0143650D02*
X0257033Y0143650D01*
X0257056Y0145249D02*
X0256960Y0145249D01*
X0256297Y0146847D02*
X0257718Y0146847D01*
X0259250Y0148446D02*
X0254765Y0148446D01*
X0259426Y0152424D02*
X0261255Y0151666D01*
X0263234Y0151666D01*
X0265062Y0152424D01*
X0266462Y0153823D01*
X0267219Y0155651D01*
X0267219Y0162830D01*
X0266462Y0164659D01*
X0265062Y0166058D01*
X0263234Y0166816D01*
X0261255Y0166816D01*
X0259426Y0166058D01*
X0258027Y0164659D01*
X0257269Y0162830D01*
X0257269Y0155651D01*
X0258027Y0153823D01*
X0259426Y0152424D01*
X0258608Y0153241D02*
X0255880Y0153241D01*
X0256883Y0154840D02*
X0257606Y0154840D01*
X0257269Y0156438D02*
X0257219Y0156438D01*
X0257219Y0158037D02*
X0257269Y0158037D01*
X0257219Y0159635D02*
X0257269Y0159635D01*
X0257219Y0161234D02*
X0257269Y0161234D01*
X0257218Y0162832D02*
X0257270Y0162832D01*
X0257932Y0164431D02*
X0256556Y0164431D01*
X0255091Y0166029D02*
X0259397Y0166029D01*
X0265091Y0166029D02*
X0269397Y0166029D01*
X0269426Y0166058D02*
X0268027Y0164659D01*
X0267269Y0162830D01*
X0267269Y0155651D01*
X0268027Y0153823D01*
X0269426Y0152424D01*
X0271255Y0151666D01*
X0273234Y0151666D01*
X0275062Y0152424D01*
X0276462Y0153823D01*
X0277219Y0155651D01*
X0277219Y0162830D01*
X0276462Y0164659D01*
X0275062Y0166058D01*
X0273234Y0166816D01*
X0271255Y0166816D01*
X0269426Y0166058D01*
X0267932Y0164431D02*
X0266556Y0164431D01*
X0267218Y0162832D02*
X0267270Y0162832D01*
X0267219Y0161234D02*
X0267269Y0161234D01*
X0267219Y0159635D02*
X0267269Y0159635D01*
X0267219Y0158037D02*
X0267269Y0158037D01*
X0267219Y0156438D02*
X0267269Y0156438D01*
X0267606Y0154840D02*
X0266883Y0154840D01*
X0265880Y0153241D02*
X0268608Y0153241D01*
X0269250Y0148446D02*
X0264765Y0148446D01*
X0266297Y0146847D02*
X0267718Y0146847D01*
X0267056Y0145249D02*
X0266960Y0145249D01*
X0266983Y0143650D02*
X0267033Y0143650D01*
X0266983Y0142052D02*
X0267033Y0142052D01*
X0266983Y0140453D02*
X0267033Y0140453D01*
X0266983Y0138855D02*
X0267033Y0138855D01*
X0267347Y0137256D02*
X0266669Y0137256D01*
X0265698Y0135658D02*
X0268318Y0135658D01*
X0275698Y0135658D02*
X0278318Y0135658D01*
X0277347Y0137256D02*
X0276669Y0137256D01*
X0276983Y0138855D02*
X0277033Y0138855D01*
X0276983Y0140453D02*
X0277033Y0140453D01*
X0276983Y0142052D02*
X0277033Y0142052D01*
X0276983Y0143650D02*
X0277033Y0143650D01*
X0277056Y0145249D02*
X0276960Y0145249D01*
X0276297Y0146847D02*
X0277718Y0146847D01*
X0279250Y0148446D02*
X0274765Y0148446D01*
X0279426Y0152424D02*
X0281255Y0151666D01*
X0283234Y0151666D01*
X0285062Y0152424D01*
X0286462Y0153823D01*
X0287219Y0155651D01*
X0287219Y0162830D01*
X0286462Y0164659D01*
X0285062Y0166058D01*
X0283234Y0166816D01*
X0281255Y0166816D01*
X0279426Y0166058D01*
X0278027Y0164659D01*
X0277269Y0162830D01*
X0277269Y0155651D01*
X0278027Y0153823D01*
X0279426Y0152424D01*
X0278608Y0153241D02*
X0275880Y0153241D01*
X0276883Y0154840D02*
X0277606Y0154840D01*
X0277269Y0156438D02*
X0277219Y0156438D01*
X0277219Y0158037D02*
X0277269Y0158037D01*
X0277219Y0159635D02*
X0277269Y0159635D01*
X0277219Y0161234D02*
X0277269Y0161234D01*
X0277218Y0162832D02*
X0277270Y0162832D01*
X0277932Y0164431D02*
X0276556Y0164431D01*
X0275091Y0166029D02*
X0279397Y0166029D01*
X0285091Y0166029D02*
X0289397Y0166029D01*
X0289426Y0166058D02*
X0288027Y0164659D01*
X0287269Y0162830D01*
X0287269Y0155651D01*
X0288027Y0153823D01*
X0289426Y0152424D01*
X0291255Y0151666D01*
X0293234Y0151666D01*
X0295062Y0152424D01*
X0296462Y0153823D01*
X0297219Y0155651D01*
X0297219Y0162830D01*
X0296462Y0164659D01*
X0295062Y0166058D01*
X0293234Y0166816D01*
X0291255Y0166816D01*
X0289426Y0166058D01*
X0287932Y0164431D02*
X0286556Y0164431D01*
X0287218Y0162832D02*
X0287270Y0162832D01*
X0287219Y0161234D02*
X0287269Y0161234D01*
X0287219Y0159635D02*
X0287269Y0159635D01*
X0287219Y0158037D02*
X0287269Y0158037D01*
X0287219Y0156438D02*
X0287269Y0156438D01*
X0287606Y0154840D02*
X0286883Y0154840D01*
X0285880Y0153241D02*
X0288608Y0153241D01*
X0289250Y0148446D02*
X0284765Y0148446D01*
X0286297Y0146847D02*
X0287718Y0146847D01*
X0287056Y0145249D02*
X0286960Y0145249D01*
X0286983Y0143650D02*
X0287033Y0143650D01*
X0286983Y0142052D02*
X0287033Y0142052D01*
X0286983Y0140453D02*
X0287033Y0140453D01*
X0286983Y0138855D02*
X0287033Y0138855D01*
X0287347Y0137256D02*
X0286669Y0137256D01*
X0285698Y0135658D02*
X0288318Y0135658D01*
X0295698Y0135658D02*
X0298318Y0135658D01*
X0297347Y0137256D02*
X0296669Y0137256D01*
X0296983Y0138855D02*
X0297033Y0138855D01*
X0296983Y0140453D02*
X0297033Y0140453D01*
X0296983Y0142052D02*
X0297033Y0142052D01*
X0296983Y0143650D02*
X0297033Y0143650D01*
X0297056Y0145249D02*
X0296960Y0145249D01*
X0296297Y0146847D02*
X0297718Y0146847D01*
X0299250Y0148446D02*
X0294765Y0148446D01*
X0295880Y0153241D02*
X0298608Y0153241D01*
X0297606Y0154840D02*
X0296883Y0154840D01*
X0297219Y0156438D02*
X0297269Y0156438D01*
X0297219Y0158037D02*
X0297269Y0158037D01*
X0297219Y0159635D02*
X0297269Y0159635D01*
X0297219Y0161234D02*
X0297269Y0161234D01*
X0297218Y0162832D02*
X0297270Y0162832D01*
X0297932Y0164431D02*
X0296556Y0164431D01*
X0295091Y0166029D02*
X0299397Y0166029D01*
X0312244Y0164431D02*
X0312244Y0164431D01*
X0312244Y0162832D02*
X0312244Y0162832D01*
X0312244Y0161234D02*
X0312244Y0161234D01*
X0312244Y0159635D02*
X0312244Y0159635D01*
X0312244Y0159241D02*
X0312244Y0159241D01*
X0312244Y0152241D01*
X0312590Y0152241D01*
X0313274Y0152349D01*
X0313933Y0152563D01*
X0314550Y0152878D01*
X0315110Y0153285D01*
X0315600Y0153775D01*
X0316007Y0154335D01*
X0316322Y0154952D01*
X0316536Y0155611D01*
X0316644Y0156295D01*
X0316644Y0159241D01*
X0312244Y0159241D01*
X0312244Y0158037D02*
X0312244Y0158037D01*
X0312244Y0156438D02*
X0312244Y0156438D01*
X0312244Y0154840D02*
X0312244Y0154840D01*
X0312244Y0153241D02*
X0312244Y0153241D01*
X0315050Y0153241D02*
X0318608Y0153241D01*
X0317606Y0154840D02*
X0316265Y0154840D01*
X0316644Y0156438D02*
X0317269Y0156438D01*
X0317269Y0158037D02*
X0316644Y0158037D01*
X0316644Y0159635D02*
X0317269Y0159635D01*
X0317269Y0161234D02*
X0316644Y0161234D01*
X0316542Y0162832D02*
X0317270Y0162832D01*
X0317932Y0164431D02*
X0315801Y0164431D01*
X0339680Y0177219D02*
X0191970Y0177219D01*
X0193569Y0178817D02*
X0339427Y0178817D01*
X0339950Y0146847D02*
X0306297Y0146847D01*
X0306960Y0145249D02*
X0339950Y0145249D01*
X0339950Y0143650D02*
X0306983Y0143650D01*
X0306983Y0142052D02*
X0339950Y0142052D01*
X0339950Y0140453D02*
X0327532Y0140453D01*
X0329131Y0138855D02*
X0339950Y0138855D01*
X0339950Y0137256D02*
X0329698Y0137256D01*
X0329698Y0135658D02*
X0339950Y0135658D01*
X0339950Y0134059D02*
X0329591Y0134059D01*
X0327993Y0132461D02*
X0339950Y0132461D01*
X0321914Y0140453D02*
X0306983Y0140453D01*
X0306983Y0138855D02*
X0320316Y0138855D01*
X0319748Y0137256D02*
X0306669Y0137256D01*
X0305698Y0135658D02*
X0319748Y0135658D01*
X0288237Y0183613D02*
X0286251Y0183613D01*
X0287037Y0185211D02*
X0287452Y0185211D01*
X0287269Y0186810D02*
X0287219Y0186810D01*
X0287219Y0188408D02*
X0287269Y0188408D01*
X0287219Y0190007D02*
X0287269Y0190007D01*
X0287219Y0191605D02*
X0287269Y0191605D01*
X0287424Y0193204D02*
X0287064Y0193204D01*
X0286318Y0194802D02*
X0288170Y0194802D01*
X0290253Y0196401D02*
X0284235Y0196401D01*
X0280253Y0196401D02*
X0274235Y0196401D01*
X0276318Y0194802D02*
X0278170Y0194802D01*
X0277424Y0193204D02*
X0277064Y0193204D01*
X0277219Y0191605D02*
X0277269Y0191605D01*
X0277219Y0190007D02*
X0277269Y0190007D01*
X0277219Y0188408D02*
X0277269Y0188408D01*
X0277219Y0186810D02*
X0277269Y0186810D01*
X0277452Y0185211D02*
X0277037Y0185211D01*
X0276251Y0183613D02*
X0278237Y0183613D01*
X0268237Y0183613D02*
X0266251Y0183613D01*
X0267037Y0185211D02*
X0267452Y0185211D01*
X0267269Y0186810D02*
X0267219Y0186810D01*
X0267219Y0188408D02*
X0267269Y0188408D01*
X0267219Y0190007D02*
X0267269Y0190007D01*
X0267219Y0191605D02*
X0267269Y0191605D01*
X0267424Y0193204D02*
X0267064Y0193204D01*
X0266318Y0194802D02*
X0268170Y0194802D01*
X0270253Y0196401D02*
X0264235Y0196401D01*
X0260253Y0196401D02*
X0254235Y0196401D01*
X0256318Y0194802D02*
X0258170Y0194802D01*
X0257424Y0193204D02*
X0257064Y0193204D01*
X0257219Y0191605D02*
X0257269Y0191605D01*
X0257219Y0190007D02*
X0257269Y0190007D01*
X0257219Y0188408D02*
X0257269Y0188408D01*
X0257219Y0186810D02*
X0257269Y0186810D01*
X0257452Y0185211D02*
X0257037Y0185211D01*
X0256251Y0183613D02*
X0258237Y0183613D01*
X0256610Y0201197D02*
X0253390Y0201197D01*
X0254720Y0202795D02*
X0255280Y0202795D01*
X0263390Y0201197D02*
X0266610Y0201197D01*
X0265280Y0202795D02*
X0264720Y0202795D01*
X0273390Y0201197D02*
X0276610Y0201197D01*
X0275280Y0202795D02*
X0274720Y0202795D01*
X0283390Y0201197D02*
X0286610Y0201197D01*
X0285280Y0202795D02*
X0284720Y0202795D01*
X0229397Y0166029D02*
X0201863Y0166029D01*
X0201440Y0166452D02*
X0199612Y0167209D01*
X0197632Y0167209D01*
X0195804Y0166452D01*
X0194405Y0165053D01*
X0193647Y0163224D01*
X0193647Y0156045D01*
X0194405Y0154217D01*
X0195804Y0152817D01*
X0197632Y0152060D01*
X0199612Y0152060D01*
X0201440Y0152817D01*
X0202839Y0154217D01*
X0203597Y0156045D01*
X0203597Y0163224D01*
X0202839Y0165053D01*
X0201440Y0166452D01*
X0203097Y0164431D02*
X0227932Y0164431D01*
X0227270Y0162832D02*
X0203597Y0162832D01*
X0203597Y0161234D02*
X0227269Y0161234D01*
X0227269Y0159635D02*
X0203597Y0159635D01*
X0203597Y0158037D02*
X0227269Y0158037D01*
X0227269Y0156438D02*
X0203597Y0156438D01*
X0203098Y0154840D02*
X0227606Y0154840D01*
X0228608Y0153241D02*
X0201864Y0153241D01*
X0195380Y0153241D02*
X0190869Y0153241D01*
X0190928Y0153271D02*
X0191488Y0153679D01*
X0191978Y0154168D01*
X0192385Y0154729D01*
X0192700Y0155346D01*
X0192914Y0156004D01*
X0193022Y0156688D01*
X0193022Y0159635D01*
X0193647Y0159635D01*
X0193022Y0159635D02*
X0193022Y0162581D01*
X0192914Y0163265D01*
X0192700Y0163924D01*
X0192385Y0164541D01*
X0191978Y0165101D01*
X0191488Y0165591D01*
X0190928Y0165998D01*
X0190311Y0166312D01*
X0189652Y0166526D01*
X0188968Y0166635D01*
X0188622Y0166635D01*
X0188276Y0166635D01*
X0187592Y0166526D01*
X0186933Y0166312D01*
X0186316Y0165998D01*
X0185756Y0165591D01*
X0185266Y0165101D01*
X0184859Y0164541D01*
X0184544Y0163924D01*
X0184330Y0163265D01*
X0184222Y0162581D01*
X0184222Y0159635D01*
X0183597Y0159635D01*
X0184222Y0159635D02*
X0184222Y0156688D01*
X0184330Y0156004D01*
X0184544Y0155346D01*
X0184859Y0154729D01*
X0185266Y0154168D01*
X0185756Y0153679D01*
X0186316Y0153271D01*
X0186933Y0152957D01*
X0187592Y0152743D01*
X0188276Y0152635D01*
X0188622Y0152635D01*
X0188622Y0159635D01*
X0188622Y0159635D01*
X0188622Y0166635D01*
X0188622Y0159635D01*
X0188622Y0159635D01*
X0188622Y0159635D01*
X0184222Y0159635D01*
X0188622Y0159635D01*
X0193022Y0159635D01*
X0188622Y0159635D01*
X0188622Y0159635D01*
X0188622Y0152635D01*
X0188968Y0152635D01*
X0189652Y0152743D01*
X0190311Y0152957D01*
X0190928Y0153271D01*
X0192442Y0154840D02*
X0194147Y0154840D01*
X0193647Y0156438D02*
X0192982Y0156438D01*
X0193022Y0158037D02*
X0193647Y0158037D01*
X0193647Y0161234D02*
X0193022Y0161234D01*
X0192982Y0162832D02*
X0193647Y0162832D01*
X0194147Y0164431D02*
X0192441Y0164431D01*
X0190866Y0166029D02*
X0195381Y0166029D01*
X0188622Y0166029D02*
X0188622Y0166029D01*
X0188622Y0164431D02*
X0188622Y0164431D01*
X0188622Y0162832D02*
X0188622Y0162832D01*
X0188622Y0161234D02*
X0188622Y0161234D01*
X0188622Y0159635D02*
X0188622Y0159635D01*
X0188622Y0158037D02*
X0188622Y0158037D01*
X0188622Y0156438D02*
X0188622Y0156438D01*
X0188622Y0154840D02*
X0188622Y0154840D01*
X0188622Y0153241D02*
X0188622Y0153241D01*
X0186375Y0153241D02*
X0181864Y0153241D01*
X0183098Y0154840D02*
X0184802Y0154840D01*
X0184262Y0156438D02*
X0183597Y0156438D01*
X0183597Y0158037D02*
X0184222Y0158037D01*
X0184222Y0161234D02*
X0183597Y0161234D01*
X0183597Y0162832D02*
X0184262Y0162832D01*
X0184803Y0164431D02*
X0183097Y0164431D01*
X0181863Y0166029D02*
X0186378Y0166029D01*
X0181572Y0148446D02*
X0229250Y0148446D01*
X0227718Y0146847D02*
X0182838Y0146847D01*
X0183361Y0145249D02*
X0227056Y0145249D01*
X0227033Y0143650D02*
X0183361Y0143650D01*
X0183361Y0142052D02*
X0227033Y0142052D01*
X0228410Y0049338D02*
X0223599Y0049338D01*
X0225461Y0047739D02*
X0226548Y0047739D01*
X0233599Y0049338D02*
X0238410Y0049338D01*
X0236548Y0047739D02*
X0235461Y0047739D01*
X0243599Y0049338D02*
X0248410Y0049338D01*
X0246548Y0047739D02*
X0245461Y0047739D01*
X0245975Y0036550D02*
X0246034Y0036550D01*
X0247047Y0034951D02*
X0244962Y0034951D01*
X0242392Y0030156D02*
X0247608Y0030156D01*
X0245638Y0028557D02*
X0244362Y0028557D01*
X0237608Y0030156D02*
X0232392Y0030156D01*
X0234362Y0028557D02*
X0235638Y0028557D01*
X0227608Y0030156D02*
X0222392Y0030156D01*
X0224362Y0028557D02*
X0225638Y0028557D01*
X0217608Y0030156D02*
X0212392Y0030156D01*
X0214362Y0028557D02*
X0215638Y0028557D01*
X0207608Y0030156D02*
X0202392Y0030156D01*
X0204362Y0028557D02*
X0205638Y0028557D01*
X0197608Y0030156D02*
X0192392Y0030156D01*
X0194362Y0028557D02*
X0195638Y0028557D01*
X0187608Y0030156D02*
X0182392Y0030156D01*
X0184362Y0028557D02*
X0185638Y0028557D01*
X0177608Y0030156D02*
X0172392Y0030156D01*
X0174362Y0028557D02*
X0175638Y0028557D01*
X0167608Y0030156D02*
X0162392Y0030156D01*
X0164362Y0028557D02*
X0165638Y0028557D01*
X0157608Y0030156D02*
X0152392Y0030156D01*
X0154362Y0028557D02*
X0155638Y0028557D01*
X0147608Y0030156D02*
X0142392Y0030156D01*
X0144362Y0028557D02*
X0145638Y0028557D01*
X0137608Y0030156D02*
X0132392Y0030156D01*
X0134362Y0028557D02*
X0135638Y0028557D01*
X0127608Y0030156D02*
X0122392Y0030156D01*
X0124362Y0028557D02*
X0125638Y0028557D01*
X0117608Y0030156D02*
X0112392Y0030156D01*
X0114362Y0028557D02*
X0115638Y0028557D01*
X0107608Y0030156D02*
X0102392Y0030156D01*
X0104362Y0028557D02*
X0105638Y0028557D01*
X0097608Y0030156D02*
X0092392Y0030156D01*
X0094362Y0028557D02*
X0095638Y0028557D01*
X0087608Y0030156D02*
X0067550Y0030156D01*
X0067550Y0031754D02*
X0263395Y0031754D01*
X0262392Y0030156D02*
X0267608Y0030156D01*
X0265638Y0028557D02*
X0264362Y0028557D01*
X0269642Y0031754D02*
X0331421Y0031754D01*
X0330260Y0030156D02*
X0282392Y0030156D01*
X0284362Y0028557D02*
X0286451Y0028557D01*
X0285505Y0026959D02*
X0285123Y0026959D01*
X0285120Y0023762D02*
X0285506Y0023762D01*
X0286456Y0022163D02*
X0284357Y0022163D01*
X0282379Y0020565D02*
X0319901Y0020565D01*
X0322101Y0022163D02*
X0303544Y0022163D01*
X0303637Y0022257D02*
X0304078Y0022864D01*
X0304419Y0023533D01*
X0304651Y0024246D01*
X0304768Y0024988D01*
X0304768Y0025179D01*
X0300184Y0025179D01*
X0300184Y0025547D01*
X0304768Y0025547D01*
X0304768Y0025738D01*
X0304651Y0026480D01*
X0304419Y0027193D01*
X0304078Y0027862D01*
X0303637Y0028469D01*
X0303106Y0029000D01*
X0302499Y0029441D01*
X0301830Y0029782D01*
X0301117Y0030014D01*
X0300375Y0030131D01*
X0300184Y0030131D01*
X0300184Y0025547D01*
X0299816Y0025547D01*
X0299816Y0025179D01*
X0300184Y0025179D01*
X0300184Y0020594D01*
X0300375Y0020594D01*
X0301117Y0020712D01*
X0301830Y0020944D01*
X0302499Y0021285D01*
X0303106Y0021726D01*
X0303637Y0022257D01*
X0304494Y0023762D02*
X0324272Y0023762D01*
X0325870Y0025360D02*
X0300184Y0025360D01*
X0299816Y0025360D02*
X0290184Y0025360D01*
X0290184Y0023762D02*
X0289816Y0023762D01*
X0289816Y0022163D02*
X0290184Y0022163D01*
X0290184Y0018966D02*
X0289816Y0018966D01*
X0289816Y0017368D02*
X0290184Y0017368D01*
X0290184Y0015769D02*
X0289816Y0015769D01*
X0285670Y0017368D02*
X0284953Y0017368D01*
X0283953Y0018966D02*
X0286860Y0018966D01*
X0293140Y0018966D02*
X0296860Y0018966D01*
X0295670Y0017368D02*
X0294330Y0017368D01*
X0294764Y0015769D02*
X0295236Y0015769D01*
X0295373Y0014171D02*
X0294626Y0014171D01*
X0299816Y0015769D02*
X0300184Y0015769D01*
X0300184Y0017368D02*
X0299816Y0017368D01*
X0299816Y0018966D02*
X0300184Y0018966D01*
X0299816Y0020594D02*
X0299816Y0025179D01*
X0295231Y0025179D01*
X0295231Y0024988D01*
X0295349Y0024246D01*
X0295581Y0023533D01*
X0295922Y0022864D01*
X0296363Y0022257D01*
X0296894Y0021726D01*
X0297501Y0021285D01*
X0298170Y0020944D01*
X0298883Y0020712D01*
X0299625Y0020594D01*
X0299816Y0020594D01*
X0299816Y0022163D02*
X0300184Y0022163D01*
X0300184Y0023762D02*
X0299816Y0023762D01*
X0299816Y0025547D02*
X0295231Y0025547D01*
X0295231Y0025738D01*
X0295349Y0026480D01*
X0295581Y0027193D01*
X0295922Y0027862D01*
X0296363Y0028469D01*
X0296894Y0029000D01*
X0297501Y0029441D01*
X0298170Y0029782D01*
X0298883Y0030014D01*
X0299625Y0030131D01*
X0299816Y0030131D01*
X0299816Y0025547D01*
X0299816Y0026959D02*
X0300184Y0026959D01*
X0300184Y0028557D02*
X0299816Y0028557D01*
X0296451Y0028557D02*
X0293549Y0028557D01*
X0294495Y0026959D02*
X0295505Y0026959D01*
X0295506Y0023762D02*
X0294494Y0023762D01*
X0293544Y0022163D02*
X0296456Y0022163D01*
X0303140Y0018966D02*
X0317366Y0018966D01*
X0314229Y0017368D02*
X0304330Y0017368D01*
X0304764Y0015769D02*
X0310461Y0015769D01*
X0305542Y0014171D02*
X0304626Y0014171D01*
X0304495Y0026959D02*
X0327469Y0026959D01*
X0329067Y0028557D02*
X0303549Y0028557D01*
X0295170Y0036550D02*
X0281975Y0036550D01*
X0283141Y0038148D02*
X0293766Y0038148D01*
X0293766Y0039747D02*
X0283141Y0039747D01*
X0283141Y0041345D02*
X0293766Y0041345D01*
X0280376Y0034951D02*
X0321911Y0034951D01*
X0324967Y0034951D02*
X0324967Y0034951D01*
X0324967Y0036550D02*
X0324967Y0036550D01*
X0324967Y0038148D02*
X0324967Y0038148D01*
X0328024Y0034951D02*
X0333619Y0034951D01*
X0334433Y0036550D02*
X0329622Y0036550D01*
X0329917Y0038148D02*
X0335248Y0038148D01*
X0336062Y0039747D02*
X0329917Y0039747D01*
X0329518Y0041345D02*
X0336751Y0041345D01*
X0332582Y0033353D02*
X0271240Y0033353D01*
X0271493Y0034951D02*
X0275955Y0034951D01*
X0274357Y0036550D02*
X0271493Y0036550D01*
X0271072Y0038148D02*
X0273191Y0038148D01*
X0273191Y0039747D02*
X0269474Y0039747D01*
X0269233Y0041345D02*
X0273191Y0041345D01*
X0274298Y0042944D02*
X0270831Y0042944D01*
X0271493Y0044542D02*
X0275896Y0044542D01*
X0277608Y0030156D02*
X0272392Y0030156D01*
X0274362Y0028557D02*
X0275638Y0028557D01*
X0289816Y0028557D02*
X0290184Y0028557D01*
X0290184Y0026959D02*
X0289816Y0026959D01*
X0257608Y0030156D02*
X0252392Y0030156D01*
X0254362Y0028557D02*
X0255638Y0028557D01*
X0237047Y0034951D02*
X0234962Y0034951D01*
X0235975Y0036550D02*
X0236034Y0036550D01*
X0227047Y0034951D02*
X0224962Y0034951D01*
X0225975Y0036550D02*
X0226034Y0036550D01*
X0217047Y0034951D02*
X0214962Y0034951D01*
X0215975Y0036550D02*
X0216034Y0036550D01*
X0207047Y0034951D02*
X0204149Y0034951D01*
X0205350Y0036550D02*
X0206034Y0036550D01*
X0196660Y0036550D02*
X0067550Y0036550D01*
X0067550Y0038148D02*
X0196216Y0038148D01*
X0196205Y0039747D02*
X0067550Y0039747D01*
X0067550Y0041345D02*
X0196205Y0041345D01*
X0196205Y0042944D02*
X0067550Y0042944D01*
X0067550Y0044542D02*
X0196205Y0044542D01*
X0196460Y0046141D02*
X0067550Y0046141D01*
X0067550Y0047739D02*
X0197361Y0047739D01*
X0213599Y0049338D02*
X0218410Y0049338D01*
X0216548Y0047739D02*
X0215461Y0047739D01*
X0087621Y0020565D02*
X0067550Y0020565D01*
X0067550Y0022163D02*
X0076456Y0022163D01*
X0075506Y0023762D02*
X0067550Y0023762D01*
X0067550Y0025360D02*
X0079816Y0025360D01*
X0079816Y0023762D02*
X0080184Y0023762D01*
X0080184Y0022163D02*
X0079816Y0022163D01*
X0079816Y0018966D02*
X0080184Y0018966D01*
X0080184Y0017368D02*
X0079816Y0017368D01*
X0079816Y0015769D02*
X0080184Y0015769D01*
X0084768Y0017368D02*
X0085047Y0017368D01*
X0084662Y0018966D02*
X0086047Y0018966D01*
X0085643Y0022163D02*
X0083544Y0022163D01*
X0084494Y0023762D02*
X0084880Y0023762D01*
X0084877Y0026959D02*
X0084495Y0026959D01*
X0083549Y0028557D02*
X0085638Y0028557D01*
X0080184Y0028557D02*
X0079816Y0028557D01*
X0079816Y0026959D02*
X0080184Y0026959D01*
X0076451Y0028557D02*
X0067550Y0028557D01*
X0067550Y0026959D02*
X0075505Y0026959D01*
X0075338Y0018966D02*
X0067550Y0018966D01*
X0067550Y0017368D02*
X0075231Y0017368D01*
X0075231Y0015769D02*
X0067550Y0015769D01*
X0067550Y0014171D02*
X0075231Y0014171D01*
D20*
X0121732Y0034477D03*
X0133543Y0034477D03*
X0145354Y0034477D03*
X0157165Y0034477D03*
X0168976Y0034477D03*
X0180787Y0034477D03*
X0168976Y0046288D03*
X0157165Y0046288D03*
X0145354Y0046288D03*
X0133543Y0046288D03*
X0121732Y0046288D03*
X0098110Y0046288D03*
X0086299Y0046288D03*
X0074488Y0046288D03*
X0086299Y0058099D03*
X0098110Y0058099D03*
X0098110Y0069910D03*
X0098110Y0081721D03*
X0098110Y0093532D03*
X0098110Y0105343D03*
X0098110Y0117154D03*
X0098110Y0128965D03*
X0109921Y0128965D03*
X0121732Y0128965D03*
X0133543Y0128965D03*
X0145354Y0128965D03*
X0157165Y0128965D03*
X0168976Y0128965D03*
X0180787Y0128965D03*
X0192598Y0128965D03*
X0192598Y0105343D03*
X0204409Y0105343D03*
X0216220Y0105343D03*
X0216220Y0093532D03*
X0204409Y0093532D03*
X0192598Y0093532D03*
X0192598Y0081721D03*
X0204409Y0081721D03*
X0216220Y0081721D03*
X0216220Y0069910D03*
X0228031Y0069910D03*
X0239843Y0069910D03*
X0251654Y0069910D03*
X0263465Y0069910D03*
X0275276Y0069910D03*
X0287087Y0069910D03*
X0298898Y0069910D03*
X0310709Y0069910D03*
X0322520Y0069910D03*
X0322520Y0081721D03*
X0310709Y0081721D03*
X0310709Y0093532D03*
X0322520Y0093532D03*
X0322520Y0105343D03*
X0310709Y0105343D03*
X0334331Y0152587D03*
X0334331Y0164398D03*
X0334331Y0176209D03*
X0334331Y0188020D03*
X0310709Y0176209D03*
X0298898Y0176209D03*
X0287087Y0176209D03*
X0275276Y0176209D03*
X0263465Y0176209D03*
X0251654Y0176209D03*
X0239843Y0176209D03*
X0228031Y0176209D03*
X0216220Y0176209D03*
X0216220Y0164398D03*
X0216220Y0152587D03*
X0216220Y0188020D03*
X0098110Y0164398D03*
X0098110Y0152587D03*
X0098110Y0140776D03*
X0192598Y0069910D03*
X0204409Y0058099D03*
X0216220Y0058099D03*
X0228031Y0058099D03*
X0239843Y0058099D03*
X0251654Y0058099D03*
X0263465Y0058099D03*
X0275276Y0058099D03*
X0287087Y0058099D03*
X0298898Y0058099D03*
X0310709Y0058099D03*
X0310709Y0046288D03*
X0310709Y0034477D03*
D21*
X0189843Y0180146D02*
X0186303Y0180146D01*
X0186301Y0180144D01*
X0073688Y0180144D01*
X0189843Y0180146D02*
X0198622Y0188926D01*
X0198622Y0189635D01*
X0302244Y0189241D02*
X0302441Y0189438D01*
X0302441Y0197863D01*
X0306772Y0202194D01*
X0306772Y0210855D01*
X0302264Y0215363D01*
X0300000Y0215363D01*
M02*
