G75*
%MOIN*%
%OFA0B0*%
%FSLAX25Y25*%
%IPPOS*%
%LPD*%
%AMOC8*
5,1,8,0,0,1.08239X$1,22.5*
%
%ADD10R,0.05937X0.05937*%
%ADD11C,0.05937*%
%ADD12C,0.05600*%
%ADD13OC8,0.05600*%
%ADD14OC8,0.06300*%
%ADD15C,0.06300*%
%ADD16OC8,0.05200*%
%ADD17C,0.06000*%
%ADD18C,0.05200*%
%ADD19C,0.01181*%
%ADD20C,0.02978*%
%ADD21C,0.02400*%
%ADD22C,0.01200*%
D10*
X0080000Y0015363D03*
X0080000Y0205363D03*
D11*
X0090000Y0205363D03*
X0100000Y0205363D03*
X0110000Y0205363D03*
X0120000Y0205363D03*
X0130000Y0205363D03*
X0140000Y0205363D03*
X0150000Y0205363D03*
X0160000Y0205363D03*
X0170000Y0205363D03*
X0180000Y0205363D03*
X0190000Y0205363D03*
X0200000Y0205363D03*
X0210000Y0205363D03*
X0220000Y0205363D03*
X0230000Y0205363D03*
X0240000Y0205363D03*
X0250000Y0205363D03*
X0260000Y0205363D03*
X0270000Y0205363D03*
X0280000Y0205363D03*
X0290000Y0205363D03*
X0300000Y0205363D03*
X0300000Y0215363D03*
X0290000Y0215363D03*
X0280000Y0215363D03*
X0270000Y0215363D03*
X0260000Y0215363D03*
X0250000Y0215363D03*
X0240000Y0215363D03*
X0230000Y0215363D03*
X0220000Y0215363D03*
X0210000Y0215363D03*
X0200000Y0215363D03*
X0190000Y0215363D03*
X0180000Y0215363D03*
X0170000Y0215363D03*
X0160000Y0215363D03*
X0150000Y0215363D03*
X0140000Y0215363D03*
X0130000Y0215363D03*
X0120000Y0215363D03*
X0110000Y0215363D03*
X0100000Y0215363D03*
X0090000Y0215363D03*
X0080000Y0215363D03*
X0080000Y0025363D03*
X0090000Y0025363D03*
X0100000Y0025363D03*
X0110000Y0025363D03*
X0120000Y0025363D03*
X0130000Y0025363D03*
X0140000Y0025363D03*
X0150000Y0025363D03*
X0160000Y0025363D03*
X0170000Y0025363D03*
X0180000Y0025363D03*
X0190000Y0025363D03*
X0200000Y0025363D03*
X0210000Y0025363D03*
X0220000Y0025363D03*
X0230000Y0025363D03*
X0240000Y0025363D03*
X0250000Y0025363D03*
X0260000Y0025363D03*
X0270000Y0025363D03*
X0280000Y0025363D03*
X0290000Y0025363D03*
X0300000Y0025363D03*
X0300000Y0015363D03*
X0290000Y0015363D03*
X0280000Y0015363D03*
X0270000Y0015363D03*
X0260000Y0015363D03*
X0250000Y0015363D03*
X0240000Y0015363D03*
X0230000Y0015363D03*
X0220000Y0015363D03*
X0210000Y0015363D03*
X0200000Y0015363D03*
X0190000Y0015363D03*
X0180000Y0015363D03*
X0170000Y0015363D03*
X0160000Y0015363D03*
X0150000Y0015363D03*
X0140000Y0015363D03*
X0130000Y0015363D03*
X0120000Y0015363D03*
X0110000Y0015363D03*
X0100000Y0015363D03*
X0090000Y0015363D03*
D12*
X0178780Y0089871D03*
X0302008Y0089792D03*
D13*
X0292008Y0089792D03*
X0282008Y0089792D03*
X0272008Y0089792D03*
X0262008Y0089792D03*
X0252008Y0089792D03*
X0242008Y0089792D03*
X0232008Y0089792D03*
X0232008Y0079792D03*
X0242008Y0079792D03*
X0252008Y0079792D03*
X0262008Y0079792D03*
X0272008Y0079792D03*
X0282008Y0079792D03*
X0292008Y0079792D03*
X0302008Y0079792D03*
X0178780Y0079871D03*
X0168780Y0079871D03*
X0158780Y0079871D03*
X0148780Y0079871D03*
X0138780Y0079871D03*
X0128780Y0079871D03*
X0118780Y0079871D03*
X0108780Y0079871D03*
X0108780Y0089871D03*
X0118780Y0089871D03*
X0128780Y0089871D03*
X0138780Y0089871D03*
X0148780Y0089871D03*
X0158780Y0089871D03*
X0168780Y0089871D03*
D14*
X0324967Y0038895D03*
D15*
X0324967Y0048895D03*
D16*
X0298166Y0039776D03*
X0278166Y0039776D03*
X0266519Y0035667D03*
X0266519Y0045667D03*
X0205197Y0115422D03*
X0205197Y0135422D03*
X0088502Y0173414D03*
X0073688Y0180144D03*
X0073688Y0190144D03*
X0088502Y0193414D03*
X0324723Y0136227D03*
X0324723Y0116227D03*
D17*
X0251005Y0044595D02*
X0251005Y0038595D01*
X0241005Y0038595D02*
X0241005Y0044595D01*
X0231005Y0044595D02*
X0231005Y0038595D01*
X0221005Y0038595D02*
X0221005Y0044595D01*
X0211005Y0044595D02*
X0211005Y0038595D01*
X0201005Y0038595D02*
X0201005Y0044595D01*
D18*
X0232008Y0109003D02*
X0232008Y0114203D01*
X0242008Y0114203D02*
X0242008Y0109003D01*
X0252008Y0109003D02*
X0252008Y0114203D01*
X0262008Y0114203D02*
X0262008Y0109003D01*
X0272008Y0109003D02*
X0272008Y0114203D01*
X0282008Y0114203D02*
X0282008Y0109003D01*
X0292008Y0109003D02*
X0292008Y0114203D01*
X0302008Y0114203D02*
X0302008Y0109003D01*
X0302008Y0139003D02*
X0302008Y0144203D01*
X0292008Y0144203D02*
X0292008Y0139003D01*
X0282008Y0139003D02*
X0282008Y0144203D01*
X0272008Y0144203D02*
X0272008Y0139003D01*
X0262008Y0139003D02*
X0262008Y0144203D01*
X0252008Y0144203D02*
X0252008Y0139003D01*
X0242008Y0139003D02*
X0242008Y0144203D01*
X0232008Y0144203D02*
X0232008Y0139003D01*
X0232244Y0156641D02*
X0232244Y0161841D01*
X0242244Y0161841D02*
X0242244Y0156641D01*
X0252244Y0156641D02*
X0252244Y0161841D01*
X0262244Y0161841D02*
X0262244Y0156641D01*
X0272244Y0156641D02*
X0272244Y0161841D01*
X0282244Y0161841D02*
X0282244Y0156641D01*
X0292244Y0156641D02*
X0292244Y0161841D01*
X0302244Y0161841D02*
X0302244Y0156641D01*
X0312244Y0156641D02*
X0312244Y0161841D01*
X0322244Y0161841D02*
X0322244Y0156641D01*
X0322244Y0186641D02*
X0322244Y0191841D01*
X0312244Y0191841D02*
X0312244Y0186641D01*
X0302244Y0186641D02*
X0302244Y0191841D01*
X0292244Y0191841D02*
X0292244Y0186641D01*
X0282244Y0186641D02*
X0282244Y0191841D01*
X0272244Y0191841D02*
X0272244Y0186641D01*
X0262244Y0186641D02*
X0262244Y0191841D01*
X0252244Y0191841D02*
X0252244Y0186641D01*
X0242244Y0186641D02*
X0242244Y0191841D01*
X0232244Y0191841D02*
X0232244Y0186641D01*
X0198622Y0187035D02*
X0198622Y0192235D01*
X0188622Y0192235D02*
X0188622Y0187035D01*
X0178622Y0187035D02*
X0178622Y0192235D01*
X0168622Y0192235D02*
X0168622Y0187035D01*
X0158622Y0187035D02*
X0158622Y0192235D01*
X0148622Y0192235D02*
X0148622Y0187035D01*
X0138622Y0187035D02*
X0138622Y0192235D01*
X0128622Y0192235D02*
X0128622Y0187035D01*
X0118622Y0187035D02*
X0118622Y0192235D01*
X0108622Y0192235D02*
X0108622Y0187035D01*
X0108622Y0162235D02*
X0108622Y0157035D01*
X0118622Y0157035D02*
X0118622Y0162235D01*
X0128622Y0162235D02*
X0128622Y0157035D01*
X0138622Y0157035D02*
X0138622Y0162235D01*
X0148622Y0162235D02*
X0148622Y0157035D01*
X0158622Y0157035D02*
X0158622Y0162235D01*
X0168622Y0162235D02*
X0168622Y0157035D01*
X0178622Y0157035D02*
X0178622Y0162235D01*
X0188622Y0162235D02*
X0188622Y0157035D01*
X0198622Y0157035D02*
X0198622Y0162235D01*
X0178386Y0144597D02*
X0178386Y0139397D01*
X0168386Y0139397D02*
X0168386Y0144597D01*
X0158386Y0144597D02*
X0158386Y0139397D01*
X0148386Y0139397D02*
X0148386Y0144597D01*
X0138386Y0144597D02*
X0138386Y0139397D01*
X0128386Y0139397D02*
X0128386Y0144597D01*
X0118386Y0144597D02*
X0118386Y0139397D01*
X0108386Y0139397D02*
X0108386Y0144597D01*
X0108386Y0114597D02*
X0108386Y0109397D01*
X0118386Y0109397D02*
X0118386Y0114597D01*
X0128386Y0114597D02*
X0128386Y0109397D01*
X0138386Y0109397D02*
X0138386Y0114597D01*
X0148386Y0114597D02*
X0148386Y0109397D01*
X0158386Y0109397D02*
X0158386Y0114597D01*
X0168386Y0114597D02*
X0168386Y0109397D01*
X0178386Y0109397D02*
X0178386Y0114597D01*
D19*
X0067341Y0053424D02*
X0067341Y0012704D01*
X0075441Y0012704D01*
X0075441Y0014969D01*
X0079606Y0014969D01*
X0079606Y0015757D01*
X0079606Y0019922D01*
X0076822Y0019922D01*
X0076418Y0019814D01*
X0076055Y0019604D01*
X0075759Y0019308D01*
X0075549Y0018945D01*
X0075441Y0018541D01*
X0075441Y0015757D01*
X0079606Y0015757D01*
X0080394Y0015757D01*
X0080394Y0019922D01*
X0083178Y0019922D01*
X0083582Y0019814D01*
X0083945Y0019604D01*
X0084241Y0019308D01*
X0084451Y0018945D01*
X0084559Y0018541D01*
X0084559Y0015757D01*
X0080394Y0015757D01*
X0080394Y0014969D01*
X0084559Y0014969D01*
X0084559Y0012704D01*
X0085545Y0012704D01*
X0084866Y0014342D01*
X0084866Y0016384D01*
X0085648Y0018271D01*
X0087092Y0019715D01*
X0088656Y0020363D01*
X0087092Y0021011D01*
X0085648Y0022455D01*
X0084866Y0024342D01*
X0084866Y0026384D01*
X0085648Y0028271D01*
X0087092Y0029715D01*
X0088979Y0030497D01*
X0091021Y0030497D01*
X0092908Y0029715D01*
X0094352Y0028271D01*
X0095000Y0026707D01*
X0095648Y0028271D01*
X0097092Y0029715D01*
X0098979Y0030497D01*
X0101021Y0030497D01*
X0102908Y0029715D01*
X0104352Y0028271D01*
X0105000Y0026707D01*
X0105648Y0028271D01*
X0106701Y0029324D01*
X0107028Y0048758D01*
X0107028Y0049399D01*
X0107040Y0049426D01*
X0107040Y0049455D01*
X0107295Y0050043D01*
X0107541Y0050635D01*
X0107561Y0050656D01*
X0107573Y0050683D01*
X0108034Y0051129D01*
X0121401Y0064496D01*
X0122638Y0065008D01*
X0194354Y0065008D01*
X0207737Y0078391D01*
X0207737Y0112036D01*
X0206933Y0111231D01*
X0205406Y0111231D01*
X0205406Y0115213D01*
X0204987Y0115213D01*
X0201006Y0115213D01*
X0201006Y0113686D01*
X0203461Y0111231D01*
X0204987Y0111231D01*
X0204987Y0115213D01*
X0204987Y0115631D01*
X0201006Y0115631D01*
X0201006Y0117158D01*
X0203461Y0119613D01*
X0204987Y0119613D01*
X0204987Y0115632D01*
X0205406Y0115632D01*
X0205406Y0119613D01*
X0206641Y0119613D01*
X0203291Y0122963D01*
X0202344Y0123909D01*
X0201831Y0125146D01*
X0201831Y0132048D01*
X0200431Y0133448D01*
X0200431Y0137396D01*
X0201438Y0138402D01*
X0201438Y0142926D01*
X0196991Y0147372D01*
X0196045Y0148319D01*
X0195532Y0149556D01*
X0195532Y0153385D01*
X0194582Y0154335D01*
X0193857Y0156087D01*
X0193857Y0163183D01*
X0194582Y0164934D01*
X0195257Y0165609D01*
X0195257Y0183661D01*
X0194582Y0184335D01*
X0193857Y0186087D01*
X0193857Y0193183D01*
X0194134Y0193852D01*
X0193387Y0193105D01*
X0193387Y0186087D01*
X0192662Y0184335D01*
X0191321Y0182995D01*
X0189570Y0182269D01*
X0187674Y0182269D01*
X0185923Y0182995D01*
X0184582Y0184335D01*
X0183857Y0186087D01*
X0183857Y0193183D01*
X0184582Y0194934D01*
X0185923Y0196275D01*
X0187674Y0197000D01*
X0187763Y0197000D01*
X0190139Y0199376D01*
X0190993Y0200229D01*
X0188979Y0200229D01*
X0187490Y0200846D01*
X0187490Y0199675D01*
X0187069Y0198659D01*
X0182862Y0194452D01*
X0183387Y0193183D01*
X0183387Y0186087D01*
X0182662Y0184335D01*
X0181321Y0182995D01*
X0179570Y0182269D01*
X0177674Y0182269D01*
X0175923Y0182995D01*
X0174582Y0184335D01*
X0173857Y0186087D01*
X0173857Y0193183D01*
X0174582Y0194934D01*
X0175923Y0196275D01*
X0177528Y0196939D01*
X0180818Y0200229D01*
X0178979Y0200229D01*
X0177092Y0201011D01*
X0175648Y0202455D01*
X0175000Y0204019D01*
X0174352Y0202455D01*
X0172908Y0201011D01*
X0171021Y0200229D01*
X0168979Y0200229D01*
X0167805Y0200715D01*
X0167805Y0199857D01*
X0170489Y0197173D01*
X0170489Y0197173D01*
X0171436Y0196226D01*
X0171482Y0196114D01*
X0172662Y0194934D01*
X0173387Y0193183D01*
X0173387Y0186087D01*
X0172662Y0184335D01*
X0171321Y0182995D01*
X0169570Y0182269D01*
X0167674Y0182269D01*
X0165923Y0182995D01*
X0164582Y0184335D01*
X0163857Y0186087D01*
X0163857Y0193183D01*
X0164180Y0193963D01*
X0162186Y0195957D01*
X0161674Y0197194D01*
X0161674Y0198532D01*
X0162186Y0199769D01*
X0162274Y0199857D01*
X0162274Y0200748D01*
X0161021Y0200229D01*
X0158979Y0200229D01*
X0157568Y0200813D01*
X0157568Y0200251D01*
X0160646Y0197173D01*
X0161593Y0196226D01*
X0161751Y0195845D01*
X0162662Y0194934D01*
X0163387Y0193183D01*
X0163387Y0186087D01*
X0162662Y0184335D01*
X0161321Y0182995D01*
X0159570Y0182269D01*
X0157674Y0182269D01*
X0155923Y0182995D01*
X0154582Y0184335D01*
X0153857Y0186087D01*
X0153857Y0193183D01*
X0154226Y0194074D01*
X0151950Y0196350D01*
X0151438Y0197587D01*
X0151438Y0198926D01*
X0151950Y0200163D01*
X0152038Y0200251D01*
X0152038Y0200650D01*
X0151021Y0200229D01*
X0148979Y0200229D01*
X0147726Y0200748D01*
X0147726Y0200251D01*
X0150410Y0197566D01*
X0151357Y0196620D01*
X0151626Y0195970D01*
X0152662Y0194934D01*
X0153387Y0193183D01*
X0153387Y0186087D01*
X0152662Y0184335D01*
X0151321Y0182995D01*
X0149570Y0182269D01*
X0147674Y0182269D01*
X0145923Y0182995D01*
X0144582Y0184335D01*
X0143857Y0186087D01*
X0143857Y0193183D01*
X0144272Y0194186D01*
X0142108Y0196350D01*
X0141595Y0197587D01*
X0141595Y0198926D01*
X0142108Y0200163D01*
X0142195Y0200251D01*
X0142195Y0200715D01*
X0141021Y0200229D01*
X0138979Y0200229D01*
X0137883Y0200683D01*
X0137883Y0200644D01*
X0140568Y0197960D01*
X0141514Y0197013D01*
X0142027Y0195776D01*
X0142027Y0195569D01*
X0142662Y0194934D01*
X0143387Y0193183D01*
X0143387Y0186087D01*
X0142662Y0184335D01*
X0141321Y0182995D01*
X0139570Y0182269D01*
X0137674Y0182269D01*
X0135923Y0182995D01*
X0134582Y0184335D01*
X0133857Y0186087D01*
X0133857Y0193183D01*
X0134434Y0194575D01*
X0132265Y0196744D01*
X0131753Y0197981D01*
X0131753Y0199320D01*
X0132265Y0200557D01*
X0132353Y0200644D01*
X0132353Y0200781D01*
X0131021Y0200229D01*
X0128979Y0200229D01*
X0127647Y0200781D01*
X0127647Y0200251D01*
X0130725Y0197173D01*
X0131672Y0196226D01*
X0131885Y0195710D01*
X0132662Y0194934D01*
X0133387Y0193183D01*
X0133387Y0186087D01*
X0132662Y0184335D01*
X0131321Y0182995D01*
X0129570Y0182269D01*
X0127674Y0182269D01*
X0125923Y0182995D01*
X0124582Y0184335D01*
X0123857Y0186087D01*
X0123857Y0193183D01*
X0124249Y0194130D01*
X0122029Y0196350D01*
X0121517Y0197587D01*
X0121517Y0198926D01*
X0122029Y0200163D01*
X0122117Y0200251D01*
X0122117Y0200683D01*
X0121021Y0200229D01*
X0118979Y0200229D01*
X0117805Y0200715D01*
X0117805Y0200644D01*
X0120489Y0197960D01*
X0121436Y0197013D01*
X0121948Y0195776D01*
X0121948Y0195648D01*
X0122662Y0194934D01*
X0123387Y0193183D01*
X0123387Y0186087D01*
X0122662Y0184335D01*
X0121321Y0182995D01*
X0119570Y0182269D01*
X0117674Y0182269D01*
X0115923Y0182995D01*
X0114582Y0184335D01*
X0113857Y0186087D01*
X0113857Y0193183D01*
X0114411Y0194520D01*
X0112186Y0196744D01*
X0111674Y0197981D01*
X0111674Y0199320D01*
X0112186Y0200557D01*
X0112274Y0200644D01*
X0112274Y0200748D01*
X0111021Y0200229D01*
X0108979Y0200229D01*
X0107092Y0201011D01*
X0105648Y0202455D01*
X0105000Y0204019D01*
X0104352Y0202455D01*
X0102908Y0201011D01*
X0101021Y0200229D01*
X0098979Y0200229D01*
X0097092Y0201011D01*
X0095648Y0202455D01*
X0095000Y0204019D01*
X0094352Y0202455D01*
X0092908Y0201011D01*
X0091021Y0200229D01*
X0088979Y0200229D01*
X0087092Y0201011D01*
X0085648Y0202455D01*
X0084866Y0204342D01*
X0084866Y0206384D01*
X0085648Y0208271D01*
X0087092Y0209715D01*
X0088656Y0210363D01*
X0087092Y0211011D01*
X0085648Y0212455D01*
X0084866Y0214342D01*
X0084866Y0216384D01*
X0085545Y0218022D01*
X0083703Y0218022D01*
X0083899Y0217752D01*
X0084225Y0217113D01*
X0084447Y0216431D01*
X0084554Y0215757D01*
X0080394Y0215757D01*
X0080394Y0214969D01*
X0084554Y0214969D01*
X0084447Y0214295D01*
X0084225Y0213613D01*
X0083899Y0212974D01*
X0083477Y0212393D01*
X0082970Y0211886D01*
X0082389Y0211464D01*
X0081750Y0211138D01*
X0081068Y0210916D01*
X0080394Y0210809D01*
X0080394Y0214969D01*
X0079606Y0214969D01*
X0079606Y0210809D01*
X0078932Y0210916D01*
X0078250Y0211138D01*
X0077611Y0211464D01*
X0077030Y0211886D01*
X0076523Y0212393D01*
X0076101Y0212974D01*
X0075775Y0213613D01*
X0075553Y0214295D01*
X0075446Y0214969D01*
X0079606Y0214969D01*
X0079606Y0215757D01*
X0075446Y0215757D01*
X0075553Y0216431D01*
X0075775Y0217113D01*
X0076101Y0217752D01*
X0076297Y0218022D01*
X0067341Y0218022D01*
X0067341Y0177302D01*
X0070516Y0176577D01*
X0068922Y0178171D01*
X0068922Y0182118D01*
X0071714Y0184910D01*
X0075662Y0184910D01*
X0078453Y0182118D01*
X0078453Y0178171D01*
X0075662Y0175379D01*
X0073567Y0175379D01*
X0077138Y0173659D01*
X0077138Y0173659D01*
X0081955Y0169818D01*
X0081955Y0169818D01*
X0085796Y0165001D01*
X0088470Y0159450D01*
X0089841Y0153444D01*
X0089841Y0077282D01*
X0088470Y0071276D01*
X0088470Y0071276D01*
X0085796Y0065725D01*
X0085796Y0065725D01*
X0081955Y0060908D01*
X0081955Y0060908D01*
X0081955Y0060908D01*
X0077138Y0057067D01*
X0077138Y0057067D01*
X0071587Y0054393D01*
X0071587Y0054393D01*
X0067341Y0053424D01*
X0067341Y0052525D02*
X0109430Y0052525D01*
X0108251Y0051345D02*
X0067341Y0051345D01*
X0067341Y0050166D02*
X0107346Y0050166D01*
X0107028Y0048986D02*
X0067341Y0048986D01*
X0067341Y0047806D02*
X0107012Y0047806D01*
X0106992Y0046627D02*
X0067341Y0046627D01*
X0067341Y0045447D02*
X0106973Y0045447D01*
X0106953Y0044268D02*
X0067341Y0044268D01*
X0067341Y0043088D02*
X0106933Y0043088D01*
X0106913Y0041908D02*
X0067341Y0041908D01*
X0067341Y0040729D02*
X0106893Y0040729D01*
X0106873Y0039549D02*
X0067341Y0039549D01*
X0067341Y0038370D02*
X0106853Y0038370D01*
X0106833Y0037190D02*
X0067341Y0037190D01*
X0067341Y0036010D02*
X0106814Y0036010D01*
X0106794Y0034831D02*
X0067341Y0034831D01*
X0067341Y0033651D02*
X0106774Y0033651D01*
X0106754Y0032471D02*
X0067341Y0032471D01*
X0067341Y0031292D02*
X0106734Y0031292D01*
X0106714Y0030112D02*
X0101950Y0030112D01*
X0103691Y0028933D02*
X0106309Y0028933D01*
X0105433Y0027753D02*
X0104567Y0027753D01*
X0098050Y0030112D02*
X0091950Y0030112D01*
X0093691Y0028933D02*
X0096309Y0028933D01*
X0095433Y0027753D02*
X0094567Y0027753D01*
X0088050Y0030112D02*
X0067341Y0030112D01*
X0067341Y0028933D02*
X0077157Y0028933D01*
X0077030Y0028840D02*
X0076523Y0028333D01*
X0076101Y0027752D01*
X0075775Y0027113D01*
X0075553Y0026431D01*
X0075446Y0025757D01*
X0079606Y0025757D01*
X0079606Y0029916D01*
X0078932Y0029810D01*
X0078250Y0029588D01*
X0077611Y0029262D01*
X0077030Y0028840D01*
X0076101Y0027753D02*
X0067341Y0027753D01*
X0067341Y0026573D02*
X0075600Y0026573D01*
X0075446Y0024969D02*
X0075553Y0024295D01*
X0075775Y0023613D01*
X0076101Y0022974D01*
X0076523Y0022393D01*
X0077030Y0021886D01*
X0077611Y0021464D01*
X0078250Y0021138D01*
X0078932Y0020916D01*
X0079606Y0020809D01*
X0079606Y0024969D01*
X0080394Y0024969D01*
X0080394Y0025757D01*
X0084554Y0025757D01*
X0084447Y0026431D01*
X0084225Y0027113D01*
X0083899Y0027752D01*
X0083477Y0028333D01*
X0082970Y0028840D01*
X0082389Y0029262D01*
X0081750Y0029588D01*
X0081068Y0029810D01*
X0080394Y0029916D01*
X0080394Y0025757D01*
X0079606Y0025757D01*
X0079606Y0024969D01*
X0075446Y0024969D01*
X0075580Y0024214D02*
X0067341Y0024214D01*
X0067341Y0023035D02*
X0076070Y0023035D01*
X0077072Y0021855D02*
X0067341Y0021855D01*
X0067341Y0020675D02*
X0087902Y0020675D01*
X0086872Y0019496D02*
X0084054Y0019496D01*
X0084559Y0018316D02*
X0085693Y0018316D01*
X0085178Y0017136D02*
X0084559Y0017136D01*
X0084559Y0015957D02*
X0084866Y0015957D01*
X0084866Y0014777D02*
X0084559Y0014777D01*
X0084559Y0013598D02*
X0085174Y0013598D01*
X0080394Y0015957D02*
X0079606Y0015957D01*
X0079606Y0017136D02*
X0080394Y0017136D01*
X0080394Y0018316D02*
X0079606Y0018316D01*
X0079606Y0019496D02*
X0080394Y0019496D01*
X0080394Y0020809D02*
X0081068Y0020916D01*
X0081750Y0021138D01*
X0082389Y0021464D01*
X0082970Y0021886D01*
X0083477Y0022393D01*
X0083899Y0022974D01*
X0084225Y0023613D01*
X0084447Y0024295D01*
X0084554Y0024969D01*
X0080394Y0024969D01*
X0080394Y0020809D01*
X0080394Y0021855D02*
X0079606Y0021855D01*
X0079606Y0023035D02*
X0080394Y0023035D01*
X0080394Y0024214D02*
X0079606Y0024214D01*
X0079606Y0025394D02*
X0067341Y0025394D01*
X0067341Y0019496D02*
X0075946Y0019496D01*
X0075441Y0018316D02*
X0067341Y0018316D01*
X0067341Y0017136D02*
X0075441Y0017136D01*
X0075441Y0015957D02*
X0067341Y0015957D01*
X0067341Y0014777D02*
X0075441Y0014777D01*
X0075441Y0013598D02*
X0067341Y0013598D01*
X0082928Y0021855D02*
X0086248Y0021855D01*
X0085408Y0023035D02*
X0083930Y0023035D01*
X0084420Y0024214D02*
X0084919Y0024214D01*
X0084866Y0025394D02*
X0080394Y0025394D01*
X0080394Y0026573D02*
X0079606Y0026573D01*
X0079606Y0027753D02*
X0080394Y0027753D01*
X0080394Y0028933D02*
X0079606Y0028933D01*
X0082843Y0028933D02*
X0086309Y0028933D01*
X0085433Y0027753D02*
X0083899Y0027753D01*
X0084400Y0026573D02*
X0084945Y0026573D01*
X0113430Y0029193D02*
X0113736Y0047312D01*
X0124701Y0058277D01*
X0196417Y0058277D01*
X0197654Y0058790D01*
X0213955Y0075091D01*
X0214468Y0076327D01*
X0214468Y0120580D01*
X0213955Y0121817D01*
X0208562Y0127210D01*
X0208562Y0131899D01*
X0214433Y0131899D01*
X0221794Y0124538D01*
X0223031Y0124025D01*
X0309803Y0124025D01*
X0311040Y0124538D01*
X0311987Y0125484D01*
X0319364Y0132861D01*
X0321349Y0132861D01*
X0322749Y0131461D01*
X0324729Y0131461D01*
X0328209Y0127981D01*
X0328209Y0118667D01*
X0326459Y0120417D01*
X0324933Y0120417D01*
X0324933Y0116436D01*
X0324514Y0116436D01*
X0324514Y0120417D01*
X0322988Y0120417D01*
X0320533Y0117962D01*
X0320533Y0116436D01*
X0324514Y0116436D01*
X0324514Y0116017D01*
X0324933Y0116017D01*
X0324933Y0112036D01*
X0326459Y0112036D01*
X0328209Y0113786D01*
X0328209Y0066973D01*
X0322976Y0061740D01*
X0322029Y0060793D01*
X0321517Y0059556D01*
X0321517Y0052962D01*
X0320461Y0051906D01*
X0319652Y0049953D01*
X0319652Y0047838D01*
X0320461Y0045884D01*
X0321956Y0044389D01*
X0323775Y0043636D01*
X0323004Y0043636D01*
X0320227Y0040859D01*
X0320227Y0039105D01*
X0324758Y0039105D01*
X0324758Y0038686D01*
X0320227Y0038686D01*
X0320227Y0036932D01*
X0323004Y0034155D01*
X0324758Y0034155D01*
X0324758Y0038686D01*
X0325177Y0038686D01*
X0325177Y0039105D01*
X0329708Y0039105D01*
X0329708Y0040859D01*
X0326931Y0043636D01*
X0326160Y0043636D01*
X0327978Y0044389D01*
X0329473Y0045884D01*
X0330283Y0047838D01*
X0330283Y0049953D01*
X0329473Y0051906D01*
X0328247Y0053132D01*
X0328247Y0057493D01*
X0334428Y0063673D01*
X0334940Y0064910D01*
X0334940Y0130045D01*
X0334428Y0131281D01*
X0329489Y0136221D01*
X0329489Y0138201D01*
X0327854Y0139836D01*
X0327854Y0144989D01*
X0327341Y0146226D01*
X0326395Y0147173D01*
X0325609Y0147958D01*
X0325609Y0153267D01*
X0326284Y0153942D01*
X0327009Y0155693D01*
X0327009Y0162789D01*
X0326284Y0164540D01*
X0325609Y0165215D01*
X0325609Y0183267D01*
X0326284Y0183942D01*
X0327009Y0185693D01*
X0327009Y0192789D01*
X0326284Y0194540D01*
X0324943Y0195881D01*
X0323192Y0196606D01*
X0321296Y0196606D01*
X0319545Y0195881D01*
X0318204Y0194540D01*
X0317479Y0192789D01*
X0317479Y0185693D01*
X0318204Y0183942D01*
X0318879Y0183267D01*
X0318879Y0165215D01*
X0318204Y0164540D01*
X0317479Y0162789D01*
X0317479Y0155693D01*
X0318204Y0153942D01*
X0318879Y0153267D01*
X0318879Y0145894D01*
X0319391Y0144657D01*
X0321123Y0142926D01*
X0321123Y0139592D01*
X0319387Y0139592D01*
X0318858Y0139811D01*
X0317520Y0139811D01*
X0316283Y0139299D01*
X0307740Y0130756D01*
X0225095Y0130756D01*
X0218680Y0137171D01*
X0217733Y0138118D01*
X0216496Y0138630D01*
X0208728Y0138630D01*
X0208168Y0139190D01*
X0208168Y0144989D01*
X0207656Y0146226D01*
X0206709Y0147173D01*
X0202263Y0151619D01*
X0202263Y0153936D01*
X0202662Y0154335D01*
X0203387Y0156087D01*
X0203387Y0163183D01*
X0202662Y0164934D01*
X0201987Y0165609D01*
X0201987Y0183661D01*
X0202662Y0184335D01*
X0203387Y0186087D01*
X0203387Y0193183D01*
X0203006Y0194104D01*
X0222008Y0194104D01*
X0223245Y0194616D01*
X0227735Y0199106D01*
X0228247Y0200343D01*
X0228247Y0200532D01*
X0228979Y0200229D01*
X0231021Y0200229D01*
X0232908Y0201011D01*
X0234352Y0202455D01*
X0235000Y0204019D01*
X0235648Y0202455D01*
X0237092Y0201011D01*
X0238979Y0200229D01*
X0239216Y0200229D01*
X0238839Y0199320D01*
X0238839Y0195175D01*
X0238204Y0194540D01*
X0237479Y0192789D01*
X0237479Y0185693D01*
X0238204Y0183942D01*
X0239545Y0182601D01*
X0241296Y0181876D01*
X0243192Y0181876D01*
X0244943Y0182601D01*
X0246284Y0183942D01*
X0247009Y0185693D01*
X0247009Y0192789D01*
X0246284Y0194540D01*
X0245570Y0195254D01*
X0245570Y0197256D01*
X0247420Y0199106D01*
X0247814Y0199500D01*
X0248242Y0200534D01*
X0248979Y0200229D01*
X0250441Y0200229D01*
X0249588Y0199376D01*
X0249076Y0198139D01*
X0249076Y0195412D01*
X0248204Y0194540D01*
X0247479Y0192789D01*
X0247479Y0185693D01*
X0248204Y0183942D01*
X0249545Y0182601D01*
X0251296Y0181876D01*
X0253192Y0181876D01*
X0254943Y0182601D01*
X0256284Y0183942D01*
X0257009Y0185693D01*
X0257009Y0192789D01*
X0256284Y0194540D01*
X0255806Y0195018D01*
X0255806Y0196075D01*
X0258050Y0198319D01*
X0258562Y0199556D01*
X0258562Y0200402D01*
X0258979Y0200229D01*
X0259497Y0200229D01*
X0259037Y0199769D01*
X0258524Y0198532D01*
X0258524Y0194860D01*
X0258204Y0194540D01*
X0257479Y0192789D01*
X0257479Y0185693D01*
X0258204Y0183942D01*
X0259545Y0182601D01*
X0261296Y0181876D01*
X0263192Y0181876D01*
X0264943Y0182601D01*
X0266284Y0183942D01*
X0267009Y0185693D01*
X0267009Y0192789D01*
X0266284Y0194540D01*
X0265255Y0195569D01*
X0265255Y0196469D01*
X0267892Y0199106D01*
X0268405Y0200343D01*
X0268405Y0200467D01*
X0268979Y0200229D01*
X0270127Y0200229D01*
X0269273Y0199376D01*
X0268761Y0198139D01*
X0268761Y0195097D01*
X0268204Y0194540D01*
X0267479Y0192789D01*
X0267479Y0185693D01*
X0268204Y0183942D01*
X0269545Y0182601D01*
X0271296Y0181876D01*
X0273192Y0181876D01*
X0274943Y0182601D01*
X0276284Y0183942D01*
X0277009Y0185693D01*
X0277009Y0192789D01*
X0276284Y0194540D01*
X0275491Y0195333D01*
X0275491Y0196075D01*
X0277735Y0198319D01*
X0278247Y0199556D01*
X0278247Y0200532D01*
X0278979Y0200229D01*
X0280363Y0200229D01*
X0279509Y0199376D01*
X0278997Y0198139D01*
X0278997Y0195333D01*
X0278204Y0194540D01*
X0277479Y0192789D01*
X0277479Y0185693D01*
X0278204Y0183942D01*
X0279545Y0182601D01*
X0281296Y0181876D01*
X0283192Y0181876D01*
X0284943Y0182601D01*
X0286284Y0183942D01*
X0287009Y0185693D01*
X0287009Y0192789D01*
X0286284Y0194540D01*
X0285728Y0195097D01*
X0285728Y0196075D01*
X0287971Y0198319D01*
X0288483Y0199556D01*
X0288483Y0200434D01*
X0288979Y0200229D01*
X0290599Y0200229D01*
X0290298Y0199929D01*
X0289352Y0198982D01*
X0288839Y0197745D01*
X0288839Y0195175D01*
X0288204Y0194540D01*
X0287479Y0192789D01*
X0287479Y0185693D01*
X0288204Y0183942D01*
X0289545Y0182601D01*
X0291296Y0181876D01*
X0293192Y0181876D01*
X0294943Y0182601D01*
X0296284Y0183942D01*
X0297009Y0185693D01*
X0297009Y0192789D01*
X0296284Y0194540D01*
X0295570Y0195254D01*
X0295570Y0195682D01*
X0297814Y0197925D01*
X0298326Y0199162D01*
X0298326Y0200500D01*
X0298979Y0200229D01*
X0301021Y0200229D01*
X0302908Y0201011D01*
X0303895Y0201998D01*
X0307326Y0201998D01*
X0308918Y0200406D01*
X0308918Y0195254D01*
X0308204Y0194540D01*
X0307479Y0192789D01*
X0307479Y0185693D01*
X0308204Y0183942D01*
X0309545Y0182601D01*
X0311296Y0181876D01*
X0313192Y0181876D01*
X0314943Y0182601D01*
X0316284Y0183942D01*
X0317009Y0185693D01*
X0317009Y0192789D01*
X0316284Y0194540D01*
X0315649Y0195175D01*
X0315649Y0202469D01*
X0315136Y0203706D01*
X0314190Y0204653D01*
X0310627Y0208216D01*
X0309390Y0208728D01*
X0303895Y0208728D01*
X0302908Y0209715D01*
X0301344Y0210363D01*
X0302908Y0211011D01*
X0304352Y0212455D01*
X0305134Y0214342D01*
X0305134Y0216384D01*
X0304932Y0216871D01*
X0305542Y0216775D01*
X0312282Y0214585D01*
X0318596Y0211368D01*
X0324329Y0207202D01*
X0329340Y0202192D01*
X0333505Y0196459D01*
X0336722Y0190145D01*
X0338912Y0183405D01*
X0340020Y0176406D01*
X0340159Y0172863D01*
X0340159Y0057863D01*
X0340020Y0054320D01*
X0338912Y0047321D01*
X0336722Y0040581D01*
X0333505Y0034267D01*
X0329340Y0028534D01*
X0324329Y0023523D01*
X0318596Y0019358D01*
X0312282Y0016141D01*
X0305542Y0013951D01*
X0304269Y0013750D01*
X0304447Y0014295D01*
X0304554Y0014969D01*
X0300394Y0014969D01*
X0300394Y0015757D01*
X0299606Y0015757D01*
X0299606Y0019916D01*
X0298932Y0019810D01*
X0298250Y0019588D01*
X0297611Y0019262D01*
X0297030Y0018840D01*
X0296523Y0018333D01*
X0296101Y0017752D01*
X0295775Y0017113D01*
X0295553Y0016431D01*
X0295446Y0015757D01*
X0299606Y0015757D01*
X0299606Y0014969D01*
X0295446Y0014969D01*
X0295553Y0014295D01*
X0295775Y0013613D01*
X0296101Y0012974D01*
X0296261Y0012753D01*
X0295000Y0012704D01*
X0293703Y0012704D01*
X0293899Y0012974D01*
X0294225Y0013613D01*
X0294447Y0014295D01*
X0294554Y0014969D01*
X0290394Y0014969D01*
X0290394Y0015757D01*
X0289606Y0015757D01*
X0289606Y0019916D01*
X0288932Y0019810D01*
X0288250Y0019588D01*
X0287611Y0019262D01*
X0287030Y0018840D01*
X0286523Y0018333D01*
X0286101Y0017752D01*
X0285775Y0017113D01*
X0285553Y0016431D01*
X0285446Y0015757D01*
X0289606Y0015757D01*
X0289606Y0014969D01*
X0285446Y0014969D01*
X0285553Y0014295D01*
X0285775Y0013613D01*
X0286101Y0012974D01*
X0286297Y0012704D01*
X0284455Y0012704D01*
X0285134Y0014342D01*
X0285134Y0016384D01*
X0284352Y0018271D01*
X0282908Y0019715D01*
X0281344Y0020363D01*
X0282908Y0021011D01*
X0284352Y0022455D01*
X0285134Y0024342D01*
X0285134Y0026384D01*
X0284352Y0028271D01*
X0282908Y0029715D01*
X0281021Y0030497D01*
X0278979Y0030497D01*
X0277092Y0029715D01*
X0275648Y0028271D01*
X0275000Y0026707D01*
X0274352Y0028271D01*
X0272908Y0029715D01*
X0271021Y0030497D01*
X0269980Y0030497D01*
X0269980Y0032388D01*
X0271284Y0033693D01*
X0271284Y0037640D01*
X0268492Y0040432D01*
X0264545Y0040432D01*
X0261753Y0037640D01*
X0261753Y0033693D01*
X0263249Y0032197D01*
X0263249Y0031934D01*
X0262186Y0030872D01*
X0261883Y0030140D01*
X0261021Y0030497D01*
X0258979Y0030497D01*
X0257092Y0029715D01*
X0255648Y0028271D01*
X0255000Y0026707D01*
X0254352Y0028271D01*
X0252908Y0029715D01*
X0251021Y0030497D01*
X0248979Y0030497D01*
X0247092Y0029715D01*
X0245648Y0028271D01*
X0245000Y0026707D01*
X0244352Y0028271D01*
X0242908Y0029715D01*
X0241021Y0030497D01*
X0238979Y0030497D01*
X0237092Y0029715D01*
X0235648Y0028271D01*
X0235000Y0026707D01*
X0234352Y0028271D01*
X0232908Y0029715D01*
X0232242Y0029991D01*
X0232853Y0030602D01*
X0233365Y0031839D01*
X0233365Y0033982D01*
X0233931Y0034216D01*
X0235384Y0035669D01*
X0236005Y0037168D01*
X0236626Y0035669D01*
X0238079Y0034216D01*
X0239977Y0033430D01*
X0242032Y0033430D01*
X0243931Y0034216D01*
X0245384Y0035669D01*
X0246005Y0037168D01*
X0246626Y0035669D01*
X0248079Y0034216D01*
X0249977Y0033430D01*
X0252032Y0033430D01*
X0253931Y0034216D01*
X0255384Y0035669D01*
X0256170Y0037567D01*
X0256170Y0045622D01*
X0255384Y0047521D01*
X0253931Y0048974D01*
X0252032Y0049760D01*
X0249977Y0049760D01*
X0248079Y0048974D01*
X0246626Y0047521D01*
X0246005Y0046021D01*
X0245384Y0047521D01*
X0244123Y0048782D01*
X0243883Y0049366D01*
X0243879Y0049370D01*
X0243877Y0049376D01*
X0243406Y0049846D01*
X0242939Y0050316D01*
X0242934Y0050318D01*
X0240174Y0053078D01*
X0238937Y0053591D01*
X0193110Y0053591D01*
X0191873Y0053078D01*
X0190927Y0052132D01*
X0186990Y0048195D01*
X0186477Y0046958D01*
X0186477Y0029101D01*
X0185648Y0028271D01*
X0185000Y0026707D01*
X0184352Y0028271D01*
X0182908Y0029715D01*
X0181021Y0030497D01*
X0178979Y0030497D01*
X0177092Y0029715D01*
X0175648Y0028271D01*
X0175000Y0026707D01*
X0174352Y0028271D01*
X0172908Y0029715D01*
X0171021Y0030497D01*
X0168979Y0030497D01*
X0167092Y0029715D01*
X0165648Y0028271D01*
X0165000Y0026707D01*
X0164352Y0028271D01*
X0162908Y0029715D01*
X0161021Y0030497D01*
X0158979Y0030497D01*
X0157092Y0029715D01*
X0155648Y0028271D01*
X0155000Y0026707D01*
X0154352Y0028271D01*
X0152908Y0029715D01*
X0151021Y0030497D01*
X0148979Y0030497D01*
X0147092Y0029715D01*
X0145648Y0028271D01*
X0145000Y0026707D01*
X0144352Y0028271D01*
X0142908Y0029715D01*
X0141021Y0030497D01*
X0138979Y0030497D01*
X0137092Y0029715D01*
X0135648Y0028271D01*
X0135000Y0026707D01*
X0134352Y0028271D01*
X0132908Y0029715D01*
X0131021Y0030497D01*
X0128979Y0030497D01*
X0127092Y0029715D01*
X0125648Y0028271D01*
X0125000Y0026707D01*
X0124352Y0028271D01*
X0122908Y0029715D01*
X0121021Y0030497D01*
X0118979Y0030497D01*
X0117092Y0029715D01*
X0115648Y0028271D01*
X0115000Y0026707D01*
X0114352Y0028271D01*
X0113430Y0029193D01*
X0113691Y0028933D02*
X0116309Y0028933D01*
X0115433Y0027753D02*
X0114567Y0027753D01*
X0113446Y0030112D02*
X0118050Y0030112D01*
X0121950Y0030112D02*
X0128050Y0030112D01*
X0126309Y0028933D02*
X0123691Y0028933D01*
X0124567Y0027753D02*
X0125433Y0027753D01*
X0131950Y0030112D02*
X0138050Y0030112D01*
X0136309Y0028933D02*
X0133691Y0028933D01*
X0134567Y0027753D02*
X0135433Y0027753D01*
X0141950Y0030112D02*
X0148050Y0030112D01*
X0146309Y0028933D02*
X0143691Y0028933D01*
X0144567Y0027753D02*
X0145433Y0027753D01*
X0151950Y0030112D02*
X0158050Y0030112D01*
X0156309Y0028933D02*
X0153691Y0028933D01*
X0154567Y0027753D02*
X0155433Y0027753D01*
X0161950Y0030112D02*
X0168050Y0030112D01*
X0166309Y0028933D02*
X0163691Y0028933D01*
X0164567Y0027753D02*
X0165433Y0027753D01*
X0171950Y0030112D02*
X0178050Y0030112D01*
X0176309Y0028933D02*
X0173691Y0028933D01*
X0174567Y0027753D02*
X0175433Y0027753D01*
X0181950Y0030112D02*
X0186477Y0030112D01*
X0186477Y0031292D02*
X0113466Y0031292D01*
X0113486Y0032471D02*
X0186477Y0032471D01*
X0186477Y0033651D02*
X0113505Y0033651D01*
X0113525Y0034831D02*
X0186477Y0034831D01*
X0186477Y0036010D02*
X0113545Y0036010D01*
X0113565Y0037190D02*
X0186477Y0037190D01*
X0186477Y0038370D02*
X0113585Y0038370D01*
X0113605Y0039549D02*
X0186477Y0039549D01*
X0186477Y0040729D02*
X0113625Y0040729D01*
X0113645Y0041908D02*
X0186477Y0041908D01*
X0186477Y0043088D02*
X0113664Y0043088D01*
X0113684Y0044268D02*
X0186477Y0044268D01*
X0186477Y0045447D02*
X0113704Y0045447D01*
X0113724Y0046627D02*
X0186477Y0046627D01*
X0186829Y0047806D02*
X0114230Y0047806D01*
X0115410Y0048986D02*
X0187781Y0048986D01*
X0188961Y0050166D02*
X0116590Y0050166D01*
X0117769Y0051345D02*
X0190140Y0051345D01*
X0191320Y0052525D02*
X0118949Y0052525D01*
X0120128Y0053704D02*
X0321517Y0053704D01*
X0321517Y0054884D02*
X0121308Y0054884D01*
X0122488Y0056064D02*
X0321517Y0056064D01*
X0321517Y0057243D02*
X0123667Y0057243D01*
X0118867Y0061962D02*
X0082795Y0061962D01*
X0083736Y0063141D02*
X0120047Y0063141D01*
X0121226Y0064321D02*
X0084677Y0064321D01*
X0085618Y0065501D02*
X0194847Y0065501D01*
X0196026Y0066680D02*
X0086256Y0066680D01*
X0086825Y0067860D02*
X0197206Y0067860D01*
X0198386Y0069039D02*
X0087393Y0069039D01*
X0087961Y0070219D02*
X0199565Y0070219D01*
X0200745Y0071399D02*
X0088498Y0071399D01*
X0088767Y0072578D02*
X0201924Y0072578D01*
X0203104Y0073758D02*
X0089036Y0073758D01*
X0089305Y0074938D02*
X0204284Y0074938D01*
X0205463Y0076117D02*
X0181235Y0076117D01*
X0180598Y0075480D02*
X0183170Y0078052D01*
X0183170Y0079561D01*
X0179089Y0079561D01*
X0179089Y0075480D01*
X0180598Y0075480D01*
X0179089Y0076117D02*
X0178470Y0076117D01*
X0178470Y0075480D02*
X0178470Y0079561D01*
X0179089Y0079561D01*
X0179089Y0080180D01*
X0183170Y0080180D01*
X0183170Y0081689D01*
X0180598Y0084261D01*
X0179089Y0084261D01*
X0179089Y0080180D01*
X0178470Y0080180D01*
X0178470Y0079561D01*
X0174389Y0079561D01*
X0174389Y0078052D01*
X0176961Y0075480D01*
X0178470Y0075480D01*
X0178470Y0077297D02*
X0179089Y0077297D01*
X0179089Y0078476D02*
X0178470Y0078476D01*
X0178470Y0079656D02*
X0169089Y0079656D01*
X0169089Y0079561D02*
X0169089Y0080180D01*
X0173170Y0080180D01*
X0173170Y0081689D01*
X0170598Y0084261D01*
X0169089Y0084261D01*
X0169089Y0080180D01*
X0168470Y0080180D01*
X0168470Y0079561D01*
X0169089Y0079561D01*
X0169089Y0075480D01*
X0170598Y0075480D01*
X0173170Y0078052D01*
X0173170Y0079561D01*
X0169089Y0079561D01*
X0168470Y0079561D02*
X0168470Y0075480D01*
X0166961Y0075480D01*
X0164389Y0078052D01*
X0164389Y0079561D01*
X0168470Y0079561D01*
X0168470Y0079656D02*
X0159089Y0079656D01*
X0159089Y0079561D02*
X0159089Y0080180D01*
X0163170Y0080180D01*
X0163170Y0081689D01*
X0160598Y0084261D01*
X0159089Y0084261D01*
X0159089Y0080180D01*
X0158470Y0080180D01*
X0158470Y0079561D01*
X0159089Y0079561D01*
X0159089Y0075480D01*
X0160598Y0075480D01*
X0163170Y0078052D01*
X0163170Y0079561D01*
X0159089Y0079561D01*
X0158470Y0079561D02*
X0158470Y0075480D01*
X0156961Y0075480D01*
X0154389Y0078052D01*
X0154389Y0079561D01*
X0158470Y0079561D01*
X0158470Y0079656D02*
X0149089Y0079656D01*
X0149089Y0079561D02*
X0149089Y0080180D01*
X0153170Y0080180D01*
X0153170Y0081689D01*
X0150598Y0084261D01*
X0149089Y0084261D01*
X0149089Y0080180D01*
X0148470Y0080180D01*
X0148470Y0079561D01*
X0149089Y0079561D01*
X0149089Y0075480D01*
X0150598Y0075480D01*
X0153170Y0078052D01*
X0153170Y0079561D01*
X0149089Y0079561D01*
X0148470Y0079561D02*
X0148470Y0075480D01*
X0146961Y0075480D01*
X0144389Y0078052D01*
X0144389Y0079561D01*
X0148470Y0079561D01*
X0148470Y0079656D02*
X0139089Y0079656D01*
X0139089Y0079561D02*
X0139089Y0080180D01*
X0143170Y0080180D01*
X0143170Y0081689D01*
X0140598Y0084261D01*
X0139089Y0084261D01*
X0139089Y0080180D01*
X0138470Y0080180D01*
X0138470Y0079561D01*
X0139089Y0079561D01*
X0139089Y0075480D01*
X0140598Y0075480D01*
X0143170Y0078052D01*
X0143170Y0079561D01*
X0139089Y0079561D01*
X0138470Y0079561D02*
X0138470Y0075480D01*
X0136961Y0075480D01*
X0134389Y0078052D01*
X0134389Y0079561D01*
X0138470Y0079561D01*
X0138470Y0079656D02*
X0129089Y0079656D01*
X0129089Y0079561D02*
X0129089Y0080180D01*
X0133170Y0080180D01*
X0133170Y0081689D01*
X0130598Y0084261D01*
X0129089Y0084261D01*
X0129089Y0080180D01*
X0128470Y0080180D01*
X0128470Y0079561D01*
X0129089Y0079561D01*
X0129089Y0075480D01*
X0130598Y0075480D01*
X0133170Y0078052D01*
X0133170Y0079561D01*
X0129089Y0079561D01*
X0128470Y0079561D02*
X0128470Y0075480D01*
X0126961Y0075480D01*
X0124389Y0078052D01*
X0124389Y0079561D01*
X0128470Y0079561D01*
X0128470Y0079656D02*
X0119089Y0079656D01*
X0119089Y0079561D02*
X0119089Y0080180D01*
X0123170Y0080180D01*
X0123170Y0081689D01*
X0120598Y0084261D01*
X0119089Y0084261D01*
X0119089Y0080180D01*
X0118470Y0080180D01*
X0118470Y0079561D01*
X0119089Y0079561D01*
X0119089Y0075480D01*
X0120598Y0075480D01*
X0123170Y0078052D01*
X0123170Y0079561D01*
X0119089Y0079561D01*
X0118470Y0079561D02*
X0118470Y0075480D01*
X0116961Y0075480D01*
X0114389Y0078052D01*
X0114389Y0079561D01*
X0118470Y0079561D01*
X0118470Y0079656D02*
X0109089Y0079656D01*
X0109089Y0079561D02*
X0109089Y0080180D01*
X0113170Y0080180D01*
X0113170Y0081689D01*
X0110598Y0084261D01*
X0109089Y0084261D01*
X0109089Y0080180D01*
X0108470Y0080180D01*
X0108470Y0079561D01*
X0109089Y0079561D01*
X0109089Y0075480D01*
X0110598Y0075480D01*
X0113170Y0078052D01*
X0113170Y0079561D01*
X0109089Y0079561D01*
X0108470Y0079561D02*
X0108470Y0075480D01*
X0106961Y0075480D01*
X0104389Y0078052D01*
X0104389Y0079561D01*
X0108470Y0079561D01*
X0108470Y0079656D02*
X0089841Y0079656D01*
X0089841Y0080836D02*
X0104389Y0080836D01*
X0104389Y0080180D02*
X0108470Y0080180D01*
X0108470Y0084261D01*
X0106961Y0084261D01*
X0104389Y0081689D01*
X0104389Y0080180D01*
X0104389Y0078476D02*
X0089841Y0078476D01*
X0089841Y0077297D02*
X0105144Y0077297D01*
X0106324Y0076117D02*
X0089575Y0076117D01*
X0089841Y0082015D02*
X0104715Y0082015D01*
X0105894Y0083195D02*
X0089841Y0083195D01*
X0089841Y0084374D02*
X0207737Y0084374D01*
X0207737Y0083195D02*
X0181665Y0083195D01*
X0182844Y0082015D02*
X0207737Y0082015D01*
X0207737Y0080836D02*
X0183170Y0080836D01*
X0183170Y0078476D02*
X0207737Y0078476D01*
X0207737Y0079656D02*
X0179089Y0079656D01*
X0178470Y0080180D02*
X0174389Y0080180D01*
X0174389Y0081689D01*
X0176961Y0084261D01*
X0178470Y0084261D01*
X0178470Y0080180D01*
X0178470Y0080836D02*
X0179089Y0080836D01*
X0179089Y0082015D02*
X0178470Y0082015D01*
X0178470Y0083195D02*
X0179089Y0083195D01*
X0179767Y0084906D02*
X0181592Y0085661D01*
X0182989Y0087058D01*
X0183745Y0088883D01*
X0183745Y0090859D01*
X0182989Y0092684D01*
X0182184Y0093488D01*
X0182184Y0106456D01*
X0182426Y0106697D01*
X0183151Y0108449D01*
X0183151Y0115545D01*
X0182426Y0117296D01*
X0181085Y0118637D01*
X0179334Y0119362D01*
X0177438Y0119362D01*
X0175686Y0118637D01*
X0174346Y0117296D01*
X0173620Y0115545D01*
X0173620Y0108449D01*
X0174346Y0106697D01*
X0175454Y0105590D01*
X0175454Y0093567D01*
X0174570Y0092684D01*
X0173814Y0090859D01*
X0173814Y0088883D01*
X0174570Y0087058D01*
X0175967Y0085661D01*
X0177792Y0084906D01*
X0179767Y0084906D01*
X0181333Y0085554D02*
X0207737Y0085554D01*
X0207737Y0086734D02*
X0182664Y0086734D01*
X0183343Y0087913D02*
X0207737Y0087913D01*
X0207737Y0089093D02*
X0183745Y0089093D01*
X0183745Y0090273D02*
X0207737Y0090273D01*
X0207737Y0091452D02*
X0183499Y0091452D01*
X0183010Y0092632D02*
X0207737Y0092632D01*
X0207737Y0093811D02*
X0182184Y0093811D01*
X0182184Y0094991D02*
X0207737Y0094991D01*
X0207737Y0096171D02*
X0182184Y0096171D01*
X0182184Y0097350D02*
X0207737Y0097350D01*
X0207737Y0098530D02*
X0182184Y0098530D01*
X0182184Y0099709D02*
X0207737Y0099709D01*
X0207737Y0100889D02*
X0182184Y0100889D01*
X0182184Y0102069D02*
X0207737Y0102069D01*
X0207737Y0103248D02*
X0182184Y0103248D01*
X0182184Y0104428D02*
X0207737Y0104428D01*
X0207737Y0105607D02*
X0182184Y0105607D01*
X0182463Y0106787D02*
X0207737Y0106787D01*
X0207737Y0107967D02*
X0182951Y0107967D01*
X0183151Y0109146D02*
X0207737Y0109146D01*
X0207737Y0110326D02*
X0183151Y0110326D01*
X0183151Y0111506D02*
X0203187Y0111506D01*
X0202007Y0112685D02*
X0183151Y0112685D01*
X0183151Y0113865D02*
X0201006Y0113865D01*
X0201006Y0115044D02*
X0183151Y0115044D01*
X0182870Y0116224D02*
X0201006Y0116224D01*
X0201252Y0117404D02*
X0182318Y0117404D01*
X0181139Y0118583D02*
X0202432Y0118583D01*
X0204987Y0118583D02*
X0205406Y0118583D01*
X0205406Y0117404D02*
X0204987Y0117404D01*
X0204987Y0116224D02*
X0205406Y0116224D01*
X0205406Y0115044D02*
X0204987Y0115044D01*
X0204987Y0113865D02*
X0205406Y0113865D01*
X0205406Y0112685D02*
X0204987Y0112685D01*
X0204987Y0111506D02*
X0205406Y0111506D01*
X0207207Y0111506D02*
X0207737Y0111506D01*
X0214468Y0111506D02*
X0227243Y0111506D01*
X0227243Y0112685D02*
X0214468Y0112685D01*
X0214468Y0113865D02*
X0227243Y0113865D01*
X0227243Y0115044D02*
X0214468Y0115044D01*
X0214468Y0116224D02*
X0227687Y0116224D01*
X0227968Y0116902D02*
X0227243Y0115151D01*
X0227243Y0108055D01*
X0227968Y0106304D01*
X0228643Y0105629D01*
X0228643Y0093449D01*
X0227043Y0091849D01*
X0227043Y0087735D01*
X0229951Y0084827D01*
X0234065Y0084827D01*
X0236973Y0087735D01*
X0236973Y0091849D01*
X0235373Y0093449D01*
X0235373Y0105629D01*
X0236048Y0106304D01*
X0236773Y0108055D01*
X0236773Y0115151D01*
X0236048Y0116902D01*
X0234707Y0118243D01*
X0232956Y0118968D01*
X0231060Y0118968D01*
X0229309Y0118243D01*
X0227968Y0116902D01*
X0228469Y0117404D02*
X0214468Y0117404D01*
X0214468Y0118583D02*
X0230130Y0118583D01*
X0233886Y0118583D02*
X0240130Y0118583D01*
X0239309Y0118243D02*
X0241060Y0118968D01*
X0242956Y0118968D01*
X0244707Y0118243D01*
X0246048Y0116902D01*
X0246773Y0115151D01*
X0246773Y0108055D01*
X0246048Y0106304D01*
X0245373Y0105629D01*
X0245373Y0093449D01*
X0246973Y0091849D01*
X0246973Y0087735D01*
X0244065Y0084827D01*
X0239951Y0084827D01*
X0237043Y0087735D01*
X0237043Y0091849D01*
X0238643Y0093449D01*
X0238643Y0105629D01*
X0237968Y0106304D01*
X0237243Y0108055D01*
X0237243Y0115151D01*
X0237968Y0116902D01*
X0239309Y0118243D01*
X0238469Y0117404D02*
X0235547Y0117404D01*
X0236329Y0116224D02*
X0237687Y0116224D01*
X0237243Y0115044D02*
X0236773Y0115044D01*
X0236773Y0113865D02*
X0237243Y0113865D01*
X0237243Y0112685D02*
X0236773Y0112685D01*
X0236773Y0111506D02*
X0237243Y0111506D01*
X0237243Y0110326D02*
X0236773Y0110326D01*
X0236773Y0109146D02*
X0237243Y0109146D01*
X0237279Y0107967D02*
X0236737Y0107967D01*
X0236248Y0106787D02*
X0237768Y0106787D01*
X0238643Y0105607D02*
X0235373Y0105607D01*
X0235373Y0104428D02*
X0238643Y0104428D01*
X0238643Y0103248D02*
X0235373Y0103248D01*
X0235373Y0102069D02*
X0238643Y0102069D01*
X0238643Y0100889D02*
X0235373Y0100889D01*
X0235373Y0099709D02*
X0238643Y0099709D01*
X0238643Y0098530D02*
X0235373Y0098530D01*
X0235373Y0097350D02*
X0238643Y0097350D01*
X0238643Y0096171D02*
X0235373Y0096171D01*
X0235373Y0094991D02*
X0238643Y0094991D01*
X0238643Y0093811D02*
X0235373Y0093811D01*
X0236190Y0092632D02*
X0237825Y0092632D01*
X0237043Y0091452D02*
X0236973Y0091452D01*
X0236973Y0090273D02*
X0237043Y0090273D01*
X0237043Y0089093D02*
X0236973Y0089093D01*
X0236973Y0087913D02*
X0237043Y0087913D01*
X0238044Y0086734D02*
X0235971Y0086734D01*
X0234792Y0085554D02*
X0239224Y0085554D01*
X0240189Y0084183D02*
X0237617Y0081611D01*
X0237617Y0080102D01*
X0241698Y0080102D01*
X0241698Y0084183D01*
X0240189Y0084183D01*
X0239201Y0083195D02*
X0234814Y0083195D01*
X0233826Y0084183D02*
X0236398Y0081611D01*
X0236398Y0080102D01*
X0232317Y0080102D01*
X0231698Y0080102D01*
X0231698Y0084183D01*
X0230189Y0084183D01*
X0227617Y0081611D01*
X0227617Y0080102D01*
X0231698Y0080102D01*
X0231698Y0079483D01*
X0227617Y0079483D01*
X0227617Y0077973D01*
X0230189Y0075402D01*
X0231698Y0075402D01*
X0231698Y0079483D01*
X0232317Y0079483D01*
X0232317Y0080102D01*
X0232317Y0084183D01*
X0233826Y0084183D01*
X0232317Y0083195D02*
X0231698Y0083195D01*
X0231698Y0082015D02*
X0232317Y0082015D01*
X0232317Y0080836D02*
X0231698Y0080836D01*
X0231698Y0079656D02*
X0214468Y0079656D01*
X0214468Y0080836D02*
X0227617Y0080836D01*
X0228022Y0082015D02*
X0214468Y0082015D01*
X0214468Y0083195D02*
X0229201Y0083195D01*
X0229224Y0085554D02*
X0214468Y0085554D01*
X0214468Y0084374D02*
X0328209Y0084374D01*
X0328209Y0083195D02*
X0304814Y0083195D01*
X0303826Y0084183D02*
X0302317Y0084183D01*
X0302317Y0080102D01*
X0301698Y0080102D01*
X0301698Y0084183D01*
X0300189Y0084183D01*
X0297617Y0081611D01*
X0297617Y0080102D01*
X0301698Y0080102D01*
X0301698Y0079483D01*
X0297617Y0079483D01*
X0297617Y0077973D01*
X0300189Y0075402D01*
X0301698Y0075402D01*
X0301698Y0079483D01*
X0302317Y0079483D01*
X0302317Y0080102D01*
X0306398Y0080102D01*
X0306398Y0081611D01*
X0303826Y0084183D01*
X0302996Y0084827D02*
X0304821Y0085583D01*
X0306217Y0086979D01*
X0306973Y0088804D01*
X0306973Y0090780D01*
X0306217Y0092605D01*
X0305373Y0093449D01*
X0305373Y0105629D01*
X0306048Y0106304D01*
X0306773Y0108055D01*
X0306773Y0115151D01*
X0306048Y0116902D01*
X0304707Y0118243D01*
X0302956Y0118968D01*
X0301060Y0118968D01*
X0299309Y0118243D01*
X0297968Y0116902D01*
X0297243Y0115151D01*
X0297243Y0108055D01*
X0297968Y0106304D01*
X0298643Y0105629D01*
X0298643Y0093449D01*
X0297798Y0092605D01*
X0297043Y0090780D01*
X0297043Y0088804D01*
X0297798Y0086979D01*
X0299195Y0085583D01*
X0301020Y0084827D01*
X0302996Y0084827D01*
X0302317Y0083195D02*
X0301698Y0083195D01*
X0301698Y0082015D02*
X0302317Y0082015D01*
X0302317Y0080836D02*
X0301698Y0080836D01*
X0301698Y0079656D02*
X0292317Y0079656D01*
X0292317Y0079483D02*
X0292317Y0080102D01*
X0291698Y0080102D01*
X0291698Y0084183D01*
X0290189Y0084183D01*
X0287617Y0081611D01*
X0287617Y0080102D01*
X0291698Y0080102D01*
X0291698Y0079483D01*
X0287617Y0079483D01*
X0287617Y0077973D01*
X0290189Y0075402D01*
X0291698Y0075402D01*
X0291698Y0079483D01*
X0292317Y0079483D01*
X0296398Y0079483D01*
X0296398Y0077973D01*
X0293826Y0075402D01*
X0292317Y0075402D01*
X0292317Y0079483D01*
X0292317Y0080102D02*
X0296398Y0080102D01*
X0296398Y0081611D01*
X0293826Y0084183D01*
X0292317Y0084183D01*
X0292317Y0080102D01*
X0292317Y0080836D02*
X0291698Y0080836D01*
X0291698Y0082015D02*
X0292317Y0082015D01*
X0292317Y0083195D02*
X0291698Y0083195D01*
X0289951Y0084827D02*
X0294065Y0084827D01*
X0296973Y0087735D01*
X0296973Y0091849D01*
X0295373Y0093449D01*
X0295373Y0105629D01*
X0296048Y0106304D01*
X0296773Y0108055D01*
X0296773Y0115151D01*
X0296048Y0116902D01*
X0294707Y0118243D01*
X0292956Y0118968D01*
X0291060Y0118968D01*
X0289309Y0118243D01*
X0287968Y0116902D01*
X0287243Y0115151D01*
X0287243Y0108055D01*
X0287968Y0106304D01*
X0288643Y0105629D01*
X0288643Y0093449D01*
X0287043Y0091849D01*
X0287043Y0087735D01*
X0289951Y0084827D01*
X0289224Y0085554D02*
X0284792Y0085554D01*
X0284065Y0084827D02*
X0286973Y0087735D01*
X0286973Y0091849D01*
X0285373Y0093449D01*
X0285373Y0105629D01*
X0286048Y0106304D01*
X0286773Y0108055D01*
X0286773Y0115151D01*
X0286048Y0116902D01*
X0284707Y0118243D01*
X0282956Y0118968D01*
X0281060Y0118968D01*
X0279309Y0118243D01*
X0277968Y0116902D01*
X0277243Y0115151D01*
X0277243Y0108055D01*
X0277968Y0106304D01*
X0278643Y0105629D01*
X0278643Y0093449D01*
X0277043Y0091849D01*
X0277043Y0087735D01*
X0279951Y0084827D01*
X0284065Y0084827D01*
X0283826Y0084183D02*
X0282317Y0084183D01*
X0282317Y0080102D01*
X0281698Y0080102D01*
X0281698Y0084183D01*
X0280189Y0084183D01*
X0277617Y0081611D01*
X0277617Y0080102D01*
X0281698Y0080102D01*
X0281698Y0079483D01*
X0277617Y0079483D01*
X0277617Y0077973D01*
X0280189Y0075402D01*
X0281698Y0075402D01*
X0281698Y0079483D01*
X0282317Y0079483D01*
X0282317Y0080102D01*
X0286398Y0080102D01*
X0286398Y0081611D01*
X0283826Y0084183D01*
X0284814Y0083195D02*
X0289201Y0083195D01*
X0288022Y0082015D02*
X0285994Y0082015D01*
X0286398Y0080836D02*
X0287617Y0080836D01*
X0286398Y0079483D02*
X0282317Y0079483D01*
X0282317Y0075402D01*
X0283826Y0075402D01*
X0286398Y0077973D01*
X0286398Y0079483D01*
X0286398Y0078476D02*
X0287617Y0078476D01*
X0288294Y0077297D02*
X0285722Y0077297D01*
X0284542Y0076117D02*
X0289474Y0076117D01*
X0291698Y0076117D02*
X0292317Y0076117D01*
X0292317Y0077297D02*
X0291698Y0077297D01*
X0291698Y0078476D02*
X0292317Y0078476D01*
X0291698Y0079656D02*
X0282317Y0079656D01*
X0281698Y0079656D02*
X0272317Y0079656D01*
X0272317Y0079483D02*
X0272317Y0080102D01*
X0271698Y0080102D01*
X0271698Y0084183D01*
X0270189Y0084183D01*
X0267617Y0081611D01*
X0267617Y0080102D01*
X0271698Y0080102D01*
X0271698Y0079483D01*
X0267617Y0079483D01*
X0267617Y0077973D01*
X0270189Y0075402D01*
X0271698Y0075402D01*
X0271698Y0079483D01*
X0272317Y0079483D01*
X0276398Y0079483D01*
X0276398Y0077973D01*
X0273826Y0075402D01*
X0272317Y0075402D01*
X0272317Y0079483D01*
X0272317Y0080102D02*
X0276398Y0080102D01*
X0276398Y0081611D01*
X0273826Y0084183D01*
X0272317Y0084183D01*
X0272317Y0080102D01*
X0272317Y0080836D02*
X0271698Y0080836D01*
X0271698Y0082015D02*
X0272317Y0082015D01*
X0272317Y0083195D02*
X0271698Y0083195D01*
X0269951Y0084827D02*
X0274065Y0084827D01*
X0276973Y0087735D01*
X0276973Y0091849D01*
X0275373Y0093449D01*
X0275373Y0105629D01*
X0276048Y0106304D01*
X0276773Y0108055D01*
X0276773Y0115151D01*
X0276048Y0116902D01*
X0274707Y0118243D01*
X0272956Y0118968D01*
X0271060Y0118968D01*
X0269309Y0118243D01*
X0267968Y0116902D01*
X0267243Y0115151D01*
X0267243Y0108055D01*
X0267968Y0106304D01*
X0268643Y0105629D01*
X0268643Y0093449D01*
X0267043Y0091849D01*
X0267043Y0087735D01*
X0269951Y0084827D01*
X0269224Y0085554D02*
X0264792Y0085554D01*
X0264065Y0084827D02*
X0266973Y0087735D01*
X0266973Y0091849D01*
X0265373Y0093449D01*
X0265373Y0105629D01*
X0266048Y0106304D01*
X0266773Y0108055D01*
X0266773Y0115151D01*
X0266048Y0116902D01*
X0264707Y0118243D01*
X0262956Y0118968D01*
X0261060Y0118968D01*
X0259309Y0118243D01*
X0257968Y0116902D01*
X0257243Y0115151D01*
X0257243Y0108055D01*
X0257968Y0106304D01*
X0258643Y0105629D01*
X0258643Y0093449D01*
X0257043Y0091849D01*
X0257043Y0087735D01*
X0259951Y0084827D01*
X0264065Y0084827D01*
X0263826Y0084183D02*
X0262317Y0084183D01*
X0262317Y0080102D01*
X0261698Y0080102D01*
X0261698Y0084183D01*
X0260189Y0084183D01*
X0257617Y0081611D01*
X0257617Y0080102D01*
X0261698Y0080102D01*
X0261698Y0079483D01*
X0257617Y0079483D01*
X0257617Y0077973D01*
X0260189Y0075402D01*
X0261698Y0075402D01*
X0261698Y0079483D01*
X0262317Y0079483D01*
X0262317Y0080102D01*
X0266398Y0080102D01*
X0266398Y0081611D01*
X0263826Y0084183D01*
X0264814Y0083195D02*
X0269201Y0083195D01*
X0268022Y0082015D02*
X0265994Y0082015D01*
X0266398Y0080836D02*
X0267617Y0080836D01*
X0266398Y0079483D02*
X0262317Y0079483D01*
X0262317Y0075402D01*
X0263826Y0075402D01*
X0266398Y0077973D01*
X0266398Y0079483D01*
X0266398Y0078476D02*
X0267617Y0078476D01*
X0268294Y0077297D02*
X0265722Y0077297D01*
X0264542Y0076117D02*
X0269474Y0076117D01*
X0271698Y0076117D02*
X0272317Y0076117D01*
X0272317Y0077297D02*
X0271698Y0077297D01*
X0271698Y0078476D02*
X0272317Y0078476D01*
X0271698Y0079656D02*
X0262317Y0079656D01*
X0261698Y0079656D02*
X0252317Y0079656D01*
X0252317Y0079483D02*
X0252317Y0080102D01*
X0251698Y0080102D01*
X0251698Y0084183D01*
X0250189Y0084183D01*
X0247617Y0081611D01*
X0247617Y0080102D01*
X0251698Y0080102D01*
X0251698Y0079483D01*
X0247617Y0079483D01*
X0247617Y0077973D01*
X0250189Y0075402D01*
X0251698Y0075402D01*
X0251698Y0079483D01*
X0252317Y0079483D01*
X0256398Y0079483D01*
X0256398Y0077973D01*
X0253826Y0075402D01*
X0252317Y0075402D01*
X0252317Y0079483D01*
X0252317Y0080102D02*
X0256398Y0080102D01*
X0256398Y0081611D01*
X0253826Y0084183D01*
X0252317Y0084183D01*
X0252317Y0080102D01*
X0252317Y0080836D02*
X0251698Y0080836D01*
X0251698Y0082015D02*
X0252317Y0082015D01*
X0252317Y0083195D02*
X0251698Y0083195D01*
X0249951Y0084827D02*
X0254065Y0084827D01*
X0256973Y0087735D01*
X0256973Y0091849D01*
X0255373Y0093449D01*
X0255373Y0105629D01*
X0256048Y0106304D01*
X0256773Y0108055D01*
X0256773Y0115151D01*
X0256048Y0116902D01*
X0254707Y0118243D01*
X0252956Y0118968D01*
X0251060Y0118968D01*
X0249309Y0118243D01*
X0247968Y0116902D01*
X0247243Y0115151D01*
X0247243Y0108055D01*
X0247968Y0106304D01*
X0248643Y0105629D01*
X0248643Y0093449D01*
X0247043Y0091849D01*
X0247043Y0087735D01*
X0249951Y0084827D01*
X0249224Y0085554D02*
X0244792Y0085554D01*
X0245971Y0086734D02*
X0248044Y0086734D01*
X0247043Y0087913D02*
X0246973Y0087913D01*
X0246973Y0089093D02*
X0247043Y0089093D01*
X0247043Y0090273D02*
X0246973Y0090273D01*
X0246973Y0091452D02*
X0247043Y0091452D01*
X0247825Y0092632D02*
X0246190Y0092632D01*
X0245373Y0093811D02*
X0248643Y0093811D01*
X0248643Y0094991D02*
X0245373Y0094991D01*
X0245373Y0096171D02*
X0248643Y0096171D01*
X0248643Y0097350D02*
X0245373Y0097350D01*
X0245373Y0098530D02*
X0248643Y0098530D01*
X0248643Y0099709D02*
X0245373Y0099709D01*
X0245373Y0100889D02*
X0248643Y0100889D01*
X0248643Y0102069D02*
X0245373Y0102069D01*
X0245373Y0103248D02*
X0248643Y0103248D01*
X0248643Y0104428D02*
X0245373Y0104428D01*
X0245373Y0105607D02*
X0248643Y0105607D01*
X0247768Y0106787D02*
X0246248Y0106787D01*
X0246737Y0107967D02*
X0247279Y0107967D01*
X0247243Y0109146D02*
X0246773Y0109146D01*
X0246773Y0110326D02*
X0247243Y0110326D01*
X0247243Y0111506D02*
X0246773Y0111506D01*
X0246773Y0112685D02*
X0247243Y0112685D01*
X0247243Y0113865D02*
X0246773Y0113865D01*
X0246773Y0115044D02*
X0247243Y0115044D01*
X0247687Y0116224D02*
X0246329Y0116224D01*
X0245547Y0117404D02*
X0248469Y0117404D01*
X0250130Y0118583D02*
X0243886Y0118583D01*
X0253886Y0118583D02*
X0260130Y0118583D01*
X0258469Y0117404D02*
X0255547Y0117404D01*
X0256329Y0116224D02*
X0257687Y0116224D01*
X0257243Y0115044D02*
X0256773Y0115044D01*
X0256773Y0113865D02*
X0257243Y0113865D01*
X0257243Y0112685D02*
X0256773Y0112685D01*
X0256773Y0111506D02*
X0257243Y0111506D01*
X0257243Y0110326D02*
X0256773Y0110326D01*
X0256773Y0109146D02*
X0257243Y0109146D01*
X0257279Y0107967D02*
X0256737Y0107967D01*
X0256248Y0106787D02*
X0257768Y0106787D01*
X0258643Y0105607D02*
X0255373Y0105607D01*
X0255373Y0104428D02*
X0258643Y0104428D01*
X0258643Y0103248D02*
X0255373Y0103248D01*
X0255373Y0102069D02*
X0258643Y0102069D01*
X0258643Y0100889D02*
X0255373Y0100889D01*
X0255373Y0099709D02*
X0258643Y0099709D01*
X0258643Y0098530D02*
X0255373Y0098530D01*
X0255373Y0097350D02*
X0258643Y0097350D01*
X0258643Y0096171D02*
X0255373Y0096171D01*
X0255373Y0094991D02*
X0258643Y0094991D01*
X0258643Y0093811D02*
X0255373Y0093811D01*
X0256190Y0092632D02*
X0257825Y0092632D01*
X0257043Y0091452D02*
X0256973Y0091452D01*
X0256973Y0090273D02*
X0257043Y0090273D01*
X0257043Y0089093D02*
X0256973Y0089093D01*
X0256973Y0087913D02*
X0257043Y0087913D01*
X0258044Y0086734D02*
X0255971Y0086734D01*
X0254792Y0085554D02*
X0259224Y0085554D01*
X0259201Y0083195D02*
X0254814Y0083195D01*
X0255994Y0082015D02*
X0258022Y0082015D01*
X0257617Y0080836D02*
X0256398Y0080836D01*
X0256398Y0078476D02*
X0257617Y0078476D01*
X0258294Y0077297D02*
X0255722Y0077297D01*
X0254542Y0076117D02*
X0259474Y0076117D01*
X0261698Y0076117D02*
X0262317Y0076117D01*
X0262317Y0077297D02*
X0261698Y0077297D01*
X0261698Y0078476D02*
X0262317Y0078476D01*
X0262317Y0080836D02*
X0261698Y0080836D01*
X0261698Y0082015D02*
X0262317Y0082015D01*
X0262317Y0083195D02*
X0261698Y0083195D01*
X0265971Y0086734D02*
X0268044Y0086734D01*
X0267043Y0087913D02*
X0266973Y0087913D01*
X0266973Y0089093D02*
X0267043Y0089093D01*
X0267043Y0090273D02*
X0266973Y0090273D01*
X0266973Y0091452D02*
X0267043Y0091452D01*
X0267825Y0092632D02*
X0266190Y0092632D01*
X0265373Y0093811D02*
X0268643Y0093811D01*
X0268643Y0094991D02*
X0265373Y0094991D01*
X0265373Y0096171D02*
X0268643Y0096171D01*
X0268643Y0097350D02*
X0265373Y0097350D01*
X0265373Y0098530D02*
X0268643Y0098530D01*
X0268643Y0099709D02*
X0265373Y0099709D01*
X0265373Y0100889D02*
X0268643Y0100889D01*
X0268643Y0102069D02*
X0265373Y0102069D01*
X0265373Y0103248D02*
X0268643Y0103248D01*
X0268643Y0104428D02*
X0265373Y0104428D01*
X0265373Y0105607D02*
X0268643Y0105607D01*
X0267768Y0106787D02*
X0266248Y0106787D01*
X0266737Y0107967D02*
X0267279Y0107967D01*
X0267243Y0109146D02*
X0266773Y0109146D01*
X0266773Y0110326D02*
X0267243Y0110326D01*
X0267243Y0111506D02*
X0266773Y0111506D01*
X0266773Y0112685D02*
X0267243Y0112685D01*
X0267243Y0113865D02*
X0266773Y0113865D01*
X0266773Y0115044D02*
X0267243Y0115044D01*
X0267687Y0116224D02*
X0266329Y0116224D01*
X0265547Y0117404D02*
X0268469Y0117404D01*
X0270130Y0118583D02*
X0263886Y0118583D01*
X0273886Y0118583D02*
X0280130Y0118583D01*
X0278469Y0117404D02*
X0275547Y0117404D01*
X0276329Y0116224D02*
X0277687Y0116224D01*
X0277243Y0115044D02*
X0276773Y0115044D01*
X0276773Y0113865D02*
X0277243Y0113865D01*
X0277243Y0112685D02*
X0276773Y0112685D01*
X0276773Y0111506D02*
X0277243Y0111506D01*
X0277243Y0110326D02*
X0276773Y0110326D01*
X0276773Y0109146D02*
X0277243Y0109146D01*
X0277279Y0107967D02*
X0276737Y0107967D01*
X0276248Y0106787D02*
X0277768Y0106787D01*
X0278643Y0105607D02*
X0275373Y0105607D01*
X0275373Y0104428D02*
X0278643Y0104428D01*
X0278643Y0103248D02*
X0275373Y0103248D01*
X0275373Y0102069D02*
X0278643Y0102069D01*
X0278643Y0100889D02*
X0275373Y0100889D01*
X0275373Y0099709D02*
X0278643Y0099709D01*
X0278643Y0098530D02*
X0275373Y0098530D01*
X0275373Y0097350D02*
X0278643Y0097350D01*
X0278643Y0096171D02*
X0275373Y0096171D01*
X0275373Y0094991D02*
X0278643Y0094991D01*
X0278643Y0093811D02*
X0275373Y0093811D01*
X0276190Y0092632D02*
X0277825Y0092632D01*
X0277043Y0091452D02*
X0276973Y0091452D01*
X0276973Y0090273D02*
X0277043Y0090273D01*
X0277043Y0089093D02*
X0276973Y0089093D01*
X0276973Y0087913D02*
X0277043Y0087913D01*
X0278044Y0086734D02*
X0275971Y0086734D01*
X0274792Y0085554D02*
X0279224Y0085554D01*
X0279201Y0083195D02*
X0274814Y0083195D01*
X0275994Y0082015D02*
X0278022Y0082015D01*
X0277617Y0080836D02*
X0276398Y0080836D01*
X0276398Y0078476D02*
X0277617Y0078476D01*
X0278294Y0077297D02*
X0275722Y0077297D01*
X0274542Y0076117D02*
X0279474Y0076117D01*
X0281698Y0076117D02*
X0282317Y0076117D01*
X0282317Y0077297D02*
X0281698Y0077297D01*
X0281698Y0078476D02*
X0282317Y0078476D01*
X0282317Y0080836D02*
X0281698Y0080836D01*
X0281698Y0082015D02*
X0282317Y0082015D01*
X0282317Y0083195D02*
X0281698Y0083195D01*
X0285971Y0086734D02*
X0288044Y0086734D01*
X0287043Y0087913D02*
X0286973Y0087913D01*
X0286973Y0089093D02*
X0287043Y0089093D01*
X0287043Y0090273D02*
X0286973Y0090273D01*
X0286973Y0091452D02*
X0287043Y0091452D01*
X0287825Y0092632D02*
X0286190Y0092632D01*
X0285373Y0093811D02*
X0288643Y0093811D01*
X0288643Y0094991D02*
X0285373Y0094991D01*
X0285373Y0096171D02*
X0288643Y0096171D01*
X0288643Y0097350D02*
X0285373Y0097350D01*
X0285373Y0098530D02*
X0288643Y0098530D01*
X0288643Y0099709D02*
X0285373Y0099709D01*
X0285373Y0100889D02*
X0288643Y0100889D01*
X0288643Y0102069D02*
X0285373Y0102069D01*
X0285373Y0103248D02*
X0288643Y0103248D01*
X0288643Y0104428D02*
X0285373Y0104428D01*
X0285373Y0105607D02*
X0288643Y0105607D01*
X0287768Y0106787D02*
X0286248Y0106787D01*
X0286737Y0107967D02*
X0287279Y0107967D01*
X0287243Y0109146D02*
X0286773Y0109146D01*
X0286773Y0110326D02*
X0287243Y0110326D01*
X0287243Y0111506D02*
X0286773Y0111506D01*
X0286773Y0112685D02*
X0287243Y0112685D01*
X0287243Y0113865D02*
X0286773Y0113865D01*
X0286773Y0115044D02*
X0287243Y0115044D01*
X0287687Y0116224D02*
X0286329Y0116224D01*
X0285547Y0117404D02*
X0288469Y0117404D01*
X0290130Y0118583D02*
X0283886Y0118583D01*
X0293886Y0118583D02*
X0300130Y0118583D01*
X0298469Y0117404D02*
X0295547Y0117404D01*
X0296329Y0116224D02*
X0297687Y0116224D01*
X0297243Y0115044D02*
X0296773Y0115044D01*
X0296773Y0113865D02*
X0297243Y0113865D01*
X0297243Y0112685D02*
X0296773Y0112685D01*
X0296773Y0111506D02*
X0297243Y0111506D01*
X0297243Y0110326D02*
X0296773Y0110326D01*
X0296773Y0109146D02*
X0297243Y0109146D01*
X0297279Y0107967D02*
X0296737Y0107967D01*
X0296248Y0106787D02*
X0297768Y0106787D01*
X0298643Y0105607D02*
X0295373Y0105607D01*
X0295373Y0104428D02*
X0298643Y0104428D01*
X0298643Y0103248D02*
X0295373Y0103248D01*
X0295373Y0102069D02*
X0298643Y0102069D01*
X0298643Y0100889D02*
X0295373Y0100889D01*
X0295373Y0099709D02*
X0298643Y0099709D01*
X0298643Y0098530D02*
X0295373Y0098530D01*
X0295373Y0097350D02*
X0298643Y0097350D01*
X0298643Y0096171D02*
X0295373Y0096171D01*
X0295373Y0094991D02*
X0298643Y0094991D01*
X0298643Y0093811D02*
X0295373Y0093811D01*
X0296190Y0092632D02*
X0297825Y0092632D01*
X0297321Y0091452D02*
X0296973Y0091452D01*
X0296973Y0090273D02*
X0297043Y0090273D01*
X0297043Y0089093D02*
X0296973Y0089093D01*
X0296973Y0087913D02*
X0297412Y0087913D01*
X0298044Y0086734D02*
X0295971Y0086734D01*
X0294792Y0085554D02*
X0299264Y0085554D01*
X0299201Y0083195D02*
X0294814Y0083195D01*
X0295994Y0082015D02*
X0298022Y0082015D01*
X0297617Y0080836D02*
X0296398Y0080836D01*
X0296398Y0078476D02*
X0297617Y0078476D01*
X0298294Y0077297D02*
X0295722Y0077297D01*
X0294542Y0076117D02*
X0299474Y0076117D01*
X0301698Y0076117D02*
X0302317Y0076117D01*
X0302317Y0075402D02*
X0303826Y0075402D01*
X0306398Y0077973D01*
X0306398Y0079483D01*
X0302317Y0079483D01*
X0302317Y0075402D01*
X0302317Y0077297D02*
X0301698Y0077297D01*
X0301698Y0078476D02*
X0302317Y0078476D01*
X0302317Y0079656D02*
X0328209Y0079656D01*
X0328209Y0080836D02*
X0306398Y0080836D01*
X0305994Y0082015D02*
X0328209Y0082015D01*
X0328209Y0078476D02*
X0306398Y0078476D01*
X0305722Y0077297D02*
X0328209Y0077297D01*
X0328209Y0076117D02*
X0304542Y0076117D01*
X0304751Y0085554D02*
X0328209Y0085554D01*
X0328209Y0086734D02*
X0305971Y0086734D01*
X0306604Y0087913D02*
X0328209Y0087913D01*
X0328209Y0089093D02*
X0306973Y0089093D01*
X0306973Y0090273D02*
X0328209Y0090273D01*
X0328209Y0091452D02*
X0306695Y0091452D01*
X0306190Y0092632D02*
X0328209Y0092632D01*
X0328209Y0093811D02*
X0305373Y0093811D01*
X0305373Y0094991D02*
X0328209Y0094991D01*
X0328209Y0096171D02*
X0305373Y0096171D01*
X0305373Y0097350D02*
X0328209Y0097350D01*
X0328209Y0098530D02*
X0305373Y0098530D01*
X0305373Y0099709D02*
X0328209Y0099709D01*
X0328209Y0100889D02*
X0305373Y0100889D01*
X0305373Y0102069D02*
X0328209Y0102069D01*
X0328209Y0103248D02*
X0305373Y0103248D01*
X0305373Y0104428D02*
X0328209Y0104428D01*
X0328209Y0105607D02*
X0305373Y0105607D01*
X0306248Y0106787D02*
X0328209Y0106787D01*
X0328209Y0107967D02*
X0306737Y0107967D01*
X0306773Y0109146D02*
X0328209Y0109146D01*
X0328209Y0110326D02*
X0306773Y0110326D01*
X0306773Y0111506D02*
X0328209Y0111506D01*
X0328209Y0112685D02*
X0327108Y0112685D01*
X0324933Y0112685D02*
X0324514Y0112685D01*
X0324514Y0112036D02*
X0324514Y0116017D01*
X0320533Y0116017D01*
X0320533Y0114491D01*
X0322988Y0112036D01*
X0324514Y0112036D01*
X0324514Y0113865D02*
X0324933Y0113865D01*
X0324933Y0115044D02*
X0324514Y0115044D01*
X0324514Y0116224D02*
X0306329Y0116224D01*
X0306773Y0115044D02*
X0320533Y0115044D01*
X0321159Y0113865D02*
X0306773Y0113865D01*
X0306773Y0112685D02*
X0322338Y0112685D01*
X0320533Y0117404D02*
X0305547Y0117404D01*
X0303886Y0118583D02*
X0321154Y0118583D01*
X0322333Y0119763D02*
X0214468Y0119763D01*
X0214317Y0120942D02*
X0328209Y0120942D01*
X0328209Y0119763D02*
X0327113Y0119763D01*
X0324933Y0119763D02*
X0324514Y0119763D01*
X0324514Y0118583D02*
X0324933Y0118583D01*
X0324933Y0117404D02*
X0324514Y0117404D01*
X0328209Y0122122D02*
X0213650Y0122122D01*
X0212470Y0123302D02*
X0328209Y0123302D01*
X0328209Y0124481D02*
X0310904Y0124481D01*
X0312164Y0125661D02*
X0328209Y0125661D01*
X0328209Y0126841D02*
X0313343Y0126841D01*
X0314523Y0128020D02*
X0328170Y0128020D01*
X0326991Y0129200D02*
X0315702Y0129200D01*
X0316882Y0130379D02*
X0325811Y0130379D01*
X0322652Y0131559D02*
X0318062Y0131559D01*
X0319241Y0132739D02*
X0321472Y0132739D01*
X0315621Y0138637D02*
X0306773Y0138637D01*
X0306773Y0138055D02*
X0306773Y0145151D01*
X0306048Y0146902D01*
X0305373Y0147577D01*
X0305373Y0153031D01*
X0306284Y0153942D01*
X0307009Y0155693D01*
X0307009Y0162789D01*
X0306284Y0164540D01*
X0304943Y0165881D01*
X0303192Y0166606D01*
X0301296Y0166606D01*
X0299545Y0165881D01*
X0298204Y0164540D01*
X0297479Y0162789D01*
X0297479Y0155693D01*
X0298204Y0153942D01*
X0298643Y0153503D01*
X0298643Y0147577D01*
X0297968Y0146902D01*
X0297243Y0145151D01*
X0297243Y0138055D01*
X0297968Y0136304D01*
X0299309Y0134963D01*
X0301060Y0134238D01*
X0302956Y0134238D01*
X0304707Y0134963D01*
X0306048Y0136304D01*
X0306773Y0138055D01*
X0306525Y0137457D02*
X0314441Y0137457D01*
X0313261Y0136277D02*
X0306021Y0136277D01*
X0304842Y0135098D02*
X0312082Y0135098D01*
X0310902Y0133918D02*
X0221932Y0133918D01*
X0220753Y0135098D02*
X0229174Y0135098D01*
X0229309Y0134963D02*
X0231060Y0134238D01*
X0232956Y0134238D01*
X0234707Y0134963D01*
X0236048Y0136304D01*
X0236773Y0138055D01*
X0236773Y0145151D01*
X0236048Y0146902D01*
X0235609Y0147341D01*
X0235609Y0153267D01*
X0236284Y0153942D01*
X0237009Y0155693D01*
X0237009Y0162789D01*
X0236284Y0164540D01*
X0234943Y0165881D01*
X0233192Y0166606D01*
X0231296Y0166606D01*
X0229545Y0165881D01*
X0228204Y0164540D01*
X0227479Y0162789D01*
X0227479Y0155693D01*
X0228204Y0153942D01*
X0228879Y0153267D01*
X0228879Y0147813D01*
X0227968Y0146902D01*
X0227243Y0145151D01*
X0227243Y0138055D01*
X0227968Y0136304D01*
X0229309Y0134963D01*
X0227994Y0136277D02*
X0219573Y0136277D01*
X0218394Y0137457D02*
X0227490Y0137457D01*
X0227243Y0138637D02*
X0208721Y0138637D01*
X0208168Y0139816D02*
X0227243Y0139816D01*
X0227243Y0140996D02*
X0208168Y0140996D01*
X0208168Y0142176D02*
X0227243Y0142176D01*
X0227243Y0143355D02*
X0208168Y0143355D01*
X0208168Y0144535D02*
X0227243Y0144535D01*
X0227476Y0145714D02*
X0207868Y0145714D01*
X0206988Y0146894D02*
X0227964Y0146894D01*
X0228879Y0148074D02*
X0205809Y0148074D01*
X0204629Y0149253D02*
X0228879Y0149253D01*
X0228879Y0150433D02*
X0203449Y0150433D01*
X0202270Y0151612D02*
X0228879Y0151612D01*
X0228879Y0152792D02*
X0202263Y0152792D01*
X0202298Y0153972D02*
X0228192Y0153972D01*
X0227703Y0155151D02*
X0203000Y0155151D01*
X0203387Y0156331D02*
X0227479Y0156331D01*
X0227479Y0157510D02*
X0203387Y0157510D01*
X0203387Y0158690D02*
X0227479Y0158690D01*
X0227479Y0159870D02*
X0203387Y0159870D01*
X0203387Y0161049D02*
X0227479Y0161049D01*
X0227479Y0162229D02*
X0203387Y0162229D01*
X0203294Y0163409D02*
X0227735Y0163409D01*
X0228252Y0164588D02*
X0202805Y0164588D01*
X0201987Y0165768D02*
X0229432Y0165768D01*
X0235056Y0165768D02*
X0239432Y0165768D01*
X0239545Y0165881D02*
X0238204Y0164540D01*
X0237479Y0162789D01*
X0237479Y0155693D01*
X0238204Y0153942D01*
X0238879Y0153267D01*
X0238879Y0147813D01*
X0237968Y0146902D01*
X0237243Y0145151D01*
X0237243Y0138055D01*
X0237968Y0136304D01*
X0239309Y0134963D01*
X0241060Y0134238D01*
X0242956Y0134238D01*
X0244707Y0134963D01*
X0246048Y0136304D01*
X0246773Y0138055D01*
X0246773Y0145151D01*
X0246048Y0146902D01*
X0245609Y0147341D01*
X0245609Y0153267D01*
X0246284Y0153942D01*
X0247009Y0155693D01*
X0247009Y0162789D01*
X0246284Y0164540D01*
X0244943Y0165881D01*
X0243192Y0166606D01*
X0241296Y0166606D01*
X0239545Y0165881D01*
X0238252Y0164588D02*
X0236236Y0164588D01*
X0236753Y0163409D02*
X0237735Y0163409D01*
X0237479Y0162229D02*
X0237009Y0162229D01*
X0237009Y0161049D02*
X0237479Y0161049D01*
X0237479Y0159870D02*
X0237009Y0159870D01*
X0237009Y0158690D02*
X0237479Y0158690D01*
X0237479Y0157510D02*
X0237009Y0157510D01*
X0237009Y0156331D02*
X0237479Y0156331D01*
X0237703Y0155151D02*
X0236785Y0155151D01*
X0236296Y0153972D02*
X0238192Y0153972D01*
X0238879Y0152792D02*
X0235609Y0152792D01*
X0235609Y0151612D02*
X0238879Y0151612D01*
X0238879Y0150433D02*
X0235609Y0150433D01*
X0235609Y0149253D02*
X0238879Y0149253D01*
X0238879Y0148074D02*
X0235609Y0148074D01*
X0236051Y0146894D02*
X0237964Y0146894D01*
X0237476Y0145714D02*
X0236540Y0145714D01*
X0236773Y0144535D02*
X0237243Y0144535D01*
X0237243Y0143355D02*
X0236773Y0143355D01*
X0236773Y0142176D02*
X0237243Y0142176D01*
X0237243Y0140996D02*
X0236773Y0140996D01*
X0236773Y0139816D02*
X0237243Y0139816D01*
X0237243Y0138637D02*
X0236773Y0138637D01*
X0236525Y0137457D02*
X0237490Y0137457D01*
X0237994Y0136277D02*
X0236021Y0136277D01*
X0234842Y0135098D02*
X0239174Y0135098D01*
X0244842Y0135098D02*
X0249174Y0135098D01*
X0249309Y0134963D02*
X0251060Y0134238D01*
X0252956Y0134238D01*
X0254707Y0134963D01*
X0256048Y0136304D01*
X0256773Y0138055D01*
X0256773Y0145151D01*
X0256048Y0146902D01*
X0255373Y0147577D01*
X0255373Y0153031D01*
X0256284Y0153942D01*
X0257009Y0155693D01*
X0257009Y0162789D01*
X0256284Y0164540D01*
X0254943Y0165881D01*
X0253192Y0166606D01*
X0251296Y0166606D01*
X0249545Y0165881D01*
X0248204Y0164540D01*
X0247479Y0162789D01*
X0247479Y0155693D01*
X0248204Y0153942D01*
X0248643Y0153503D01*
X0248643Y0147577D01*
X0247968Y0146902D01*
X0247243Y0145151D01*
X0247243Y0138055D01*
X0247968Y0136304D01*
X0249309Y0134963D01*
X0247994Y0136277D02*
X0246021Y0136277D01*
X0246525Y0137457D02*
X0247490Y0137457D01*
X0247243Y0138637D02*
X0246773Y0138637D01*
X0246773Y0139816D02*
X0247243Y0139816D01*
X0247243Y0140996D02*
X0246773Y0140996D01*
X0246773Y0142176D02*
X0247243Y0142176D01*
X0247243Y0143355D02*
X0246773Y0143355D01*
X0246773Y0144535D02*
X0247243Y0144535D01*
X0247476Y0145714D02*
X0246540Y0145714D01*
X0246051Y0146894D02*
X0247964Y0146894D01*
X0248643Y0148074D02*
X0245609Y0148074D01*
X0245609Y0149253D02*
X0248643Y0149253D01*
X0248643Y0150433D02*
X0245609Y0150433D01*
X0245609Y0151612D02*
X0248643Y0151612D01*
X0248643Y0152792D02*
X0245609Y0152792D01*
X0246296Y0153972D02*
X0248192Y0153972D01*
X0247703Y0155151D02*
X0246785Y0155151D01*
X0247009Y0156331D02*
X0247479Y0156331D01*
X0247479Y0157510D02*
X0247009Y0157510D01*
X0247009Y0158690D02*
X0247479Y0158690D01*
X0247479Y0159870D02*
X0247009Y0159870D01*
X0247009Y0161049D02*
X0247479Y0161049D01*
X0247479Y0162229D02*
X0247009Y0162229D01*
X0246753Y0163409D02*
X0247735Y0163409D01*
X0248252Y0164588D02*
X0246236Y0164588D01*
X0245056Y0165768D02*
X0249432Y0165768D01*
X0255056Y0165768D02*
X0259432Y0165768D01*
X0259545Y0165881D02*
X0258204Y0164540D01*
X0257479Y0162789D01*
X0257479Y0155693D01*
X0258204Y0153942D01*
X0258643Y0153503D01*
X0258643Y0147577D01*
X0257968Y0146902D01*
X0257243Y0145151D01*
X0257243Y0138055D01*
X0257968Y0136304D01*
X0259309Y0134963D01*
X0261060Y0134238D01*
X0262956Y0134238D01*
X0264707Y0134963D01*
X0266048Y0136304D01*
X0266773Y0138055D01*
X0266773Y0145151D01*
X0266048Y0146902D01*
X0265373Y0147577D01*
X0265373Y0153031D01*
X0266284Y0153942D01*
X0267009Y0155693D01*
X0267009Y0162789D01*
X0266284Y0164540D01*
X0264943Y0165881D01*
X0263192Y0166606D01*
X0261296Y0166606D01*
X0259545Y0165881D01*
X0258252Y0164588D02*
X0256236Y0164588D01*
X0256753Y0163409D02*
X0257735Y0163409D01*
X0257479Y0162229D02*
X0257009Y0162229D01*
X0257009Y0161049D02*
X0257479Y0161049D01*
X0257479Y0159870D02*
X0257009Y0159870D01*
X0257009Y0158690D02*
X0257479Y0158690D01*
X0257479Y0157510D02*
X0257009Y0157510D01*
X0257009Y0156331D02*
X0257479Y0156331D01*
X0257703Y0155151D02*
X0256785Y0155151D01*
X0256296Y0153972D02*
X0258192Y0153972D01*
X0258643Y0152792D02*
X0255373Y0152792D01*
X0255373Y0151612D02*
X0258643Y0151612D01*
X0258643Y0150433D02*
X0255373Y0150433D01*
X0255373Y0149253D02*
X0258643Y0149253D01*
X0258643Y0148074D02*
X0255373Y0148074D01*
X0256051Y0146894D02*
X0257964Y0146894D01*
X0257476Y0145714D02*
X0256540Y0145714D01*
X0256773Y0144535D02*
X0257243Y0144535D01*
X0257243Y0143355D02*
X0256773Y0143355D01*
X0256773Y0142176D02*
X0257243Y0142176D01*
X0257243Y0140996D02*
X0256773Y0140996D01*
X0256773Y0139816D02*
X0257243Y0139816D01*
X0257243Y0138637D02*
X0256773Y0138637D01*
X0256525Y0137457D02*
X0257490Y0137457D01*
X0257994Y0136277D02*
X0256021Y0136277D01*
X0254842Y0135098D02*
X0259174Y0135098D01*
X0264842Y0135098D02*
X0269174Y0135098D01*
X0269309Y0134963D02*
X0271060Y0134238D01*
X0272956Y0134238D01*
X0274707Y0134963D01*
X0276048Y0136304D01*
X0276773Y0138055D01*
X0276773Y0145151D01*
X0276048Y0146902D01*
X0275373Y0147577D01*
X0275373Y0153031D01*
X0276284Y0153942D01*
X0277009Y0155693D01*
X0277009Y0162789D01*
X0276284Y0164540D01*
X0274943Y0165881D01*
X0273192Y0166606D01*
X0271296Y0166606D01*
X0269545Y0165881D01*
X0268204Y0164540D01*
X0267479Y0162789D01*
X0267479Y0155693D01*
X0268204Y0153942D01*
X0268643Y0153503D01*
X0268643Y0147577D01*
X0267968Y0146902D01*
X0267243Y0145151D01*
X0267243Y0138055D01*
X0267968Y0136304D01*
X0269309Y0134963D01*
X0267994Y0136277D02*
X0266021Y0136277D01*
X0266525Y0137457D02*
X0267490Y0137457D01*
X0267243Y0138637D02*
X0266773Y0138637D01*
X0266773Y0139816D02*
X0267243Y0139816D01*
X0267243Y0140996D02*
X0266773Y0140996D01*
X0266773Y0142176D02*
X0267243Y0142176D01*
X0267243Y0143355D02*
X0266773Y0143355D01*
X0266773Y0144535D02*
X0267243Y0144535D01*
X0267476Y0145714D02*
X0266540Y0145714D01*
X0266051Y0146894D02*
X0267964Y0146894D01*
X0268643Y0148074D02*
X0265373Y0148074D01*
X0265373Y0149253D02*
X0268643Y0149253D01*
X0268643Y0150433D02*
X0265373Y0150433D01*
X0265373Y0151612D02*
X0268643Y0151612D01*
X0268643Y0152792D02*
X0265373Y0152792D01*
X0266296Y0153972D02*
X0268192Y0153972D01*
X0267703Y0155151D02*
X0266785Y0155151D01*
X0267009Y0156331D02*
X0267479Y0156331D01*
X0267479Y0157510D02*
X0267009Y0157510D01*
X0267009Y0158690D02*
X0267479Y0158690D01*
X0267479Y0159870D02*
X0267009Y0159870D01*
X0267009Y0161049D02*
X0267479Y0161049D01*
X0267479Y0162229D02*
X0267009Y0162229D01*
X0266753Y0163409D02*
X0267735Y0163409D01*
X0268252Y0164588D02*
X0266236Y0164588D01*
X0265056Y0165768D02*
X0269432Y0165768D01*
X0275056Y0165768D02*
X0279432Y0165768D01*
X0279545Y0165881D02*
X0278204Y0164540D01*
X0277479Y0162789D01*
X0277479Y0155693D01*
X0278204Y0153942D01*
X0278643Y0153503D01*
X0278643Y0147577D01*
X0277968Y0146902D01*
X0277243Y0145151D01*
X0277243Y0138055D01*
X0277968Y0136304D01*
X0279309Y0134963D01*
X0281060Y0134238D01*
X0282956Y0134238D01*
X0284707Y0134963D01*
X0286048Y0136304D01*
X0286773Y0138055D01*
X0286773Y0145151D01*
X0286048Y0146902D01*
X0285373Y0147577D01*
X0285373Y0153031D01*
X0286284Y0153942D01*
X0287009Y0155693D01*
X0287009Y0162789D01*
X0286284Y0164540D01*
X0284943Y0165881D01*
X0283192Y0166606D01*
X0281296Y0166606D01*
X0279545Y0165881D01*
X0278252Y0164588D02*
X0276236Y0164588D01*
X0276753Y0163409D02*
X0277735Y0163409D01*
X0277479Y0162229D02*
X0277009Y0162229D01*
X0277009Y0161049D02*
X0277479Y0161049D01*
X0277479Y0159870D02*
X0277009Y0159870D01*
X0277009Y0158690D02*
X0277479Y0158690D01*
X0277479Y0157510D02*
X0277009Y0157510D01*
X0277009Y0156331D02*
X0277479Y0156331D01*
X0277703Y0155151D02*
X0276785Y0155151D01*
X0276296Y0153972D02*
X0278192Y0153972D01*
X0278643Y0152792D02*
X0275373Y0152792D01*
X0275373Y0151612D02*
X0278643Y0151612D01*
X0278643Y0150433D02*
X0275373Y0150433D01*
X0275373Y0149253D02*
X0278643Y0149253D01*
X0278643Y0148074D02*
X0275373Y0148074D01*
X0276051Y0146894D02*
X0277964Y0146894D01*
X0277476Y0145714D02*
X0276540Y0145714D01*
X0276773Y0144535D02*
X0277243Y0144535D01*
X0277243Y0143355D02*
X0276773Y0143355D01*
X0276773Y0142176D02*
X0277243Y0142176D01*
X0277243Y0140996D02*
X0276773Y0140996D01*
X0276773Y0139816D02*
X0277243Y0139816D01*
X0277243Y0138637D02*
X0276773Y0138637D01*
X0276525Y0137457D02*
X0277490Y0137457D01*
X0277994Y0136277D02*
X0276021Y0136277D01*
X0274842Y0135098D02*
X0279174Y0135098D01*
X0284842Y0135098D02*
X0289174Y0135098D01*
X0289309Y0134963D02*
X0291060Y0134238D01*
X0292956Y0134238D01*
X0294707Y0134963D01*
X0296048Y0136304D01*
X0296773Y0138055D01*
X0296773Y0145151D01*
X0296048Y0146902D01*
X0295373Y0147577D01*
X0295373Y0153031D01*
X0296284Y0153942D01*
X0297009Y0155693D01*
X0297009Y0162789D01*
X0296284Y0164540D01*
X0294943Y0165881D01*
X0293192Y0166606D01*
X0291296Y0166606D01*
X0289545Y0165881D01*
X0288204Y0164540D01*
X0287479Y0162789D01*
X0287479Y0155693D01*
X0288204Y0153942D01*
X0288643Y0153503D01*
X0288643Y0147577D01*
X0287968Y0146902D01*
X0287243Y0145151D01*
X0287243Y0138055D01*
X0287968Y0136304D01*
X0289309Y0134963D01*
X0287994Y0136277D02*
X0286021Y0136277D01*
X0286525Y0137457D02*
X0287490Y0137457D01*
X0287243Y0138637D02*
X0286773Y0138637D01*
X0286773Y0139816D02*
X0287243Y0139816D01*
X0287243Y0140996D02*
X0286773Y0140996D01*
X0286773Y0142176D02*
X0287243Y0142176D01*
X0287243Y0143355D02*
X0286773Y0143355D01*
X0286773Y0144535D02*
X0287243Y0144535D01*
X0287476Y0145714D02*
X0286540Y0145714D01*
X0286051Y0146894D02*
X0287964Y0146894D01*
X0288643Y0148074D02*
X0285373Y0148074D01*
X0285373Y0149253D02*
X0288643Y0149253D01*
X0288643Y0150433D02*
X0285373Y0150433D01*
X0285373Y0151612D02*
X0288643Y0151612D01*
X0288643Y0152792D02*
X0285373Y0152792D01*
X0286296Y0153972D02*
X0288192Y0153972D01*
X0287703Y0155151D02*
X0286785Y0155151D01*
X0287009Y0156331D02*
X0287479Y0156331D01*
X0287479Y0157510D02*
X0287009Y0157510D01*
X0287009Y0158690D02*
X0287479Y0158690D01*
X0287479Y0159870D02*
X0287009Y0159870D01*
X0287009Y0161049D02*
X0287479Y0161049D01*
X0287479Y0162229D02*
X0287009Y0162229D01*
X0286753Y0163409D02*
X0287735Y0163409D01*
X0288252Y0164588D02*
X0286236Y0164588D01*
X0285056Y0165768D02*
X0289432Y0165768D01*
X0295056Y0165768D02*
X0299432Y0165768D01*
X0298252Y0164588D02*
X0296236Y0164588D01*
X0296753Y0163409D02*
X0297735Y0163409D01*
X0297479Y0162229D02*
X0297009Y0162229D01*
X0297009Y0161049D02*
X0297479Y0161049D01*
X0297479Y0159870D02*
X0297009Y0159870D01*
X0297009Y0158690D02*
X0297479Y0158690D01*
X0297479Y0157510D02*
X0297009Y0157510D01*
X0297009Y0156331D02*
X0297479Y0156331D01*
X0297703Y0155151D02*
X0296785Y0155151D01*
X0296296Y0153972D02*
X0298192Y0153972D01*
X0298643Y0152792D02*
X0295373Y0152792D01*
X0295373Y0151612D02*
X0298643Y0151612D01*
X0298643Y0150433D02*
X0295373Y0150433D01*
X0295373Y0149253D02*
X0298643Y0149253D01*
X0298643Y0148074D02*
X0295373Y0148074D01*
X0296051Y0146894D02*
X0297964Y0146894D01*
X0297476Y0145714D02*
X0296540Y0145714D01*
X0296773Y0144535D02*
X0297243Y0144535D01*
X0297243Y0143355D02*
X0296773Y0143355D01*
X0296773Y0142176D02*
X0297243Y0142176D01*
X0297243Y0140996D02*
X0296773Y0140996D01*
X0296773Y0139816D02*
X0297243Y0139816D01*
X0297243Y0138637D02*
X0296773Y0138637D01*
X0296525Y0137457D02*
X0297490Y0137457D01*
X0297994Y0136277D02*
X0296021Y0136277D01*
X0294842Y0135098D02*
X0299174Y0135098D01*
X0306773Y0139816D02*
X0321123Y0139816D01*
X0321123Y0140996D02*
X0306773Y0140996D01*
X0306773Y0142176D02*
X0321123Y0142176D01*
X0320693Y0143355D02*
X0306773Y0143355D01*
X0306773Y0144535D02*
X0319514Y0144535D01*
X0318953Y0145714D02*
X0306540Y0145714D01*
X0306051Y0146894D02*
X0318879Y0146894D01*
X0318879Y0148074D02*
X0305373Y0148074D01*
X0305373Y0149253D02*
X0318879Y0149253D01*
X0318879Y0150433D02*
X0305373Y0150433D01*
X0305373Y0151612D02*
X0318879Y0151612D01*
X0318879Y0152792D02*
X0313921Y0152792D01*
X0313853Y0152757D02*
X0314440Y0153057D01*
X0314974Y0153445D01*
X0315440Y0153911D01*
X0315828Y0154445D01*
X0316128Y0155032D01*
X0316331Y0155660D01*
X0316435Y0156311D01*
X0316435Y0159031D01*
X0312454Y0159031D01*
X0312454Y0159450D01*
X0316435Y0159450D01*
X0316435Y0162171D01*
X0316331Y0162822D01*
X0316128Y0163450D01*
X0315828Y0164037D01*
X0315440Y0164571D01*
X0314974Y0165037D01*
X0314440Y0165425D01*
X0313853Y0165724D01*
X0313225Y0165928D01*
X0312574Y0166031D01*
X0312454Y0166031D01*
X0312454Y0159450D01*
X0312035Y0159450D01*
X0312035Y0159031D01*
X0312454Y0159031D01*
X0312454Y0152450D01*
X0312574Y0152450D01*
X0313225Y0152554D01*
X0313853Y0152757D01*
X0312454Y0152792D02*
X0312035Y0152792D01*
X0312035Y0152450D02*
X0312035Y0159031D01*
X0308054Y0159031D01*
X0308054Y0156311D01*
X0308157Y0155660D01*
X0308361Y0155032D01*
X0308660Y0154445D01*
X0309048Y0153911D01*
X0309514Y0153445D01*
X0310048Y0153057D01*
X0310635Y0152757D01*
X0311263Y0152554D01*
X0311914Y0152450D01*
X0312035Y0152450D01*
X0310567Y0152792D02*
X0305373Y0152792D01*
X0306296Y0153972D02*
X0309004Y0153972D01*
X0308322Y0155151D02*
X0306785Y0155151D01*
X0307009Y0156331D02*
X0308054Y0156331D01*
X0308054Y0157510D02*
X0307009Y0157510D01*
X0307009Y0158690D02*
X0308054Y0158690D01*
X0308054Y0159450D02*
X0312035Y0159450D01*
X0312035Y0166031D01*
X0311914Y0166031D01*
X0311263Y0165928D01*
X0310635Y0165724D01*
X0310048Y0165425D01*
X0309514Y0165037D01*
X0309048Y0164571D01*
X0308660Y0164037D01*
X0308361Y0163450D01*
X0308157Y0162822D01*
X0308054Y0162171D01*
X0308054Y0159450D01*
X0308054Y0159870D02*
X0307009Y0159870D01*
X0307009Y0161049D02*
X0308054Y0161049D01*
X0308063Y0162229D02*
X0307009Y0162229D01*
X0306753Y0163409D02*
X0308347Y0163409D01*
X0309065Y0164588D02*
X0306236Y0164588D01*
X0305056Y0165768D02*
X0310769Y0165768D01*
X0312035Y0165768D02*
X0312454Y0165768D01*
X0312454Y0164588D02*
X0312035Y0164588D01*
X0312035Y0163409D02*
X0312454Y0163409D01*
X0312454Y0162229D02*
X0312035Y0162229D01*
X0312035Y0161049D02*
X0312454Y0161049D01*
X0312454Y0159870D02*
X0312035Y0159870D01*
X0312035Y0158690D02*
X0312454Y0158690D01*
X0312454Y0157510D02*
X0312035Y0157510D01*
X0312035Y0156331D02*
X0312454Y0156331D01*
X0312454Y0155151D02*
X0312035Y0155151D01*
X0312035Y0153972D02*
X0312454Y0153972D01*
X0315485Y0153972D02*
X0318192Y0153972D01*
X0317703Y0155151D02*
X0316166Y0155151D01*
X0316435Y0156331D02*
X0317479Y0156331D01*
X0317479Y0157510D02*
X0316435Y0157510D01*
X0316435Y0158690D02*
X0317479Y0158690D01*
X0317479Y0159870D02*
X0316435Y0159870D01*
X0316435Y0161049D02*
X0317479Y0161049D01*
X0317479Y0162229D02*
X0316425Y0162229D01*
X0316141Y0163409D02*
X0317735Y0163409D01*
X0318252Y0164588D02*
X0315423Y0164588D01*
X0313719Y0165768D02*
X0318879Y0165768D01*
X0318879Y0166947D02*
X0201987Y0166947D01*
X0201987Y0168127D02*
X0318879Y0168127D01*
X0318879Y0169307D02*
X0201987Y0169307D01*
X0201987Y0170486D02*
X0318879Y0170486D01*
X0318879Y0171666D02*
X0201987Y0171666D01*
X0201987Y0172845D02*
X0318879Y0172845D01*
X0318879Y0174025D02*
X0201987Y0174025D01*
X0201987Y0175205D02*
X0318879Y0175205D01*
X0318879Y0176384D02*
X0201987Y0176384D01*
X0201987Y0177564D02*
X0318879Y0177564D01*
X0318879Y0178744D02*
X0201987Y0178744D01*
X0201987Y0179923D02*
X0318879Y0179923D01*
X0318879Y0181103D02*
X0201987Y0181103D01*
X0201987Y0182282D02*
X0240314Y0182282D01*
X0238684Y0183462D02*
X0234991Y0183462D01*
X0234974Y0183445D02*
X0235440Y0183911D01*
X0235828Y0184445D01*
X0236128Y0185032D01*
X0236331Y0185660D01*
X0236435Y0186311D01*
X0236435Y0189031D01*
X0232454Y0189031D01*
X0232454Y0189450D01*
X0236435Y0189450D01*
X0236435Y0192171D01*
X0236331Y0192822D01*
X0236128Y0193450D01*
X0235828Y0194037D01*
X0235440Y0194571D01*
X0234974Y0195037D01*
X0234440Y0195425D01*
X0233853Y0195724D01*
X0233225Y0195928D01*
X0232574Y0196031D01*
X0232454Y0196031D01*
X0232454Y0189450D01*
X0232035Y0189450D01*
X0232035Y0189031D01*
X0232454Y0189031D01*
X0232454Y0182450D01*
X0232574Y0182450D01*
X0233225Y0182554D01*
X0233853Y0182757D01*
X0234440Y0183057D01*
X0234974Y0183445D01*
X0235929Y0184642D02*
X0237914Y0184642D01*
X0237479Y0185821D02*
X0236357Y0185821D01*
X0236435Y0187001D02*
X0237479Y0187001D01*
X0237479Y0188180D02*
X0236435Y0188180D01*
X0237479Y0189360D02*
X0232454Y0189360D01*
X0232035Y0189360D02*
X0203387Y0189360D01*
X0203387Y0188180D02*
X0228054Y0188180D01*
X0228054Y0189031D02*
X0228054Y0186311D01*
X0228157Y0185660D01*
X0228361Y0185032D01*
X0228660Y0184445D01*
X0229048Y0183911D01*
X0229514Y0183445D01*
X0230048Y0183057D01*
X0230635Y0182757D01*
X0231263Y0182554D01*
X0231914Y0182450D01*
X0232035Y0182450D01*
X0232035Y0189031D01*
X0228054Y0189031D01*
X0228054Y0189450D02*
X0232035Y0189450D01*
X0232035Y0196031D01*
X0231914Y0196031D01*
X0231263Y0195928D01*
X0230635Y0195724D01*
X0230048Y0195425D01*
X0229514Y0195037D01*
X0229048Y0194571D01*
X0228660Y0194037D01*
X0228361Y0193450D01*
X0228157Y0192822D01*
X0228054Y0192171D01*
X0228054Y0189450D01*
X0228054Y0190540D02*
X0203387Y0190540D01*
X0203387Y0191719D02*
X0228054Y0191719D01*
X0228182Y0192899D02*
X0203387Y0192899D01*
X0203016Y0194079D02*
X0228690Y0194079D01*
X0229818Y0195258D02*
X0223887Y0195258D01*
X0225066Y0196438D02*
X0238839Y0196438D01*
X0238839Y0197617D02*
X0226246Y0197617D01*
X0227426Y0198797D02*
X0238839Y0198797D01*
X0239111Y0199977D02*
X0228095Y0199977D01*
X0233054Y0201156D02*
X0236946Y0201156D01*
X0235767Y0202336D02*
X0234233Y0202336D01*
X0234792Y0203515D02*
X0235208Y0203515D01*
X0245931Y0197617D02*
X0249076Y0197617D01*
X0249076Y0196438D02*
X0245570Y0196438D01*
X0245570Y0195258D02*
X0248922Y0195258D01*
X0248013Y0194079D02*
X0246475Y0194079D01*
X0246964Y0192899D02*
X0247524Y0192899D01*
X0247479Y0191719D02*
X0247009Y0191719D01*
X0247009Y0190540D02*
X0247479Y0190540D01*
X0247479Y0189360D02*
X0247009Y0189360D01*
X0247009Y0188180D02*
X0247479Y0188180D01*
X0247479Y0187001D02*
X0247009Y0187001D01*
X0247009Y0185821D02*
X0247479Y0185821D01*
X0247914Y0184642D02*
X0246574Y0184642D01*
X0245804Y0183462D02*
X0248684Y0183462D01*
X0250314Y0182282D02*
X0244174Y0182282D01*
X0254174Y0182282D02*
X0260314Y0182282D01*
X0258684Y0183462D02*
X0255804Y0183462D01*
X0256574Y0184642D02*
X0257914Y0184642D01*
X0257479Y0185821D02*
X0257009Y0185821D01*
X0257009Y0187001D02*
X0257479Y0187001D01*
X0257479Y0188180D02*
X0257009Y0188180D01*
X0257009Y0189360D02*
X0257479Y0189360D01*
X0257479Y0190540D02*
X0257009Y0190540D01*
X0257009Y0191719D02*
X0257479Y0191719D01*
X0257524Y0192899D02*
X0256964Y0192899D01*
X0256475Y0194079D02*
X0258013Y0194079D01*
X0258524Y0195258D02*
X0255806Y0195258D01*
X0256169Y0196438D02*
X0258524Y0196438D01*
X0258524Y0197617D02*
X0257348Y0197617D01*
X0258248Y0198797D02*
X0258634Y0198797D01*
X0258562Y0199977D02*
X0259244Y0199977D01*
X0265255Y0196438D02*
X0268761Y0196438D01*
X0268761Y0197617D02*
X0266403Y0197617D01*
X0267583Y0198797D02*
X0269033Y0198797D01*
X0268253Y0199977D02*
X0269874Y0199977D01*
X0268761Y0195258D02*
X0265566Y0195258D01*
X0266475Y0194079D02*
X0268013Y0194079D01*
X0267524Y0192899D02*
X0266964Y0192899D01*
X0267009Y0191719D02*
X0267479Y0191719D01*
X0267479Y0190540D02*
X0267009Y0190540D01*
X0267009Y0189360D02*
X0267479Y0189360D01*
X0267479Y0188180D02*
X0267009Y0188180D01*
X0267009Y0187001D02*
X0267479Y0187001D01*
X0267479Y0185821D02*
X0267009Y0185821D01*
X0266574Y0184642D02*
X0267914Y0184642D01*
X0268684Y0183462D02*
X0265804Y0183462D01*
X0264174Y0182282D02*
X0270314Y0182282D01*
X0274174Y0182282D02*
X0280314Y0182282D01*
X0278684Y0183462D02*
X0275804Y0183462D01*
X0276574Y0184642D02*
X0277914Y0184642D01*
X0277479Y0185821D02*
X0277009Y0185821D01*
X0277009Y0187001D02*
X0277479Y0187001D01*
X0277479Y0188180D02*
X0277009Y0188180D01*
X0277009Y0189360D02*
X0277479Y0189360D01*
X0277479Y0190540D02*
X0277009Y0190540D01*
X0277009Y0191719D02*
X0277479Y0191719D01*
X0277524Y0192899D02*
X0276964Y0192899D01*
X0276475Y0194079D02*
X0278013Y0194079D01*
X0278922Y0195258D02*
X0275566Y0195258D01*
X0275854Y0196438D02*
X0278997Y0196438D01*
X0278997Y0197617D02*
X0277033Y0197617D01*
X0277933Y0198797D02*
X0279270Y0198797D01*
X0280110Y0199977D02*
X0278247Y0199977D01*
X0286090Y0196438D02*
X0288839Y0196438D01*
X0288839Y0197617D02*
X0287270Y0197617D01*
X0288169Y0198797D02*
X0289275Y0198797D01*
X0288483Y0199977D02*
X0290346Y0199977D01*
X0288839Y0195258D02*
X0285728Y0195258D01*
X0286475Y0194079D02*
X0288013Y0194079D01*
X0287524Y0192899D02*
X0286964Y0192899D01*
X0287009Y0191719D02*
X0287479Y0191719D01*
X0287479Y0190540D02*
X0287009Y0190540D01*
X0287009Y0189360D02*
X0287479Y0189360D01*
X0287479Y0188180D02*
X0287009Y0188180D01*
X0287009Y0187001D02*
X0287479Y0187001D01*
X0287479Y0185821D02*
X0287009Y0185821D01*
X0286574Y0184642D02*
X0287914Y0184642D01*
X0288684Y0183462D02*
X0285804Y0183462D01*
X0284174Y0182282D02*
X0290314Y0182282D01*
X0294174Y0182282D02*
X0300314Y0182282D01*
X0299545Y0182601D02*
X0301296Y0181876D01*
X0303192Y0181876D01*
X0304943Y0182601D01*
X0306284Y0183942D01*
X0307009Y0185693D01*
X0307009Y0192789D01*
X0306284Y0194540D01*
X0304943Y0195881D01*
X0303192Y0196606D01*
X0301296Y0196606D01*
X0299545Y0195881D01*
X0298204Y0194540D01*
X0297479Y0192789D01*
X0297479Y0185693D01*
X0298204Y0183942D01*
X0299545Y0182601D01*
X0298684Y0183462D02*
X0295804Y0183462D01*
X0296574Y0184642D02*
X0297914Y0184642D01*
X0297479Y0185821D02*
X0297009Y0185821D01*
X0297009Y0187001D02*
X0297479Y0187001D01*
X0297479Y0188180D02*
X0297009Y0188180D01*
X0297009Y0189360D02*
X0297479Y0189360D01*
X0297479Y0190540D02*
X0297009Y0190540D01*
X0297009Y0191719D02*
X0297479Y0191719D01*
X0297524Y0192899D02*
X0296964Y0192899D01*
X0296475Y0194079D02*
X0298013Y0194079D01*
X0298922Y0195258D02*
X0295570Y0195258D01*
X0296326Y0196438D02*
X0300889Y0196438D01*
X0303599Y0196438D02*
X0308918Y0196438D01*
X0308918Y0197617D02*
X0297506Y0197617D01*
X0298175Y0198797D02*
X0308918Y0198797D01*
X0308918Y0199977D02*
X0298326Y0199977D01*
X0303054Y0201156D02*
X0308168Y0201156D01*
X0312968Y0205875D02*
X0325657Y0205875D01*
X0326836Y0204695D02*
X0314148Y0204695D01*
X0315216Y0203515D02*
X0328016Y0203515D01*
X0329195Y0202336D02*
X0315649Y0202336D01*
X0315649Y0201156D02*
X0330092Y0201156D01*
X0330949Y0199977D02*
X0315649Y0199977D01*
X0315649Y0198797D02*
X0331806Y0198797D01*
X0332663Y0197617D02*
X0315649Y0197617D01*
X0315649Y0196438D02*
X0320889Y0196438D01*
X0318922Y0195258D02*
X0315649Y0195258D01*
X0316475Y0194079D02*
X0318013Y0194079D01*
X0317524Y0192899D02*
X0316964Y0192899D01*
X0317009Y0191719D02*
X0317479Y0191719D01*
X0317479Y0190540D02*
X0317009Y0190540D01*
X0317009Y0189360D02*
X0317479Y0189360D01*
X0317479Y0188180D02*
X0317009Y0188180D01*
X0317009Y0187001D02*
X0317479Y0187001D01*
X0317479Y0185821D02*
X0317009Y0185821D01*
X0316574Y0184642D02*
X0317914Y0184642D01*
X0318684Y0183462D02*
X0315804Y0183462D01*
X0314174Y0182282D02*
X0318879Y0182282D01*
X0325609Y0182282D02*
X0339090Y0182282D01*
X0339276Y0181103D02*
X0325609Y0181103D01*
X0325609Y0179923D02*
X0339463Y0179923D01*
X0339650Y0178744D02*
X0325609Y0178744D01*
X0325609Y0177564D02*
X0339837Y0177564D01*
X0340021Y0176384D02*
X0325609Y0176384D01*
X0325609Y0175205D02*
X0340067Y0175205D01*
X0340114Y0174025D02*
X0325609Y0174025D01*
X0325609Y0172845D02*
X0340159Y0172845D01*
X0340159Y0171666D02*
X0325609Y0171666D01*
X0325609Y0170486D02*
X0340159Y0170486D01*
X0340159Y0169307D02*
X0325609Y0169307D01*
X0325609Y0168127D02*
X0340159Y0168127D01*
X0340159Y0166947D02*
X0325609Y0166947D01*
X0325609Y0165768D02*
X0340159Y0165768D01*
X0340159Y0164588D02*
X0326236Y0164588D01*
X0326753Y0163409D02*
X0340159Y0163409D01*
X0340159Y0162229D02*
X0327009Y0162229D01*
X0327009Y0161049D02*
X0340159Y0161049D01*
X0340159Y0159870D02*
X0327009Y0159870D01*
X0327009Y0158690D02*
X0340159Y0158690D01*
X0340159Y0157510D02*
X0327009Y0157510D01*
X0327009Y0156331D02*
X0340159Y0156331D01*
X0340159Y0155151D02*
X0326785Y0155151D01*
X0326296Y0153972D02*
X0340159Y0153972D01*
X0340159Y0152792D02*
X0325609Y0152792D01*
X0325609Y0151612D02*
X0340159Y0151612D01*
X0340159Y0150433D02*
X0325609Y0150433D01*
X0325609Y0149253D02*
X0340159Y0149253D01*
X0340159Y0148074D02*
X0325609Y0148074D01*
X0326673Y0146894D02*
X0340159Y0146894D01*
X0340159Y0145714D02*
X0327553Y0145714D01*
X0327854Y0144535D02*
X0340159Y0144535D01*
X0340159Y0143355D02*
X0327854Y0143355D01*
X0327854Y0142176D02*
X0340159Y0142176D01*
X0340159Y0140996D02*
X0327854Y0140996D01*
X0327873Y0139816D02*
X0340159Y0139816D01*
X0340159Y0138637D02*
X0329052Y0138637D01*
X0329489Y0137457D02*
X0340159Y0137457D01*
X0340159Y0136277D02*
X0329489Y0136277D01*
X0330611Y0135098D02*
X0340159Y0135098D01*
X0340159Y0133918D02*
X0331791Y0133918D01*
X0332971Y0132739D02*
X0340159Y0132739D01*
X0340159Y0131559D02*
X0334150Y0131559D01*
X0334801Y0130379D02*
X0340159Y0130379D01*
X0340159Y0129200D02*
X0334940Y0129200D01*
X0334940Y0128020D02*
X0340159Y0128020D01*
X0340159Y0126841D02*
X0334940Y0126841D01*
X0334940Y0125661D02*
X0340159Y0125661D01*
X0340159Y0124481D02*
X0334940Y0124481D01*
X0334940Y0123302D02*
X0340159Y0123302D01*
X0340159Y0122122D02*
X0334940Y0122122D01*
X0334940Y0120942D02*
X0340159Y0120942D01*
X0340159Y0119763D02*
X0334940Y0119763D01*
X0334940Y0118583D02*
X0340159Y0118583D01*
X0340159Y0117404D02*
X0334940Y0117404D01*
X0334940Y0116224D02*
X0340159Y0116224D01*
X0340159Y0115044D02*
X0334940Y0115044D01*
X0334940Y0113865D02*
X0340159Y0113865D01*
X0340159Y0112685D02*
X0334940Y0112685D01*
X0334940Y0111506D02*
X0340159Y0111506D01*
X0340159Y0110326D02*
X0334940Y0110326D01*
X0334940Y0109146D02*
X0340159Y0109146D01*
X0340159Y0107967D02*
X0334940Y0107967D01*
X0334940Y0106787D02*
X0340159Y0106787D01*
X0340159Y0105607D02*
X0334940Y0105607D01*
X0334940Y0104428D02*
X0340159Y0104428D01*
X0340159Y0103248D02*
X0334940Y0103248D01*
X0334940Y0102069D02*
X0340159Y0102069D01*
X0340159Y0100889D02*
X0334940Y0100889D01*
X0334940Y0099709D02*
X0340159Y0099709D01*
X0340159Y0098530D02*
X0334940Y0098530D01*
X0334940Y0097350D02*
X0340159Y0097350D01*
X0340159Y0096171D02*
X0334940Y0096171D01*
X0334940Y0094991D02*
X0340159Y0094991D01*
X0340159Y0093811D02*
X0334940Y0093811D01*
X0334940Y0092632D02*
X0340159Y0092632D01*
X0340159Y0091452D02*
X0334940Y0091452D01*
X0334940Y0090273D02*
X0340159Y0090273D01*
X0340159Y0089093D02*
X0334940Y0089093D01*
X0334940Y0087913D02*
X0340159Y0087913D01*
X0340159Y0086734D02*
X0334940Y0086734D01*
X0334940Y0085554D02*
X0340159Y0085554D01*
X0340159Y0084374D02*
X0334940Y0084374D01*
X0334940Y0083195D02*
X0340159Y0083195D01*
X0340159Y0082015D02*
X0334940Y0082015D01*
X0334940Y0080836D02*
X0340159Y0080836D01*
X0340159Y0079656D02*
X0334940Y0079656D01*
X0334940Y0078476D02*
X0340159Y0078476D01*
X0340159Y0077297D02*
X0334940Y0077297D01*
X0334940Y0076117D02*
X0340159Y0076117D01*
X0340159Y0074938D02*
X0334940Y0074938D01*
X0334940Y0073758D02*
X0340159Y0073758D01*
X0340159Y0072578D02*
X0334940Y0072578D01*
X0334940Y0071399D02*
X0340159Y0071399D01*
X0340159Y0070219D02*
X0334940Y0070219D01*
X0334940Y0069039D02*
X0340159Y0069039D01*
X0340159Y0067860D02*
X0334940Y0067860D01*
X0334940Y0066680D02*
X0340159Y0066680D01*
X0340159Y0065501D02*
X0334940Y0065501D01*
X0334696Y0064321D02*
X0340159Y0064321D01*
X0340159Y0063141D02*
X0333896Y0063141D01*
X0332716Y0061962D02*
X0340159Y0061962D01*
X0340159Y0060782D02*
X0331537Y0060782D01*
X0330357Y0059603D02*
X0340159Y0059603D01*
X0340159Y0058423D02*
X0329178Y0058423D01*
X0328247Y0057243D02*
X0340135Y0057243D01*
X0340089Y0056064D02*
X0328247Y0056064D01*
X0328247Y0054884D02*
X0340042Y0054884D01*
X0339923Y0053704D02*
X0328247Y0053704D01*
X0328855Y0052525D02*
X0339736Y0052525D01*
X0339549Y0051345D02*
X0329706Y0051345D01*
X0330194Y0050166D02*
X0339362Y0050166D01*
X0339175Y0048986D02*
X0330283Y0048986D01*
X0330270Y0047806D02*
X0338989Y0047806D01*
X0338686Y0046627D02*
X0329781Y0046627D01*
X0329036Y0045447D02*
X0338303Y0045447D01*
X0337920Y0044268D02*
X0327685Y0044268D01*
X0327479Y0043088D02*
X0337536Y0043088D01*
X0337153Y0041908D02*
X0328658Y0041908D01*
X0329708Y0040729D02*
X0336770Y0040729D01*
X0336196Y0039549D02*
X0329708Y0039549D01*
X0329708Y0038686D02*
X0325177Y0038686D01*
X0325177Y0034155D01*
X0326931Y0034155D01*
X0329708Y0036932D01*
X0329708Y0038686D01*
X0329708Y0038370D02*
X0335595Y0038370D01*
X0334994Y0037190D02*
X0329708Y0037190D01*
X0328786Y0036010D02*
X0334393Y0036010D01*
X0333792Y0034831D02*
X0327607Y0034831D01*
X0325177Y0034831D02*
X0324758Y0034831D01*
X0324758Y0036010D02*
X0325177Y0036010D01*
X0325177Y0037190D02*
X0324758Y0037190D01*
X0324758Y0038370D02*
X0325177Y0038370D01*
X0322328Y0034831D02*
X0271284Y0034831D01*
X0271284Y0036010D02*
X0275193Y0036010D01*
X0276192Y0035011D02*
X0280140Y0035011D01*
X0282931Y0037802D01*
X0282931Y0041750D01*
X0281397Y0043284D01*
X0281397Y0044595D01*
X0280884Y0045832D01*
X0279938Y0046779D01*
X0278197Y0048520D01*
X0276960Y0049032D01*
X0269892Y0049032D01*
X0268492Y0050432D01*
X0264545Y0050432D01*
X0261753Y0047640D01*
X0261753Y0043693D01*
X0264545Y0040901D01*
X0268492Y0040901D01*
X0269892Y0042301D01*
X0273951Y0042301D01*
X0273400Y0041750D01*
X0273400Y0037802D01*
X0276192Y0035011D01*
X0274013Y0037190D02*
X0271284Y0037190D01*
X0270555Y0038370D02*
X0273400Y0038370D01*
X0273400Y0039549D02*
X0269375Y0039549D01*
X0269500Y0041908D02*
X0273559Y0041908D01*
X0273400Y0040729D02*
X0256170Y0040729D01*
X0256170Y0041908D02*
X0263537Y0041908D01*
X0262358Y0043088D02*
X0256170Y0043088D01*
X0256170Y0044268D02*
X0261753Y0044268D01*
X0261753Y0045447D02*
X0256170Y0045447D01*
X0255754Y0046627D02*
X0261753Y0046627D01*
X0261919Y0047806D02*
X0255098Y0047806D01*
X0253901Y0048986D02*
X0263099Y0048986D01*
X0264278Y0050166D02*
X0243089Y0050166D01*
X0244039Y0048986D02*
X0248108Y0048986D01*
X0246911Y0047806D02*
X0245098Y0047806D01*
X0245754Y0046627D02*
X0246255Y0046627D01*
X0241907Y0051345D02*
X0320229Y0051345D01*
X0319740Y0050166D02*
X0268759Y0050166D01*
X0277071Y0048986D02*
X0319652Y0048986D01*
X0319665Y0047806D02*
X0278910Y0047806D01*
X0280090Y0046627D02*
X0320154Y0046627D01*
X0320898Y0045447D02*
X0281044Y0045447D01*
X0281397Y0044268D02*
X0322250Y0044268D01*
X0322456Y0043088D02*
X0300780Y0043088D01*
X0299902Y0043967D02*
X0302356Y0041512D01*
X0302356Y0039986D01*
X0298375Y0039986D01*
X0297956Y0039986D01*
X0297956Y0039567D01*
X0293975Y0039567D01*
X0293975Y0038041D01*
X0296430Y0035586D01*
X0297956Y0035586D01*
X0297956Y0039567D01*
X0298375Y0039567D01*
X0298375Y0035586D01*
X0299902Y0035586D01*
X0302356Y0038041D01*
X0302356Y0039567D01*
X0298375Y0039567D01*
X0298375Y0039986D01*
X0298375Y0043967D01*
X0299902Y0043967D01*
X0298375Y0043088D02*
X0297956Y0043088D01*
X0297956Y0043967D02*
X0297956Y0039986D01*
X0293975Y0039986D01*
X0293975Y0041512D01*
X0296430Y0043967D01*
X0297956Y0043967D01*
X0297956Y0041908D02*
X0298375Y0041908D01*
X0298375Y0040729D02*
X0297956Y0040729D01*
X0297956Y0039549D02*
X0298375Y0039549D01*
X0298375Y0038370D02*
X0297956Y0038370D01*
X0297956Y0037190D02*
X0298375Y0037190D01*
X0298375Y0036010D02*
X0297956Y0036010D01*
X0296005Y0036010D02*
X0281139Y0036010D01*
X0282318Y0037190D02*
X0294826Y0037190D01*
X0293975Y0038370D02*
X0282931Y0038370D01*
X0282931Y0039549D02*
X0293975Y0039549D01*
X0293975Y0040729D02*
X0282931Y0040729D01*
X0282773Y0041908D02*
X0294371Y0041908D01*
X0295551Y0043088D02*
X0281593Y0043088D01*
X0271242Y0033651D02*
X0333057Y0033651D01*
X0332200Y0032471D02*
X0270063Y0032471D01*
X0269980Y0031292D02*
X0331343Y0031292D01*
X0330486Y0030112D02*
X0281950Y0030112D01*
X0283691Y0028933D02*
X0287157Y0028933D01*
X0287030Y0028840D02*
X0286523Y0028333D01*
X0286101Y0027752D01*
X0285775Y0027113D01*
X0285553Y0026431D01*
X0285446Y0025757D01*
X0289606Y0025757D01*
X0289606Y0029916D01*
X0288932Y0029810D01*
X0288250Y0029588D01*
X0287611Y0029262D01*
X0287030Y0028840D01*
X0286101Y0027753D02*
X0284567Y0027753D01*
X0285055Y0026573D02*
X0285600Y0026573D01*
X0285134Y0025394D02*
X0289606Y0025394D01*
X0289606Y0025757D02*
X0289606Y0024969D01*
X0290394Y0024969D01*
X0290394Y0025757D01*
X0294554Y0025757D01*
X0294447Y0026431D01*
X0294225Y0027113D01*
X0293899Y0027752D01*
X0293477Y0028333D01*
X0292970Y0028840D01*
X0292389Y0029262D01*
X0291750Y0029588D01*
X0291068Y0029810D01*
X0290394Y0029916D01*
X0290394Y0025757D01*
X0289606Y0025757D01*
X0289606Y0024969D02*
X0285446Y0024969D01*
X0285553Y0024295D01*
X0285775Y0023613D01*
X0286101Y0022974D01*
X0286523Y0022393D01*
X0287030Y0021886D01*
X0287611Y0021464D01*
X0288250Y0021138D01*
X0288932Y0020916D01*
X0289606Y0020809D01*
X0289606Y0024969D01*
X0289606Y0024214D02*
X0290394Y0024214D01*
X0290394Y0024969D02*
X0290394Y0020809D01*
X0291068Y0020916D01*
X0291750Y0021138D01*
X0292389Y0021464D01*
X0292970Y0021886D01*
X0293477Y0022393D01*
X0293899Y0022974D01*
X0294225Y0023613D01*
X0294447Y0024295D01*
X0294554Y0024969D01*
X0290394Y0024969D01*
X0290394Y0025394D02*
X0299606Y0025394D01*
X0299606Y0025757D02*
X0299606Y0024969D01*
X0300394Y0024969D01*
X0300394Y0025757D01*
X0304554Y0025757D01*
X0304447Y0026431D01*
X0304225Y0027113D01*
X0303899Y0027752D01*
X0303477Y0028333D01*
X0302970Y0028840D01*
X0302389Y0029262D01*
X0301750Y0029588D01*
X0301068Y0029810D01*
X0300394Y0029916D01*
X0300394Y0025757D01*
X0299606Y0025757D01*
X0299606Y0029916D01*
X0298932Y0029810D01*
X0298250Y0029588D01*
X0297611Y0029262D01*
X0297030Y0028840D01*
X0296523Y0028333D01*
X0296101Y0027752D01*
X0295775Y0027113D01*
X0295553Y0026431D01*
X0295446Y0025757D01*
X0299606Y0025757D01*
X0299606Y0024969D02*
X0295446Y0024969D01*
X0295553Y0024295D01*
X0295775Y0023613D01*
X0296101Y0022974D01*
X0296523Y0022393D01*
X0297030Y0021886D01*
X0297611Y0021464D01*
X0298250Y0021138D01*
X0298932Y0020916D01*
X0299606Y0020809D01*
X0299606Y0024969D01*
X0299606Y0024214D02*
X0300394Y0024214D01*
X0300394Y0024969D02*
X0300394Y0020809D01*
X0301068Y0020916D01*
X0301750Y0021138D01*
X0302389Y0021464D01*
X0302970Y0021886D01*
X0303477Y0022393D01*
X0303899Y0022974D01*
X0304225Y0023613D01*
X0304447Y0024295D01*
X0304554Y0024969D01*
X0300394Y0024969D01*
X0300394Y0025394D02*
X0326199Y0025394D01*
X0327379Y0026573D02*
X0304400Y0026573D01*
X0303899Y0027753D02*
X0328558Y0027753D01*
X0329629Y0028933D02*
X0302843Y0028933D01*
X0300394Y0028933D02*
X0299606Y0028933D01*
X0299606Y0027753D02*
X0300394Y0027753D01*
X0300394Y0026573D02*
X0299606Y0026573D01*
X0297157Y0028933D02*
X0292843Y0028933D01*
X0293899Y0027753D02*
X0296101Y0027753D01*
X0295600Y0026573D02*
X0294400Y0026573D01*
X0294420Y0024214D02*
X0295580Y0024214D01*
X0296070Y0023035D02*
X0293930Y0023035D01*
X0292928Y0021855D02*
X0297072Y0021855D01*
X0299606Y0021855D02*
X0300394Y0021855D01*
X0300394Y0023035D02*
X0299606Y0023035D01*
X0302928Y0021855D02*
X0322032Y0021855D01*
X0320409Y0020675D02*
X0282098Y0020675D01*
X0283128Y0019496D02*
X0288069Y0019496D01*
X0289606Y0019496D02*
X0290394Y0019496D01*
X0290394Y0019916D02*
X0290394Y0015757D01*
X0294554Y0015757D01*
X0294447Y0016431D01*
X0294225Y0017113D01*
X0293899Y0017752D01*
X0293477Y0018333D01*
X0292970Y0018840D01*
X0292389Y0019262D01*
X0291750Y0019588D01*
X0291068Y0019810D01*
X0290394Y0019916D01*
X0291931Y0019496D02*
X0298069Y0019496D01*
X0299606Y0019496D02*
X0300394Y0019496D01*
X0300394Y0019916D02*
X0300394Y0015757D01*
X0304554Y0015757D01*
X0304447Y0016431D01*
X0304225Y0017113D01*
X0303899Y0017752D01*
X0303477Y0018333D01*
X0302970Y0018840D01*
X0302389Y0019262D01*
X0301750Y0019588D01*
X0301068Y0019810D01*
X0300394Y0019916D01*
X0301931Y0019496D02*
X0318785Y0019496D01*
X0316550Y0018316D02*
X0303490Y0018316D01*
X0304213Y0017136D02*
X0314235Y0017136D01*
X0311715Y0015957D02*
X0304522Y0015957D01*
X0304523Y0014777D02*
X0308084Y0014777D01*
X0300394Y0015957D02*
X0299606Y0015957D01*
X0299606Y0017136D02*
X0300394Y0017136D01*
X0300394Y0018316D02*
X0299606Y0018316D01*
X0296510Y0018316D02*
X0293490Y0018316D01*
X0294213Y0017136D02*
X0295787Y0017136D01*
X0295478Y0015957D02*
X0294522Y0015957D01*
X0294523Y0014777D02*
X0295477Y0014777D01*
X0295783Y0013598D02*
X0294217Y0013598D01*
X0290394Y0015957D02*
X0289606Y0015957D01*
X0289606Y0017136D02*
X0290394Y0017136D01*
X0290394Y0018316D02*
X0289606Y0018316D01*
X0286510Y0018316D02*
X0284307Y0018316D01*
X0284822Y0017136D02*
X0285787Y0017136D01*
X0285478Y0015957D02*
X0285134Y0015957D01*
X0285134Y0014777D02*
X0285477Y0014777D01*
X0285783Y0013598D02*
X0284826Y0013598D01*
X0283752Y0021855D02*
X0287072Y0021855D01*
X0286070Y0023035D02*
X0284592Y0023035D01*
X0285081Y0024214D02*
X0285580Y0024214D01*
X0289606Y0023035D02*
X0290394Y0023035D01*
X0290394Y0021855D02*
X0289606Y0021855D01*
X0289606Y0026573D02*
X0290394Y0026573D01*
X0290394Y0027753D02*
X0289606Y0027753D01*
X0289606Y0028933D02*
X0290394Y0028933D01*
X0300326Y0036010D02*
X0321148Y0036010D01*
X0320227Y0037190D02*
X0301506Y0037190D01*
X0302356Y0038370D02*
X0320227Y0038370D01*
X0320227Y0039549D02*
X0302356Y0039549D01*
X0302356Y0040729D02*
X0320227Y0040729D01*
X0321276Y0041908D02*
X0301960Y0041908D01*
X0321080Y0052525D02*
X0240727Y0052525D01*
X0256170Y0039549D02*
X0263662Y0039549D01*
X0262482Y0038370D02*
X0256170Y0038370D01*
X0256014Y0037190D02*
X0261753Y0037190D01*
X0261753Y0036010D02*
X0255525Y0036010D01*
X0254545Y0034831D02*
X0261753Y0034831D01*
X0261795Y0033651D02*
X0252567Y0033651D01*
X0249442Y0033651D02*
X0242567Y0033651D01*
X0244545Y0034831D02*
X0247464Y0034831D01*
X0246484Y0036010D02*
X0245525Y0036010D01*
X0248050Y0030112D02*
X0241950Y0030112D01*
X0243691Y0028933D02*
X0246309Y0028933D01*
X0245433Y0027753D02*
X0244567Y0027753D01*
X0238050Y0030112D02*
X0232363Y0030112D01*
X0233139Y0031292D02*
X0262607Y0031292D01*
X0262974Y0032471D02*
X0233365Y0032471D01*
X0233365Y0033651D02*
X0239442Y0033651D01*
X0237464Y0034831D02*
X0234545Y0034831D01*
X0235525Y0036010D02*
X0236484Y0036010D01*
X0236309Y0028933D02*
X0233691Y0028933D01*
X0234567Y0027753D02*
X0235433Y0027753D01*
X0251950Y0030112D02*
X0258050Y0030112D01*
X0256309Y0028933D02*
X0253691Y0028933D01*
X0254567Y0027753D02*
X0255433Y0027753D01*
X0271950Y0030112D02*
X0278050Y0030112D01*
X0276309Y0028933D02*
X0273691Y0028933D01*
X0274567Y0027753D02*
X0275433Y0027753D01*
X0303930Y0023035D02*
X0323656Y0023035D01*
X0325019Y0024214D02*
X0304420Y0024214D01*
X0321517Y0058423D02*
X0196769Y0058423D01*
X0198467Y0059603D02*
X0321536Y0059603D01*
X0322024Y0060782D02*
X0199647Y0060782D01*
X0200827Y0061962D02*
X0323198Y0061962D01*
X0324377Y0063141D02*
X0202006Y0063141D01*
X0203186Y0064321D02*
X0325557Y0064321D01*
X0326737Y0065501D02*
X0204365Y0065501D01*
X0205545Y0066680D02*
X0327916Y0066680D01*
X0328209Y0067860D02*
X0206725Y0067860D01*
X0207904Y0069039D02*
X0328209Y0069039D01*
X0328209Y0070219D02*
X0209084Y0070219D01*
X0210264Y0071399D02*
X0328209Y0071399D01*
X0328209Y0072578D02*
X0211443Y0072578D01*
X0212623Y0073758D02*
X0328209Y0073758D01*
X0328209Y0074938D02*
X0213802Y0074938D01*
X0214381Y0076117D02*
X0229474Y0076117D01*
X0228294Y0077297D02*
X0214468Y0077297D01*
X0214468Y0078476D02*
X0227617Y0078476D01*
X0231698Y0078476D02*
X0232317Y0078476D01*
X0232317Y0079483D02*
X0232317Y0075402D01*
X0233826Y0075402D01*
X0236398Y0077973D01*
X0236398Y0079483D01*
X0232317Y0079483D01*
X0232317Y0079656D02*
X0241698Y0079656D01*
X0241698Y0079483D02*
X0237617Y0079483D01*
X0237617Y0077973D01*
X0240189Y0075402D01*
X0241698Y0075402D01*
X0241698Y0079483D01*
X0241698Y0080102D01*
X0242317Y0080102D01*
X0242317Y0084183D01*
X0243826Y0084183D01*
X0246398Y0081611D01*
X0246398Y0080102D01*
X0242317Y0080102D01*
X0242317Y0079483D01*
X0246398Y0079483D01*
X0246398Y0077973D01*
X0243826Y0075402D01*
X0242317Y0075402D01*
X0242317Y0079483D01*
X0241698Y0079483D01*
X0242317Y0079656D02*
X0251698Y0079656D01*
X0251698Y0078476D02*
X0252317Y0078476D01*
X0252317Y0077297D02*
X0251698Y0077297D01*
X0251698Y0076117D02*
X0252317Y0076117D01*
X0249474Y0076117D02*
X0244542Y0076117D01*
X0245722Y0077297D02*
X0248294Y0077297D01*
X0247617Y0078476D02*
X0246398Y0078476D01*
X0246398Y0080836D02*
X0247617Y0080836D01*
X0248022Y0082015D02*
X0245994Y0082015D01*
X0244814Y0083195D02*
X0249201Y0083195D01*
X0242317Y0083195D02*
X0241698Y0083195D01*
X0241698Y0082015D02*
X0242317Y0082015D01*
X0242317Y0080836D02*
X0241698Y0080836D01*
X0241698Y0078476D02*
X0242317Y0078476D01*
X0242317Y0077297D02*
X0241698Y0077297D01*
X0241698Y0076117D02*
X0242317Y0076117D01*
X0239474Y0076117D02*
X0234542Y0076117D01*
X0235722Y0077297D02*
X0238294Y0077297D01*
X0237617Y0078476D02*
X0236398Y0078476D01*
X0236398Y0080836D02*
X0237617Y0080836D01*
X0238022Y0082015D02*
X0235994Y0082015D01*
X0232317Y0077297D02*
X0231698Y0077297D01*
X0231698Y0076117D02*
X0232317Y0076117D01*
X0228044Y0086734D02*
X0214468Y0086734D01*
X0214468Y0087913D02*
X0227043Y0087913D01*
X0227043Y0089093D02*
X0214468Y0089093D01*
X0214468Y0090273D02*
X0227043Y0090273D01*
X0227043Y0091452D02*
X0214468Y0091452D01*
X0214468Y0092632D02*
X0227825Y0092632D01*
X0228643Y0093811D02*
X0214468Y0093811D01*
X0214468Y0094991D02*
X0228643Y0094991D01*
X0228643Y0096171D02*
X0214468Y0096171D01*
X0214468Y0097350D02*
X0228643Y0097350D01*
X0228643Y0098530D02*
X0214468Y0098530D01*
X0214468Y0099709D02*
X0228643Y0099709D01*
X0228643Y0100889D02*
X0214468Y0100889D01*
X0214468Y0102069D02*
X0228643Y0102069D01*
X0228643Y0103248D02*
X0214468Y0103248D01*
X0214468Y0104428D02*
X0228643Y0104428D01*
X0228643Y0105607D02*
X0214468Y0105607D01*
X0214468Y0106787D02*
X0227768Y0106787D01*
X0227279Y0107967D02*
X0214468Y0107967D01*
X0214468Y0109146D02*
X0227243Y0109146D01*
X0227243Y0110326D02*
X0214468Y0110326D01*
X0206490Y0119763D02*
X0089841Y0119763D01*
X0089841Y0120942D02*
X0205311Y0120942D01*
X0204131Y0122122D02*
X0089841Y0122122D01*
X0089841Y0123302D02*
X0202952Y0123302D01*
X0202107Y0124481D02*
X0089841Y0124481D01*
X0089841Y0125661D02*
X0201831Y0125661D01*
X0201831Y0126841D02*
X0089841Y0126841D01*
X0089841Y0128020D02*
X0201831Y0128020D01*
X0201831Y0129200D02*
X0089841Y0129200D01*
X0089841Y0130379D02*
X0201831Y0130379D01*
X0201831Y0131559D02*
X0089841Y0131559D01*
X0089841Y0132739D02*
X0201141Y0132739D01*
X0200431Y0133918D02*
X0089841Y0133918D01*
X0089841Y0135098D02*
X0106312Y0135098D01*
X0105686Y0135357D02*
X0107438Y0134631D01*
X0109334Y0134631D01*
X0111085Y0135357D01*
X0112426Y0136697D01*
X0113151Y0138449D01*
X0113151Y0145545D01*
X0112426Y0147296D01*
X0111751Y0147971D01*
X0111751Y0153425D01*
X0112662Y0154335D01*
X0113387Y0156087D01*
X0113387Y0163183D01*
X0112662Y0164934D01*
X0111321Y0166275D01*
X0109570Y0167000D01*
X0107674Y0167000D01*
X0105923Y0166275D01*
X0104582Y0164934D01*
X0103857Y0163183D01*
X0103857Y0156087D01*
X0104582Y0154335D01*
X0105020Y0153897D01*
X0105020Y0147971D01*
X0104346Y0147296D01*
X0103620Y0145545D01*
X0103620Y0138449D01*
X0104346Y0136697D01*
X0105686Y0135357D01*
X0104766Y0136277D02*
X0089841Y0136277D01*
X0089841Y0137457D02*
X0104031Y0137457D01*
X0103620Y0138637D02*
X0089841Y0138637D01*
X0089841Y0139816D02*
X0103620Y0139816D01*
X0103620Y0140996D02*
X0089841Y0140996D01*
X0089841Y0142176D02*
X0103620Y0142176D01*
X0103620Y0143355D02*
X0089841Y0143355D01*
X0089841Y0144535D02*
X0103620Y0144535D01*
X0103691Y0145714D02*
X0089841Y0145714D01*
X0089841Y0146894D02*
X0104179Y0146894D01*
X0105020Y0148074D02*
X0089841Y0148074D01*
X0089841Y0149253D02*
X0105020Y0149253D01*
X0105020Y0150433D02*
X0089841Y0150433D01*
X0089841Y0151612D02*
X0105020Y0151612D01*
X0105020Y0152792D02*
X0089841Y0152792D01*
X0089720Y0153972D02*
X0104946Y0153972D01*
X0104244Y0155151D02*
X0089451Y0155151D01*
X0089182Y0156331D02*
X0103857Y0156331D01*
X0103857Y0157510D02*
X0088912Y0157510D01*
X0088643Y0158690D02*
X0103857Y0158690D01*
X0103857Y0159870D02*
X0088268Y0159870D01*
X0087699Y0161049D02*
X0103857Y0161049D01*
X0103857Y0162229D02*
X0087131Y0162229D01*
X0086563Y0163409D02*
X0103950Y0163409D01*
X0104439Y0164588D02*
X0085995Y0164588D01*
X0085185Y0165768D02*
X0105416Y0165768D01*
X0107547Y0166947D02*
X0084244Y0166947D01*
X0083304Y0168127D02*
X0195257Y0168127D01*
X0195257Y0166947D02*
X0179697Y0166947D01*
X0179570Y0167000D02*
X0177674Y0167000D01*
X0175923Y0166275D01*
X0174582Y0164934D01*
X0173857Y0163183D01*
X0173857Y0156087D01*
X0174582Y0154335D01*
X0175020Y0153897D01*
X0175020Y0147971D01*
X0174346Y0147296D01*
X0173620Y0145545D01*
X0173620Y0138449D01*
X0174346Y0136697D01*
X0175686Y0135357D01*
X0177438Y0134631D01*
X0179334Y0134631D01*
X0181085Y0135357D01*
X0182426Y0136697D01*
X0183151Y0138449D01*
X0183151Y0145545D01*
X0182426Y0147296D01*
X0181751Y0147971D01*
X0181751Y0153425D01*
X0182662Y0154335D01*
X0183387Y0156087D01*
X0183387Y0163183D01*
X0182662Y0164934D01*
X0181321Y0166275D01*
X0179570Y0167000D01*
X0177547Y0166947D02*
X0169697Y0166947D01*
X0169570Y0167000D02*
X0167674Y0167000D01*
X0165923Y0166275D01*
X0164582Y0164934D01*
X0163857Y0163183D01*
X0163857Y0156087D01*
X0164582Y0154335D01*
X0165020Y0153897D01*
X0165020Y0147971D01*
X0164346Y0147296D01*
X0163620Y0145545D01*
X0163620Y0138449D01*
X0164346Y0136697D01*
X0165686Y0135357D01*
X0167438Y0134631D01*
X0169334Y0134631D01*
X0171085Y0135357D01*
X0172426Y0136697D01*
X0173151Y0138449D01*
X0173151Y0145545D01*
X0172426Y0147296D01*
X0171751Y0147971D01*
X0171751Y0153425D01*
X0172662Y0154335D01*
X0173387Y0156087D01*
X0173387Y0163183D01*
X0172662Y0164934D01*
X0171321Y0166275D01*
X0169570Y0167000D01*
X0167547Y0166947D02*
X0159697Y0166947D01*
X0159570Y0167000D02*
X0157674Y0167000D01*
X0155923Y0166275D01*
X0154582Y0164934D01*
X0153857Y0163183D01*
X0153857Y0156087D01*
X0154582Y0154335D01*
X0155020Y0153897D01*
X0155020Y0147971D01*
X0154346Y0147296D01*
X0153620Y0145545D01*
X0153620Y0138449D01*
X0154346Y0136697D01*
X0155686Y0135357D01*
X0157438Y0134631D01*
X0159334Y0134631D01*
X0161085Y0135357D01*
X0162426Y0136697D01*
X0163151Y0138449D01*
X0163151Y0145545D01*
X0162426Y0147296D01*
X0161751Y0147971D01*
X0161751Y0153425D01*
X0162662Y0154335D01*
X0163387Y0156087D01*
X0163387Y0163183D01*
X0162662Y0164934D01*
X0161321Y0166275D01*
X0159570Y0167000D01*
X0157547Y0166947D02*
X0149697Y0166947D01*
X0149570Y0167000D02*
X0147674Y0167000D01*
X0145923Y0166275D01*
X0144582Y0164934D01*
X0143857Y0163183D01*
X0143857Y0156087D01*
X0144582Y0154335D01*
X0145020Y0153897D01*
X0145020Y0147971D01*
X0144346Y0147296D01*
X0143620Y0145545D01*
X0143620Y0138449D01*
X0144346Y0136697D01*
X0145686Y0135357D01*
X0147438Y0134631D01*
X0149334Y0134631D01*
X0151085Y0135357D01*
X0152426Y0136697D01*
X0153151Y0138449D01*
X0153151Y0145545D01*
X0152426Y0147296D01*
X0151751Y0147971D01*
X0151751Y0153425D01*
X0152662Y0154335D01*
X0153387Y0156087D01*
X0153387Y0163183D01*
X0152662Y0164934D01*
X0151321Y0166275D01*
X0149570Y0167000D01*
X0147547Y0166947D02*
X0139697Y0166947D01*
X0139570Y0167000D02*
X0137674Y0167000D01*
X0135923Y0166275D01*
X0134582Y0164934D01*
X0133857Y0163183D01*
X0133857Y0156087D01*
X0134582Y0154335D01*
X0135020Y0153897D01*
X0135020Y0147971D01*
X0134346Y0147296D01*
X0133620Y0145545D01*
X0133620Y0138449D01*
X0134346Y0136697D01*
X0135686Y0135357D01*
X0137438Y0134631D01*
X0139334Y0134631D01*
X0141085Y0135357D01*
X0142426Y0136697D01*
X0143151Y0138449D01*
X0143151Y0145545D01*
X0142426Y0147296D01*
X0141751Y0147971D01*
X0141751Y0153425D01*
X0142662Y0154335D01*
X0143387Y0156087D01*
X0143387Y0163183D01*
X0142662Y0164934D01*
X0141321Y0166275D01*
X0139570Y0167000D01*
X0137547Y0166947D02*
X0129697Y0166947D01*
X0129570Y0167000D02*
X0127674Y0167000D01*
X0125923Y0166275D01*
X0124582Y0164934D01*
X0123857Y0163183D01*
X0123857Y0156087D01*
X0124582Y0154335D01*
X0125020Y0153897D01*
X0125020Y0147971D01*
X0124346Y0147296D01*
X0123620Y0145545D01*
X0123620Y0138449D01*
X0124346Y0136697D01*
X0125686Y0135357D01*
X0127438Y0134631D01*
X0129334Y0134631D01*
X0131085Y0135357D01*
X0132426Y0136697D01*
X0133151Y0138449D01*
X0133151Y0145545D01*
X0132426Y0147296D01*
X0131751Y0147971D01*
X0131751Y0153425D01*
X0132662Y0154335D01*
X0133387Y0156087D01*
X0133387Y0163183D01*
X0132662Y0164934D01*
X0131321Y0166275D01*
X0129570Y0167000D01*
X0127547Y0166947D02*
X0119697Y0166947D01*
X0119570Y0167000D02*
X0117674Y0167000D01*
X0115923Y0166275D01*
X0114582Y0164934D01*
X0113857Y0163183D01*
X0113857Y0156087D01*
X0114582Y0154335D01*
X0115020Y0153897D01*
X0115020Y0147971D01*
X0114346Y0147296D01*
X0113620Y0145545D01*
X0113620Y0138449D01*
X0114346Y0136697D01*
X0115686Y0135357D01*
X0117438Y0134631D01*
X0119334Y0134631D01*
X0121085Y0135357D01*
X0122426Y0136697D01*
X0123151Y0138449D01*
X0123151Y0145545D01*
X0122426Y0147296D01*
X0121751Y0147971D01*
X0121751Y0153425D01*
X0122662Y0154335D01*
X0123387Y0156087D01*
X0123387Y0163183D01*
X0122662Y0164934D01*
X0121321Y0166275D01*
X0119570Y0167000D01*
X0117547Y0166947D02*
X0109697Y0166947D01*
X0111828Y0165768D02*
X0115416Y0165768D01*
X0114439Y0164588D02*
X0112805Y0164588D01*
X0113294Y0163409D02*
X0113950Y0163409D01*
X0113857Y0162229D02*
X0113387Y0162229D01*
X0113387Y0161049D02*
X0113857Y0161049D01*
X0113857Y0159870D02*
X0113387Y0159870D01*
X0113387Y0158690D02*
X0113857Y0158690D01*
X0113857Y0157510D02*
X0113387Y0157510D01*
X0113387Y0156331D02*
X0113857Y0156331D01*
X0114244Y0155151D02*
X0113000Y0155151D01*
X0112298Y0153972D02*
X0114946Y0153972D01*
X0115020Y0152792D02*
X0111751Y0152792D01*
X0111751Y0151612D02*
X0115020Y0151612D01*
X0115020Y0150433D02*
X0111751Y0150433D01*
X0111751Y0149253D02*
X0115020Y0149253D01*
X0115020Y0148074D02*
X0111751Y0148074D01*
X0112592Y0146894D02*
X0114179Y0146894D01*
X0113691Y0145714D02*
X0113081Y0145714D01*
X0113151Y0144535D02*
X0113620Y0144535D01*
X0113620Y0143355D02*
X0113151Y0143355D01*
X0113151Y0142176D02*
X0113620Y0142176D01*
X0113620Y0140996D02*
X0113151Y0140996D01*
X0113151Y0139816D02*
X0113620Y0139816D01*
X0113620Y0138637D02*
X0113151Y0138637D01*
X0112740Y0137457D02*
X0114031Y0137457D01*
X0114766Y0136277D02*
X0112006Y0136277D01*
X0110460Y0135098D02*
X0116312Y0135098D01*
X0120460Y0135098D02*
X0126312Y0135098D01*
X0124766Y0136277D02*
X0122006Y0136277D01*
X0122740Y0137457D02*
X0124031Y0137457D01*
X0123620Y0138637D02*
X0123151Y0138637D01*
X0123151Y0139816D02*
X0123620Y0139816D01*
X0123620Y0140996D02*
X0123151Y0140996D01*
X0123151Y0142176D02*
X0123620Y0142176D01*
X0123620Y0143355D02*
X0123151Y0143355D01*
X0123151Y0144535D02*
X0123620Y0144535D01*
X0123691Y0145714D02*
X0123081Y0145714D01*
X0122592Y0146894D02*
X0124179Y0146894D01*
X0125020Y0148074D02*
X0121751Y0148074D01*
X0121751Y0149253D02*
X0125020Y0149253D01*
X0125020Y0150433D02*
X0121751Y0150433D01*
X0121751Y0151612D02*
X0125020Y0151612D01*
X0125020Y0152792D02*
X0121751Y0152792D01*
X0122298Y0153972D02*
X0124946Y0153972D01*
X0124244Y0155151D02*
X0123000Y0155151D01*
X0123387Y0156331D02*
X0123857Y0156331D01*
X0123857Y0157510D02*
X0123387Y0157510D01*
X0123387Y0158690D02*
X0123857Y0158690D01*
X0123857Y0159870D02*
X0123387Y0159870D01*
X0123387Y0161049D02*
X0123857Y0161049D01*
X0123857Y0162229D02*
X0123387Y0162229D01*
X0123294Y0163409D02*
X0123950Y0163409D01*
X0124439Y0164588D02*
X0122805Y0164588D01*
X0121828Y0165768D02*
X0125416Y0165768D01*
X0131828Y0165768D02*
X0135416Y0165768D01*
X0134439Y0164588D02*
X0132805Y0164588D01*
X0133294Y0163409D02*
X0133950Y0163409D01*
X0133857Y0162229D02*
X0133387Y0162229D01*
X0133387Y0161049D02*
X0133857Y0161049D01*
X0133857Y0159870D02*
X0133387Y0159870D01*
X0133387Y0158690D02*
X0133857Y0158690D01*
X0133857Y0157510D02*
X0133387Y0157510D01*
X0133387Y0156331D02*
X0133857Y0156331D01*
X0134244Y0155151D02*
X0133000Y0155151D01*
X0132298Y0153972D02*
X0134946Y0153972D01*
X0135020Y0152792D02*
X0131751Y0152792D01*
X0131751Y0151612D02*
X0135020Y0151612D01*
X0135020Y0150433D02*
X0131751Y0150433D01*
X0131751Y0149253D02*
X0135020Y0149253D01*
X0135020Y0148074D02*
X0131751Y0148074D01*
X0132592Y0146894D02*
X0134179Y0146894D01*
X0133691Y0145714D02*
X0133081Y0145714D01*
X0133151Y0144535D02*
X0133620Y0144535D01*
X0133620Y0143355D02*
X0133151Y0143355D01*
X0133151Y0142176D02*
X0133620Y0142176D01*
X0133620Y0140996D02*
X0133151Y0140996D01*
X0133151Y0139816D02*
X0133620Y0139816D01*
X0133620Y0138637D02*
X0133151Y0138637D01*
X0132740Y0137457D02*
X0134031Y0137457D01*
X0134766Y0136277D02*
X0132006Y0136277D01*
X0130460Y0135098D02*
X0136312Y0135098D01*
X0140460Y0135098D02*
X0146312Y0135098D01*
X0144766Y0136277D02*
X0142006Y0136277D01*
X0142740Y0137457D02*
X0144031Y0137457D01*
X0143620Y0138637D02*
X0143151Y0138637D01*
X0143151Y0139816D02*
X0143620Y0139816D01*
X0143620Y0140996D02*
X0143151Y0140996D01*
X0143151Y0142176D02*
X0143620Y0142176D01*
X0143620Y0143355D02*
X0143151Y0143355D01*
X0143151Y0144535D02*
X0143620Y0144535D01*
X0143691Y0145714D02*
X0143081Y0145714D01*
X0142592Y0146894D02*
X0144179Y0146894D01*
X0145020Y0148074D02*
X0141751Y0148074D01*
X0141751Y0149253D02*
X0145020Y0149253D01*
X0145020Y0150433D02*
X0141751Y0150433D01*
X0141751Y0151612D02*
X0145020Y0151612D01*
X0145020Y0152792D02*
X0141751Y0152792D01*
X0142298Y0153972D02*
X0144946Y0153972D01*
X0144244Y0155151D02*
X0143000Y0155151D01*
X0143387Y0156331D02*
X0143857Y0156331D01*
X0143857Y0157510D02*
X0143387Y0157510D01*
X0143387Y0158690D02*
X0143857Y0158690D01*
X0143857Y0159870D02*
X0143387Y0159870D01*
X0143387Y0161049D02*
X0143857Y0161049D01*
X0143857Y0162229D02*
X0143387Y0162229D01*
X0143294Y0163409D02*
X0143950Y0163409D01*
X0144439Y0164588D02*
X0142805Y0164588D01*
X0141828Y0165768D02*
X0145416Y0165768D01*
X0151828Y0165768D02*
X0155416Y0165768D01*
X0154439Y0164588D02*
X0152805Y0164588D01*
X0153294Y0163409D02*
X0153950Y0163409D01*
X0153857Y0162229D02*
X0153387Y0162229D01*
X0153387Y0161049D02*
X0153857Y0161049D01*
X0153857Y0159870D02*
X0153387Y0159870D01*
X0153387Y0158690D02*
X0153857Y0158690D01*
X0153857Y0157510D02*
X0153387Y0157510D01*
X0153387Y0156331D02*
X0153857Y0156331D01*
X0154244Y0155151D02*
X0153000Y0155151D01*
X0152298Y0153972D02*
X0154946Y0153972D01*
X0155020Y0152792D02*
X0151751Y0152792D01*
X0151751Y0151612D02*
X0155020Y0151612D01*
X0155020Y0150433D02*
X0151751Y0150433D01*
X0151751Y0149253D02*
X0155020Y0149253D01*
X0155020Y0148074D02*
X0151751Y0148074D01*
X0152592Y0146894D02*
X0154179Y0146894D01*
X0153691Y0145714D02*
X0153081Y0145714D01*
X0153151Y0144535D02*
X0153620Y0144535D01*
X0153620Y0143355D02*
X0153151Y0143355D01*
X0153151Y0142176D02*
X0153620Y0142176D01*
X0153620Y0140996D02*
X0153151Y0140996D01*
X0153151Y0139816D02*
X0153620Y0139816D01*
X0153620Y0138637D02*
X0153151Y0138637D01*
X0152740Y0137457D02*
X0154031Y0137457D01*
X0154766Y0136277D02*
X0152006Y0136277D01*
X0150460Y0135098D02*
X0156312Y0135098D01*
X0160460Y0135098D02*
X0166312Y0135098D01*
X0164766Y0136277D02*
X0162006Y0136277D01*
X0162740Y0137457D02*
X0164031Y0137457D01*
X0163620Y0138637D02*
X0163151Y0138637D01*
X0163151Y0139816D02*
X0163620Y0139816D01*
X0163620Y0140996D02*
X0163151Y0140996D01*
X0163151Y0142176D02*
X0163620Y0142176D01*
X0163620Y0143355D02*
X0163151Y0143355D01*
X0163151Y0144535D02*
X0163620Y0144535D01*
X0163691Y0145714D02*
X0163081Y0145714D01*
X0162592Y0146894D02*
X0164179Y0146894D01*
X0165020Y0148074D02*
X0161751Y0148074D01*
X0161751Y0149253D02*
X0165020Y0149253D01*
X0165020Y0150433D02*
X0161751Y0150433D01*
X0161751Y0151612D02*
X0165020Y0151612D01*
X0165020Y0152792D02*
X0161751Y0152792D01*
X0162298Y0153972D02*
X0164946Y0153972D01*
X0164244Y0155151D02*
X0163000Y0155151D01*
X0163387Y0156331D02*
X0163857Y0156331D01*
X0163857Y0157510D02*
X0163387Y0157510D01*
X0163387Y0158690D02*
X0163857Y0158690D01*
X0163857Y0159870D02*
X0163387Y0159870D01*
X0163387Y0161049D02*
X0163857Y0161049D01*
X0163857Y0162229D02*
X0163387Y0162229D01*
X0163294Y0163409D02*
X0163950Y0163409D01*
X0164439Y0164588D02*
X0162805Y0164588D01*
X0161828Y0165768D02*
X0165416Y0165768D01*
X0171828Y0165768D02*
X0175416Y0165768D01*
X0174439Y0164588D02*
X0172805Y0164588D01*
X0173294Y0163409D02*
X0173950Y0163409D01*
X0173857Y0162229D02*
X0173387Y0162229D01*
X0173387Y0161049D02*
X0173857Y0161049D01*
X0173857Y0159870D02*
X0173387Y0159870D01*
X0173387Y0158690D02*
X0173857Y0158690D01*
X0173857Y0157510D02*
X0173387Y0157510D01*
X0173387Y0156331D02*
X0173857Y0156331D01*
X0174244Y0155151D02*
X0173000Y0155151D01*
X0172298Y0153972D02*
X0174946Y0153972D01*
X0175020Y0152792D02*
X0171751Y0152792D01*
X0171751Y0151612D02*
X0175020Y0151612D01*
X0175020Y0150433D02*
X0171751Y0150433D01*
X0171751Y0149253D02*
X0175020Y0149253D01*
X0175020Y0148074D02*
X0171751Y0148074D01*
X0172592Y0146894D02*
X0174179Y0146894D01*
X0173691Y0145714D02*
X0173081Y0145714D01*
X0173151Y0144535D02*
X0173620Y0144535D01*
X0173620Y0143355D02*
X0173151Y0143355D01*
X0173151Y0142176D02*
X0173620Y0142176D01*
X0173620Y0140996D02*
X0173151Y0140996D01*
X0173151Y0139816D02*
X0173620Y0139816D01*
X0173620Y0138637D02*
X0173151Y0138637D01*
X0172740Y0137457D02*
X0174031Y0137457D01*
X0174766Y0136277D02*
X0172006Y0136277D01*
X0170460Y0135098D02*
X0176312Y0135098D01*
X0180460Y0135098D02*
X0200431Y0135098D01*
X0200431Y0136277D02*
X0182006Y0136277D01*
X0182740Y0137457D02*
X0200493Y0137457D01*
X0201438Y0138637D02*
X0183151Y0138637D01*
X0183151Y0139816D02*
X0201438Y0139816D01*
X0201438Y0140996D02*
X0183151Y0140996D01*
X0183151Y0142176D02*
X0201438Y0142176D01*
X0201008Y0143355D02*
X0183151Y0143355D01*
X0183151Y0144535D02*
X0199829Y0144535D01*
X0198649Y0145714D02*
X0183081Y0145714D01*
X0182592Y0146894D02*
X0197470Y0146894D01*
X0196290Y0148074D02*
X0181751Y0148074D01*
X0181751Y0149253D02*
X0195658Y0149253D01*
X0195532Y0150433D02*
X0181751Y0150433D01*
X0181751Y0151612D02*
X0195532Y0151612D01*
X0195532Y0152792D02*
X0181751Y0152792D01*
X0182298Y0153972D02*
X0185759Y0153972D01*
X0185892Y0153838D02*
X0186426Y0153451D01*
X0187013Y0153151D01*
X0187641Y0152947D01*
X0188292Y0152844D01*
X0188413Y0152844D01*
X0188413Y0159425D01*
X0188831Y0159425D01*
X0188831Y0152844D01*
X0188952Y0152844D01*
X0189603Y0152947D01*
X0190231Y0153151D01*
X0190818Y0153451D01*
X0191352Y0153838D01*
X0191818Y0154305D01*
X0192206Y0154838D01*
X0192506Y0155426D01*
X0192709Y0156053D01*
X0192813Y0156705D01*
X0192813Y0159425D01*
X0188832Y0159425D01*
X0188832Y0159844D01*
X0192813Y0159844D01*
X0192813Y0162564D01*
X0192709Y0163216D01*
X0192506Y0163843D01*
X0192206Y0164431D01*
X0191818Y0164965D01*
X0191352Y0165431D01*
X0190818Y0165819D01*
X0190231Y0166118D01*
X0189603Y0166322D01*
X0188952Y0166425D01*
X0188831Y0166425D01*
X0188831Y0159844D01*
X0188413Y0159844D01*
X0188413Y0166425D01*
X0188292Y0166425D01*
X0187641Y0166322D01*
X0187013Y0166118D01*
X0186426Y0165819D01*
X0185892Y0165431D01*
X0185426Y0164965D01*
X0185038Y0164431D01*
X0184739Y0163843D01*
X0184535Y0163216D01*
X0184431Y0162564D01*
X0184431Y0159844D01*
X0188413Y0159844D01*
X0188413Y0159425D01*
X0184431Y0159425D01*
X0184431Y0156705D01*
X0184535Y0156053D01*
X0184739Y0155426D01*
X0185038Y0154838D01*
X0185426Y0154305D01*
X0185892Y0153838D01*
X0184878Y0155151D02*
X0183000Y0155151D01*
X0183387Y0156331D02*
X0184491Y0156331D01*
X0184431Y0157510D02*
X0183387Y0157510D01*
X0183387Y0158690D02*
X0184431Y0158690D01*
X0184431Y0159870D02*
X0183387Y0159870D01*
X0183387Y0161049D02*
X0184431Y0161049D01*
X0184431Y0162229D02*
X0183387Y0162229D01*
X0183294Y0163409D02*
X0184597Y0163409D01*
X0185152Y0164588D02*
X0182805Y0164588D01*
X0181828Y0165768D02*
X0186356Y0165768D01*
X0188413Y0165768D02*
X0188831Y0165768D01*
X0188831Y0164588D02*
X0188413Y0164588D01*
X0188413Y0163409D02*
X0188831Y0163409D01*
X0188831Y0162229D02*
X0188413Y0162229D01*
X0188413Y0161049D02*
X0188831Y0161049D01*
X0188831Y0159870D02*
X0188413Y0159870D01*
X0188413Y0158690D02*
X0188831Y0158690D01*
X0188831Y0157510D02*
X0188413Y0157510D01*
X0188413Y0156331D02*
X0188831Y0156331D01*
X0188831Y0155151D02*
X0188413Y0155151D01*
X0188413Y0153972D02*
X0188831Y0153972D01*
X0191485Y0153972D02*
X0194946Y0153972D01*
X0194244Y0155151D02*
X0192366Y0155151D01*
X0192753Y0156331D02*
X0193857Y0156331D01*
X0193857Y0157510D02*
X0192813Y0157510D01*
X0192813Y0158690D02*
X0193857Y0158690D01*
X0193857Y0159870D02*
X0192813Y0159870D01*
X0192813Y0161049D02*
X0193857Y0161049D01*
X0193857Y0162229D02*
X0192813Y0162229D01*
X0192647Y0163409D02*
X0193950Y0163409D01*
X0194439Y0164588D02*
X0192092Y0164588D01*
X0190888Y0165768D02*
X0195257Y0165768D01*
X0195257Y0169307D02*
X0091134Y0169307D01*
X0090475Y0168648D02*
X0093267Y0171440D01*
X0093267Y0175388D01*
X0091633Y0177022D01*
X0091633Y0182417D01*
X0091664Y0182994D01*
X0091633Y0183084D01*
X0091633Y0183178D01*
X0091412Y0183712D01*
X0091220Y0184257D01*
X0091157Y0184328D01*
X0091121Y0184415D01*
X0090712Y0184824D01*
X0086766Y0189223D01*
X0088292Y0189223D01*
X0088292Y0193204D01*
X0088711Y0193204D01*
X0088711Y0189223D01*
X0090237Y0189223D01*
X0092692Y0191678D01*
X0092692Y0193204D01*
X0088711Y0193204D01*
X0088711Y0193623D01*
X0092692Y0193623D01*
X0092692Y0195150D01*
X0090237Y0197604D01*
X0088711Y0197604D01*
X0088711Y0193623D01*
X0088292Y0193623D01*
X0088292Y0193204D01*
X0084311Y0193204D01*
X0084311Y0191961D01*
X0084308Y0191963D01*
X0084272Y0192051D01*
X0083863Y0192460D01*
X0083478Y0192890D01*
X0083392Y0192931D01*
X0083326Y0192997D01*
X0082791Y0193219D01*
X0082270Y0193469D01*
X0082176Y0193474D01*
X0082089Y0193510D01*
X0081511Y0193510D01*
X0080934Y0193541D01*
X0080844Y0193510D01*
X0077062Y0193510D01*
X0075662Y0194910D01*
X0071714Y0194910D01*
X0068922Y0192118D01*
X0068922Y0188171D01*
X0071714Y0185379D01*
X0075662Y0185379D01*
X0077062Y0186779D01*
X0079917Y0186779D01*
X0084902Y0181221D01*
X0084902Y0176554D01*
X0083736Y0175388D01*
X0083736Y0171440D01*
X0086528Y0168648D01*
X0090475Y0168648D01*
X0092313Y0170486D02*
X0195257Y0170486D01*
X0195257Y0171666D02*
X0093267Y0171666D01*
X0093267Y0172845D02*
X0195257Y0172845D01*
X0195257Y0174025D02*
X0093267Y0174025D01*
X0093267Y0175205D02*
X0195257Y0175205D01*
X0195257Y0176384D02*
X0092270Y0176384D01*
X0091633Y0177564D02*
X0195257Y0177564D01*
X0195257Y0178744D02*
X0091633Y0178744D01*
X0091633Y0179923D02*
X0195257Y0179923D01*
X0195257Y0181103D02*
X0091633Y0181103D01*
X0091633Y0182282D02*
X0117643Y0182282D01*
X0119602Y0182282D02*
X0127643Y0182282D01*
X0129602Y0182282D02*
X0137643Y0182282D01*
X0139602Y0182282D02*
X0147643Y0182282D01*
X0149602Y0182282D02*
X0157643Y0182282D01*
X0159602Y0182282D02*
X0167643Y0182282D01*
X0169602Y0182282D02*
X0177643Y0182282D01*
X0179602Y0182282D02*
X0187643Y0182282D01*
X0189602Y0182282D02*
X0195257Y0182282D01*
X0195257Y0183462D02*
X0191789Y0183462D01*
X0192789Y0184642D02*
X0194455Y0184642D01*
X0193967Y0185821D02*
X0193277Y0185821D01*
X0193387Y0187001D02*
X0193857Y0187001D01*
X0193857Y0188180D02*
X0193387Y0188180D01*
X0193387Y0189360D02*
X0193857Y0189360D01*
X0193857Y0190540D02*
X0193387Y0190540D01*
X0193387Y0191719D02*
X0193857Y0191719D01*
X0193857Y0192899D02*
X0193387Y0192899D01*
X0188381Y0197617D02*
X0186027Y0197617D01*
X0186317Y0196438D02*
X0184848Y0196438D01*
X0184906Y0195258D02*
X0183668Y0195258D01*
X0184228Y0194079D02*
X0183016Y0194079D01*
X0183387Y0192899D02*
X0183857Y0192899D01*
X0183857Y0191719D02*
X0183387Y0191719D01*
X0183387Y0190540D02*
X0183857Y0190540D01*
X0183857Y0189360D02*
X0183387Y0189360D01*
X0183387Y0188180D02*
X0183857Y0188180D01*
X0183857Y0187001D02*
X0183387Y0187001D01*
X0183277Y0185821D02*
X0183967Y0185821D01*
X0184455Y0184642D02*
X0182789Y0184642D01*
X0181789Y0183462D02*
X0185455Y0183462D01*
X0175455Y0183462D02*
X0171789Y0183462D01*
X0172789Y0184642D02*
X0174455Y0184642D01*
X0173967Y0185821D02*
X0173277Y0185821D01*
X0173387Y0187001D02*
X0173857Y0187001D01*
X0173857Y0188180D02*
X0173387Y0188180D01*
X0173387Y0189360D02*
X0173857Y0189360D01*
X0173857Y0190540D02*
X0173387Y0190540D01*
X0173387Y0191719D02*
X0173857Y0191719D01*
X0173857Y0192899D02*
X0173387Y0192899D01*
X0173016Y0194079D02*
X0174228Y0194079D01*
X0174906Y0195258D02*
X0172338Y0195258D01*
X0171224Y0196438D02*
X0176317Y0196438D01*
X0178206Y0197617D02*
X0170044Y0197617D01*
X0168865Y0198797D02*
X0179385Y0198797D01*
X0180565Y0199977D02*
X0167805Y0199977D01*
X0173054Y0201156D02*
X0176946Y0201156D01*
X0175767Y0202336D02*
X0174233Y0202336D01*
X0174792Y0203515D02*
X0175208Y0203515D01*
X0187490Y0199977D02*
X0190740Y0199977D01*
X0189560Y0198797D02*
X0187126Y0198797D01*
X0203387Y0187001D02*
X0228054Y0187001D01*
X0228131Y0185821D02*
X0203277Y0185821D01*
X0202789Y0184642D02*
X0228560Y0184642D01*
X0229497Y0183462D02*
X0201987Y0183462D01*
X0232035Y0183462D02*
X0232454Y0183462D01*
X0232454Y0184642D02*
X0232035Y0184642D01*
X0232035Y0185821D02*
X0232454Y0185821D01*
X0232454Y0187001D02*
X0232035Y0187001D01*
X0232035Y0188180D02*
X0232454Y0188180D01*
X0232454Y0190540D02*
X0232035Y0190540D01*
X0232035Y0191719D02*
X0232454Y0191719D01*
X0232454Y0192899D02*
X0232035Y0192899D01*
X0232035Y0194079D02*
X0232454Y0194079D01*
X0232454Y0195258D02*
X0232035Y0195258D01*
X0234670Y0195258D02*
X0238839Y0195258D01*
X0238013Y0194079D02*
X0235798Y0194079D01*
X0236307Y0192899D02*
X0237524Y0192899D01*
X0237479Y0191719D02*
X0236435Y0191719D01*
X0236435Y0190540D02*
X0237479Y0190540D01*
X0247111Y0198797D02*
X0249348Y0198797D01*
X0250189Y0199977D02*
X0248011Y0199977D01*
X0301900Y0210593D02*
X0319662Y0210593D01*
X0321286Y0209413D02*
X0303210Y0209413D01*
X0303670Y0211773D02*
X0317801Y0211773D01*
X0315486Y0212952D02*
X0304558Y0212952D01*
X0305047Y0214132D02*
X0313171Y0214132D01*
X0310045Y0215312D02*
X0305134Y0215312D01*
X0305090Y0216491D02*
X0306415Y0216491D01*
X0310584Y0208234D02*
X0322909Y0208234D01*
X0324477Y0207054D02*
X0311789Y0207054D01*
X0323599Y0196438D02*
X0333515Y0196438D01*
X0334116Y0195258D02*
X0325566Y0195258D01*
X0326475Y0194079D02*
X0334718Y0194079D01*
X0335319Y0192899D02*
X0326964Y0192899D01*
X0327009Y0191719D02*
X0335920Y0191719D01*
X0336521Y0190540D02*
X0327009Y0190540D01*
X0327009Y0189360D02*
X0336977Y0189360D01*
X0337360Y0188180D02*
X0327009Y0188180D01*
X0327009Y0187001D02*
X0337743Y0187001D01*
X0338127Y0185821D02*
X0327009Y0185821D01*
X0326574Y0184642D02*
X0338510Y0184642D01*
X0338893Y0183462D02*
X0325804Y0183462D01*
X0310314Y0182282D02*
X0304174Y0182282D01*
X0305804Y0183462D02*
X0308684Y0183462D01*
X0307914Y0184642D02*
X0306574Y0184642D01*
X0307009Y0185821D02*
X0307479Y0185821D01*
X0307479Y0187001D02*
X0307009Y0187001D01*
X0307009Y0188180D02*
X0307479Y0188180D01*
X0307479Y0189360D02*
X0307009Y0189360D01*
X0307009Y0190540D02*
X0307479Y0190540D01*
X0307479Y0191719D02*
X0307009Y0191719D01*
X0306964Y0192899D02*
X0307524Y0192899D01*
X0308013Y0194079D02*
X0306475Y0194079D01*
X0305566Y0195258D02*
X0308918Y0195258D01*
X0309723Y0132739D02*
X0223112Y0132739D01*
X0224292Y0131559D02*
X0308543Y0131559D01*
X0221930Y0124481D02*
X0211291Y0124481D01*
X0210111Y0125661D02*
X0220671Y0125661D01*
X0219491Y0126841D02*
X0208931Y0126841D01*
X0208562Y0128020D02*
X0218312Y0128020D01*
X0217132Y0129200D02*
X0208562Y0129200D01*
X0208562Y0130379D02*
X0215953Y0130379D01*
X0214773Y0131559D02*
X0208562Y0131559D01*
X0175633Y0118583D02*
X0171139Y0118583D01*
X0171085Y0118637D02*
X0169334Y0119362D01*
X0167438Y0119362D01*
X0165686Y0118637D01*
X0164346Y0117296D01*
X0163620Y0115545D01*
X0163620Y0108449D01*
X0164346Y0106697D01*
X0165611Y0105432D01*
X0165611Y0093724D01*
X0163814Y0091928D01*
X0163814Y0087814D01*
X0166723Y0084906D01*
X0170836Y0084906D01*
X0173745Y0087814D01*
X0173745Y0091928D01*
X0172342Y0093331D01*
X0172342Y0106614D01*
X0172426Y0106697D01*
X0173151Y0108449D01*
X0173151Y0115545D01*
X0172426Y0117296D01*
X0171085Y0118637D01*
X0172318Y0117404D02*
X0174453Y0117404D01*
X0173902Y0116224D02*
X0172870Y0116224D01*
X0173151Y0115044D02*
X0173620Y0115044D01*
X0173620Y0113865D02*
X0173151Y0113865D01*
X0173151Y0112685D02*
X0173620Y0112685D01*
X0173620Y0111506D02*
X0173151Y0111506D01*
X0173151Y0110326D02*
X0173620Y0110326D01*
X0173620Y0109146D02*
X0173151Y0109146D01*
X0172951Y0107967D02*
X0173820Y0107967D01*
X0174309Y0106787D02*
X0172463Y0106787D01*
X0172342Y0105607D02*
X0175436Y0105607D01*
X0175454Y0104428D02*
X0172342Y0104428D01*
X0172342Y0103248D02*
X0175454Y0103248D01*
X0175454Y0102069D02*
X0172342Y0102069D01*
X0172342Y0100889D02*
X0175454Y0100889D01*
X0175454Y0099709D02*
X0172342Y0099709D01*
X0172342Y0098530D02*
X0175454Y0098530D01*
X0175454Y0097350D02*
X0172342Y0097350D01*
X0172342Y0096171D02*
X0175454Y0096171D01*
X0175454Y0094991D02*
X0172342Y0094991D01*
X0172342Y0093811D02*
X0175454Y0093811D01*
X0174549Y0092632D02*
X0173041Y0092632D01*
X0173745Y0091452D02*
X0174060Y0091452D01*
X0173814Y0090273D02*
X0173745Y0090273D01*
X0173745Y0089093D02*
X0173814Y0089093D01*
X0173745Y0087913D02*
X0174216Y0087913D01*
X0174895Y0086734D02*
X0172664Y0086734D01*
X0171485Y0085554D02*
X0176226Y0085554D01*
X0175894Y0083195D02*
X0171665Y0083195D01*
X0172844Y0082015D02*
X0174715Y0082015D01*
X0174389Y0080836D02*
X0173170Y0080836D01*
X0173170Y0078476D02*
X0174389Y0078476D01*
X0175144Y0077297D02*
X0172415Y0077297D01*
X0171235Y0076117D02*
X0176324Y0076117D01*
X0182415Y0077297D02*
X0206643Y0077297D01*
X0169089Y0077297D02*
X0168470Y0077297D01*
X0168470Y0078476D02*
X0169089Y0078476D01*
X0168470Y0080180D02*
X0164389Y0080180D01*
X0164389Y0081689D01*
X0166961Y0084261D01*
X0168470Y0084261D01*
X0168470Y0080180D01*
X0168470Y0080836D02*
X0169089Y0080836D01*
X0169089Y0082015D02*
X0168470Y0082015D01*
X0168470Y0083195D02*
X0169089Y0083195D01*
X0165894Y0083195D02*
X0161665Y0083195D01*
X0162844Y0082015D02*
X0164715Y0082015D01*
X0164389Y0080836D02*
X0163170Y0080836D01*
X0163170Y0078476D02*
X0164389Y0078476D01*
X0165144Y0077297D02*
X0162415Y0077297D01*
X0161235Y0076117D02*
X0166324Y0076117D01*
X0168470Y0076117D02*
X0169089Y0076117D01*
X0159089Y0076117D02*
X0158470Y0076117D01*
X0158470Y0077297D02*
X0159089Y0077297D01*
X0159089Y0078476D02*
X0158470Y0078476D01*
X0158470Y0080180D02*
X0154389Y0080180D01*
X0154389Y0081689D01*
X0156961Y0084261D01*
X0158470Y0084261D01*
X0158470Y0080180D01*
X0158470Y0080836D02*
X0159089Y0080836D01*
X0159089Y0082015D02*
X0158470Y0082015D01*
X0158470Y0083195D02*
X0159089Y0083195D01*
X0160836Y0084906D02*
X0156723Y0084906D01*
X0153814Y0087814D01*
X0153814Y0091928D01*
X0155769Y0093882D01*
X0155769Y0105323D01*
X0155686Y0105357D01*
X0154346Y0106697D01*
X0153620Y0108449D01*
X0153620Y0115545D01*
X0154346Y0117296D01*
X0155686Y0118637D01*
X0157438Y0119362D01*
X0159334Y0119362D01*
X0161085Y0118637D01*
X0162426Y0117296D01*
X0163151Y0115545D01*
X0163151Y0108449D01*
X0162499Y0106875D01*
X0162499Y0093173D01*
X0163745Y0091928D01*
X0163745Y0087814D01*
X0160836Y0084906D01*
X0161485Y0085554D02*
X0166074Y0085554D01*
X0164895Y0086734D02*
X0162664Y0086734D01*
X0163745Y0087913D02*
X0163814Y0087913D01*
X0163814Y0089093D02*
X0163745Y0089093D01*
X0163745Y0090273D02*
X0163814Y0090273D01*
X0163814Y0091452D02*
X0163745Y0091452D01*
X0163041Y0092632D02*
X0164518Y0092632D01*
X0165611Y0093811D02*
X0162499Y0093811D01*
X0162499Y0094991D02*
X0165611Y0094991D01*
X0165611Y0096171D02*
X0162499Y0096171D01*
X0162499Y0097350D02*
X0165611Y0097350D01*
X0165611Y0098530D02*
X0162499Y0098530D01*
X0162499Y0099709D02*
X0165611Y0099709D01*
X0165611Y0100889D02*
X0162499Y0100889D01*
X0162499Y0102069D02*
X0165611Y0102069D01*
X0165611Y0103248D02*
X0162499Y0103248D01*
X0162499Y0104428D02*
X0165611Y0104428D01*
X0165436Y0105607D02*
X0162499Y0105607D01*
X0162499Y0106787D02*
X0164309Y0106787D01*
X0163820Y0107967D02*
X0162951Y0107967D01*
X0163151Y0109146D02*
X0163620Y0109146D01*
X0163620Y0110326D02*
X0163151Y0110326D01*
X0163151Y0111506D02*
X0163620Y0111506D01*
X0163620Y0112685D02*
X0163151Y0112685D01*
X0163151Y0113865D02*
X0163620Y0113865D01*
X0163620Y0115044D02*
X0163151Y0115044D01*
X0162870Y0116224D02*
X0163902Y0116224D01*
X0164453Y0117404D02*
X0162318Y0117404D01*
X0161139Y0118583D02*
X0165633Y0118583D01*
X0155633Y0118583D02*
X0151139Y0118583D01*
X0151085Y0118637D02*
X0149334Y0119362D01*
X0147438Y0119362D01*
X0145686Y0118637D01*
X0144346Y0117296D01*
X0143620Y0115545D01*
X0143620Y0108449D01*
X0144346Y0106697D01*
X0145686Y0105357D01*
X0145926Y0105258D01*
X0145926Y0094039D01*
X0143814Y0091928D01*
X0143814Y0087814D01*
X0146723Y0084906D01*
X0150836Y0084906D01*
X0153745Y0087814D01*
X0153745Y0091928D01*
X0152657Y0093016D01*
X0152657Y0107255D01*
X0153151Y0108449D01*
X0153151Y0115545D01*
X0152426Y0117296D01*
X0151085Y0118637D01*
X0152318Y0117404D02*
X0154453Y0117404D01*
X0153902Y0116224D02*
X0152870Y0116224D01*
X0153151Y0115044D02*
X0153620Y0115044D01*
X0153620Y0113865D02*
X0153151Y0113865D01*
X0153151Y0112685D02*
X0153620Y0112685D01*
X0153620Y0111506D02*
X0153151Y0111506D01*
X0153151Y0110326D02*
X0153620Y0110326D01*
X0153620Y0109146D02*
X0153151Y0109146D01*
X0152951Y0107967D02*
X0153820Y0107967D01*
X0154309Y0106787D02*
X0152657Y0106787D01*
X0152657Y0105607D02*
X0155436Y0105607D01*
X0155769Y0104428D02*
X0152657Y0104428D01*
X0152657Y0103248D02*
X0155769Y0103248D01*
X0155769Y0102069D02*
X0152657Y0102069D01*
X0152657Y0100889D02*
X0155769Y0100889D01*
X0155769Y0099709D02*
X0152657Y0099709D01*
X0152657Y0098530D02*
X0155769Y0098530D01*
X0155769Y0097350D02*
X0152657Y0097350D01*
X0152657Y0096171D02*
X0155769Y0096171D01*
X0155769Y0094991D02*
X0152657Y0094991D01*
X0152657Y0093811D02*
X0155698Y0093811D01*
X0154518Y0092632D02*
X0153041Y0092632D01*
X0153745Y0091452D02*
X0153814Y0091452D01*
X0153814Y0090273D02*
X0153745Y0090273D01*
X0153745Y0089093D02*
X0153814Y0089093D01*
X0153814Y0087913D02*
X0153745Y0087913D01*
X0152664Y0086734D02*
X0154895Y0086734D01*
X0156074Y0085554D02*
X0151485Y0085554D01*
X0151665Y0083195D02*
X0155894Y0083195D01*
X0154715Y0082015D02*
X0152844Y0082015D01*
X0153170Y0080836D02*
X0154389Y0080836D01*
X0154389Y0078476D02*
X0153170Y0078476D01*
X0152415Y0077297D02*
X0155144Y0077297D01*
X0156324Y0076117D02*
X0151235Y0076117D01*
X0149089Y0076117D02*
X0148470Y0076117D01*
X0148470Y0077297D02*
X0149089Y0077297D01*
X0149089Y0078476D02*
X0148470Y0078476D01*
X0148470Y0080180D02*
X0144389Y0080180D01*
X0144389Y0081689D01*
X0146961Y0084261D01*
X0148470Y0084261D01*
X0148470Y0080180D01*
X0148470Y0080836D02*
X0149089Y0080836D01*
X0149089Y0082015D02*
X0148470Y0082015D01*
X0148470Y0083195D02*
X0149089Y0083195D01*
X0145894Y0083195D02*
X0141665Y0083195D01*
X0142844Y0082015D02*
X0144715Y0082015D01*
X0144389Y0080836D02*
X0143170Y0080836D01*
X0143170Y0078476D02*
X0144389Y0078476D01*
X0145144Y0077297D02*
X0142415Y0077297D01*
X0141235Y0076117D02*
X0146324Y0076117D01*
X0139089Y0076117D02*
X0138470Y0076117D01*
X0138470Y0077297D02*
X0139089Y0077297D01*
X0139089Y0078476D02*
X0138470Y0078476D01*
X0138470Y0080180D02*
X0134389Y0080180D01*
X0134389Y0081689D01*
X0136961Y0084261D01*
X0138470Y0084261D01*
X0138470Y0080180D01*
X0138470Y0080836D02*
X0139089Y0080836D01*
X0139089Y0082015D02*
X0138470Y0082015D01*
X0138470Y0083195D02*
X0139089Y0083195D01*
X0140836Y0084906D02*
X0136723Y0084906D01*
X0133814Y0087814D01*
X0133814Y0091928D01*
X0136083Y0094197D01*
X0136083Y0105193D01*
X0135686Y0105357D01*
X0134346Y0106697D01*
X0133620Y0108449D01*
X0133620Y0115545D01*
X0134346Y0117296D01*
X0135686Y0118637D01*
X0137438Y0119362D01*
X0139334Y0119362D01*
X0141085Y0118637D01*
X0142426Y0117296D01*
X0143151Y0115545D01*
X0143151Y0108449D01*
X0142814Y0107635D01*
X0142814Y0092858D01*
X0143745Y0091928D01*
X0143745Y0087814D01*
X0140836Y0084906D01*
X0141485Y0085554D02*
X0146074Y0085554D01*
X0144895Y0086734D02*
X0142664Y0086734D01*
X0143745Y0087913D02*
X0143814Y0087913D01*
X0143814Y0089093D02*
X0143745Y0089093D01*
X0143745Y0090273D02*
X0143814Y0090273D01*
X0143814Y0091452D02*
X0143745Y0091452D01*
X0143041Y0092632D02*
X0144518Y0092632D01*
X0145698Y0093811D02*
X0142814Y0093811D01*
X0142814Y0094991D02*
X0145926Y0094991D01*
X0145926Y0096171D02*
X0142814Y0096171D01*
X0142814Y0097350D02*
X0145926Y0097350D01*
X0145926Y0098530D02*
X0142814Y0098530D01*
X0142814Y0099709D02*
X0145926Y0099709D01*
X0145926Y0100889D02*
X0142814Y0100889D01*
X0142814Y0102069D02*
X0145926Y0102069D01*
X0145926Y0103248D02*
X0142814Y0103248D01*
X0142814Y0104428D02*
X0145926Y0104428D01*
X0145436Y0105607D02*
X0142814Y0105607D01*
X0142814Y0106787D02*
X0144309Y0106787D01*
X0143820Y0107967D02*
X0142951Y0107967D01*
X0143151Y0109146D02*
X0143620Y0109146D01*
X0143620Y0110326D02*
X0143151Y0110326D01*
X0143151Y0111506D02*
X0143620Y0111506D01*
X0143620Y0112685D02*
X0143151Y0112685D01*
X0143151Y0113865D02*
X0143620Y0113865D01*
X0143620Y0115044D02*
X0143151Y0115044D01*
X0142870Y0116224D02*
X0143902Y0116224D01*
X0144453Y0117404D02*
X0142318Y0117404D01*
X0141139Y0118583D02*
X0145633Y0118583D01*
X0135633Y0118583D02*
X0131139Y0118583D01*
X0131085Y0118637D02*
X0129334Y0119362D01*
X0127438Y0119362D01*
X0125686Y0118637D01*
X0124346Y0117296D01*
X0123620Y0115545D01*
X0123620Y0108449D01*
X0124346Y0106697D01*
X0125686Y0105357D01*
X0126241Y0105127D01*
X0126241Y0094354D01*
X0123814Y0091928D01*
X0123814Y0087814D01*
X0126723Y0084906D01*
X0130836Y0084906D01*
X0133745Y0087814D01*
X0133745Y0091928D01*
X0132972Y0092701D01*
X0132972Y0108016D01*
X0133151Y0108449D01*
X0133151Y0115545D01*
X0132426Y0117296D01*
X0131085Y0118637D01*
X0132318Y0117404D02*
X0134453Y0117404D01*
X0133902Y0116224D02*
X0132870Y0116224D01*
X0133151Y0115044D02*
X0133620Y0115044D01*
X0133620Y0113865D02*
X0133151Y0113865D01*
X0133151Y0112685D02*
X0133620Y0112685D01*
X0133620Y0111506D02*
X0133151Y0111506D01*
X0133151Y0110326D02*
X0133620Y0110326D01*
X0133620Y0109146D02*
X0133151Y0109146D01*
X0132972Y0107967D02*
X0133820Y0107967D01*
X0134309Y0106787D02*
X0132972Y0106787D01*
X0132972Y0105607D02*
X0135436Y0105607D01*
X0136083Y0104428D02*
X0132972Y0104428D01*
X0132972Y0103248D02*
X0136083Y0103248D01*
X0136083Y0102069D02*
X0132972Y0102069D01*
X0132972Y0100889D02*
X0136083Y0100889D01*
X0136083Y0099709D02*
X0132972Y0099709D01*
X0132972Y0098530D02*
X0136083Y0098530D01*
X0136083Y0097350D02*
X0132972Y0097350D01*
X0132972Y0096171D02*
X0136083Y0096171D01*
X0136083Y0094991D02*
X0132972Y0094991D01*
X0132972Y0093811D02*
X0135698Y0093811D01*
X0134518Y0092632D02*
X0133041Y0092632D01*
X0133745Y0091452D02*
X0133814Y0091452D01*
X0133814Y0090273D02*
X0133745Y0090273D01*
X0133745Y0089093D02*
X0133814Y0089093D01*
X0133814Y0087913D02*
X0133745Y0087913D01*
X0132664Y0086734D02*
X0134895Y0086734D01*
X0136074Y0085554D02*
X0131485Y0085554D01*
X0131665Y0083195D02*
X0135894Y0083195D01*
X0134715Y0082015D02*
X0132844Y0082015D01*
X0133170Y0080836D02*
X0134389Y0080836D01*
X0134389Y0078476D02*
X0133170Y0078476D01*
X0132415Y0077297D02*
X0135144Y0077297D01*
X0136324Y0076117D02*
X0131235Y0076117D01*
X0129089Y0076117D02*
X0128470Y0076117D01*
X0128470Y0077297D02*
X0129089Y0077297D01*
X0129089Y0078476D02*
X0128470Y0078476D01*
X0128470Y0080180D02*
X0124389Y0080180D01*
X0124389Y0081689D01*
X0126961Y0084261D01*
X0128470Y0084261D01*
X0128470Y0080180D01*
X0128470Y0080836D02*
X0129089Y0080836D01*
X0129089Y0082015D02*
X0128470Y0082015D01*
X0128470Y0083195D02*
X0129089Y0083195D01*
X0125894Y0083195D02*
X0121665Y0083195D01*
X0122844Y0082015D02*
X0124715Y0082015D01*
X0124389Y0080836D02*
X0123170Y0080836D01*
X0123170Y0078476D02*
X0124389Y0078476D01*
X0125144Y0077297D02*
X0122415Y0077297D01*
X0121235Y0076117D02*
X0126324Y0076117D01*
X0119089Y0076117D02*
X0118470Y0076117D01*
X0118470Y0077297D02*
X0119089Y0077297D01*
X0119089Y0078476D02*
X0118470Y0078476D01*
X0118470Y0080180D02*
X0114389Y0080180D01*
X0114389Y0081689D01*
X0116961Y0084261D01*
X0118470Y0084261D01*
X0118470Y0080180D01*
X0118470Y0080836D02*
X0119089Y0080836D01*
X0119089Y0082015D02*
X0118470Y0082015D01*
X0118470Y0083195D02*
X0119089Y0083195D01*
X0120836Y0084906D02*
X0116723Y0084906D01*
X0113814Y0087814D01*
X0113814Y0091928D01*
X0114430Y0092543D01*
X0114430Y0106614D01*
X0114346Y0106697D01*
X0113620Y0108449D01*
X0113620Y0115545D01*
X0114346Y0117296D01*
X0115686Y0118637D01*
X0117438Y0119362D01*
X0119334Y0119362D01*
X0121085Y0118637D01*
X0122426Y0117296D01*
X0123151Y0115545D01*
X0123151Y0108449D01*
X0122426Y0106697D01*
X0121161Y0105432D01*
X0121161Y0094512D01*
X0123745Y0091928D01*
X0123745Y0087814D01*
X0120836Y0084906D01*
X0121485Y0085554D02*
X0126074Y0085554D01*
X0124895Y0086734D02*
X0122664Y0086734D01*
X0123745Y0087913D02*
X0123814Y0087913D01*
X0123814Y0089093D02*
X0123745Y0089093D01*
X0123745Y0090273D02*
X0123814Y0090273D01*
X0123814Y0091452D02*
X0123745Y0091452D01*
X0123041Y0092632D02*
X0124518Y0092632D01*
X0125698Y0093811D02*
X0121861Y0093811D01*
X0121161Y0094991D02*
X0126241Y0094991D01*
X0126241Y0096171D02*
X0121161Y0096171D01*
X0121161Y0097350D02*
X0126241Y0097350D01*
X0126241Y0098530D02*
X0121161Y0098530D01*
X0121161Y0099709D02*
X0126241Y0099709D01*
X0126241Y0100889D02*
X0121161Y0100889D01*
X0121161Y0102069D02*
X0126241Y0102069D01*
X0126241Y0103248D02*
X0121161Y0103248D01*
X0121161Y0104428D02*
X0126241Y0104428D01*
X0125436Y0105607D02*
X0121336Y0105607D01*
X0122463Y0106787D02*
X0124309Y0106787D01*
X0123820Y0107967D02*
X0122951Y0107967D01*
X0123151Y0109146D02*
X0123620Y0109146D01*
X0123620Y0110326D02*
X0123151Y0110326D01*
X0123151Y0111506D02*
X0123620Y0111506D01*
X0123620Y0112685D02*
X0123151Y0112685D01*
X0123151Y0113865D02*
X0123620Y0113865D01*
X0123620Y0115044D02*
X0123151Y0115044D01*
X0122870Y0116224D02*
X0123902Y0116224D01*
X0124453Y0117404D02*
X0122318Y0117404D01*
X0121139Y0118583D02*
X0125633Y0118583D01*
X0115633Y0118583D02*
X0111139Y0118583D01*
X0111085Y0118637D02*
X0109334Y0119362D01*
X0107438Y0119362D01*
X0105686Y0118637D01*
X0104346Y0117296D01*
X0103620Y0115545D01*
X0103620Y0108449D01*
X0104346Y0106697D01*
X0104587Y0106456D01*
X0104587Y0092701D01*
X0103814Y0091928D01*
X0103814Y0087814D01*
X0106723Y0084906D01*
X0110836Y0084906D01*
X0113745Y0087814D01*
X0113745Y0091928D01*
X0111318Y0094354D01*
X0111318Y0105590D01*
X0112426Y0106697D01*
X0113151Y0108449D01*
X0113151Y0115545D01*
X0112426Y0117296D01*
X0111085Y0118637D01*
X0112318Y0117404D02*
X0114453Y0117404D01*
X0113902Y0116224D02*
X0112870Y0116224D01*
X0113151Y0115044D02*
X0113620Y0115044D01*
X0113620Y0113865D02*
X0113151Y0113865D01*
X0113151Y0112685D02*
X0113620Y0112685D01*
X0113620Y0111506D02*
X0113151Y0111506D01*
X0113151Y0110326D02*
X0113620Y0110326D01*
X0113620Y0109146D02*
X0113151Y0109146D01*
X0112951Y0107967D02*
X0113820Y0107967D01*
X0114309Y0106787D02*
X0112463Y0106787D01*
X0111336Y0105607D02*
X0114430Y0105607D01*
X0114430Y0104428D02*
X0111318Y0104428D01*
X0111318Y0103248D02*
X0114430Y0103248D01*
X0114430Y0102069D02*
X0111318Y0102069D01*
X0111318Y0100889D02*
X0114430Y0100889D01*
X0114430Y0099709D02*
X0111318Y0099709D01*
X0111318Y0098530D02*
X0114430Y0098530D01*
X0114430Y0097350D02*
X0111318Y0097350D01*
X0111318Y0096171D02*
X0114430Y0096171D01*
X0114430Y0094991D02*
X0111318Y0094991D01*
X0111861Y0093811D02*
X0114430Y0093811D01*
X0114430Y0092632D02*
X0113041Y0092632D01*
X0113745Y0091452D02*
X0113814Y0091452D01*
X0113814Y0090273D02*
X0113745Y0090273D01*
X0113745Y0089093D02*
X0113814Y0089093D01*
X0113814Y0087913D02*
X0113745Y0087913D01*
X0112664Y0086734D02*
X0114895Y0086734D01*
X0116074Y0085554D02*
X0111485Y0085554D01*
X0111665Y0083195D02*
X0115894Y0083195D01*
X0114715Y0082015D02*
X0112844Y0082015D01*
X0113170Y0080836D02*
X0114389Y0080836D01*
X0114389Y0078476D02*
X0113170Y0078476D01*
X0112415Y0077297D02*
X0115144Y0077297D01*
X0116324Y0076117D02*
X0111235Y0076117D01*
X0109089Y0076117D02*
X0108470Y0076117D01*
X0108470Y0077297D02*
X0109089Y0077297D01*
X0109089Y0078476D02*
X0108470Y0078476D01*
X0108470Y0080836D02*
X0109089Y0080836D01*
X0109089Y0082015D02*
X0108470Y0082015D01*
X0108470Y0083195D02*
X0109089Y0083195D01*
X0106074Y0085554D02*
X0089841Y0085554D01*
X0089841Y0086734D02*
X0104895Y0086734D01*
X0103814Y0087913D02*
X0089841Y0087913D01*
X0089841Y0089093D02*
X0103814Y0089093D01*
X0103814Y0090273D02*
X0089841Y0090273D01*
X0089841Y0091452D02*
X0103814Y0091452D01*
X0104518Y0092632D02*
X0089841Y0092632D01*
X0089841Y0093811D02*
X0104587Y0093811D01*
X0104587Y0094991D02*
X0089841Y0094991D01*
X0089841Y0096171D02*
X0104587Y0096171D01*
X0104587Y0097350D02*
X0089841Y0097350D01*
X0089841Y0098530D02*
X0104587Y0098530D01*
X0104587Y0099709D02*
X0089841Y0099709D01*
X0089841Y0100889D02*
X0104587Y0100889D01*
X0104587Y0102069D02*
X0089841Y0102069D01*
X0089841Y0103248D02*
X0104587Y0103248D01*
X0104587Y0104428D02*
X0089841Y0104428D01*
X0089841Y0105607D02*
X0104587Y0105607D01*
X0104309Y0106787D02*
X0089841Y0106787D01*
X0089841Y0107967D02*
X0103820Y0107967D01*
X0103620Y0109146D02*
X0089841Y0109146D01*
X0089841Y0110326D02*
X0103620Y0110326D01*
X0103620Y0111506D02*
X0089841Y0111506D01*
X0089841Y0112685D02*
X0103620Y0112685D01*
X0103620Y0113865D02*
X0089841Y0113865D01*
X0089841Y0115044D02*
X0103620Y0115044D01*
X0103902Y0116224D02*
X0089841Y0116224D01*
X0089841Y0117404D02*
X0104453Y0117404D01*
X0105633Y0118583D02*
X0089841Y0118583D01*
X0085869Y0169307D02*
X0082363Y0169307D01*
X0081117Y0170486D02*
X0084690Y0170486D01*
X0083736Y0171666D02*
X0079638Y0171666D01*
X0078159Y0172845D02*
X0083736Y0172845D01*
X0083736Y0174025D02*
X0076379Y0174025D01*
X0076667Y0176384D02*
X0084733Y0176384D01*
X0084902Y0177564D02*
X0077846Y0177564D01*
X0078453Y0178744D02*
X0084902Y0178744D01*
X0084902Y0179923D02*
X0078453Y0179923D01*
X0078453Y0181103D02*
X0084902Y0181103D01*
X0083950Y0182282D02*
X0078289Y0182282D01*
X0077109Y0183462D02*
X0082892Y0183462D01*
X0081834Y0184642D02*
X0075930Y0184642D01*
X0076104Y0185821D02*
X0080776Y0185821D01*
X0087701Y0188180D02*
X0104431Y0188180D01*
X0104431Y0187001D02*
X0088759Y0187001D01*
X0089817Y0185821D02*
X0104610Y0185821D01*
X0104535Y0186053D02*
X0104739Y0185426D01*
X0105038Y0184838D01*
X0105426Y0184305D01*
X0105892Y0183838D01*
X0106426Y0183451D01*
X0107013Y0183151D01*
X0107641Y0182947D01*
X0108292Y0182844D01*
X0108413Y0182844D01*
X0108413Y0189425D01*
X0108831Y0189425D01*
X0108831Y0182844D01*
X0108952Y0182844D01*
X0109603Y0182947D01*
X0110231Y0183151D01*
X0110818Y0183451D01*
X0111352Y0183838D01*
X0111818Y0184305D01*
X0112206Y0184838D01*
X0112506Y0185426D01*
X0112709Y0186053D01*
X0112813Y0186705D01*
X0112813Y0189425D01*
X0108832Y0189425D01*
X0108832Y0189844D01*
X0112813Y0189844D01*
X0112813Y0192564D01*
X0112709Y0193216D01*
X0112506Y0193843D01*
X0112206Y0194431D01*
X0111818Y0194965D01*
X0111352Y0195431D01*
X0110818Y0195819D01*
X0110231Y0196118D01*
X0109603Y0196322D01*
X0108952Y0196425D01*
X0108831Y0196425D01*
X0108831Y0189844D01*
X0108413Y0189844D01*
X0108413Y0196425D01*
X0108292Y0196425D01*
X0107641Y0196322D01*
X0107013Y0196118D01*
X0106426Y0195819D01*
X0105892Y0195431D01*
X0105426Y0194965D01*
X0105038Y0194431D01*
X0104739Y0193843D01*
X0104535Y0193216D01*
X0104431Y0192564D01*
X0104431Y0189844D01*
X0108413Y0189844D01*
X0108413Y0189425D01*
X0104431Y0189425D01*
X0104431Y0186705D01*
X0104535Y0186053D01*
X0105181Y0184642D02*
X0090894Y0184642D01*
X0091515Y0183462D02*
X0106410Y0183462D01*
X0108413Y0183462D02*
X0108831Y0183462D01*
X0108831Y0184642D02*
X0108413Y0184642D01*
X0108413Y0185821D02*
X0108831Y0185821D01*
X0108831Y0187001D02*
X0108413Y0187001D01*
X0108413Y0188180D02*
X0108831Y0188180D01*
X0108831Y0189360D02*
X0108413Y0189360D01*
X0108413Y0190540D02*
X0108831Y0190540D01*
X0108831Y0191719D02*
X0108413Y0191719D01*
X0108413Y0192899D02*
X0108831Y0192899D01*
X0108831Y0194079D02*
X0108413Y0194079D01*
X0108413Y0195258D02*
X0108831Y0195258D01*
X0111525Y0195258D02*
X0113672Y0195258D01*
X0114228Y0194079D02*
X0112386Y0194079D01*
X0112760Y0192899D02*
X0113857Y0192899D01*
X0113857Y0191719D02*
X0112813Y0191719D01*
X0112813Y0190540D02*
X0113857Y0190540D01*
X0113857Y0189360D02*
X0112813Y0189360D01*
X0112813Y0188180D02*
X0113857Y0188180D01*
X0113857Y0187001D02*
X0112813Y0187001D01*
X0112634Y0185821D02*
X0113967Y0185821D01*
X0114455Y0184642D02*
X0112063Y0184642D01*
X0110834Y0183462D02*
X0115455Y0183462D01*
X0121789Y0183462D02*
X0125455Y0183462D01*
X0124455Y0184642D02*
X0122789Y0184642D01*
X0123277Y0185821D02*
X0123967Y0185821D01*
X0123857Y0187001D02*
X0123387Y0187001D01*
X0123387Y0188180D02*
X0123857Y0188180D01*
X0123857Y0189360D02*
X0123387Y0189360D01*
X0123387Y0190540D02*
X0123857Y0190540D01*
X0123857Y0191719D02*
X0123387Y0191719D01*
X0123387Y0192899D02*
X0123857Y0192899D01*
X0124228Y0194079D02*
X0123016Y0194079D01*
X0123121Y0195258D02*
X0122338Y0195258D01*
X0121993Y0196438D02*
X0121674Y0196438D01*
X0121517Y0197617D02*
X0120832Y0197617D01*
X0121517Y0198797D02*
X0119652Y0198797D01*
X0118472Y0199977D02*
X0121952Y0199977D01*
X0127921Y0199977D02*
X0132025Y0199977D01*
X0131753Y0198797D02*
X0129101Y0198797D01*
X0130281Y0197617D02*
X0131903Y0197617D01*
X0131460Y0196438D02*
X0132571Y0196438D01*
X0132338Y0195258D02*
X0133751Y0195258D01*
X0134228Y0194079D02*
X0133016Y0194079D01*
X0133387Y0192899D02*
X0133857Y0192899D01*
X0133857Y0191719D02*
X0133387Y0191719D01*
X0133387Y0190540D02*
X0133857Y0190540D01*
X0133857Y0189360D02*
X0133387Y0189360D01*
X0133387Y0188180D02*
X0133857Y0188180D01*
X0133857Y0187001D02*
X0133387Y0187001D01*
X0133277Y0185821D02*
X0133967Y0185821D01*
X0134455Y0184642D02*
X0132789Y0184642D01*
X0131789Y0183462D02*
X0135455Y0183462D01*
X0141789Y0183462D02*
X0145455Y0183462D01*
X0144455Y0184642D02*
X0142789Y0184642D01*
X0143277Y0185821D02*
X0143967Y0185821D01*
X0143857Y0187001D02*
X0143387Y0187001D01*
X0143387Y0188180D02*
X0143857Y0188180D01*
X0143857Y0189360D02*
X0143387Y0189360D01*
X0143387Y0190540D02*
X0143857Y0190540D01*
X0143857Y0191719D02*
X0143387Y0191719D01*
X0143387Y0192899D02*
X0143857Y0192899D01*
X0144228Y0194079D02*
X0143016Y0194079D01*
X0143200Y0195258D02*
X0142338Y0195258D01*
X0142071Y0196438D02*
X0141753Y0196438D01*
X0141595Y0197617D02*
X0140910Y0197617D01*
X0141595Y0198797D02*
X0139731Y0198797D01*
X0138551Y0199977D02*
X0142030Y0199977D01*
X0148000Y0199977D02*
X0151873Y0199977D01*
X0151438Y0198797D02*
X0149180Y0198797D01*
X0150359Y0197617D02*
X0151438Y0197617D01*
X0151432Y0196438D02*
X0151914Y0196438D01*
X0152338Y0195258D02*
X0153042Y0195258D01*
X0153016Y0194079D02*
X0154222Y0194079D01*
X0153857Y0192899D02*
X0153387Y0192899D01*
X0153387Y0191719D02*
X0153857Y0191719D01*
X0153857Y0190540D02*
X0153387Y0190540D01*
X0153387Y0189360D02*
X0153857Y0189360D01*
X0153857Y0188180D02*
X0153387Y0188180D01*
X0153387Y0187001D02*
X0153857Y0187001D01*
X0153967Y0185821D02*
X0153277Y0185821D01*
X0152789Y0184642D02*
X0154455Y0184642D01*
X0155455Y0183462D02*
X0151789Y0183462D01*
X0161789Y0183462D02*
X0165455Y0183462D01*
X0164455Y0184642D02*
X0162789Y0184642D01*
X0163277Y0185821D02*
X0163967Y0185821D01*
X0163857Y0187001D02*
X0163387Y0187001D01*
X0163387Y0188180D02*
X0163857Y0188180D01*
X0163857Y0189360D02*
X0163387Y0189360D01*
X0163387Y0190540D02*
X0163857Y0190540D01*
X0163857Y0191719D02*
X0163387Y0191719D01*
X0163387Y0192899D02*
X0163857Y0192899D01*
X0164065Y0194079D02*
X0163016Y0194079D01*
X0162885Y0195258D02*
X0162338Y0195258D01*
X0161987Y0196438D02*
X0161381Y0196438D01*
X0161674Y0197617D02*
X0160202Y0197617D01*
X0159022Y0198797D02*
X0161784Y0198797D01*
X0162274Y0199977D02*
X0157843Y0199977D01*
X0112493Y0196438D02*
X0091404Y0196438D01*
X0092584Y0195258D02*
X0105719Y0195258D01*
X0104858Y0194079D02*
X0092692Y0194079D01*
X0092692Y0192899D02*
X0104484Y0192899D01*
X0104431Y0191719D02*
X0092692Y0191719D01*
X0091554Y0190540D02*
X0104431Y0190540D01*
X0104431Y0189360D02*
X0090374Y0189360D01*
X0088711Y0189360D02*
X0088292Y0189360D01*
X0088292Y0190540D02*
X0088711Y0190540D01*
X0088711Y0191719D02*
X0088292Y0191719D01*
X0088292Y0192899D02*
X0088711Y0192899D01*
X0088292Y0193623D02*
X0084311Y0193623D01*
X0084311Y0195150D01*
X0086766Y0197604D01*
X0088292Y0197604D01*
X0088292Y0193623D01*
X0088292Y0194079D02*
X0088711Y0194079D01*
X0088711Y0195258D02*
X0088292Y0195258D01*
X0088292Y0196438D02*
X0088711Y0196438D01*
X0085599Y0196438D02*
X0067341Y0196438D01*
X0067341Y0197617D02*
X0111825Y0197617D01*
X0111674Y0198797D02*
X0067341Y0198797D01*
X0067341Y0199977D02*
X0111946Y0199977D01*
X0106946Y0201156D02*
X0103054Y0201156D01*
X0104233Y0202336D02*
X0105767Y0202336D01*
X0105208Y0203515D02*
X0104792Y0203515D01*
X0096946Y0201156D02*
X0093054Y0201156D01*
X0094233Y0202336D02*
X0095767Y0202336D01*
X0095208Y0203515D02*
X0094792Y0203515D01*
X0086946Y0201156D02*
X0083980Y0201156D01*
X0083945Y0201122D02*
X0084241Y0201418D01*
X0084451Y0201781D01*
X0084559Y0202185D01*
X0084559Y0204969D01*
X0080394Y0204969D01*
X0080394Y0205757D01*
X0084559Y0205757D01*
X0084559Y0208541D01*
X0084451Y0208945D01*
X0084241Y0209308D01*
X0083945Y0209604D01*
X0083582Y0209814D01*
X0083178Y0209922D01*
X0080394Y0209922D01*
X0080394Y0205757D01*
X0079606Y0205757D01*
X0079606Y0209922D01*
X0076822Y0209922D01*
X0076418Y0209814D01*
X0076055Y0209604D01*
X0075759Y0209308D01*
X0075549Y0208945D01*
X0075441Y0208541D01*
X0075441Y0205757D01*
X0079606Y0205757D01*
X0079606Y0204969D01*
X0080394Y0204969D01*
X0080394Y0200804D01*
X0083178Y0200804D01*
X0083582Y0200912D01*
X0083945Y0201122D01*
X0084559Y0202336D02*
X0085767Y0202336D01*
X0085208Y0203515D02*
X0084559Y0203515D01*
X0084559Y0204695D02*
X0084866Y0204695D01*
X0084866Y0205875D02*
X0084559Y0205875D01*
X0084559Y0207054D02*
X0085144Y0207054D01*
X0085632Y0208234D02*
X0084559Y0208234D01*
X0084136Y0209413D02*
X0086790Y0209413D01*
X0088100Y0210593D02*
X0067341Y0210593D01*
X0067341Y0209413D02*
X0075864Y0209413D01*
X0075441Y0208234D02*
X0067341Y0208234D01*
X0067341Y0207054D02*
X0075441Y0207054D01*
X0075441Y0205875D02*
X0067341Y0205875D01*
X0067341Y0204695D02*
X0075441Y0204695D01*
X0075441Y0204969D02*
X0075441Y0202185D01*
X0075549Y0201781D01*
X0075759Y0201418D01*
X0076055Y0201122D01*
X0076418Y0200912D01*
X0076822Y0200804D01*
X0079606Y0200804D01*
X0079606Y0204969D01*
X0075441Y0204969D01*
X0075441Y0203515D02*
X0067341Y0203515D01*
X0067341Y0202336D02*
X0075441Y0202336D01*
X0076020Y0201156D02*
X0067341Y0201156D01*
X0067341Y0195258D02*
X0084420Y0195258D01*
X0084311Y0194079D02*
X0076493Y0194079D01*
X0070883Y0194079D02*
X0067341Y0194079D01*
X0067341Y0192899D02*
X0069703Y0192899D01*
X0068922Y0191719D02*
X0067341Y0191719D01*
X0067341Y0190540D02*
X0068922Y0190540D01*
X0068922Y0189360D02*
X0067341Y0189360D01*
X0067341Y0188180D02*
X0068922Y0188180D01*
X0070092Y0187001D02*
X0067341Y0187001D01*
X0067341Y0185821D02*
X0071272Y0185821D01*
X0071446Y0184642D02*
X0067341Y0184642D01*
X0067341Y0183462D02*
X0070266Y0183462D01*
X0069086Y0182282D02*
X0067341Y0182282D01*
X0067341Y0181103D02*
X0068922Y0181103D01*
X0068922Y0179923D02*
X0067341Y0179923D01*
X0067341Y0178744D02*
X0068922Y0178744D01*
X0069529Y0177564D02*
X0067341Y0177564D01*
X0073929Y0175205D02*
X0083736Y0175205D01*
X0083459Y0192899D02*
X0084311Y0192899D01*
X0080394Y0201156D02*
X0079606Y0201156D01*
X0079606Y0202336D02*
X0080394Y0202336D01*
X0080394Y0203515D02*
X0079606Y0203515D01*
X0079606Y0204695D02*
X0080394Y0204695D01*
X0080394Y0205875D02*
X0079606Y0205875D01*
X0079606Y0207054D02*
X0080394Y0207054D01*
X0080394Y0208234D02*
X0079606Y0208234D01*
X0079606Y0209413D02*
X0080394Y0209413D01*
X0080394Y0211773D02*
X0079606Y0211773D01*
X0079606Y0212952D02*
X0080394Y0212952D01*
X0080394Y0214132D02*
X0079606Y0214132D01*
X0079606Y0215312D02*
X0067341Y0215312D01*
X0067341Y0216491D02*
X0075573Y0216491D01*
X0076059Y0217671D02*
X0067341Y0217671D01*
X0067341Y0214132D02*
X0075606Y0214132D01*
X0076116Y0212952D02*
X0067341Y0212952D01*
X0067341Y0211773D02*
X0077185Y0211773D01*
X0082815Y0211773D02*
X0086330Y0211773D01*
X0085442Y0212952D02*
X0083884Y0212952D01*
X0084394Y0214132D02*
X0084953Y0214132D01*
X0084866Y0215312D02*
X0080394Y0215312D01*
X0084427Y0216491D02*
X0084910Y0216491D01*
X0085399Y0217671D02*
X0083941Y0217671D01*
X0081797Y0060782D02*
X0117687Y0060782D01*
X0116508Y0059603D02*
X0080318Y0059603D01*
X0078839Y0058423D02*
X0115328Y0058423D01*
X0114149Y0057243D02*
X0077360Y0057243D01*
X0075056Y0056064D02*
X0112969Y0056064D01*
X0111789Y0054884D02*
X0072606Y0054884D01*
X0068569Y0053704D02*
X0110610Y0053704D01*
X0183691Y0028933D02*
X0186309Y0028933D01*
X0185433Y0027753D02*
X0184567Y0027753D01*
X0193208Y0029415D02*
X0193208Y0044894D01*
X0195173Y0046860D01*
X0197007Y0046860D01*
X0196750Y0046357D01*
X0196527Y0045670D01*
X0196414Y0044956D01*
X0196414Y0042004D01*
X0200595Y0042004D01*
X0200595Y0041185D01*
X0201414Y0041185D01*
X0201414Y0034012D01*
X0202080Y0034117D01*
X0202767Y0034341D01*
X0203411Y0034669D01*
X0203995Y0035093D01*
X0204506Y0035604D01*
X0204931Y0036189D01*
X0205259Y0036833D01*
X0205482Y0037520D01*
X0205595Y0038234D01*
X0205595Y0041185D01*
X0201414Y0041185D01*
X0201414Y0042004D01*
X0205595Y0042004D01*
X0205595Y0044956D01*
X0205482Y0045670D01*
X0205259Y0046357D01*
X0205003Y0046860D01*
X0206352Y0046860D01*
X0205839Y0045622D01*
X0205839Y0037567D01*
X0206541Y0035874D01*
X0206102Y0035874D01*
X0204865Y0035362D01*
X0203919Y0034415D01*
X0200001Y0030497D01*
X0198979Y0030497D01*
X0197092Y0029715D01*
X0195648Y0028271D01*
X0195000Y0026707D01*
X0194352Y0028271D01*
X0193208Y0029415D01*
X0193691Y0028933D02*
X0196309Y0028933D01*
X0195433Y0027753D02*
X0194567Y0027753D01*
X0193208Y0030112D02*
X0198050Y0030112D01*
X0200796Y0031292D02*
X0193208Y0031292D01*
X0193208Y0032471D02*
X0201975Y0032471D01*
X0203155Y0033651D02*
X0193208Y0033651D01*
X0193208Y0034831D02*
X0198376Y0034831D01*
X0198599Y0034669D02*
X0198014Y0035093D01*
X0197503Y0035604D01*
X0197079Y0036189D01*
X0196750Y0036833D01*
X0196527Y0037520D01*
X0196414Y0038234D01*
X0196414Y0041185D01*
X0200595Y0041185D01*
X0200595Y0034012D01*
X0199930Y0034117D01*
X0199243Y0034341D01*
X0198599Y0034669D01*
X0197208Y0036010D02*
X0193208Y0036010D01*
X0193208Y0037190D02*
X0196634Y0037190D01*
X0196414Y0038370D02*
X0193208Y0038370D01*
X0193208Y0039549D02*
X0196414Y0039549D01*
X0196414Y0040729D02*
X0193208Y0040729D01*
X0193208Y0041908D02*
X0200595Y0041908D01*
X0201414Y0041908D02*
X0205839Y0041908D01*
X0205839Y0040729D02*
X0205595Y0040729D01*
X0205595Y0039549D02*
X0205839Y0039549D01*
X0205839Y0038370D02*
X0205595Y0038370D01*
X0205375Y0037190D02*
X0205996Y0037190D01*
X0206484Y0036010D02*
X0204801Y0036010D01*
X0204334Y0034831D02*
X0203634Y0034831D01*
X0201414Y0034831D02*
X0200595Y0034831D01*
X0200595Y0036010D02*
X0201414Y0036010D01*
X0201414Y0037190D02*
X0200595Y0037190D01*
X0200595Y0038370D02*
X0201414Y0038370D01*
X0201414Y0039549D02*
X0200595Y0039549D01*
X0200595Y0040729D02*
X0201414Y0040729D01*
X0205595Y0043088D02*
X0205839Y0043088D01*
X0205839Y0044268D02*
X0205595Y0044268D01*
X0205517Y0045447D02*
X0205839Y0045447D01*
X0206255Y0046627D02*
X0205121Y0046627D01*
X0196888Y0046627D02*
X0194940Y0046627D01*
X0193761Y0045447D02*
X0196492Y0045447D01*
X0196414Y0044268D02*
X0193208Y0044268D01*
X0193208Y0043088D02*
X0196414Y0043088D01*
D20*
X0180787Y0034477D03*
X0168976Y0034477D03*
X0157165Y0034477D03*
X0145354Y0034477D03*
X0133543Y0034477D03*
X0121732Y0034477D03*
X0121732Y0046288D03*
X0133543Y0046288D03*
X0145354Y0046288D03*
X0157165Y0046288D03*
X0168976Y0046288D03*
X0192598Y0069910D03*
X0192598Y0081721D03*
X0204409Y0081721D03*
X0216220Y0081721D03*
X0216220Y0069910D03*
X0228031Y0069910D03*
X0239843Y0069910D03*
X0251654Y0069910D03*
X0263465Y0069910D03*
X0275276Y0069910D03*
X0287087Y0069910D03*
X0298898Y0069910D03*
X0310709Y0069910D03*
X0322520Y0069910D03*
X0322520Y0081721D03*
X0310709Y0081721D03*
X0310709Y0093532D03*
X0322520Y0093532D03*
X0322520Y0105343D03*
X0310709Y0105343D03*
X0334331Y0152587D03*
X0334331Y0164398D03*
X0334331Y0176209D03*
X0334331Y0188020D03*
X0310709Y0176209D03*
X0298898Y0176209D03*
X0287087Y0176209D03*
X0275276Y0176209D03*
X0263465Y0176209D03*
X0251654Y0176209D03*
X0239843Y0176209D03*
X0228031Y0176209D03*
X0216220Y0176209D03*
X0216220Y0164398D03*
X0216220Y0152587D03*
X0192598Y0128965D03*
X0180787Y0128965D03*
X0168976Y0128965D03*
X0157165Y0128965D03*
X0145354Y0128965D03*
X0133543Y0128965D03*
X0121732Y0128965D03*
X0109921Y0128965D03*
X0098110Y0128965D03*
X0098110Y0117154D03*
X0098110Y0105343D03*
X0098110Y0093532D03*
X0098110Y0081721D03*
X0098110Y0069910D03*
X0098110Y0058099D03*
X0086299Y0058099D03*
X0086299Y0046288D03*
X0074488Y0046288D03*
X0098110Y0046288D03*
X0192598Y0093532D03*
X0204409Y0093532D03*
X0216220Y0093532D03*
X0216220Y0105343D03*
X0204409Y0105343D03*
X0192598Y0105343D03*
X0204409Y0058099D03*
X0216220Y0058099D03*
X0228031Y0058099D03*
X0239843Y0058099D03*
X0251654Y0058099D03*
X0263465Y0058099D03*
X0275276Y0058099D03*
X0287087Y0058099D03*
X0298898Y0058099D03*
X0310709Y0058099D03*
X0310709Y0046288D03*
X0310709Y0034477D03*
X0098110Y0140776D03*
X0098110Y0152587D03*
X0098110Y0164398D03*
X0216220Y0188020D03*
D21*
X0221339Y0197469D02*
X0224882Y0201013D01*
X0221339Y0197469D02*
X0192992Y0197469D01*
X0188661Y0193139D01*
X0188661Y0189674D01*
X0188622Y0189635D01*
X0198622Y0189635D02*
X0198622Y0159635D01*
X0198898Y0159635D01*
X0198898Y0150225D01*
X0204803Y0144320D01*
X0204803Y0135816D01*
X0205197Y0135422D01*
X0205354Y0135265D01*
X0215827Y0135265D01*
X0223701Y0127391D01*
X0309134Y0127391D01*
X0318189Y0136446D01*
X0318408Y0136227D01*
X0324723Y0136227D01*
X0331575Y0129375D01*
X0331575Y0065580D01*
X0324882Y0058887D01*
X0324882Y0048981D01*
X0324967Y0048895D01*
X0324967Y0051492D01*
X0278031Y0043926D02*
X0278031Y0039911D01*
X0278166Y0039776D01*
X0278031Y0043926D02*
X0276291Y0045667D01*
X0266519Y0045667D01*
X0266519Y0035667D02*
X0266614Y0035571D01*
X0266614Y0030540D01*
X0265039Y0028965D01*
X0241005Y0041595D02*
X0241024Y0047469D01*
X0238268Y0050225D01*
X0193780Y0050225D01*
X0189843Y0046288D01*
X0189843Y0025422D01*
X0190630Y0026603D01*
X0190000Y0025363D01*
X0200000Y0025363D02*
X0200472Y0026603D01*
X0200866Y0026603D01*
X0206772Y0032509D01*
X0230000Y0032509D01*
X0230000Y0040383D01*
X0231005Y0041595D01*
X0195748Y0061643D02*
X0211102Y0076997D01*
X0211102Y0119910D01*
X0205197Y0125816D01*
X0205197Y0135422D01*
X0178386Y0141997D02*
X0178386Y0159635D01*
X0178622Y0159635D01*
X0168622Y0159635D02*
X0168386Y0159635D01*
X0168386Y0141997D01*
X0158386Y0141997D02*
X0158386Y0159635D01*
X0158622Y0159635D01*
X0148622Y0159635D02*
X0148386Y0159635D01*
X0148386Y0141997D01*
X0138386Y0141997D02*
X0138386Y0159635D01*
X0138622Y0159635D01*
X0128622Y0159635D02*
X0128386Y0159635D01*
X0128386Y0141997D01*
X0118386Y0141997D02*
X0118386Y0159635D01*
X0118622Y0159635D01*
X0108622Y0159635D02*
X0108386Y0159635D01*
X0108386Y0141997D01*
X0108386Y0111997D02*
X0107953Y0111249D01*
X0107953Y0091564D01*
X0108780Y0089871D01*
X0117795Y0091564D02*
X0118780Y0089871D01*
X0117795Y0091564D02*
X0117795Y0111249D01*
X0118386Y0111997D01*
X0128386Y0111997D02*
X0129606Y0111249D01*
X0129606Y0091564D01*
X0128780Y0089871D01*
X0138780Y0089871D02*
X0139449Y0091564D01*
X0139449Y0111249D01*
X0138386Y0111997D01*
X0148386Y0111997D02*
X0149291Y0111249D01*
X0149291Y0091564D01*
X0148780Y0089871D01*
X0158780Y0089871D02*
X0159134Y0091564D01*
X0159134Y0111249D01*
X0158386Y0111997D01*
X0168386Y0111997D02*
X0168976Y0111249D01*
X0168976Y0091564D01*
X0168780Y0089871D01*
X0178780Y0089871D02*
X0178819Y0091564D01*
X0178819Y0111249D01*
X0178386Y0111997D01*
X0232008Y0111603D02*
X0232008Y0089792D01*
X0242008Y0089792D02*
X0242008Y0111603D01*
X0252008Y0111603D02*
X0252008Y0089792D01*
X0262008Y0089792D02*
X0262008Y0111603D01*
X0272008Y0111603D02*
X0272008Y0089792D01*
X0282008Y0089792D02*
X0282008Y0111603D01*
X0292008Y0111603D02*
X0292008Y0089792D01*
X0302008Y0089792D02*
X0302008Y0111603D01*
X0324723Y0136227D02*
X0324488Y0136462D01*
X0324488Y0144320D01*
X0322244Y0146564D01*
X0322244Y0159241D01*
X0322244Y0189241D01*
X0312283Y0189280D02*
X0312244Y0189241D01*
X0312283Y0189280D02*
X0312283Y0201800D01*
X0308720Y0205363D01*
X0300000Y0205363D01*
X0294961Y0210855D02*
X0290453Y0215363D01*
X0290000Y0215363D01*
X0285118Y0209280D02*
X0280000Y0214398D01*
X0280000Y0215363D01*
X0274882Y0211249D02*
X0270768Y0215363D01*
X0270000Y0215363D01*
X0265039Y0211249D02*
X0260925Y0215363D01*
X0260000Y0215363D01*
X0255197Y0211249D02*
X0251083Y0215363D01*
X0250000Y0215363D01*
X0244961Y0211643D02*
X0241240Y0215363D01*
X0240000Y0215363D01*
X0230000Y0215363D02*
X0230000Y0215186D01*
X0224882Y0210068D01*
X0242205Y0198650D02*
X0242205Y0189280D01*
X0242244Y0189241D01*
X0252244Y0189241D02*
X0252441Y0189438D01*
X0252441Y0197469D01*
X0255197Y0200225D01*
X0261890Y0197863D02*
X0265039Y0201013D01*
X0261890Y0197863D02*
X0261890Y0189595D01*
X0262244Y0189241D01*
X0272126Y0189359D02*
X0272126Y0197469D01*
X0274882Y0200225D01*
X0282362Y0197469D02*
X0282362Y0189359D01*
X0282244Y0189241D01*
X0292205Y0189280D02*
X0292244Y0189241D01*
X0292205Y0189280D02*
X0292205Y0197076D01*
X0294961Y0199831D01*
X0285118Y0200225D02*
X0282362Y0197469D01*
X0272244Y0189241D02*
X0272126Y0189359D01*
X0244961Y0201406D02*
X0244567Y0201013D01*
X0242205Y0198650D01*
X0242244Y0159241D02*
X0242244Y0141839D01*
X0242008Y0141603D01*
X0252008Y0141603D02*
X0252008Y0159005D01*
X0252244Y0159241D01*
X0262008Y0159005D02*
X0262244Y0159241D01*
X0262008Y0159005D02*
X0262008Y0141603D01*
X0272008Y0141603D02*
X0272008Y0159005D01*
X0272244Y0159241D01*
X0282008Y0159005D02*
X0282244Y0159241D01*
X0282008Y0159005D02*
X0282008Y0141603D01*
X0292008Y0141603D02*
X0292008Y0159005D01*
X0292244Y0159241D01*
X0302008Y0159005D02*
X0302244Y0159241D01*
X0302008Y0159005D02*
X0302008Y0141603D01*
X0232244Y0141839D02*
X0232008Y0141603D01*
X0232244Y0141839D02*
X0232244Y0159241D01*
X0168622Y0189635D02*
X0168583Y0189674D01*
X0168583Y0194320D01*
X0165039Y0197863D01*
X0158740Y0194320D02*
X0158740Y0189753D01*
X0158622Y0189635D01*
X0158740Y0194320D02*
X0154803Y0198257D01*
X0148504Y0194713D02*
X0148504Y0189753D01*
X0148622Y0189635D01*
X0148504Y0194713D02*
X0144961Y0198257D01*
X0138661Y0195107D02*
X0138661Y0189674D01*
X0138622Y0189635D01*
X0138661Y0195107D02*
X0135118Y0198650D01*
X0128819Y0194320D02*
X0128819Y0189831D01*
X0128622Y0189635D01*
X0128819Y0194320D02*
X0124882Y0198257D01*
X0118583Y0195107D02*
X0118583Y0189674D01*
X0118622Y0189635D01*
X0118583Y0195107D02*
X0115039Y0198650D01*
X0115039Y0211643D02*
X0111319Y0215363D01*
X0110000Y0215363D01*
X0120000Y0215363D02*
X0120768Y0215363D01*
X0124882Y0211249D01*
X0130000Y0215363D02*
X0130217Y0215363D01*
X0135118Y0210461D01*
X0140000Y0215363D02*
X0141634Y0215363D01*
X0144961Y0212036D01*
X0150000Y0215265D02*
X0154803Y0210461D01*
X0150000Y0215265D02*
X0150000Y0215363D01*
X0160000Y0215363D02*
X0160925Y0215363D01*
X0165039Y0211249D01*
X0088268Y0182509D02*
X0088268Y0174755D01*
X0088502Y0173414D01*
X0088268Y0182509D02*
X0081419Y0190144D01*
X0073688Y0190144D01*
X0123307Y0061643D02*
X0110394Y0048729D01*
X0110000Y0025363D01*
X0110000Y0015363D01*
X0100000Y0015363D02*
X0100000Y0025363D01*
X0123307Y0061643D02*
X0195748Y0061643D01*
X0190413Y0015363D02*
X0190000Y0015363D01*
D22*
X0190413Y0015363D02*
X0194961Y0019910D01*
X0262677Y0019910D01*
X0265039Y0022272D01*
X0265039Y0028965D01*
X0178622Y0189635D02*
X0178425Y0189831D01*
X0178425Y0193926D01*
X0184724Y0200225D01*
X0184724Y0208099D01*
X0187087Y0210461D01*
X0215827Y0210461D01*
X0220000Y0214635D01*
X0220000Y0215363D01*
X0224882Y0210068D02*
X0224882Y0201013D01*
X0244961Y0201406D02*
X0244961Y0211643D01*
X0255197Y0211249D02*
X0255197Y0200225D01*
X0265039Y0201013D02*
X0265039Y0211249D01*
X0274882Y0211249D02*
X0274882Y0200225D01*
X0285118Y0200225D02*
X0285118Y0209280D01*
X0294961Y0210855D02*
X0294961Y0199831D01*
X0165039Y0197863D02*
X0165039Y0211249D01*
X0154803Y0210461D02*
X0154803Y0198257D01*
X0144961Y0198257D02*
X0144961Y0212036D01*
X0135118Y0210461D02*
X0135118Y0198650D01*
X0124882Y0198257D02*
X0124882Y0211249D01*
X0115039Y0211643D02*
X0115039Y0198650D01*
M02*
