G75*
%MOIN*%
%OFA0B0*%
%FSLAX25Y25*%
%IPPOS*%
%LPD*%
%AMOC8*
5,1,8,0,0,1.08239X$1,22.5*
%
%ADD10R,0.06737X0.06737*%
%ADD11C,0.06737*%
%ADD12C,0.06400*%
%ADD13OC8,0.06400*%
%ADD14OC8,0.07100*%
%ADD15C,0.07100*%
%ADD16OC8,0.06000*%
%ADD17C,0.06800*%
%ADD18C,0.06000*%
%ADD19C,0.03778*%
D10*
X0080000Y0015363D03*
X0080000Y0205363D03*
D11*
X0090000Y0205363D03*
X0100000Y0205363D03*
X0110000Y0205363D03*
X0120000Y0205363D03*
X0130000Y0205363D03*
X0140000Y0205363D03*
X0150000Y0205363D03*
X0160000Y0205363D03*
X0170000Y0205363D03*
X0180000Y0205363D03*
X0190000Y0205363D03*
X0200000Y0205363D03*
X0210000Y0205363D03*
X0220000Y0205363D03*
X0230000Y0205363D03*
X0240000Y0205363D03*
X0250000Y0205363D03*
X0260000Y0205363D03*
X0270000Y0205363D03*
X0280000Y0205363D03*
X0290000Y0205363D03*
X0300000Y0205363D03*
X0300000Y0215363D03*
X0290000Y0215363D03*
X0280000Y0215363D03*
X0270000Y0215363D03*
X0260000Y0215363D03*
X0250000Y0215363D03*
X0240000Y0215363D03*
X0230000Y0215363D03*
X0220000Y0215363D03*
X0210000Y0215363D03*
X0200000Y0215363D03*
X0190000Y0215363D03*
X0180000Y0215363D03*
X0170000Y0215363D03*
X0160000Y0215363D03*
X0150000Y0215363D03*
X0140000Y0215363D03*
X0130000Y0215363D03*
X0120000Y0215363D03*
X0110000Y0215363D03*
X0100000Y0215363D03*
X0090000Y0215363D03*
X0080000Y0215363D03*
X0080000Y0025363D03*
X0090000Y0025363D03*
X0100000Y0025363D03*
X0110000Y0025363D03*
X0120000Y0025363D03*
X0130000Y0025363D03*
X0140000Y0025363D03*
X0150000Y0025363D03*
X0160000Y0025363D03*
X0170000Y0025363D03*
X0180000Y0025363D03*
X0190000Y0025363D03*
X0200000Y0025363D03*
X0210000Y0025363D03*
X0220000Y0025363D03*
X0230000Y0025363D03*
X0240000Y0025363D03*
X0250000Y0025363D03*
X0260000Y0025363D03*
X0270000Y0025363D03*
X0280000Y0025363D03*
X0290000Y0025363D03*
X0300000Y0025363D03*
X0300000Y0015363D03*
X0290000Y0015363D03*
X0280000Y0015363D03*
X0270000Y0015363D03*
X0260000Y0015363D03*
X0250000Y0015363D03*
X0240000Y0015363D03*
X0230000Y0015363D03*
X0220000Y0015363D03*
X0210000Y0015363D03*
X0200000Y0015363D03*
X0190000Y0015363D03*
X0180000Y0015363D03*
X0170000Y0015363D03*
X0160000Y0015363D03*
X0150000Y0015363D03*
X0140000Y0015363D03*
X0130000Y0015363D03*
X0120000Y0015363D03*
X0110000Y0015363D03*
X0100000Y0015363D03*
X0090000Y0015363D03*
D12*
X0178780Y0089871D03*
X0302008Y0089792D03*
D13*
X0292008Y0089792D03*
X0282008Y0089792D03*
X0272008Y0089792D03*
X0262008Y0089792D03*
X0252008Y0089792D03*
X0242008Y0089792D03*
X0232008Y0089792D03*
X0232008Y0079792D03*
X0242008Y0079792D03*
X0252008Y0079792D03*
X0262008Y0079792D03*
X0272008Y0079792D03*
X0282008Y0079792D03*
X0292008Y0079792D03*
X0302008Y0079792D03*
X0178780Y0079871D03*
X0168780Y0079871D03*
X0158780Y0079871D03*
X0148780Y0079871D03*
X0138780Y0079871D03*
X0128780Y0079871D03*
X0118780Y0079871D03*
X0108780Y0079871D03*
X0108780Y0089871D03*
X0118780Y0089871D03*
X0128780Y0089871D03*
X0138780Y0089871D03*
X0148780Y0089871D03*
X0158780Y0089871D03*
X0168780Y0089871D03*
D14*
X0324967Y0038895D03*
D15*
X0324967Y0048895D03*
D16*
X0298166Y0039776D03*
X0278166Y0039776D03*
X0266519Y0035667D03*
X0266519Y0045667D03*
X0205197Y0115422D03*
X0205197Y0135422D03*
X0088502Y0173414D03*
X0073688Y0180144D03*
X0073688Y0190144D03*
X0088502Y0193414D03*
X0324723Y0136227D03*
X0324723Y0116227D03*
D17*
X0251005Y0044595D02*
X0251005Y0038595D01*
X0241005Y0038595D02*
X0241005Y0044595D01*
X0231005Y0044595D02*
X0231005Y0038595D01*
X0221005Y0038595D02*
X0221005Y0044595D01*
X0211005Y0044595D02*
X0211005Y0038595D01*
X0201005Y0038595D02*
X0201005Y0044595D01*
D18*
X0232008Y0109003D02*
X0232008Y0114203D01*
X0242008Y0114203D02*
X0242008Y0109003D01*
X0252008Y0109003D02*
X0252008Y0114203D01*
X0262008Y0114203D02*
X0262008Y0109003D01*
X0272008Y0109003D02*
X0272008Y0114203D01*
X0282008Y0114203D02*
X0282008Y0109003D01*
X0292008Y0109003D02*
X0292008Y0114203D01*
X0302008Y0114203D02*
X0302008Y0109003D01*
X0302008Y0139003D02*
X0302008Y0144203D01*
X0292008Y0144203D02*
X0292008Y0139003D01*
X0282008Y0139003D02*
X0282008Y0144203D01*
X0272008Y0144203D02*
X0272008Y0139003D01*
X0262008Y0139003D02*
X0262008Y0144203D01*
X0252008Y0144203D02*
X0252008Y0139003D01*
X0242008Y0139003D02*
X0242008Y0144203D01*
X0232008Y0144203D02*
X0232008Y0139003D01*
X0232244Y0156641D02*
X0232244Y0161841D01*
X0242244Y0161841D02*
X0242244Y0156641D01*
X0252244Y0156641D02*
X0252244Y0161841D01*
X0262244Y0161841D02*
X0262244Y0156641D01*
X0272244Y0156641D02*
X0272244Y0161841D01*
X0282244Y0161841D02*
X0282244Y0156641D01*
X0292244Y0156641D02*
X0292244Y0161841D01*
X0302244Y0161841D02*
X0302244Y0156641D01*
X0312244Y0156641D02*
X0312244Y0161841D01*
X0322244Y0161841D02*
X0322244Y0156641D01*
X0322244Y0186641D02*
X0322244Y0191841D01*
X0312244Y0191841D02*
X0312244Y0186641D01*
X0302244Y0186641D02*
X0302244Y0191841D01*
X0292244Y0191841D02*
X0292244Y0186641D01*
X0282244Y0186641D02*
X0282244Y0191841D01*
X0272244Y0191841D02*
X0272244Y0186641D01*
X0262244Y0186641D02*
X0262244Y0191841D01*
X0252244Y0191841D02*
X0252244Y0186641D01*
X0242244Y0186641D02*
X0242244Y0191841D01*
X0232244Y0191841D02*
X0232244Y0186641D01*
X0198622Y0187035D02*
X0198622Y0192235D01*
X0188622Y0192235D02*
X0188622Y0187035D01*
X0178622Y0187035D02*
X0178622Y0192235D01*
X0168622Y0192235D02*
X0168622Y0187035D01*
X0158622Y0187035D02*
X0158622Y0192235D01*
X0148622Y0192235D02*
X0148622Y0187035D01*
X0138622Y0187035D02*
X0138622Y0192235D01*
X0128622Y0192235D02*
X0128622Y0187035D01*
X0118622Y0187035D02*
X0118622Y0192235D01*
X0108622Y0192235D02*
X0108622Y0187035D01*
X0108622Y0162235D02*
X0108622Y0157035D01*
X0118622Y0157035D02*
X0118622Y0162235D01*
X0128622Y0162235D02*
X0128622Y0157035D01*
X0138622Y0157035D02*
X0138622Y0162235D01*
X0148622Y0162235D02*
X0148622Y0157035D01*
X0158622Y0157035D02*
X0158622Y0162235D01*
X0168622Y0162235D02*
X0168622Y0157035D01*
X0178622Y0157035D02*
X0178622Y0162235D01*
X0188622Y0162235D02*
X0188622Y0157035D01*
X0198622Y0157035D02*
X0198622Y0162235D01*
X0178386Y0144597D02*
X0178386Y0139397D01*
X0168386Y0139397D02*
X0168386Y0144597D01*
X0158386Y0144597D02*
X0158386Y0139397D01*
X0148386Y0139397D02*
X0148386Y0144597D01*
X0138386Y0144597D02*
X0138386Y0139397D01*
X0128386Y0139397D02*
X0128386Y0144597D01*
X0118386Y0144597D02*
X0118386Y0139397D01*
X0108386Y0139397D02*
X0108386Y0144597D01*
X0108386Y0114597D02*
X0108386Y0109397D01*
X0118386Y0109397D02*
X0118386Y0114597D01*
X0128386Y0114597D02*
X0128386Y0109397D01*
X0138386Y0109397D02*
X0138386Y0114597D01*
X0148386Y0114597D02*
X0148386Y0109397D01*
X0158386Y0109397D02*
X0158386Y0114597D01*
X0168386Y0114597D02*
X0168386Y0109397D01*
X0178386Y0109397D02*
X0178386Y0114597D01*
D19*
X0074488Y0046288D03*
X0086299Y0046288D03*
X0098110Y0046288D03*
X0098110Y0058099D03*
X0086299Y0058099D03*
X0098110Y0069910D03*
X0098110Y0081721D03*
X0098110Y0093532D03*
X0098110Y0105343D03*
X0098110Y0117154D03*
X0098110Y0128965D03*
X0109921Y0128965D03*
X0121732Y0128965D03*
X0133543Y0128965D03*
X0145354Y0128965D03*
X0157165Y0128965D03*
X0168976Y0128965D03*
X0180787Y0128965D03*
X0192598Y0128965D03*
X0192598Y0105343D03*
X0204409Y0105343D03*
X0216220Y0105343D03*
X0216220Y0093532D03*
X0204409Y0093532D03*
X0192598Y0093532D03*
X0192598Y0081721D03*
X0204409Y0081721D03*
X0216220Y0081721D03*
X0216220Y0069910D03*
X0228031Y0069910D03*
X0239843Y0069910D03*
X0251654Y0069910D03*
X0263465Y0069910D03*
X0275276Y0069910D03*
X0287087Y0069910D03*
X0298898Y0069910D03*
X0310709Y0069910D03*
X0322520Y0069910D03*
X0322520Y0081721D03*
X0310709Y0081721D03*
X0310709Y0093532D03*
X0322520Y0093532D03*
X0322520Y0105343D03*
X0310709Y0105343D03*
X0334331Y0152587D03*
X0334331Y0164398D03*
X0334331Y0176209D03*
X0334331Y0188020D03*
X0310709Y0176209D03*
X0298898Y0176209D03*
X0287087Y0176209D03*
X0275276Y0176209D03*
X0263465Y0176209D03*
X0251654Y0176209D03*
X0239843Y0176209D03*
X0228031Y0176209D03*
X0216220Y0176209D03*
X0216220Y0164398D03*
X0216220Y0152587D03*
X0216220Y0188020D03*
X0098110Y0164398D03*
X0098110Y0152587D03*
X0098110Y0140776D03*
X0192598Y0069910D03*
X0204409Y0058099D03*
X0216220Y0058099D03*
X0228031Y0058099D03*
X0239843Y0058099D03*
X0251654Y0058099D03*
X0263465Y0058099D03*
X0275276Y0058099D03*
X0287087Y0058099D03*
X0298898Y0058099D03*
X0310709Y0058099D03*
X0310709Y0046288D03*
X0310709Y0034477D03*
X0180787Y0034477D03*
X0168976Y0034477D03*
X0157165Y0034477D03*
X0145354Y0034477D03*
X0133543Y0034477D03*
X0121732Y0034477D03*
X0121732Y0046288D03*
X0133543Y0046288D03*
X0145354Y0046288D03*
X0157165Y0046288D03*
X0168976Y0046288D03*
M02*
